<?xml version="1.0" standalone="no"?>
<!DOCTYPE svg PUBLIC "-//W3C//DTD SVG 1.1//EN" "http://www.w3.org/Graphics/SVG/1.1/DTD/svg11.dtd" >
<svg xmlns="http://www.w3.org/2000/svg" xmlns:xlink="http://www.w3.org/1999/xlink" version="1.1">
<metadata>
Created by FontForge 20170731 at Sat Mar 14 00:16:15 2015
 By Aleksey,,,
Copyright (c) 2011 by Khaito Gengo. All rights reserved.
</metadata>
<defs>
<font id="AirFactoryRounded-Regular3" horiz-adv-x="536" >
  <font-face 
    font-family="AirFactoryRounded 2"
    font-weight="400"
    font-stretch="normal"
    units-per-em="1000"
    panose-1="2 0 5 3 0 0 0 2 0 3"
    ascent="789"
    descent="-211"
    x-height="430"
    cap-height="700"
    bbox="-173 -279 1161 953"
    underline-thickness="50"
    underline-position="-150"
    unicode-range="U+000D-FB06"
  />
<missing-glyph horiz-adv-x="399" 
 />
    <glyph glyph-name=".notdef" horiz-adv-x="399" 
 />
    <glyph glyph-name=".null" horiz-adv-x="0" 
 />
    <glyph glyph-name=".null" horiz-adv-x="0" 
 />
    <glyph glyph-name="glyph2" horiz-adv-x="333" 
 />
    <glyph glyph-name="nonmarkingreturn" unicode="&#xd;" horiz-adv-x="500" 
 />
    <glyph glyph-name="space" unicode=" " horiz-adv-x="300" 
 />
    <glyph glyph-name="exclam" unicode="!" horiz-adv-x="234" 
d="M72 25q0 19 13 32t32 13t32 -13t13 -32t-13 -32t-32 -13t-32 13t-13 32zM152 176q0 -13 -9 -21.5t-21 -8.5h-11q-12 0 -21 8.5t-9 21.5l-9 494q0 13 9 21.5t21 8.5h29q12 0 21 -8.5t9 -21.5z" />
    <glyph glyph-name="quotedbl" unicode="&#x22;" horiz-adv-x="332" 
d="M37 479l62 194q5 17 24 17q9 0 15 -2l15 -5q19 -7 19 -25q0 -6 -3 -14l-76 -189q-7 -17 -24 -17q-4 0 -16 3q-19 7 -19 24q0 5 3 14zM163 479l62 194q5 17 24 17q9 0 15 -2l15 -5q19 -7 19 -25q0 -6 -3 -14l-76 -189q-7 -17 -24 -17q-4 0 -16 3q-19 7 -19 24q0 5 3 14z
" />
    <glyph glyph-name="numbersign" unicode="#" horiz-adv-x="617" 
d="M566 430h-80l-57 -138h52q13 0 21.5 -9t8.5 -21v-9q0 -12 -8.5 -21t-21.5 -9h-80l-80 -193q-12 -30 -41 -30h-15q-34 0 -34 13l5 17l80 193h-125l-80 -193q-12 -30 -41 -30h-15q-34 0 -34 13l5 17l80 193h-43q-13 0 -21.5 9t-8.5 21v9q0 12 8.5 21t21.5 9h71l57 138h-43
q-13 0 -21.5 9t-8.5 21v9q0 12 8.5 21t21.5 9h72l71 171q12 30 41 30h15q34 0 34 -13l-5 -17l-71 -171h125l71 171q12 30 41 30h15q34 0 34 -13l-5 -17l-71 -171h51q13 0 21.5 -9t8.5 -21v-9q0 -12 -8.5 -21t-21.5 -9zM276 430l-57 -138h125l57 138h-125z" />
    <glyph glyph-name="dollar" unicode="$" horiz-adv-x="525" 
d="M200 -70v55q-48 11 -84.5 41t-53.5 57q-9 15 -9 23q0 12 9 21l16 16q9 9 21 9q4 0 8.5 -3t6.5 -6l3 -3q1 -1 6.5 -8t10.5 -12.5t13.5 -14.5t18 -15.5t21 -12.5t26 -9.5t29.5 -3.5q55 0 91 33.5t36 82.5q0 35 -13.5 62.5t-35.5 43.5t-50 31.5t-57 26.5t-57 27.5t-50 36.5
t-35.5 52.5t-13.5 74.5q0 65 40.5 115.5t102.5 64.5v55q0 13 9 21.5t21 8.5h24q12 0 21 -8.5t9 -21.5v-55q66 -15 105 -68q9 -9 9 -22q0 -12 -9 -21l-19 -19q-9 -9 -21 -9q-4 0 -8.5 3t-6.5 6l-3 3q-13 15 -22 23.5t-27 16t-40 7.5q-41 0 -70.5 -29.5t-29.5 -70.5
q0 -39 32 -69t77.5 -52t91 -48t77.5 -73.5t32 -112.5q0 -73 -47 -127.5t-121 -68.5v-54q0 -13 -9 -21.5t-21 -8.5h-24q-12 0 -21 8.5t-9 21.5z" />
    <glyph glyph-name="percent" unicode="%" horiz-adv-x="692" 
d="M489 -20q-63 0 -100.5 50t-37.5 135q0 84 38 134.5t100 50.5t100 -50.5t38 -134.5q0 -85 -38 -135t-100 -50zM489 287q-30 0 -49.5 -34t-19.5 -88t19.5 -88t49.5 -34t49 34t19 88t-19 88t-49 34zM176 350q-63 0 -100.5 50t-37.5 135q0 84 38 134.5t100 50.5t100 -50.5
t38 -134.5q0 -85 -38 -135t-100 -50zM176 657q-30 0 -49.5 -34t-19.5 -88t19.5 -88t49.5 -34t49 34t19 88t-19 88t-49 34zM211 30q-17 -30 -42 -30h-8q-30 0 -30 13q0 7 5 17l320 640q15 30 42 30h8q30 0 30 -13l-5 -17z" />
    <glyph glyph-name="ampersand" unicode="&#x26;" horiz-adv-x="626" 
d="M365 529q0 43 -28 75t-71 32q-40 0 -73.5 -29t-33.5 -78q0 -35 17.5 -59.5t61.5 -63.5q70 22 98.5 58t28.5 65zM393 141l-189 183q-73 -47 -73 -123q0 -57 40 -97t97 -40q40 0 74 21.5t51 55.5zM595 380l7 1q23 0 23 -31v-25q0 -25 -30 -30q-41 -8 -74 -44.5t-34 -89.5
l127 -125q12 -11 12 -23q0 -13 -28 -13h-43q-16 0 -43 27l-57 56q-30 -48 -80 -75.5t-107 -27.5q-92 0 -156.5 65t-64.5 156q0 106 102 176q-74 61 -74 152q0 79 56 135t135 56q78 0 130.5 -55.5t52.5 -135.5q0 -124 -154 -179l120 -118q21 63 70 101t110 47z" />
    <glyph glyph-name="quotesingle" unicode="'" horiz-adv-x="206" 
d="M37 479l62 194q5 17 24 17q9 0 15 -2l15 -5q19 -7 19 -25q0 -6 -3 -14l-76 -189q-7 -17 -24 -17q-4 0 -16 3q-19 7 -19 24q0 5 3 14z" />
    <glyph glyph-name="parenleft" unicode="(" horiz-adv-x="360" 
d="M74 265q0 78 11 143t27 107.5t41 76.5t45 51.5t46 31t38 16.5l28 7q5 1 6 1q12 0 18 -9.5t6 -21.5v-15q0 -23 -30 -30q-163 -43 -163 -358t163 -358q30 -7 30 -30v-15q0 -12 -6 -21.5t-18 -9.5l-6 1l-28 7t-38 16.5t-46 31t-45 51.5t-41 76.5t-27 107.5t-11 143z" />
    <glyph glyph-name="parenright" unicode=")" horiz-adv-x="396" 
d="M306 265q0 -78 -11 -143t-27 -107.5t-41 -76.5t-45 -51.5t-46 -31t-38 -16.5l-28 -7q-5 -1 -6 -1q-12 0 -18 9.5t-6 21.5v15q0 23 30 30q163 43 163 358t-163 358q-30 7 -30 30v15q0 12 6 21.5t18 9.5l6 -1l28 -7t38 -16.5t46 -31t45 -51.5t41 -76.5t27 -107.5t11 -143z
" />
    <glyph glyph-name="asterisk" unicode="*" horiz-adv-x="374" 
d="M57 436l92 84l-92 84q-10 9 -10 20t8 19l7 7q9 9 21 9t21 -9l54 -60l-4 80q0 3 1 8t8.5 13.5t20.5 8.5h6q13 0 20.5 -7.5t8.5 -14.5l1 -8l-4 -80l54 60q9 9 21 9t21 -9l7 -7q8 -8 8 -19t-10 -20l-92 -84l92 -84q10 -9 10 -20t-8 -19l-7 -7q-9 -9 -21 -9t-21 9l-54 60
l4 -80q0 -3 -1 -8t-8.5 -13.5t-20.5 -8.5h-6q-13 0 -20.5 7.5t-8.5 14.5l-1 8l4 80l-54 -60q-9 -9 -21 -9t-21 9l-7 7q-8 8 -8 19t10 20z" />
    <glyph glyph-name="plus" unicode="+" horiz-adv-x="460" 
d="M396 361h-129v-131q0 -13 -9 -21.5t-21 -8.5h-14q-12 0 -21 8.5t-9 21.5v131h-129q-13 0 -21.5 9t-8.5 21v9q0 12 8.5 21t21.5 9h129v131q0 13 9 21.5t21 8.5h14q12 0 21 -8.5t9 -21.5v-131h129q13 0 21.5 -9t8.5 -21v-9q0 -12 -8.5 -21t-21.5 -9z" />
    <glyph glyph-name="comma" unicode="," horiz-adv-x="221" 
d="M50 -73l51 164q5 17 24 17l16 -2l14 -5q19 -7 19 -25q0 -6 -3 -14l-65 -159q-7 -17 -24 -17q-4 0 -16 3q-19 7 -19 24q0 5 3 14z" />
    <glyph glyph-name="hyphen" unicode="-" horiz-adv-x="271" 
d="M231 250h-191q-13 0 -21.5 9t-8.5 21v9q0 12 8.5 21t21.5 9h191q13 0 21.5 -9t8.5 -21v-9q0 -12 -8.5 -21t-21.5 -9z" />
    <glyph glyph-name="period" unicode="." horiz-adv-x="138" 
d="M24 45q0 19 13 32t32 13t32 -13t13 -32t-13 -32t-32 -13t-32 13t-13 32z" />
    <glyph glyph-name="slash" unicode="/" horiz-adv-x="360" 
d="M365 670l-265 -640q-12 -30 -41 -30h-15q-34 0 -34 13l5 17l265 640q12 30 41 30h15q34 0 34 -13z" />
    <glyph glyph-name="zero" unicode="0" horiz-adv-x="586" 
d="M544 350q0 -174 -70 -272t-181 -98t-181 98t-70 272t70 272t181 98t181 -98t70 -272zM131 350q0 -120 43.5 -203t118.5 -83t118.5 83t43.5 203t-43.5 203t-118.5 83t-118.5 -83t-43.5 -203z" />
    <glyph glyph-name="one" unicode="1" horiz-adv-x="312" 
d="M229 672v-642q0 -13 -9 -21.5t-21 -8.5h-24q-12 0 -21 8.5t-9 21.5v495l-43 -43q-9 -9 -21 -9t-21 9l-18 18q-9 9 -9 21q0 13 9 22l139 139q28 28 37 28q11 0 11 -38z" />
    <glyph glyph-name="two" unicode="2" horiz-adv-x="500" 
d="M412 0h-346q-38 0 -38 11t25 37q12 12 31 33t68.5 81t87.5 114.5t69 121t31 113.5q0 52 -37 89t-89 37q-32 0 -56.5 -14.5t-35 -29t-28.5 -45.5q-6 -9 -21 -9q-12 0 -21 9l-18 18q-9 9 -9 21q0 13 7 25q23 43 71.5 75.5t110.5 32.5q86 0 147.5 -61.5t61.5 -147.5
q0 -53 -24 -117.5t-58.5 -118t-69 -99t-58.5 -71.5l-24 -26h223q12 0 21 -8.5t9 -21.5v-19q0 -13 -9 -21.5t-21 -8.5z" />
    <glyph glyph-name="three" unicode="3" horiz-adv-x="514" 
d="M63 549q10 69 65 120t134 51q83 0 142 -59t59 -142q0 -101 -81 -162q81 -64 81 -166q0 -87 -62 -149t-149 -62q-82 0 -139 52.5t-70 128.5q-1 7 -1 9q0 10 8.5 15.5t20.5 5.5h27q23 0 30 -30q9 -38 42.5 -67.5t81.5 -29.5q52 0 89.5 37t37.5 90q0 43 -27 78.5t-60 44.5
q-30 9 -30 30v32q0 22 30 30q33 7 60 37.5t27 75.5q0 49 -34 83t-83 34q-45 0 -74.5 -26.5t-38.5 -60.5q-7 -30 -30 -30h-28q-11 0 -20 5.5t-9 15.5z" />
    <glyph glyph-name="four" unicode="4" horiz-adv-x="528" 
d="M163 275h199v237zM446 672v-397h55q12 0 21 -8.5t9 -21.5v-19q0 -13 -9 -21.5t-21 -8.5h-55v-166q0 -13 -9 -21.5t-21 -8.5h-24q-12 0 -21 8.5t-9 21.5v166h-315q-38 0 -38 11q0 8 26 39l364 436q23 28 36 28q11 0 11 -38z" />
    <glyph glyph-name="five" unicode="5" 
d="M119 700h287q12 0 21 -8.5t9 -21.5v-19q0 -13 -9 -21.5t-21 -8.5h-238l-27 -177q37 23 96 23q101 0 172.5 -71.5t71.5 -172.5t-71.5 -172t-172.5 -71q-111 0 -186 86q-9 9 -9 21t9 21l18 17q9 9 21 9q13 0 20 -9q13 -20 47 -41t80 -21q67 0 114 46.5t47 113.5t-47 114
t-114 47t-161 -45q-23 -11 -30 -11q-9 0 -9 10l2 14l50 318q5 30 30 30z" />
    <glyph glyph-name="six" unicode="6" horiz-adv-x="582" 
d="M291 382q-67 0 -114 -46.5t-47 -112.5q0 -67 47 -113.5t114 -46.5t114 46.5t47 113.5q0 66 -47 112.5t-114 46.5zM61 304l139 366q9 30 34 30h27q24 0 24 -23q0 -7 -4 -15l-81 -214q43 17 91 17q101 0 172.5 -71t71.5 -172q0 -100 -71.5 -171t-172.5 -71t-172.5 71
t-71.5 171q0 42 14 82z" />
    <glyph glyph-name="seven" unicode="7" horiz-adv-x="548" 
d="M50 700h425q38 0 38 -11q0 -7 -21 -44l-344 -615q-16 -30 -42 -30h-35q-31 0 -31 13q0 7 11 25l335 583h-336q-12 0 -21 8.5t-9 21.5v19q0 13 9 21.5t21 8.5z" />
    <glyph glyph-name="eight" unicode="8" horiz-adv-x="586" 
d="M184 529q0 -44 31.5 -75.5t75.5 -31.5t75.5 31.5t31.5 75.5t-31.5 75.5t-75.5 31.5t-75.5 -31.5t-31.5 -75.5zM168 383q-68 57 -68 146q0 79 56 135t135 56t135 -56t56 -135q0 -86 -66 -144q45 -31 71.5 -79t26.5 -105q0 -91 -65 -156t-156 -65t-156 65t-65 156
q0 56 26 103.5t70 78.5zM156 201q0 -57 40 -97t97 -40t97 40t40 97t-40 97t-97 40t-97 -40t-40 -97z" />
    <glyph glyph-name="nine" unicode="9" horiz-adv-x="598" 
d="M299 318q67 0 114 46.5t47 112.5q0 67 -47 113.5t-114 46.5t-114 -46.5t-47 -113.5q0 -66 47 -112.5t114 -46.5zM529 396l-139 -366q-9 -30 -34 -30h-27q-24 0 -24 23q0 7 4 15l81 214q-43 -17 -91 -17q-101 0 -172.5 71t-71.5 172q0 100 71.5 171t172.5 71t172.5 -71
t71.5 -171q0 -42 -14 -82z" />
    <glyph glyph-name="colon" unicode=":" horiz-adv-x="262" 
d="M86 346q0 19 13 32t32 13t32 -13t13 -32t-13 -32t-32 -13t-32 13t-13 32zM86 45q0 19 13 32t32 13t32 -13t13 -32t-13 -32t-32 -13t-32 13t-13 32z" />
    <glyph glyph-name="semicolon" unicode=";" horiz-adv-x="256" 
d="M78 346q0 19 13 32t32 13t32 -13t13 -32t-13 -32t-32 -13t-32 13t-13 32zM24 -73l51 164q5 17 24 17q9 0 15 -2l15 -5q19 -7 19 -25q0 -6 -3 -14l-65 -159q-7 -17 -24 -17q-4 0 -16 3q-19 7 -19 24q0 5 3 14z" />
    <glyph glyph-name="less" unicode="&#x3c;" horiz-adv-x="421" 
d="M47 340q0 6 18 21l296 239q20 16 27 16q13 0 13 -38v-30q0 -9 -7.5 -20t-15.5 -18l-7 -7l-200 -163l200 -163q30 -25 30 -45v-30q0 -38 -13 -38q-3 0 -10 4t-12 8l-5 4l-296 239q-18 15 -18 21z" />
    <glyph glyph-name="equal" unicode="=" horiz-adv-x="489" 
d="M409 292h-331q-13 0 -21.5 9t-8.5 21v9q0 12 8.5 21t21.5 9h331q13 0 21.5 -9t8.5 -21v-9q0 -12 -8.5 -21t-21.5 -9zM409 430h-331q-13 0 -21.5 9t-8.5 21v9q0 12 8.5 21t21.5 9h331q13 0 21.5 -9t8.5 -21v-9q0 -12 -8.5 -21t-21.5 -9z" />
    <glyph glyph-name="greater" unicode="&#x3e;" horiz-adv-x="421" 
d="M374 340q0 -6 -18 -21l-296 -239q-20 -16 -27 -16q-13 0 -13 38v30q0 9 7.5 20t14.5 18l8 7l200 163l-200 163q-30 25 -30 45v30q0 38 13 38q3 0 10 -4t12 -8l5 -4l296 -239q18 -15 18 -21z" />
    <glyph glyph-name="question" unicode="?" horiz-adv-x="456" 
d="M159 25q0 19 13 32t32 13t32 -13t13 -32t-13 -32t-32 -13t-32 13t-13 32zM241 176q0 -13 -9 -21.5t-21 -8.5h-14q-12 0 -21 8.5t-9 21.5v65q0 32 16.5 61.5t40 52.5t46.5 45.5t39.5 49.5t16.5 56q0 68 -35.5 100t-86.5 32q-56 0 -100 -37q-9 -9 -21 -9t-21 9l-13 12
q-12 12 -12 24t9 21q65 62 158 62q91 0 148 -59t57 -155q0 -43 -17.5 -79t-42 -60t-49 -46t-42 -50t-17.5 -60v-35z" />
    <glyph glyph-name="at" unicode="@" horiz-adv-x="864" 
d="M543 350q0 39 -22.5 67t-47.5 38t-47 10q-42 0 -72.5 -35.5t-30.5 -79.5t30.5 -80t72.5 -36q23 0 47.5 8.5t47 36.5t22.5 71zM607 491v-241q0 -12 6.5 -20.5t16.5 -8.5q36 0 54.5 51t18.5 118q0 94 -74 170t-187 76q-118 0 -199.5 -83.5t-81.5 -202.5q0 -121 77.5 -203.5
t203.5 -82.5q84 0 151 23t95 43q13 9 22 9q10 0 21 -11l18 -18q9 -9 9 -20q0 -15 -9 -21q-43 -36 -122.5 -62.5t-184.5 -26.5q-153 0 -261.5 108.5t-108.5 261.5t108.5 261.5t261.5 108.5q147 0 248.5 -100.5t101.5 -229.5q0 -107 -40.5 -178t-121.5 -71q-40 0 -68.5 15
t-28.5 43v18q-46 -56 -107 -56q-78 0 -127.5 54.5t-49.5 134.5q0 79 50 133t127 54q67 0 107 -57v11q0 13 9 21.5t21 8.5h14q12 0 21 -8.5t9 -21.5z" />
    <glyph glyph-name="A" unicode="A" horiz-adv-x="552" 
d="M280 505l-4 20l-4 -20l-97 -255h202zM406 171h-260l-54 -141q-11 -30 -36 -30h-18q-34 0 -34 13l3 17l251 662q5 18 18 18q6 0 10.5 -4.5t5.5 -9.5l2 -4l251 -662q3 -10 3 -17q0 -13 -34 -13h-18q-25 0 -36 30z" />
    <glyph glyph-name="B" unicode="B" horiz-adv-x="584" 
d="M174 307v-228h87q91 0 129 25.5t38 88.5q0 57 -39.5 85.5t-127.5 28.5h-87zM174 386h67q70 0 103 26.5t33 90.5q0 52 -33 85t-103 33h-67v-235zM120 700h121q104 0 162.5 -49.5t58.5 -147.5q0 -50 -26.5 -92.5t-61.5 -51.5q54 -8 96 -54t42 -112q0 -51 -17.5 -88t-43 -57
t-67 -31t-77 -14t-86.5 -3h-101q-12 0 -21 8.5t-9 21.5v640q0 13 9 21.5t21 8.5z" />
    <glyph glyph-name="C" unicode="C" horiz-adv-x="721" 
d="M442 -20q-153 0 -261.5 108.5t-108.5 261.5t108.5 261.5t261.5 108.5q83 0 159 -37q30 -15 30 -39v-29q0 -34 -13 -34l-26 12q-68 43 -150 43q-118 0 -199.5 -83.5t-81.5 -202.5t81.5 -202.5t199.5 -83.5q82 0 150 43q19 12 26 12q13 0 13 -34v-29q0 -24 -30 -39
q-76 -37 -159 -37z" />
    <glyph glyph-name="D" unicode="D" horiz-adv-x="694" 
d="M272 0h-152q-12 0 -21 8.5t-9 21.5v640q0 13 9 21.5t21 8.5h152q156 0 253 -101t97 -249t-97 -249t-253 -101zM174 79h98q115 0 190.5 81.5t75.5 189.5t-75.5 189.5t-190.5 81.5h-98v-542z" />
    <glyph glyph-name="E" unicode="E" horiz-adv-x="565" 
d="M452 0h-332q-12 0 -21 8.5t-9 21.5v640q0 13 9 21.5t21 8.5h332q12 0 21 -8.5t9 -21.5v-19q0 -13 -9 -21.5t-21 -8.5h-278v-210h248q12 0 21 -8.5t9 -21.5v-19q0 -13 -9 -21.5t-21 -8.5h-248v-253h278q12 0 21 -8.5t9 -21.5v-19q0 -13 -9 -21.5t-21 -8.5z" />
    <glyph glyph-name="F" unicode="F" horiz-adv-x="532" 
d="M144 0h-24q-12 0 -21 8.5t-9 21.5v640q0 13 9 21.5t21 8.5h332q12 0 21 -8.5t9 -21.5v-19q0 -13 -9 -21.5t-21 -8.5h-278v-210h248q12 0 21 -8.5t9 -21.5v-19q0 -13 -9 -21.5t-21 -8.5h-248v-302q0 -13 -9 -21.5t-21 -8.5z" />
    <glyph glyph-name="G" unicode="G" horiz-adv-x="805" 
d="M715 280v-136q0 -45 -26 -70q-52 -48 -118.5 -71t-128.5 -23q-153 0 -261.5 108.5t-108.5 261.5t108.5 261.5t261.5 108.5q148 0 252 -99q9 -9 9 -21t-9 -21l-18 -17q-9 -9 -21 -9t-21 9q-32 30 -83.5 52t-108.5 22q-118 0 -202 -84t-84 -202t84 -202t202 -84
q109 0 189 72v144q0 13 9 21.5t21 8.5h24q12 0 21 -8.5t9 -21.5z" />
    <glyph glyph-name="H" unicode="H" horiz-adv-x="678" 
d="M503 30v280h-329v-280q0 -13 -9 -21.5t-21 -8.5h-24q-12 0 -21 8.5t-9 21.5v640q0 13 9 21.5t21 8.5h24q12 0 21 -8.5t9 -21.5v-281h329v281q0 13 9 21.5t21 8.5h24q12 0 21 -8.5t9 -21.5v-640q0 -13 -9 -21.5t-21 -8.5h-24q-12 0 -21 8.5t-9 21.5z" />
    <glyph glyph-name="I" unicode="I" horiz-adv-x="264" 
d="M90 30v640q0 13 9 21.5t21 8.5h24q12 0 21 -8.5t9 -21.5v-640q0 -13 -9 -21.5t-21 -8.5h-24q-12 0 -21 8.5t-9 21.5z" />
    <glyph glyph-name="J" unicode="J" horiz-adv-x="414" 
d="M71 121q3 -9 9.5 -19t26.5 -24t46 -14q37 0 62 29t25 78v450h-144q-12 0 -21 8.5t-9 21.5v19q0 13 9 21.5t21 8.5h198q12 0 21 -8.5t9 -21.5v-529q0 -64 -50.5 -112.5t-120.5 -48.5q-73 0 -120.5 50.5t-47.5 95.5q0 25 30 25h24q20 0 32 -30z" />
    <glyph glyph-name="K" unicode="K" horiz-adv-x="600" 
d="M90 30v640q0 13 9 21.5t21 8.5h24q12 0 21 -8.5t9 -21.5v-293l229 293q2 2 6.5 7.5t6.5 7.5l6 6t6.5 5t7 2.5t8.5 1.5h41q39 0 39 -13q0 -3 -2.5 -8t-5.5 -8l-2 -3l-240 -303l269 -333q10 -12 10 -19q0 -13 -39 -13h-34q-4 0 -8.5 1.5t-7 2.5t-6.5 5l-6 6t-6.5 7.5
t-6.5 7.5l-219 266l-46 -59v-207q0 -13 -9 -21.5t-21 -8.5h-24q-12 0 -21 8.5t-9 21.5z" />
    <glyph glyph-name="L" unicode="L" horiz-adv-x="531" 
d="M120 700h24q12 0 21 -8.5t9 -21.5v-591h291q12 0 21 -8.5t9 -21.5v-19q0 -13 -9 -21.5t-21 -8.5h-345q-12 0 -21 8.5t-9 21.5v640q0 13 9 21.5t21 8.5z" />
    <glyph glyph-name="M" unicode="M" horiz-adv-x="856" 
d="M428 -10q-7 0 -14.5 7.5t-11.5 14.5l-4 8l-198 392l-11 40v-40l-26 -382q-1 -12 -10 -21t-23 -9h-23q-10 0 -19 9t-9 19l43 644q2 38 11 38q4 0 9 -6t8 -12l3 -5l265 -529l10 -40l10 40l265 529q11 23 20 23q4 0 6.5 -9.5t3.5 -18.5l1 -10l43 -644q0 -10 -9 -19t-19 -9
h-23q-14 0 -23 9t-10 21l-26 382v40l-11 -40l-198 -392q-15 -30 -30 -30z" />
    <glyph glyph-name="N" unicode="N" horiz-adv-x="715" 
d="M581 13l-399 481l-13 30l5 -30v-464q0 -12 -8.5 -21t-21.5 -9h-24q-13 0 -21.5 9t-8.5 21v642q0 38 11 38q6 0 14 -6t13 -12l6 -5l399 -481l13 -30l-5 30v464q0 12 8.5 21t21.5 9h24q13 0 21.5 -9t8.5 -21v-642q0 -38 -11 -38q-15 0 -33 23z" />
    <glyph glyph-name="O" unicode="O" horiz-adv-x="884" 
d="M812 350q0 -153 -109.5 -261.5t-260.5 -108.5q-153 0 -261.5 108.5t-108.5 261.5t108.5 261.5t261.5 108.5q152 0 261 -108t109 -262zM161 350q0 -119 81.5 -202.5t199.5 -83.5q117 0 199 83.5t82 202.5t-82 202.5t-199 83.5q-118 0 -199.5 -83.5t-81.5 -202.5z" />
    <glyph glyph-name="P" unicode="P" horiz-adv-x="540" 
d="M174 621v-228h87q69 0 100.5 33.5t31.5 80.5q0 114 -132 114h-87zM174 314v-284q0 -13 -9 -21.5t-21 -8.5h-24q-12 0 -21 8.5t-9 21.5v640q0 13 9 21.5t21 8.5h101q44 0 75.5 -3t69 -14t61 -31t39.5 -57t16 -88q0 -38 -11.5 -70t-38 -61t-75.5 -45.5t-116 -16.5h-67z" />
    <glyph glyph-name="Q" unicode="Q" horiz-adv-x="859" 
d="M161 350q0 -119 81.5 -202.5t199.5 -83.5q117 0 199 83.5t82 202.5t-82 202.5t-199 83.5q-118 0 -199.5 -83.5t-81.5 -202.5zM731 -118l-133 133q-75 -35 -156 -35q-153 0 -261.5 108.5t-108.5 261.5t108.5 261.5t261.5 108.5q152 0 261 -108t109 -262
q0 -86 -37.5 -161.5t-102.5 -127.5l119 -119q9 -9 9 -21t-9 -21l-18 -18q-9 -9 -21 -9t-21 9z" />
    <glyph glyph-name="R" unicode="R" horiz-adv-x="534" 
d="M174 621v-228h87q69 0 100.5 33.5t31.5 80.5q0 114 -132 114h-87zM331 323l150 -287q6 -12 6 -23q0 -13 -34 -13h-26q-21 0 -37 31l-149 283h-67v-284q0 -13 -9 -21.5t-21 -8.5h-24q-12 0 -21 8.5t-9 21.5v640q0 13 9 21.5t21 8.5h101q44 0 75.5 -3t69 -14t61 -31
t39.5 -57t16 -88q0 -64 -36 -114.5t-115 -69.5z" />
    <glyph glyph-name="S" unicode="S" horiz-adv-x="583" 
d="M62 93q-9 9 -9 21t9 21l19 19q9 9 21 9q5 0 9.5 -2.5t6.5 -4.5l3 -3q2 -2 10 -12t14.5 -16t17.5 -16.5t23 -17.5t27.5 -14.5t34.5 -11t40 -3.5q62 0 96.5 36t34.5 86q0 41 -35 73t-85 55.5t-100 49.5t-85 67.5t-35 96.5q0 71 60.5 132.5t159.5 61.5q39 0 69.5 -8.5
t45 -17.5t36.5 -26q9 -9 9 -21t-9 -21l-19 -19q-9 -9 -21 -9q-4 0 -9.5 2t-8.5 4l-3 3q-42 29 -96 29q-55 0 -90 -36.5t-35 -73.5q0 -31 25 -56.5t63 -43t82 -41t82 -47.5t63 -64t25 -90q0 -82 -59 -143t-161 -61q-77 0 -135.5 36t-90.5 77z" />
    <glyph glyph-name="T" unicode="T" horiz-adv-x="468" 
d="M192 30v591h-151q-12 0 -21 8.5t-9 21.5v19q0 13 9 21.5t21 8.5h386q12 0 21 -8.5t9 -21.5v-19q0 -13 -9 -21.5t-21 -8.5h-151v-591q0 -12 -8.5 -21t-21.5 -9h-24q-13 0 -21.5 9t-8.5 21z" />
    <glyph glyph-name="U" unicode="U" horiz-adv-x="676" 
d="M586 670v-446q0 -96 -69.5 -170t-178.5 -74t-178.5 74t-69.5 170v446q0 13 9 21.5t21 8.5h24q12 0 21 -8.5t9 -21.5v-417q0 -81 44 -135t120 -54t120 54t44 135v417q0 13 9 21.5t21 8.5h24q12 0 21 -8.5t9 -21.5z" />
    <glyph glyph-name="V" unicode="V" horiz-adv-x="553" 
d="M97 670l175 -475l4 -20l4 20l175 475q11 30 36 30h23q34 0 34 -13l-3 -17l-251 -662q-4 -18 -18 -18t-18 18l-251 662q-3 10 -3 17q0 13 34 13h23q25 0 36 -30z" />
    <glyph glyph-name="W" unicode="W" horiz-adv-x="895" 
d="M454 476l-7 40l-7 -40l-166 -468q-5 -18 -17 -18q-5 0 -9.5 4.5t-5.5 9.5l-2 4l-233 662q-3 10 -3 17q0 13 34 13h22q25 0 36 -30l154 -446l7 -40l7 40l166 468q6 18 17 18q5 0 9 -4.5t6 -9.5l2 -4l166 -468l7 -40l7 40l154 446q11 30 36 30h22q34 0 34 -13l-3 -17
l-233 -662q-5 -18 -17 -18q-5 0 -9.5 4.5t-5.5 9.5l-2 4z" />
    <glyph glyph-name="X" unicode="X" horiz-adv-x="555" 
d="M139 670l138 -223l138 223q19 30 37 30h33q38 0 38 -13q0 -3 -2.5 -8.5t-5.5 -9.5l-3 -4l-185 -299l205 -331q11 -15 11 -22q0 -13 -38 -13h-33q-8 0 -17 7.5t-15 14.5l-5 8l-158 255l-158 -255q-19 -30 -37 -30h-33q-38 0 -38 13q0 3 2.5 8.5t5.5 9.5l3 4l205 331
l-185 299q-11 15 -11 22q0 13 38 13h33q8 0 17.5 -7.5t14.5 -14.5z" />
    <glyph glyph-name="Y" unicode="Y" horiz-adv-x="530" 
d="M105 670l160 -244l160 244q20 30 37 30h33q38 0 38 -13q0 -3 -2.5 -8.5t-5.5 -9.5l-3 -4l-215 -330v-305q0 -12 -8.5 -21t-21.5 -9h-24q-13 0 -21.5 9t-8.5 21v305l-215 330q-11 15 -11 22q0 13 38 13h33q8 0 17.5 -7.5t14.5 -14.5z" />
    <glyph glyph-name="Z" unicode="Z" horiz-adv-x="641" 
d="M443 621h-335q-12 0 -21 8.5t-9 21.5v19q0 13 9 21.5t21 8.5h438q38 0 38 -11q0 -8 -22 -41l-371 -569h343q12 0 21 -8.5t9 -21.5v-19q0 -13 -9 -21.5t-21 -8.5h-446q-38 0 -38 11q0 8 22 41z" />
    <glyph glyph-name="bracketleft" unicode="[" horiz-adv-x="360" 
d="M310 -170h-206q-12 0 -21 8.5t-9 21.5v810q0 13 9 21.5t21 8.5h206q12 0 21 -8.5t9 -21.5v-19q0 -13 -9 -21.5t-21 -8.5h-162v-712h162q12 0 21 -8.5t9 -21.5v-19q0 -13 -9 -21.5t-21 -8.5z" />
    <glyph glyph-name="backslash" unicode="\" horiz-adv-x="363" 
d="M280 30l-265 640q-5 12 -5 17q0 13 34 13h15q29 0 41 -30l265 -640q5 -11 5 -17q0 -13 -34 -13h-15q-29 0 -41 30z" />
    <glyph glyph-name="bracketright" unicode="]" horiz-adv-x="360" 
d="M256 -170h-206q-12 0 -21 8.5t-9 21.5v19q0 13 9 21.5t21 8.5h162v712h-162q-12 0 -21 8.5t-9 21.5v19q0 13 9 21.5t21 8.5h206q12 0 21 -8.5t9 -21.5v-810q0 -13 -9 -21.5t-21 -8.5z" />
    <glyph glyph-name="asciicircum" unicode="^" horiz-adv-x="588" 
d="M294 713q6 0 21 -18l239 -296q16 -20 16 -27q0 -13 -38 -13h-30q-9 0 -20 7.5t-18 15.5l-7 7l-163 200l-163 -200q-25 -30 -45 -30h-30q-38 0 -38 13q0 3 4 10t8 12l4 5l239 296q15 18 21 18z" />
    <glyph glyph-name="underscore" unicode="_" horiz-adv-x="561" 
d="M511 0h-461q-13 0 -21.5 9t-8.5 21v9q0 12 8.5 21t21.5 9h461q13 0 21.5 -9t8.5 -21v-9q0 -12 -8.5 -21t-21.5 -9z" />
    <glyph glyph-name="grave" unicode="`" horiz-adv-x="460" 
d="M150 657l107 -114q12 -12 12 -21q0 -6 -6 -13q-9 -10 -16 -10q-8 0 -17 7l-122 95q-12 10 -12 22q0 11 6 18l10 12q8 11 21 11q8 0 17 -7z" />
    <glyph glyph-name="a" unicode="a" horiz-adv-x="466" 
d="M332 147v30q-39 17 -105 17q-106 0 -106 -75q0 -26 23.5 -43t63.5 -17q38 0 72.5 23t51.5 65zM94 419q55 31 134 31q92 0 135 -48.5t43 -122.5v-249q0 -13 -9 -21.5t-21 -8.5h-14q-12 0 -21 8.5t-9 21.5v20q-39 -65 -124 -65q-72 0 -116.5 37.5t-44.5 96.5q0 73 52 107
t132 34q62 0 101 -14v43q0 40 -35 64.5t-69 24.5q-52 0 -80 -14q-14 -8 -22 -8q-12 0 -23 11l-12 13q-7 7 -7 18q0 14 10 21z" />
    <glyph glyph-name="b" unicode="b" 
d="M124 216q0 -45 15.5 -78.5t39.5 -49.5t46.5 -23.5t42.5 -7.5q66 0 107 45.5t41 113.5t-41 112t-107 44q-20 0 -43 -8t-46.5 -24.5t-39 -49t-15.5 -74.5zM60 30v650q0 13 9 21.5t21 8.5h14q12 0 21 -8.5t9 -21.5v-299q23 29 59 47t75 18q97 0 159 -66t62 -164
q0 -99 -62 -165t-159 -66q-42 0 -77.5 19.5t-56.5 45.5v-20q0 -13 -9 -21.5t-21 -8.5h-14q-12 0 -21 8.5t-9 21.5z" />
    <glyph glyph-name="c" unicode="c" horiz-adv-x="457" 
d="M47 216q0 97 69 165.5t167 68.5q42 0 89 -17q30 -9 30 -36v-33q0 -20 -15 -20q-3 0 -15 7q-42 27 -89 27q-67 0 -114.5 -47.5t-47.5 -114.5t47.5 -114.5t114.5 -47.5q46 0 88 26q13 8 16 8q15 0 15 -20v-35q0 -27 -30 -36q-47 -17 -89 -17q-98 0 -167 69.5t-69 166.5z
" />
    <glyph glyph-name="d" unicode="d" 
d="M413 216q0 42 -15.5 74.5t-39 49t-46.5 24.5t-43 8q-66 0 -107 -44t-41 -112t41 -113.5t107 -45.5q20 0 42.5 7.5t46.5 23.5t39.5 49.5t15.5 78.5zM477 30q0 -13 -9 -21.5t-21 -8.5h-14q-12 0 -21 8.5t-9 21.5v20q-21 -26 -56.5 -45.5t-77.5 -19.5q-97 0 -159 66t-62 165
q0 98 62 164t159 66q39 0 75 -18t59 -47v299q0 13 9 21.5t21 8.5h14q12 0 21 -8.5t9 -21.5v-650z" />
    <glyph glyph-name="e" unicode="e" horiz-adv-x="524" 
d="M124 246h276q-29 132 -138 132t-138 -132zM262 54q78 0 132 61q9 9 21 9t21 -9l10 -10q9 -9 9 -21q0 -10 -9 -21q-71 -83 -184 -83q-96 0 -155.5 67.5t-59.5 167.5t59.5 167.5t155.5 67.5t155.5 -68t59.5 -170q0 -13 -9 -21.5t-21 -8.5h-323q1 -5 3 -13.5t12 -31
t23.5 -39t40 -30.5t59.5 -14z" />
    <glyph glyph-name="f" unicode="f" horiz-adv-x="311" 
d="M271 707q13 0 21.5 -9t8.5 -21v-14q0 -22 -30 -30q-40 -11 -67 -37t-27 -64v-102h94q13 0 21.5 -9t8.5 -21v-9q0 -12 -8.5 -21t-21.5 -9h-94v-331q0 -13 -9 -21.5t-21 -8.5h-14q-12 0 -21 8.5t-9 21.5v331h-39q-13 0 -21.5 9t-8.5 21v9q0 12 8.5 21t21.5 9h39v80
q0 46 15 82.5t36.5 57t46.5 34.5t42.5 18.5t27.5 4.5z" />
    <glyph glyph-name="g" unicode="g" horiz-adv-x="470" 
d="M131 279q0 -41 29.5 -70.5t69.5 -29.5q41 0 70.5 29.5t29.5 70.5t-29.5 70t-70.5 29t-70 -29t-29 -70zM122 -35q3 -9 9 -20.5t18.5 -27t34 -25.5t47.5 -10q46 0 79.5 34t33.5 80q0 48 -33 79.5t-80 31.5q-73 0 -122.5 49.5t-49.5 121.5t50 122t121 50q65 0 113 -42l21 21
q9 9 21 9t21 -9l8 -8q9 -9 9 -21t-9 -21l-28 -28q16 -37 16 -75q0 -79 -61 -130q75 -55 75 -151q0 -77 -53.5 -131t-130.5 -54q-74 0 -125 47t-59 108q-1 7 -1 9q0 10 8.5 15.5t20.5 5.5h16q21 0 30 -30z" />
    <glyph glyph-name="h" unicode="h" horiz-adv-x="494" 
d="M434 30q0 -13 -9 -21.5t-21 -8.5h-14q-12 0 -21 8.5t-9 21.5v181q0 40 -8 73.5t-33 61t-66 27.5q-74 0 -119 -94v-249q0 -13 -9 -21.5t-21 -8.5h-14q-12 0 -21 8.5t-9 21.5v650q0 13 9 21.5t21 8.5h14q12 0 21 -8.5t9 -21.5v-298q25 29 59 46t60 17q181 0 181 -214v-201z
" />
    <glyph glyph-name="i" unicode="i" horiz-adv-x="196" 
d="M53 533q0 19 13 32t32 13t32 -13t13 -32t-13 -32t-32 -13t-32 13t-13 32zM61 30q0 -13 9 -21.5t21 -8.5h14q12 0 21 8.5t9 21.5v370q0 13 -9 21.5t-21 8.5h-14q-12 0 -21 -8.5t-9 -21.5v-370z" />
    <glyph glyph-name="j" unicode="j" horiz-adv-x="235" 
d="M92 533q0 19 13 32t32 13t32 -13t13 -32t-13 -32t-32 -13t-32 13t-13 32zM174 30v370q0 13 -9 21.5t-21 8.5h-14q-12 0 -21 -8.5t-9 -21.5v-370q0 -55 -26.5 -88t-67.5 -44q-30 -8 -30 -26v-14q0 -12 8.5 -20t21.5 -8q14 0 38 9t55 29.5t53 63t22 98.5z" />
    <glyph glyph-name="k" unicode="k" horiz-adv-x="420" 
d="M200 248l202 -216q13 -13 13 -19q0 -13 -39 -13h-11q-27 0 -45 19l-171 186l-15 -13v-162q0 -13 -9 -21.5t-21 -8.5h-14q-12 0 -21 8.5t-9 21.5v650q0 13 9 21.5t21 8.5h14q12 0 21 -8.5t9 -21.5v-398l152 130q21 18 44 18h19q39 0 39 -13q0 -9 -13 -19z" />
    <glyph glyph-name="l" unicode="l" horiz-adv-x="194" 
d="M60 30v650q0 13 9 21.5t21 8.5h14q12 0 21 -8.5t9 -21.5v-650q0 -13 -9 -21.5t-21 -8.5h-14q-12 0 -21 8.5t-9 21.5z" />
    <glyph glyph-name="m" unicode="m" horiz-adv-x="684" 
d="M611 30q0 -13 -9 -21.5t-21 -8.5h-14q-12 0 -21 8.5t-9 21.5v181q0 162 -57 162q-31 0 -64 -28t-44 -65v-250q0 -13 -9 -21.5t-21 -8.5h-14q-12 0 -21 8.5t-9 21.5v181q0 36 -1 56t-6 49t-17.5 43t-32.5 14q-34 0 -63.5 -27.5t-43.5 -66.5v-249q0 -13 -9 -21.5t-21 -8.5
h-14q-12 0 -21 8.5t-9 21.5v370q0 13 9 21.5t21 8.5h14q12 0 21 -8.5t9 -21.5v-18q15 23 47.5 43t65.5 20q37 0 59 -14t46 -49q59 63 128 63q131 0 131 -214v-201z" />
    <glyph glyph-name="n" unicode="n" horiz-adv-x="494" 
d="M134 383q55 63 119 63q181 0 181 -214v-202q0 -13 -9 -21.5t-21 -8.5h-14q-12 0 -21 8.5t-9 21.5v182q0 40 -8 73.5t-33 61t-66 27.5q-74 0 -119 -94v-250q0 -13 -9 -21.5t-21 -8.5h-14q-12 0 -21 8.5t-9 21.5v370q0 13 9 21.5t21 8.5h14q12 0 21 -8.5t9 -21.5v-17z" />
    <glyph glyph-name="o" unicode="o" horiz-adv-x="564" 
d="M47 215q0 97 68.5 166t166.5 69t166.5 -69t68.5 -166t-68.5 -166t-166.5 -69t-166.5 69t-68.5 166zM120 216q0 -67 47.5 -114.5t114.5 -47.5t114.5 47.5t47.5 114.5t-47.5 114.5t-114.5 47.5t-114.5 -47.5t-47.5 -114.5z" />
    <glyph glyph-name="p" unicode="p" 
d="M124 214q0 -42 15.5 -74.5t39 -49t46.5 -24.5t43 -8q66 0 107 44t41 112t-41 113.5t-107 45.5q-20 0 -42.5 -7.5t-46.5 -23.5t-39.5 -49.5t-15.5 -78.5zM60 400q0 13 9 21.5t21 8.5h14q12 0 21 -8.5t9 -21.5v-20q21 26 56.5 45.5t77.5 19.5q97 0 159 -66t62 -165
q0 -98 -62 -164t-159 -66q-39 0 -75 18t-59 47v-189q0 -13 -9 -21.5t-21 -8.5h-14q-12 0 -21 8.5t-9 21.5v540z" />
    <glyph glyph-name="q" unicode="q" 
d="M412 214q0 45 -15.5 78.5t-39.5 49.5t-46.5 23.5t-42.5 7.5q-66 0 -107 -45.5t-41 -113.5t41 -112t107 -44q20 0 43 8t46.5 24.5t39 49t15.5 74.5zM476 400v-540q0 -13 -9 -21.5t-21 -8.5h-14q-12 0 -21 8.5t-9 21.5v189q-23 -29 -59 -47t-75 -18q-97 0 -159 66t-62 164
q0 99 62 165t159 66q42 0 77.5 -19.5t56.5 -45.5v20q0 13 9 21.5t21 8.5h14q12 0 21 -8.5t9 -21.5z" />
    <glyph glyph-name="r" unicode="r" horiz-adv-x="337" 
d="M269 376q-44 0 -81 -22.5t-54 -71.5v-252q0 -13 -9 -21.5t-21 -8.5h-14q-12 0 -21 8.5t-9 21.5v370q0 13 9 21.5t21 8.5h14q12 0 21 -8.5t9 -21.5v-10q66 60 134 60l38 -3q21 -4 21 -24l-2 -10l-5 -18q-9 -21 -24 -21q-3 0 -13 1t-14 1z" />
    <glyph glyph-name="s" unicode="s" horiz-adv-x="401" 
d="M57 45q-10 13 -10 21q0 12 9 21l12 13q9 9 21 9q13 0 22 -11l4 -5q4 -5 8 -9.5t12.5 -11t17.5 -11t22 -8t27 -3.5q32 0 56.5 17t24.5 45q0 29 -36 53.5t-78.5 40.5t-78.5 44.5t-36 64.5q0 59 39.5 97t108.5 38t113 -30q11 -8 11 -22q0 -12 -9 -21l-13 -14q-9 -9 -21 -9
q-4 0 -9 2t-8 4l-4 3q-20 13 -60 13q-28 0 -47.5 -15t-19.5 -34q0 -23 35.5 -44.5t77.5 -38t77.5 -48.5t35.5 -74q0 -64 -44 -103t-115 -39q-93 0 -145 65z" />
    <glyph glyph-name="t" unicode="t" horiz-adv-x="313" 
d="M263 -8q-11 0 -27.5 3t-42.5 14.5t-46.5 29t-36 51.5t-15.5 78v193h-39q-13 0 -21.5 9t-8.5 21v9q0 12 8.5 21t21.5 9h39v118q0 13 9 21.5t21 8.5h14q12 0 21 -8.5t9 -21.5v-118h94q13 0 21.5 -9t8.5 -21v-9q0 -12 -8.5 -21t-21.5 -9h-94v-202q0 -70 94 -95q30 -8 30 -30
v-14q0 -12 -8.5 -20t-21.5 -8z" />
    <glyph glyph-name="u" unicode="u" horiz-adv-x="494" 
d="M360 48q-25 -29 -59 -46t-60 -17q-181 0 -181 209v206q0 13 9 21.5t21 8.5h14q12 0 21 -8.5t9 -21.5v-186q0 -63 25 -111t82 -48q73 0 119 96v249q0 13 9 21.5t21 8.5h14q12 0 21 -8.5t9 -21.5v-370q0 -13 -9 -21.5t-21 -8.5h-14q-12 0 -21 8.5t-9 21.5v18z" />
    <glyph glyph-name="v" unicode="v" horiz-adv-x="411" 
d="M205 -10q-2 0 -5.5 4.5t-5.5 9.5l-2 4l-181 392q-6 13 -6 17q0 13 28 13h16q27 0 41 -30l110 -241l5 -30q2 24 5 30l110 241q14 30 41 30h16q28 0 28 -13l-6 -17l-181 -392q-8 -18 -13 -18z" />
    <glyph glyph-name="w" unicode="w" horiz-adv-x="644" 
d="M322 440q8 0 16 -18l103 -249l8 -40l9 40l96 227q14 30 41 30h17q27 0 27 -13l-5 -17l-173 -392q-8 -18 -12 -18q-2 0 -5 4.5t-5 9.5l-2 4l-106 249l-9 40l-9 -40l-106 -249q-8 -18 -12 -18q-2 0 -5 4.5t-5 9.5l-2 4l-173 392q-5 11 -5 17q0 13 27 13h17q27 0 41 -30
l96 -227l9 -40l8 40l103 249q8 18 16 18z" />
    <glyph glyph-name="x" unicode="x" horiz-adv-x="373" 
d="M108 400l78 -114l78 114q7 11 11 16t12 9.5t18 4.5h23q28 0 28 -13l-6 -17l-121 -177l132 -193q6 -9 6 -17q0 -13 -28 -13h-24q-22 0 -39 27l-90 132l-90 -132q-17 -27 -39 -27h-24q-28 0 -28 13q0 8 6 17l132 193l-121 177q-6 9 -6 17q0 13 28 13h23q15 0 23 -7t18 -23z
" />
    <glyph glyph-name="y" unicode="y" horiz-adv-x="418" 
d="M47 -180h-12q-13 0 -21.5 9t-8.5 21v4q0 12 8.5 21t21.5 9h12q14 0 35.5 16t37.5 46l55 116l-156 338q-6 12 -6 17q0 13 28 13h19q24 0 39 -30l109 -241l5 -30l5 30l109 241q15 30 39 30h19q28 0 28 -13l-6 -17l-225 -484q-60 -96 -135 -96z" />
    <glyph glyph-name="z" unicode="z" horiz-adv-x="412" 
d="M137 69h228q13 0 21.5 -9t8.5 -21v-9q0 -12 -8.5 -21t-21.5 -9h-318q-38 0 -38 11q0 4 28 41l238 309h-228q-13 0 -21.5 9t-8.5 21v9q0 12 8.5 21t21.5 9h318q38 0 38 -11q0 -4 -28 -41z" />
    <glyph glyph-name="braceleft" unicode="{" horiz-adv-x="360" 
d="M258 167v-258h52q12 0 21 -8.5t9 -21.5v-19q0 -13 -9 -21.5t-21 -8.5h-96q-12 0 -21 8.5t-9 21.5v307q0 14 -17 25.5t-38 18.5t-38 21t-17 33t17 33t38 21t38 18.5t17 25.5v307q0 13 9 21.5t21 8.5h96q12 0 21 -8.5t9 -21.5v-19q0 -13 -9 -21.5t-21 -8.5h-52v-258
q0 -34 -19 -53t-37.5 -27.5t-18.5 -17.5t18.5 -17.5t37.5 -27.5t19 -53z" />
    <glyph glyph-name="bar" unicode="|" horiz-adv-x="254" 
d="M90 -140v810q0 13 9 21.5t21 8.5h14q12 0 21 -8.5t9 -21.5v-810q0 -13 -9 -21.5t-21 -8.5h-14q-12 0 -21 8.5t-9 21.5z" />
    <glyph glyph-name="braceright" unicode="}" horiz-adv-x="360" 
d="M102 -91v258q0 34 19 53t37.5 27.5t18.5 17.5t-18.5 17.5t-37.5 27.5t-19 53v258h-52q-12 0 -21 8.5t-9 21.5v19q0 13 9 21.5t21 8.5h96q12 0 21 -8.5t9 -21.5v-307q0 -14 17 -25.5t38 -18.5t38 -21t17 -33t-17 -33t-38 -21t-38 -18.5t-17 -25.5v-307q0 -13 -9 -21.5
t-21 -8.5h-96q-12 0 -21 8.5t-9 21.5v19q0 13 9 21.5t21 8.5h52z" />
    <glyph glyph-name="asciitilde" unicode="~" horiz-adv-x="582" 
d="M427 151q-79 0 -136 42q-26 19 -40 27.5t-40 16.5t-58 8q-11 0 -23.5 -9.5t-17.5 -28.5q-6 -30 -31 -30h-14q-12 0 -21 8t-9 19q0 31 30.5 70.5t87.5 39.5q79 0 136 -42q26 -19 40 -27.5t40 -16.5t58 -8q11 0 23.5 9.5t17.5 28.5q6 30 31 30h14q12 0 21 -8t9 -19
q0 -31 -30.5 -70.5t-87.5 -39.5z" />
    <glyph glyph-name="exclamdown" unicode="&#xa1;" horiz-adv-x="378" 
d="M234 416q0 -19 -13 -32t-32 -13t-32 13t-13 32t13 32t32 13t32 -13t13 -32zM154 265q0 13 9 21.5t21 8.5h11q12 0 21 -8.5t9 -21.5l9 -494q0 -13 -9 -21.5t-21 -8.5h-29q-12 0 -21 8.5t-9 21.5z" />
    <glyph glyph-name="cent" unicode="&#xa2;" horiz-adv-x="474" 
d="M72 216q0 86 55 151t139 79v54q0 13 9 21.5t21 8.5h24q12 0 21 -8.5t9 -21.5v-53q10 -2 47 -14q30 -9 30 -36v-33q0 -20 -15 -20q-3 0 -15 7q-42 27 -89 27q-67 0 -114.5 -47.5t-47.5 -114.5t47.5 -114.5t114.5 -47.5q25 0 51 8.5t37 17.5q10 8 16 8q15 0 15 -20v-35
q0 -27 -30 -36q-37 -12 -47 -14v-53q0 -13 -9 -21.5t-21 -8.5h-24q-12 0 -21 8.5t-9 21.5v54q-83 14 -138.5 80t-55.5 152z" />
    <glyph glyph-name="sterling" unicode="&#xa3;" horiz-adv-x="588" 
d="M216 331v-54h96q13 0 21.5 -9t8.5 -21v-9q0 -12 -8.5 -21t-21.5 -9h-96v-94q31 0 113 -30t112 -30q6 0 14.5 4t13.5 8l5 3q17 13 25 13q11 0 17 -12l10 -22q6 -15 6 -23q0 -7 -12 -19q-34 -26 -79 -26q-30 0 -112 30t-113 30q-21 0 -43 -9t-33 -18l-12 -9
q-15 -12 -22 -12q-10 0 -19 9l-21 29q-9 13 -9 21q0 10 11 21q24 26 65 37v99h-49q-13 0 -21.5 9t-8.5 21v9q0 12 8.5 21t21.5 9h49v54q0 86 61.5 147.5t147.5 61.5q62 0 111.5 -33t70.5 -75q9 -18 9 -23q0 -12 -9 -21l-24 -24q-9 -9 -21 -9q-5 0 -9.5 3.5t-6.5 6.5l-2 3
q-41 89 -119 89q-52 0 -89 -37t-37 -89z" />
    <glyph glyph-name="currency" unicode="&#xa4;" horiz-adv-x="386" 
d="M193 261q28 0 48 20.5t20 51.5t-20 51.5t-48 20.5t-48 -20.5t-20 -51.5t20 -51.5t48 -20.5zM193 476q46 0 79 -28l33 30q10 10 19 10q7 0 12.5 -5.5t5.5 -12.5q0 -10 -9 -18l-35 -33q27 -34 27 -86t-27 -86l35 -33q9 -8 9 -18q0 -7 -5.5 -12.5t-12.5 -5.5q-9 0 -19 10
l-33 30q-33 -28 -79 -28t-79 28l-33 -30q-10 -10 -19 -10q-7 0 -12.5 5.5t-5.5 12.5q0 10 9 18l35 33q-27 34 -27 86t27 86l-35 33q-9 8 -9 18q0 7 5.5 12.5t12.5 5.5q9 0 19 -10l33 -30q33 28 79 28z" />
    <glyph glyph-name="yen" unicode="&#xa5;" horiz-adv-x="530" 
d="M380 113h-73v-83q0 -12 -8.5 -21t-21.5 -9h-24q-13 0 -21.5 9t-8.5 21v83h-73q-13 0 -21.5 9t-8.5 21v9q0 12 8.5 21t21.5 9h73v69h-73q-13 0 -21.5 9t-8.5 21v9q0 12 8.5 21t21.5 9h73v15l-215 330q-11 15 -11 22q0 13 38 13h33q8 0 17.5 -7.5t14.5 -14.5l5 -8l160 -244
l160 244q20 30 37 30h33q38 0 38 -13q0 -3 -2.5 -8.5t-5.5 -9.5l-3 -4l-215 -330v-15h73q13 0 21.5 -9t8.5 -21v-9q0 -12 -8.5 -21t-21.5 -9h-73v-69h73q13 0 21.5 -9t8.5 -21v-9q0 -12 -8.5 -21t-21.5 -9z" />
    <glyph glyph-name="brokenbar" unicode="&#xa6;" horiz-adv-x="254" 
d="M90 320v280q0 13 9 21.5t21 8.5h14q12 0 21 -8.5t9 -21.5v-280q0 -13 -9 -21.5t-21 -8.5h-14q-12 0 -21 8.5t-9 21.5zM90 -140v276q0 13 9 21.5t21 8.5h14q12 0 21 -8.5t9 -21.5v-276q0 -13 -9 -21.5t-21 -8.5h-14q-12 0 -21 8.5t-9 21.5z" />
    <glyph glyph-name="section" unicode="&#xa7;" horiz-adv-x="458" 
d="M163 327q0 -22 23.5 -37t54.5 -15q52 0 74 40q0 2 -1.5 6.5t-7.5 15t-14.5 18.5t-25 14.5t-37.5 6.5q-32 0 -49 -14.5t-17 -34.5zM145 103q2 -1 10 -11.5t15.5 -17.5t23.5 -13.5t35 -6.5q38 0 59.5 19.5t21.5 41.5q0 17 -7.5 30t-24.5 24t-30 17.5t-39 16.5
q-30 12 -44.5 19t-35.5 20.5t-30.5 31.5t-9.5 41q0 40 24 75.5t65 50.5q-76 35 -76 95q0 53 39 94t101 41q71 0 118 -58q11 -13 11 -22q0 -12 -9 -21l-13 -13q-9 -9 -21 -9q-4 0 -9 2t-7 4l-3 3q-36 40 -67 40q-32 0 -49 -14.5t-17 -34.5t23 -36.5t55 -30t64.5 -30t55.5 -46
t23 -69.5q0 -81 -72 -117q59 -39 59 -104q0 -58 -42.5 -96.5t-112.5 -38.5q-86 0 -136 65q-11 16 -11 22q0 12 9 21l15 15q9 9 21 9q9 0 18 -9z" />
    <glyph glyph-name="dieresis" unicode="&#xa8;" horiz-adv-x="452" 
d="M111 553q0 19 13 32t32 13t32 -13t13 -32t-13 -32t-32 -13t-32 13t-13 32zM251 553q0 19 13 32t32 13t32 -13t13 -32t-13 -32t-32 -13t-32 13t-13 32z" />
    <glyph glyph-name="copyright" unicode="&#xa9;" horiz-adv-x="666" 
d="M38 362q0 119 84.5 203.5t203.5 84.5t203.5 -84.5t84.5 -203.5t-84.5 -203.5t-203.5 -84.5t-203.5 84.5t-84.5 203.5zM109 362q0 -89 64 -153t153 -64t153 64t64 153t-64 153t-153 64t-153 -64t-64 -153zM157 362q0 76 54.5 130.5t130.5 54.5q38 0 64 -11q30 -12 30 -36
v-7q0 -20 -15 -20q-1 0 -15 7q-27 15 -64 15q-59 0 -94.5 -36.5t-35.5 -96.5t35.5 -96.5t94.5 -36.5q36 0 64 15q14 7 15 7q15 0 15 -20v-7q0 -24 -30 -36q-26 -11 -64 -11q-76 0 -130.5 54.5t-54.5 130.5z" />
    <glyph glyph-name="ordfeminine" unicode="&#xaa;" horiz-adv-x="271" 
d="M188 556v17q-18 9 -52 9q-53 0 -53 -38q0 -14 11.5 -24t31.5 -10q44 0 62 46zM69 694q27 16 67 16q46 0 67.5 -24.5t21.5 -61.5v-124q0 -15 -15 -15h-7q-15 0 -15 15v7q-19 -32 -62 -32q-36 0 -58 19.5t-22 49.5q0 37 26 54t66 17q36 0 50 -7v21q0 20 -17.5 32.5
t-34.5 12.5q-24 0 -40 -7q-5 -4 -11 -4t-11 5l-6 7q-4 4 -4 9q0 7 5 10z" />
    <glyph glyph-name="guillemotleft" unicode="&#xab;" horiz-adv-x="726" 
d="M363 344l-194 -157l194 -157q9 -9 9 -17q0 -13 -38 -13h-38q-32 0 -57 23l-176 143q-18 14 -18 21t18 21l176 143q25 23 57 23h38q38 0 38 -13q0 -8 -9 -17zM627 344l-194 -157l194 -157q9 -9 9 -17q0 -13 -38 -13h-38q-32 0 -57 23l-176 143q-18 13 -18 21q0 7 18 21
l176 143q25 23 57 23h38q38 0 38 -13q0 -8 -9 -17z" />
    <glyph glyph-name="logicalnot" unicode="&#xac;" horiz-adv-x="565" 
d="M484 450v-170q0 -13 -9 -21.5t-21 -8.5h-14q-12 0 -21 8.5t-9 21.5v131h-342q-13 0 -21.5 9t-8.5 21v9q0 12 8.5 21t21.5 9h386q13 0 21.5 -9t8.5 -21z" />
    <glyph glyph-name="registered" unicode="&#xae;" horiz-adv-x="667" 
d="M38 362q0 119 84.5 203.5t203.5 84.5t203.5 -84.5t84.5 -203.5t-84.5 -203.5t-203.5 -84.5t-203.5 84.5t-84.5 203.5zM109 362q0 -89 64 -153t153 -64t153 64t64 153t-64 153t-153 64t-153 -64t-64 -153zM285 488v-94h34q56 0 56 47q0 21 -11 34t-45 13h-34zM354 349
l67 -129q9 -18 9 -23q0 -9 -18 -9h-21q-5 0 -11.5 8t-10.5 16l-4 7l-66 126h-14v-123q0 -34 -26 -34t-26 34v286q0 13 9 21.5t21 8.5h36q28 0 47.5 -3t40 -12t31.5 -29.5t11 -52.5q0 -74 -75 -92z" />
    <glyph glyph-name="macron" unicode="&#xaf;" horiz-adv-x="316" 
d="M256 506h-196q-13 0 -21.5 9t-8.5 21v9q0 12 8.5 21t21.5 9h196q13 0 21.5 -9t8.5 -21v-9q0 -12 -8.5 -21t-21.5 -9z" />
    <glyph glyph-name="degree" unicode="&#xb0;" horiz-adv-x="496" 
d="M170 499q0 32 23 55t55 23t55 -23t23 -55t-23 -55t-55 -23t-55 23t-23 55zM213 499q0 -14 10.5 -24.5t24.5 -10.5t23.5 10.5t9.5 24.5t-9.5 23.5t-23.5 9.5t-24.5 -9.5t-10.5 -23.5z" />
    <glyph glyph-name="plusminus" unicode="&#xb1;" horiz-adv-x="490" 
d="M410 361h-129v-131q0 -13 -9 -21.5t-21 -8.5h-14q-12 0 -21 8.5t-9 21.5v131h-129q-13 0 -21.5 9t-8.5 21v9q0 12 8.5 21t21.5 9h129v131q0 13 9 21.5t21 8.5h14q12 0 21 -8.5t9 -21.5v-131h129q13 0 21.5 -9t8.5 -21v-9q0 -12 -8.5 -21t-21.5 -9zM409 0h-331
q-13 0 -21.5 9t-8.5 21v9q0 12 8.5 21t21.5 9h331q13 0 21.5 -9t8.5 -21v-9q0 -12 -8.5 -21t-21.5 -9z" />
    <glyph glyph-name="two.numerator" unicode="&#xb2;" horiz-adv-x="301" 
d="M70 398q35 35 54 58q81 94 81 144q0 20 -15 34t-36 14q-12 0 -21.5 -6t-14 -12t-12.5 -19q-6 -9 -21 -9q-12 0 -21 9l-4 4q-9 9 -9 21t7 24q12 18 37 34t59 16q49 0 83 -32t34 -78q0 -62 -61 -141q-12 -17 -40 -49h81q12 0 21 -8.5t9 -21.5t-9 -21.5t-21 -8.5h-169
q-38 0 -38 11q0 9 26 37z" />
    <glyph glyph-name="three.numerator" unicode="&#xb3;" horiz-adv-x="276" 
d="M160 566q29 10 29 38q0 18 -13.5 30.5t-32.5 12.5q-12 0 -21.5 -5.5t-13.5 -10.5t-5 -9q-11 -30 -31 -30h-11q-11 0 -20 5.5t-9 15.5l1 9q8 35 37 61.5t73 26.5q46 0 79.5 -31t33.5 -75q0 -45 -34 -76q34 -32 34 -78t-34.5 -78t-83.5 -32q-42 0 -74.5 26t-40.5 66
q-1 7 -1 9q0 10 9 15.5t20 5.5h11q20 0 31 -30q14 -29 45 -29q20 0 35.5 14t15.5 33q0 15 -9.5 26.5t-19.5 15.5q-30 9 -30 30v14q0 22 30 30z" />
    <glyph glyph-name="acute" unicode="&#xb4;" horiz-adv-x="565" 
d="M244 543l107 114q9 7 17 7q13 0 21 -11l10 -12q6 -7 6 -18q0 -12 -12 -22l-122 -95q-9 -7 -17 -7q-7 0 -16 10q-6 7 -6 13q0 9 12 21z" />
    <glyph glyph-name="mu" unicode="&#xb5;" horiz-adv-x="514" 
d="M143 45v-185q0 -13 -9 -21.5t-21 -8.5h-14q-12 0 -21 8.5t-9 21.5v540q0 13 9 21.5t21 8.5h14q12 0 21 -8.5t9 -21.5v-254q45 -94 119 -94q41 0 66 27.5t33 61t8 73.5v186q0 13 9 21.5t21 8.5h14q12 0 21 -8.5t9 -21.5v-206q0 -214 -181 -214q-26 0 -60 18t-59 47z" />
    <glyph glyph-name="paragraph" unicode="&#xb6;" horiz-adv-x="544" 
d="M380 163v487h-63v-650q44 0 53.5 27.5t9.5 135.5zM271 700h153q12 0 21 -8.5t9 -21.5v-507q0 -67 -5 -105.5t-21 -70t-48 -44t-84 -12.5h-92q-12 0 -21 8.5t-9 21.5v9q0 13 9 21.5t21 8.5h39v326q-58 0 -103.5 18t-70.5 46t-38 58.5t-13 59.5q0 95 67 143.5t186 48.5z
" />
    <glyph glyph-name="periodcentered" unicode="&#xb7;" horiz-adv-x="170" 
d="M40 346q0 19 13 32t32 13t32 -13t13 -32t-13 -32t-32 -13t-32 13t-13 32z" />
    <glyph glyph-name="cedilla" unicode="&#xb8;" horiz-adv-x="565" 
d="M252 -125q16 -14 32 -14q26 0 26 22q0 28 -31 28q-44 0 -63 10.5t-19 38.5q0 12 5 22t10 14l5 4h60q-12 -1 -12 -20q0 -17 26 -17t55 -20t29 -60q0 -29 -20.5 -51t-67.5 -22q-48 0 -80 26q-11 8 -11 22q0 11 13 19q13 7 22 7q12 0 21 -9z" />
    <glyph glyph-name="one.numerator" unicode="&#xb9;" horiz-adv-x="174" 
d="M87 380v194q-9 -9 -21 -9t-21 9l-4 4q-9 9 -9 21q0 13 9 22l65 61q31 28 37 28q11 0 11 -38v-292q0 -13 -9 -21.5t-21 -8.5h-7q-12 0 -21 8.5t-9 21.5z" />
    <glyph glyph-name="ordmasculine" unicode="&#xba;" horiz-adv-x="327" 
d="M46 595q0 49 34 83.5t83 34.5t83.5 -34.5t34.5 -83.5t-34.5 -83t-83.5 -34t-83 34t-34 83zM82 596q0 -34 24 -57.5t57 -23.5q34 0 57.5 23.5t23.5 57.5q0 33 -23.5 57t-57.5 24q-33 0 -57 -24t-24 -57z" />
    <glyph glyph-name="guillemotright" unicode="&#xbb;" horiz-adv-x="636" 
d="M557 187l-194 157q-9 9 -9 17q0 13 38 13h38q32 0 57 -23l176 -143q18 -14 18 -21t-18 -21l-176 -143q-25 -23 -57 -23h-38q-38 0 -38 13q0 8 9 17zM293 187l-194 157q-9 9 -9 17q0 13 38 13h38q32 0 57 -23l176 -143q18 -14 18 -21t-18 -21l-176 -143q-25 -23 -57 -23
h-38q-38 0 -38 13q0 8 9 17z" />
    <glyph glyph-name="questiondown" unicode="&#xbf;" horiz-adv-x="494" 
d="M311 416q0 -19 -13 -32t-32 -13t-32 13t-13 32t13 32t32 13t32 -13t13 -32zM229 265q0 13 9 21.5t21 8.5h14q12 0 21 -8.5t9 -21.5v-65q0 -32 -16.5 -61.5t-40 -52.5t-46.5 -45.5t-39.5 -49.5t-16.5 -56q0 -68 35.5 -100t86.5 -32q56 0 100 37q9 9 21 9t21 -9l13 -12
q12 -12 12 -24t-9 -21q-65 -62 -158 -62q-91 0 -148 59t-57 155q0 43 17.5 79t42 60t49 46t42 50t17.5 60v35z" />
    <glyph glyph-name="Agrave" unicode="&#xc0;" horiz-adv-x="552" 
d="M280 505l-4 20l-4 -20l-97 -255h202zM406 171h-260l-54 -141q-11 -30 -36 -30h-18q-34 0 -34 13l3 17l251 662q5 18 18 18q6 0 10.5 -4.5t5.5 -9.5l2 -4l251 -662q3 -10 3 -17q0 -13 -34 -13h-18q-25 0 -36 30zM241 927l107 -114q12 -12 12 -21q0 -6 -6 -13
q-9 -10 -16 -10q-8 0 -17 7l-122 95q-12 10 -12 22q0 11 6 18l10 12q8 11 21 11q8 0 17 -7z" />
    <glyph glyph-name="Aacute" unicode="&#xc1;" horiz-adv-x="552" 
d="M276 525l4 -20l97 -255h-202l97 255zM146 171h260l54 -141q11 -30 36 -30h18q34 0 34 13l-3 17l-251 662q-5 18 -18 18q-6 0 -10.5 -4.5t-5.5 -9.5l-2 -4l-251 -662q-3 -10 -3 -17q0 -13 34 -13h18q25 0 36 30zM199 813l107 114q9 7 17 7q13 0 21 -11l10 -12q6 -7 6 -18
q0 -12 -12 -22l-122 -95q-9 -7 -17 -7q-7 0 -16 10q-6 7 -6 13q0 9 12 21z" />
    <glyph glyph-name="Acircumflex" unicode="&#xc2;" horiz-adv-x="552" 
d="M280 505l-4 20l-4 -20l-97 -255h202zM406 171h-260l-54 -141q-11 -30 -36 -30h-18q-34 0 -34 13l3 17l251 662q5 18 18 18q6 0 10.5 -4.5t5.5 -9.5l2 -4l251 -662q3 -10 3 -17q0 -13 -34 -13h-18q-25 0 -36 30zM341 770l-65 84l-65 -84q-17 -20 -37 -20h-10q-22 0 -22 11
l16 29l97 135q13 18 21 18t21 -18l97 -135q16 -24 16 -29q0 -11 -22 -11h-10q-9 0 -18 5t-14 10z" />
    <glyph glyph-name="Atilde" unicode="&#xc3;" horiz-adv-x="552" 
d="M276 525l4 -20l97 -255h-202l97 255zM146 171h260l54 -141q11 -30 36 -30h18q34 0 34 13l-3 17l-251 662q-5 18 -18 18q-6 0 -10.5 -4.5t-5.5 -9.5l-2 -4l-251 -662q-3 -10 -3 -17q0 -13 34 -13h18q25 0 36 30zM324 829q7 0 12.5 3.5t7.5 6.5l2 3q5 17 27 17h11
q19 0 19 -17q0 -3 -1 -8.5t-6 -19.5t-12.5 -24.5t-23.5 -19.5t-36 -9q-22 0 -48.5 17.5t-47.5 17.5q-7 0 -12.5 -3t-7.5 -7l-2 -3q-5 -17 -27 -17h-11q-19 0 -19 17q0 3 1 8.5t6 19.5t12.5 24.5t23.5 19.5t36 9q21 0 47.5 -17.5t48.5 -17.5z" />
    <glyph glyph-name="Adieresis" unicode="&#xc4;" horiz-adv-x="552" 
d="M276 525l4 -20l97 -255h-202l97 255zM146 171h260l54 -141q11 -30 36 -30h18q34 0 34 13l-3 17l-251 662q-5 18 -18 18q-6 0 -10.5 -4.5t-5.5 -9.5l-2 -4l-251 -662q-3 -10 -3 -17q0 -13 34 -13h18q25 0 36 30zM161 823q0 19 13 32t32 13t32 -13t13 -32t-13 -32t-32 -13
t-32 13t-13 32zM301 823q0 19 13 32t32 13t32 -13t13 -32t-13 -32t-32 -13t-32 13t-13 32z" />
    <glyph glyph-name="Aring" unicode="&#xc5;" horiz-adv-x="552" 
d="M276 525l4 -20l97 -255h-202l97 255zM146 171h260l54 -141q11 -30 36 -30h18q34 0 34 13l-3 17l-251 662q-5 18 -18 18q-6 0 -10.5 -4.5t-5.5 -9.5l-2 -4l-251 -662q-3 -10 -3 -17q0 -13 34 -13h18q25 0 36 30zM194 839q0 32 24.5 55t57.5 23t57.5 -23t24.5 -55
t-24.5 -55t-57.5 -23t-57.5 23t-24.5 55zM238 839q0 -15 11.5 -25t26.5 -10t26 10t11 25t-11 24.5t-26 9.5t-26.5 -9.5t-11.5 -24.5z" />
    <glyph glyph-name="AE" unicode="&#xc6;" horiz-adv-x="731" 
d="M276 30v141h-130l-54 -141q-11 -30 -36 -30h-18q-34 0 -34 13l3 17l247 652q9 18 22 18h342q12 0 21 -8.5t9 -21.5v-19q0 -13 -9 -21.5t-21 -8.5h-258v-210h228q12 0 21 -8.5t9 -21.5v-19q0 -13 -9 -21.5t-21 -8.5h-228v-253h258q12 0 21 -8.5t9 -21.5v-19
q0 -13 -9 -21.5t-21 -8.5h-312q-12 0 -21 8.5t-9 21.5zM276 525l-4 -20l-97 -255h101v275z" />
    <glyph glyph-name="Ccedilla" unicode="&#xc7;" horiz-adv-x="720" 
d="M434 -125q16 -14 32 -14q26 0 26 22q0 28 -31 28q-44 0 -63 10.5t-19 38.5q0 11 6 25q-134 20 -223.5 123.5t-89.5 241.5q0 153 108.5 261.5t261.5 108.5q83 0 159 -37q30 -15 30 -39v-29q0 -34 -13 -34l-26 12q-68 43 -150 43q-118 0 -199.5 -83.5t-81.5 -202.5
t81.5 -202.5t199.5 -83.5q82 0 150 43q19 12 26 12q13 0 13 -34v-29q0 -24 -30 -39q-75 -36 -154 -37q0 -17 26 -17t55 -20t29 -60q0 -29 -20.5 -51t-67.5 -22q-48 0 -80 26q-11 8 -11 22q0 11 13 19q13 7 22 7q12 0 21 -9z" />
    <glyph glyph-name="Egrave" unicode="&#xc8;" horiz-adv-x="565" 
d="M452 0h-332q-12 0 -21 8.5t-9 21.5v640q0 13 9 21.5t21 8.5h332q12 0 21 -8.5t9 -21.5v-19q0 -13 -9 -21.5t-21 -8.5h-278v-210h248q12 0 21 -8.5t9 -21.5v-19q0 -13 -9 -21.5t-21 -8.5h-248v-253h278q12 0 21 -8.5t9 -21.5v-19q0 -13 -9 -21.5t-21 -8.5zM241 927
l107 -114q12 -12 12 -21q0 -6 -6 -13q-9 -10 -16 -10q-8 0 -17 7l-122 95q-12 10 -12 22q0 11 6 18l10 12q8 11 21 11q8 0 17 -7z" />
    <glyph glyph-name="Eacute" unicode="&#xc9;" horiz-adv-x="565" 
d="M120 0h332q12 0 21 8.5t9 21.5v19q0 13 -9 21.5t-21 8.5h-278v253h248q12 0 21 8.5t9 21.5v19q0 13 -9 21.5t-21 8.5h-248v210h278q12 0 21 8.5t9 21.5v19q0 13 -9 21.5t-21 8.5h-332q-12 0 -21 -8.5t-9 -21.5v-640q0 -13 9 -21.5t21 -8.5zM199 813l107 114q9 7 17 7
q13 0 21 -11l10 -12q6 -7 6 -18q0 -12 -12 -22l-122 -95q-9 -7 -17 -7q-7 0 -16 10q-6 7 -6 13q0 9 12 21z" />
    <glyph glyph-name="Ecircumflex" unicode="&#xca;" horiz-adv-x="565" 
d="M452 0h-332q-12 0 -21 8.5t-9 21.5v640q0 13 9 21.5t21 8.5h332q12 0 21 -8.5t9 -21.5v-19q0 -13 -9 -21.5t-21 -8.5h-278v-210h248q12 0 21 -8.5t9 -21.5v-19q0 -13 -9 -21.5t-21 -8.5h-248v-253h278q12 0 21 -8.5t9 -21.5v-19q0 -13 -9 -21.5t-21 -8.5zM361 770l-65 84
l-65 -84q-17 -20 -37 -20h-10q-22 0 -22 11l16 29l97 135q13 18 21 18t21 -18l97 -135q16 -24 16 -29q0 -11 -22 -11h-10q-9 0 -18 5t-14 10z" />
    <glyph glyph-name="Edieresis" unicode="&#xcb;" horiz-adv-x="565" 
d="M120 0h332q12 0 21 8.5t9 21.5v19q0 13 -9 21.5t-21 8.5h-278v253h248q12 0 21 8.5t9 21.5v19q0 13 -9 21.5t-21 8.5h-248v210h278q12 0 21 8.5t9 21.5v19q0 13 -9 21.5t-21 8.5h-332q-12 0 -21 -8.5t-9 -21.5v-640q0 -13 9 -21.5t21 -8.5zM161 823q0 19 13 32t32 13
t32 -13t13 -32t-13 -32t-32 -13t-32 13t-13 32zM301 823q0 19 13 32t32 13t32 -13t13 -32t-13 -32t-32 -13t-32 13t-13 32z" />
    <glyph glyph-name="Igrave" unicode="&#xcc;" horiz-adv-x="265" 
d="M90 30v640q0 13 9 21.5t21 8.5h24q12 0 21 -8.5t9 -21.5v-640q0 -13 -9 -21.5t-21 -8.5h-24q-12 0 -21 8.5t-9 21.5zM97 927l107 -114q12 -12 12 -21q0 -6 -6 -13q-9 -10 -16 -10q-8 0 -17 7l-122 95q-12 10 -12 22q0 11 6 18l10 12q8 11 21 11q8 0 17 -7z" />
    <glyph glyph-name="Iacute" unicode="&#xcd;" horiz-adv-x="265" 
d="M90 30v640q0 13 9 21.5t21 8.5h24q12 0 21 -8.5t9 -21.5v-640q0 -13 -9 -21.5t-21 -8.5h-24q-12 0 -21 8.5t-9 21.5zM55 813l107 114q9 7 17 7q13 0 21 -11l10 -12q6 -7 6 -18q0 -12 -12 -22l-122 -95q-9 -7 -17 -7q-7 0 -16 10q-6 7 -6 13q0 9 12 21z" />
    <glyph glyph-name="Icircumflex" unicode="&#xce;" horiz-adv-x="265" 
d="M90 30v640q0 13 9 21.5t21 8.5h24q12 0 21 -8.5t9 -21.5v-640q0 -13 -9 -21.5t-21 -8.5h-24q-12 0 -21 8.5t-9 21.5zM197 770l-65 84l-65 -84q-17 -20 -37 -20h-10q-22 0 -22 11l16 29l97 135q13 18 21 18t21 -18l97 -135q16 -24 16 -29q0 -11 -22 -11h-10q-9 0 -18 5
t-14 10z" />
    <glyph glyph-name="Idieresis" unicode="&#xcf;" horiz-adv-x="265" 
d="M90 30v640q0 13 9 21.5t21 8.5h24q12 0 21 -8.5t9 -21.5v-640q0 -13 -9 -21.5t-21 -8.5h-24q-12 0 -21 8.5t-9 21.5zM17 823q0 19 13 32t32 13t32 -13t13 -32t-13 -32t-32 -13t-32 13t-13 32zM157 823q0 19 13 32t32 13t32 -13t13 -32t-13 -32t-32 -13t-32 13t-13 32z
" />
    <glyph glyph-name="Eth" unicode="&#xd0;" horiz-adv-x="726" 
d="M283 0h-152q-12 0 -21 8.5t-9 21.5v280h-49q-13 0 -21.5 9t-8.5 21v19q0 12 8.5 21t21.5 9h49v281q0 13 9 21.5t21 8.5h152q156 0 253 -101t97 -249t-97 -249t-253 -101zM185 79h98q115 0 190.5 81.5t75.5 189.5t-75.5 189.5t-190.5 81.5h-98v-232h49q13 0 21.5 -9
t8.5 -21v-19q0 -12 -8.5 -21t-21.5 -9h-49v-231z" />
    <glyph glyph-name="Ntilde" unicode="&#xd1;" horiz-adv-x="715" 
d="M581 13l-399 481l-13 30l5 -30v-464q0 -12 -8.5 -21t-21.5 -9h-24q-13 0 -21.5 9t-8.5 21v642q0 38 11 38q6 0 14 -6t13 -12l6 -5l399 -481l13 -30l-5 30v464q0 12 8.5 21t21.5 9h24q13 0 21.5 -9t8.5 -21v-642q0 -38 -11 -38q-15 0 -33 23zM405 829q7 0 12.5 3.5
t7.5 6.5l2 3q5 17 27 17h11q19 0 19 -17q0 -3 -1 -8.5t-6 -19.5t-12.5 -24.5t-23.5 -19.5t-36 -9q-21 0 -48 17.5t-48 17.5q-7 0 -12.5 -3t-7.5 -7l-2 -3q-5 -17 -27 -17h-11q-19 0 -19 17q0 3 1 8.5t6 19.5t12.5 24.5t23.5 19.5t36 9q21 0 48 -17.5t48 -17.5z" />
    <glyph glyph-name="Ograve" unicode="&#xd2;" horiz-adv-x="884" 
d="M812 350q0 -153 -109.5 -261.5t-260.5 -108.5q-153 0 -261.5 108.5t-108.5 261.5t108.5 261.5t261.5 108.5q152 0 261 -108t109 -262zM161 350q0 -119 81.5 -202.5t199.5 -83.5q117 0 199 83.5t82 202.5t-82 202.5t-199 83.5q-118 0 -199.5 -83.5t-81.5 -202.5zM407 927
l107 -114q12 -12 12 -21q0 -6 -6 -13q-9 -10 -16 -10q-8 0 -17 7l-122 95q-12 10 -12 22q0 11 6 18l10 12q8 11 21 11q8 0 17 -7z" />
    <glyph glyph-name="Oacute" unicode="&#xd3;" horiz-adv-x="884" 
d="M812 350q0 -153 -109.5 -261.5t-260.5 -108.5q-153 0 -261.5 108.5t-108.5 261.5t108.5 261.5t261.5 108.5q152 0 261 -108t109 -262zM161 350q0 -119 81.5 -202.5t199.5 -83.5q117 0 199 83.5t82 202.5t-82 202.5t-199 83.5q-118 0 -199.5 -83.5t-81.5 -202.5zM365 813
l107 114q9 7 17 7q13 0 21 -11l10 -12q6 -7 6 -18q0 -12 -12 -22l-122 -95q-9 -7 -17 -7q-7 0 -16 10q-6 7 -6 13q0 9 12 21z" />
    <glyph glyph-name="Ocircumflex" unicode="&#xd4;" horiz-adv-x="884" 
d="M812 350q0 -153 -109.5 -261.5t-260.5 -108.5q-153 0 -261.5 108.5t-108.5 261.5t108.5 261.5t261.5 108.5q152 0 261 -108t109 -262zM161 350q0 -119 81.5 -202.5t199.5 -83.5q117 0 199 83.5t82 202.5t-82 202.5t-199 83.5q-118 0 -199.5 -83.5t-81.5 -202.5zM507 770
l-65 84l-65 -84q-17 -20 -37 -20h-10q-22 0 -22 11l16 29l97 135q13 18 21 18t21 -18l97 -135q16 -24 16 -29q0 -11 -22 -11h-10q-9 0 -18 5t-14 10z" />
    <glyph glyph-name="Otilde" unicode="&#xd5;" horiz-adv-x="884" 
d="M812 350q0 -153 -109.5 -261.5t-260.5 -108.5q-153 0 -261.5 108.5t-108.5 261.5t108.5 261.5t261.5 108.5q152 0 261 -108t109 -262zM161 350q0 -119 81.5 -202.5t199.5 -83.5q117 0 199 83.5t82 202.5t-82 202.5t-199 83.5q-118 0 -199.5 -83.5t-81.5 -202.5zM490 829
q7 0 12.5 3.5t7.5 6.5l2 3q5 17 27 17h11q19 0 19 -17q0 -3 -1 -8.5t-6 -19.5t-12.5 -24.5t-23.5 -19.5t-36 -9q-22 0 -48.5 17.5t-47.5 17.5q-7 0 -12.5 -3t-7.5 -7l-2 -3q-5 -17 -27 -17h-11q-19 0 -19 17q0 3 1 8.5t6 19.5t12.5 24.5t23.5 19.5t36 9q21 0 47.5 -17.5
t48.5 -17.5z" />
    <glyph glyph-name="Odieresis" unicode="&#xd6;" horiz-adv-x="884" 
d="M812 350q0 -153 -109.5 -261.5t-260.5 -108.5q-153 0 -261.5 108.5t-108.5 261.5t108.5 261.5t261.5 108.5q152 0 261 -108t109 -262zM161 350q0 -119 81.5 -202.5t199.5 -83.5q117 0 199 83.5t82 202.5t-82 202.5t-199 83.5q-118 0 -199.5 -83.5t-81.5 -202.5zM327 823
q0 19 13 32t32 13t32 -13t13 -32t-13 -32t-32 -13t-32 13t-13 32zM467 823q0 19 13 32t32 13t32 -13t13 -32t-13 -32t-32 -13t-32 13t-13 32z" />
    <glyph glyph-name="multiply" unicode="&#xd7;" horiz-adv-x="394" 
d="M106 537l91 -91l91 91q9 9 21 9t21 -9l7 -8q8 -8 8 -19q0 -10 -9 -21l-91 -91l93 -93q9 -9 9 -22q0 -12 -9 -21l-10 -10q-9 -9 -21 -9t-21 9l-89 89l-89 -89q-9 -9 -21 -9t-21 9l-10 10q-9 9 -9 21q0 13 9 22l93 93l-91 91q-9 11 -9 21q0 11 8 19l7 8q9 9 21 9t21 -9z
" />
    <glyph glyph-name="Oslash" unicode="&#xd8;" horiz-adv-x="884" 
d="M812 350q0 -153 -109.5 -261.5t-260.5 -108.5q-153 0 -261.5 108.5t-108.5 261.5t108.5 261.5t261.5 108.5q152 0 261 -108t109 -262zM161 350q0 -119 81.5 -202.5t199.5 -83.5q117 0 199 83.5t82 202.5t-82 202.5t-199 83.5q-118 0 -199.5 -83.5t-81.5 -202.5zM241 -22
l322 777q7 18 26 18l14 -2l22 -9q18 -8 18 -29q0 -3 -2 -11l-323 -776q-6 -18 -27 -18l-12 2l-22 9q-19 7 -19 27q0 6 3 12z" />
    <glyph glyph-name="Ugrave" unicode="&#xd9;" horiz-adv-x="676" 
d="M586 670v-446q0 -96 -69.5 -170t-178.5 -74t-178.5 74t-69.5 170v446q0 13 9 21.5t21 8.5h24q12 0 21 -8.5t9 -21.5v-417q0 -81 44 -135t120 -54t120 54t44 135v417q0 13 9 21.5t21 8.5h24q12 0 21 -8.5t9 -21.5zM303 927l107 -114q12 -12 12 -21q0 -6 -6 -13
q-9 -10 -16 -10q-8 0 -17 7l-122 95q-12 10 -12 22q0 11 6 18l10 12q8 11 21 11q8 0 17 -7z" />
    <glyph glyph-name="Uacute" unicode="&#xda;" horiz-adv-x="676" 
d="M586 670v-446q0 -96 -69.5 -170t-178.5 -74t-178.5 74t-69.5 170v446q0 13 9 21.5t21 8.5h24q12 0 21 -8.5t9 -21.5v-417q0 -81 44 -135t120 -54t120 54t44 135v417q0 13 9 21.5t21 8.5h24q12 0 21 -8.5t9 -21.5zM261 813l107 114q9 7 17 7q13 0 21 -11l10 -12
q6 -7 6 -18q0 -12 -12 -22l-122 -95q-9 -7 -17 -7q-7 0 -16 10q-6 7 -6 13q0 9 12 21z" />
    <glyph glyph-name="Ucircumflex" unicode="&#xdb;" horiz-adv-x="676" 
d="M586 670v-446q0 -96 -69.5 -170t-178.5 -74t-178.5 74t-69.5 170v446q0 13 9 21.5t21 8.5h24q12 0 21 -8.5t9 -21.5v-417q0 -81 44 -135t120 -54t120 54t44 135v417q0 13 9 21.5t21 8.5h24q12 0 21 -8.5t9 -21.5zM403 770l-65 84l-65 -84q-17 -20 -37 -20h-10
q-22 0 -22 11l16 29l97 135q13 18 21 18t21 -18l97 -135q16 -24 16 -29q0 -11 -22 -11h-10q-9 0 -18 5t-14 10z" />
    <glyph glyph-name="Udieresis" unicode="&#xdc;" horiz-adv-x="676" 
d="M586 670v-446q0 -96 -69.5 -170t-178.5 -74t-178.5 74t-69.5 170v446q0 13 9 21.5t21 8.5h24q12 0 21 -8.5t9 -21.5v-417q0 -81 44 -135t120 -54t120 54t44 135v417q0 13 9 21.5t21 8.5h24q12 0 21 -8.5t9 -21.5zM223 823q0 19 13 32t32 13t32 -13t13 -32t-13 -32
t-32 -13t-32 13t-13 32zM363 823q0 19 13 32t32 13t32 -13t13 -32t-13 -32t-32 -13t-32 13t-13 32z" />
    <glyph glyph-name="Yacute" unicode="&#xdd;" horiz-adv-x="530" 
d="M265 426l-160 244q-19 30 -37 30h-33q-38 0 -38 -13q0 -3 3 -8.5t6 -9.5l2 -4l215 -330v-305q0 -12 8.5 -21t21.5 -9h24q13 0 21.5 9t8.5 21v305l215 330q11 15 11 22q0 13 -38 13h-33q-8 0 -17 -7.5t-15 -14.5l-5 -8zM188 813l107 114q9 7 17 7q13 0 21 -11l10 -12
q6 -7 6 -18q0 -12 -12 -22l-122 -95q-9 -7 -17 -7q-7 0 -16 10q-6 7 -6 13q0 9 12 21z" />
    <glyph glyph-name="Thorn" unicode="&#xde;" horiz-adv-x="524" 
d="M144 439v-228h87q69 0 100.5 33.5t31.5 80.5q0 114 -132 114h-87zM211 132h-67v-102q0 -13 -9 -21.5t-21 -8.5h-24q-12 0 -21 8.5t-9 21.5v640q0 13 9 21.5t21 8.5h24q12 0 21 -8.5t9 -21.5v-152h47q44 0 75.5 -3t69 -14t61 -31t39.5 -57t16 -88q0 -38 -11.5 -70t-38 -61
t-75.5 -45.5t-116 -16.5z" />
    <glyph glyph-name="germandbls" unicode="&#xdf;" horiz-adv-x="500" 
d="M179 1q-28 17 -28 36v38q0 20 15 20q2 0 16 -8q33 -21 67 -21q49 0 84 36t35 81q0 27 -19.5 46.5t-47 31.5t-54.5 24t-46.5 30.5t-19.5 43.5q0 21 21.5 38t46.5 28t46.5 31.5t21.5 46.5q0 48 -30.5 83t-74.5 35q-37 0 -67.5 -32t-30.5 -67v-492q0 -13 -9 -21.5t-21 -8.5
h-24q-12 0 -21 8.5t-9 21.5v491q0 28 9.5 57t29 57.5t56.5 46.5t86 18q74 0 132.5 -57t58.5 -140q0 -37 -18 -65t-39.5 -41t-39.5 -23t-18 -15t26 -16.5t56.5 -27t56.5 -50.5t26 -82q0 -96 -62 -149.5t-141 -53.5q-16 0 -33.5 5t-27.5 11z" />
    <glyph glyph-name="agrave" unicode="&#xe0;" horiz-adv-x="466" 
d="M186 657l107 -114q12 -12 12 -21q0 -6 -6 -13q-9 -10 -16 -10q-8 0 -17 7l-122 95q-12 10 -12 22q0 11 6 18l10 12q8 11 21 11q8 0 17 -7zM332 147v30q-39 17 -105 17q-106 0 -106 -75q0 -26 23.5 -43t63.5 -17q38 0 72.5 23t51.5 65zM94 419q55 31 134 31
q92 0 135 -48.5t43 -122.5v-249q0 -13 -9 -21.5t-21 -8.5h-14q-12 0 -21 8.5t-9 21.5v20q-39 -65 -124 -65q-72 0 -116.5 37.5t-44.5 96.5q0 73 52 107t132 34q62 0 101 -14v43q0 40 -35 64.5t-69 24.5q-52 0 -80 -14q-14 -8 -22 -8q-12 0 -23 11l-12 13q-7 7 -7 18
q0 14 10 21z" />
    <glyph glyph-name="aacute" unicode="&#xe1;" horiz-adv-x="466" 
d="M144 543l107 114q9 7 17 7q13 0 21 -11l10 -12q6 -7 6 -18q0 -12 -12 -22l-122 -95q-9 -7 -17 -7q-7 0 -16 10q-6 7 -6 13q0 9 12 21zM332 147v30q-39 17 -105 17q-106 0 -106 -75q0 -26 23.5 -43t63.5 -17q38 0 72.5 23t51.5 65zM94 419q55 31 134 31q92 0 135 -48.5
t43 -122.5v-249q0 -13 -9 -21.5t-21 -8.5h-14q-12 0 -21 8.5t-9 21.5v20q-39 -65 -124 -65q-72 0 -116.5 37.5t-44.5 96.5q0 73 52 107t132 34q62 0 101 -14v43q0 40 -35 64.5t-69 24.5q-52 0 -80 -14q-14 -8 -22 -8q-12 0 -23 11l-12 13q-7 7 -7 18q0 14 10 21z" />
    <glyph glyph-name="acircumflex" unicode="&#xe2;" horiz-adv-x="466" 
d="M296 500l-65 84l-65 -84q-17 -20 -37 -20h-10q-22 0 -22 11l16 29l97 135q13 18 21 18t21 -18l97 -135q16 -24 16 -29q0 -11 -22 -11h-10q-9 0 -18 5t-14 10zM332 147v30q-39 17 -105 17q-106 0 -106 -75q0 -26 23.5 -43t63.5 -17q38 0 72.5 23t51.5 65zM94 419
q55 31 134 31q92 0 135 -48.5t43 -122.5v-249q0 -13 -9 -21.5t-21 -8.5h-14q-12 0 -21 8.5t-9 21.5v20q-39 -65 -124 -65q-72 0 -116.5 37.5t-44.5 96.5q0 73 52 107t132 34q62 0 101 -14v43q0 40 -35 64.5t-69 24.5q-52 0 -80 -14q-14 -8 -22 -8q-12 0 -23 11l-12 13
q-7 7 -7 18q0 14 10 21z" />
    <glyph glyph-name="atilde" unicode="&#xe3;" horiz-adv-x="466" 
d="M279 559q7 0 12.5 3.5t7.5 6.5l2 3q5 17 27 17h11q19 0 19 -17q0 -3 -1 -8.5t-6 -19.5t-12.5 -24.5t-23.5 -19.5t-36 -9q-21 0 -48 17.5t-48 17.5q-7 0 -12.5 -3t-7.5 -7l-2 -3q-5 -17 -27 -17h-11q-19 0 -19 17q0 3 1 8.5t6 19.5t12.5 24.5t23.5 19.5t36 9
q21 0 48 -17.5t48 -17.5zM332 147v30q-39 17 -105 17q-106 0 -106 -75q0 -26 23.5 -43t63.5 -17q38 0 72.5 23t51.5 65zM94 419q55 31 134 31q92 0 135 -48.5t43 -122.5v-249q0 -13 -9 -21.5t-21 -8.5h-14q-12 0 -21 8.5t-9 21.5v20q-39 -65 -124 -65q-72 0 -116.5 37.5
t-44.5 96.5q0 73 52 107t132 34q62 0 101 -14v43q0 40 -35 64.5t-69 24.5q-52 0 -80 -14q-14 -8 -22 -8q-12 0 -23 11l-12 13q-7 7 -7 18q0 14 10 21z" />
    <glyph glyph-name="adieresis" unicode="&#xe4;" horiz-adv-x="466" 
d="M115 553q0 19 13 32t32 13t32 -13t13 -32t-13 -32t-32 -13t-32 13t-13 32zM255 553q0 19 13 32t32 13t32 -13t13 -32t-13 -32t-32 -13t-32 13t-13 32zM332 147v30q-39 17 -105 17q-106 0 -106 -75q0 -26 23.5 -43t63.5 -17q38 0 72.5 23t51.5 65zM94 419q55 31 134 31
q92 0 135 -48.5t43 -122.5v-249q0 -13 -9 -21.5t-21 -8.5h-14q-12 0 -21 8.5t-9 21.5v20q-39 -65 -124 -65q-72 0 -116.5 37.5t-44.5 96.5q0 73 52 107t132 34q62 0 101 -14v43q0 40 -35 64.5t-69 24.5q-52 0 -80 -14q-14 -8 -22 -8q-12 0 -23 11l-12 13q-7 7 -7 18
q0 14 10 21z" />
    <glyph glyph-name="aring" unicode="&#xe5;" horiz-adv-x="466" 
d="M149 569q0 32 24.5 55t57.5 23t57.5 -23t24.5 -55t-24.5 -55t-57.5 -23t-57.5 23t-24.5 55zM193 569q0 -15 11.5 -25t26.5 -10t26 10t11 25t-11 24.5t-26 9.5t-26.5 -9.5t-11.5 -24.5zM332 147v30q-39 17 -105 17q-106 0 -106 -75q0 -26 23.5 -43t63.5 -17q38 0 72.5 23
t51.5 65zM94 419q55 31 134 31q92 0 135 -48.5t43 -122.5v-249q0 -13 -9 -21.5t-21 -8.5h-14q-12 0 -21 8.5t-9 21.5v20q-39 -65 -124 -65q-72 0 -116.5 37.5t-44.5 96.5q0 73 52 107t132 34q62 0 101 -14v43q0 40 -35 64.5t-69 24.5q-52 0 -80 -14q-14 -8 -22 -8
q-12 0 -23 11l-12 13q-7 7 -7 18q0 14 10 21z" />
    <glyph glyph-name="ae" unicode="&#xe6;" horiz-adv-x="806" 
d="M332 141v36q-34 17 -90 17q-50 0 -85.5 -18t-35.5 -55q0 -24 23 -47.5t64 -23.5q39 0 72.5 24t51.5 67zM406 246h276q-13 59 -47.5 95.5t-90.5 36.5t-90.5 -36.5t-47.5 -95.5zM729 182h-323q13 -58 48 -93t90 -35q78 0 132 61q9 9 21 9t21 -9l10 -10q9 -9 9 -21
q0 -10 -9 -21q-71 -83 -184 -83q-82 0 -138 50q-28 24 -42 51q-12 -22 -21.5 -35.5t-27.5 -31t-45 -26t-62 -8.5q-71 0 -116 40t-45 99q0 39 18 68t48 44t62 22t67 7q58 0 90 -14v43q0 40 -35 64.5t-69 24.5q-52 0 -80 -14q-14 -8 -22 -8q-12 0 -23 11l-12 13q-7 7 -7 18
q0 14 10 21q55 31 134 31q111 0 155 -74q61 74 161 74q96 0 155.5 -68t59.5 -170q0 -13 -9 -21.5t-21 -8.5z" />
    <glyph glyph-name="ccedilla" unicode="&#xe7;" horiz-adv-x="457" 
d="M255 -125q16 -14 32 -14q26 0 26 22q0 28 -31 28q-44 0 -63 10.5t-19 38.5q0 18 10 32q-72 23 -117.5 85t-45.5 139q0 97 69 165.5t167 68.5q42 0 89 -17q30 -9 30 -36v-33q0 -20 -15 -20q-3 0 -15 7q-42 27 -89 27q-67 0 -114.5 -47.5t-47.5 -114.5t47.5 -114.5
t114.5 -47.5q46 0 88 26q13 8 16 8q15 0 15 -20v-35q0 -27 -30 -36q-47 -17 -89 -17q-10 0 -15 1q0 -18 26 -18t55 -20t29 -60q0 -29 -20.5 -51t-67.5 -22q-48 0 -80 26q-11 8 -11 22q0 11 13 19q13 7 22 7q12 0 21 -9z" />
    <glyph glyph-name="egrave" unicode="&#xe8;" horiz-adv-x="524" 
d="M124 246h276q-29 132 -138 132t-138 -132zM262 54q78 0 132 61q9 9 21 9t21 -9l10 -10q9 -9 9 -21q0 -10 -9 -21q-71 -83 -184 -83q-96 0 -155.5 67.5t-59.5 167.5t59.5 167.5t155.5 67.5t155.5 -68t59.5 -170q0 -13 -9 -21.5t-21 -8.5h-323q1 -5 3 -13.5t12 -31
t23.5 -39t40 -30.5t59.5 -14zM227 657l107 -114q12 -12 12 -21q0 -6 -6 -13q-9 -10 -16 -10q-8 0 -17 7l-122 95q-12 10 -12 22q0 11 6 18l10 12q8 11 21 11q8 0 17 -7z" />
    <glyph glyph-name="eacute" unicode="&#xe9;" horiz-adv-x="524" 
d="M124 246h276q-29 132 -138 132t-138 -132zM262 54q78 0 132 61q9 9 21 9t21 -9l10 -10q9 -9 9 -21q0 -10 -9 -21q-71 -83 -184 -83q-96 0 -155.5 67.5t-59.5 167.5t59.5 167.5t155.5 67.5t155.5 -68t59.5 -170q0 -13 -9 -21.5t-21 -8.5h-323q1 -5 3 -13.5t12 -31
t23.5 -39t40 -30.5t59.5 -14zM185 543l107 114q9 7 17 7q13 0 21 -11l10 -12q6 -7 6 -18q0 -12 -12 -22l-122 -95q-9 -7 -17 -7q-7 0 -16 10q-6 7 -6 13q0 9 12 21z" />
    <glyph glyph-name="ecircumflex" unicode="&#xea;" horiz-adv-x="524" 
d="M124 246h276q-29 132 -138 132t-138 -132zM262 54q78 0 132 61q9 9 21 9t21 -9l10 -10q9 -9 9 -21q0 -10 -9 -21q-71 -83 -184 -83q-96 0 -155.5 67.5t-59.5 167.5t59.5 167.5t155.5 67.5t155.5 -68t59.5 -170q0 -13 -9 -21.5t-21 -8.5h-323q1 -5 3 -13.5t12 -31
t23.5 -39t40 -30.5t59.5 -14zM327 500l-65 84l-65 -84q-17 -20 -37 -20h-10q-22 0 -22 11l16 29l97 135q13 18 21 18t21 -18l97 -135q16 -24 16 -29q0 -11 -22 -11h-10q-9 0 -18 5t-14 10z" />
    <glyph glyph-name="edieresis" unicode="&#xeb;" horiz-adv-x="524" 
d="M124 246h276q-29 132 -138 132t-138 -132zM262 54q78 0 132 61q9 9 21 9t21 -9l10 -10q9 -9 9 -21q0 -10 -9 -21q-71 -83 -184 -83q-96 0 -155.5 67.5t-59.5 167.5t59.5 167.5t155.5 67.5t155.5 -68t59.5 -170q0 -13 -9 -21.5t-21 -8.5h-323q1 -5 3 -13.5t12 -31
t23.5 -39t40 -30.5t59.5 -14zM147 553q0 19 13 32t32 13t32 -13t13 -32t-13 -32t-32 -13t-32 13t-13 32zM287 553q0 19 13 32t32 13t32 -13t13 -32t-13 -32t-32 -13t-32 13t-13 32z" />
    <glyph glyph-name="igrave" unicode="&#xec;" horiz-adv-x="193" 
d="M62 30v370q0 13 9 21.5t21 8.5h14q12 0 21 -8.5t9 -21.5v-370q0 -13 -9 -21.5t-21 -8.5h-14q-12 0 -21 8.5t-9 21.5zM64 657l107 -114q12 -12 12 -21q0 -6 -6 -13q-9 -10 -16 -10q-8 0 -17 7l-122 95q-12 10 -12 22q0 11 6 18l10 12q8 11 21 11q8 0 17 -7z" />
    <glyph glyph-name="iacute" unicode="&#xed;" horiz-adv-x="193" 
d="M62 30q0 -13 9 -21.5t21 -8.5h14q12 0 21 8.5t9 21.5v370q0 13 -9 21.5t-21 8.5h-14q-12 0 -21 -8.5t-9 -21.5v-370zM22 543l107 114q9 7 17 7q13 0 21 -11l10 -12q6 -7 6 -18q0 -12 -12 -22l-122 -95q-9 -7 -17 -7q-7 0 -16 10q-6 7 -6 13q0 9 12 21z" />
    <glyph glyph-name="icircumflex" unicode="&#xee;" horiz-adv-x="288" 
d="M107 30v370q0 13 9 21.5t21 8.5h14q12 0 21 -8.5t9 -21.5v-370q0 -13 -9 -21.5t-21 -8.5h-14q-12 0 -21 8.5t-9 21.5zM209 500l-65 84l-65 -84q-17 -20 -37 -20h-10q-22 0 -22 11l16 29l97 135q13 18 21 18t21 -18l97 -135q16 -24 16 -29q0 -11 -22 -11h-10q-9 0 -18 5
t-14 10z" />
    <glyph glyph-name="idieresis" unicode="&#xef;" horiz-adv-x="250" 
d="M88 30q0 -13 9 -21.5t21 -8.5h14q12 0 21 8.5t9 21.5v370q0 13 -9 21.5t-21 8.5h-14q-12 0 -21 -8.5t-9 -21.5v-370zM10 553q0 19 13 32t32 13t32 -13t13 -32t-13 -32t-32 -13t-32 13t-13 32zM150 553q0 19 13 32t32 13t32 -13t13 -32t-13 -32t-32 -13t-32 13t-13 32z
" />
    <glyph glyph-name="eth" unicode="&#xf0;" horiz-adv-x="601" 
d="M476 600l-62 -26q92 -236 92 -356q0 -20 -3.5 -44t-17.5 -60.5t-38 -64.5t-70.5 -48.5t-108.5 -20.5q-97 0 -159 68t-62 168q0 98 62 166t159 68q83 0 128 -53l-54 147l-44 -18q-12 -5 -17 -5q-13 0 -13 34q0 32 30 44l21 9l-19 54q-4 8 -4 15q0 23 24 23h20q22 0 34 -30
l14 -34l88 36q11 5 17 5q13 0 13 -34q0 -31 -30 -43zM419 216q0 44 -16.5 77.5t-41.5 50.5t-49 25.5t-44 8.5q-65 0 -106.5 -47t-41.5 -115t41.5 -115t106.5 -47q21 0 44 7t48.5 23t42 50.5t16.5 81.5z" />
    <glyph glyph-name="ntilde" unicode="&#xf1;" horiz-adv-x="494" 
d="M304 559q7 0 12.5 3.5t7.5 6.5l2 3q5 17 27 17h11q19 0 19 -17q0 -3 -1 -8.5t-6 -19.5t-12.5 -24.5t-23.5 -19.5t-36 -9q-22 0 -48 17.5t-48 17.5q-7 0 -12.5 -3t-7.5 -7l-2 -3q-5 -17 -27 -17h-11q-19 0 -19 17q0 3 1 8.5t6 19.5t12.5 24.5t23.5 19.5t36 9
q22 0 48 -17.5t48 -17.5zM134 383v17q0 13 -9 21.5t-21 8.5h-14q-12 0 -21 -8.5t-9 -21.5v-370q0 -13 9 -21.5t21 -8.5h14q12 0 21 8.5t9 21.5v250q45 94 119 94q41 0 66 -27.5t33 -61t8 -73.5v-182q0 -13 9 -21.5t21 -8.5h14q12 0 21 8.5t9 21.5v202q0 214 -181 214
q-64 0 -119 -63z" />
    <glyph glyph-name="ograve" unicode="&#xf2;" horiz-adv-x="564" 
d="M47 215q0 97 68.5 166t166.5 69t166.5 -69t68.5 -166t-68.5 -166t-166.5 -69t-166.5 69t-68.5 166zM120 216q0 -67 47.5 -114.5t114.5 -47.5t114.5 47.5t47.5 114.5t-47.5 114.5t-114.5 47.5t-114.5 -47.5t-47.5 -114.5zM247 657l107 -114q12 -12 12 -21q0 -6 -6 -13
q-9 -10 -16 -10q-8 0 -17 7l-122 95q-12 10 -12 22q0 11 6 18l10 12q8 11 21 11q8 0 17 -7z" />
    <glyph glyph-name="oacute" unicode="&#xf3;" horiz-adv-x="564" 
d="M47 215q0 97 68.5 166t166.5 69t166.5 -69t68.5 -166t-68.5 -166t-166.5 -69t-166.5 69t-68.5 166zM120 216q0 -67 47.5 -114.5t114.5 -47.5t114.5 47.5t47.5 114.5t-47.5 114.5t-114.5 47.5t-114.5 -47.5t-47.5 -114.5zM205 543l107 114q9 7 17 7q13 0 21 -11l10 -12
q6 -7 6 -18q0 -12 -12 -22l-122 -95q-9 -7 -17 -7q-7 0 -16 10q-6 7 -6 13q0 9 12 21z" />
    <glyph glyph-name="ocircumflex" unicode="&#xf4;" horiz-adv-x="564" 
d="M47 215q0 97 68.5 166t166.5 69t166.5 -69t68.5 -166t-68.5 -166t-166.5 -69t-166.5 69t-68.5 166zM120 216q0 -67 47.5 -114.5t114.5 -47.5t114.5 47.5t47.5 114.5t-47.5 114.5t-114.5 47.5t-114.5 -47.5t-47.5 -114.5zM347 500l-65 84l-65 -84q-17 -20 -37 -20h-10
q-22 0 -22 11l16 29l97 135q13 18 21 18t21 -18l97 -135q16 -24 16 -29q0 -11 -22 -11h-10q-9 0 -18 5t-14 10z" />
    <glyph glyph-name="otilde" unicode="&#xf5;" horiz-adv-x="564" 
d="M47 215q0 97 68.5 166t166.5 69t166.5 -69t68.5 -166t-68.5 -166t-166.5 -69t-166.5 69t-68.5 166zM120 216q0 -67 47.5 -114.5t114.5 -47.5t114.5 47.5t47.5 114.5t-47.5 114.5t-114.5 47.5t-114.5 -47.5t-47.5 -114.5zM330 559q7 0 12.5 3.5t7.5 6.5l2 3q5 17 27 17h11
q19 0 19 -17q0 -3 -1 -8.5t-6 -19.5t-12.5 -24.5t-23.5 -19.5t-36 -9q-22 0 -48 17.5t-48 17.5q-7 0 -12.5 -3t-7.5 -7l-2 -3q-5 -17 -27 -17h-11q-19 0 -19 17q0 3 1 8.5t6 19.5t12.5 24.5t23.5 19.5t36 9q22 0 48 -17.5t48 -17.5z" />
    <glyph glyph-name="odieresis" unicode="&#xf6;" horiz-adv-x="564" 
d="M47 215q0 97 68.5 166t166.5 69t166.5 -69t68.5 -166t-68.5 -166t-166.5 -69t-166.5 69t-68.5 166zM120 216q0 -67 47.5 -114.5t114.5 -47.5t114.5 47.5t47.5 114.5t-47.5 114.5t-114.5 47.5t-114.5 -47.5t-47.5 -114.5zM167 553q0 19 13 32t32 13t32 -13t13 -32t-13 -32
t-32 -13t-32 13t-13 32zM307 553q0 19 13 32t32 13t32 -13t13 -32t-13 -32t-32 -13t-32 13t-13 32z" />
    <glyph glyph-name="divide" unicode="&#xf7;" horiz-adv-x="490" 
d="M199 546q0 19 13 32t32 13t32 -13t13 -32t-13 -32t-32 -13t-32 13t-13 32zM199 245q0 19 13 32t32 13t32 -13t13 -32t-13 -32t-32 -13t-32 13t-13 32zM410 361h-332q-13 0 -21.5 9t-8.5 21v9q0 12 8.5 21t21.5 9h332q13 0 21.5 -9t8.5 -21v-9q0 -12 -8.5 -21t-21.5 -9z
" />
    <glyph glyph-name="oslash" unicode="&#xf8;" horiz-adv-x="564" 
d="M47 215q0 97 68.5 166t166.5 69q28 0 53 -6l25 61q8 18 26 18l14 -2l14 -6q18 -8 18 -29q0 -3 -2 -11l-25 -60q51 -31 81.5 -84.5t30.5 -115.5q0 -97 -68.5 -166t-166.5 -69q-25 0 -55 7l-25 -61q-6 -18 -27 -18l-12 2l-14 6q-19 7 -19 27q0 6 3 12l25 60q-51 31 -81 84
t-30 116zM444 216q0 81 -67 131l-121 -291q8 -2 26 -2q67 0 114.5 47.5t47.5 114.5zM120 216q0 -84 67 -131l120 291q-16 2 -25 2q-67 0 -114.5 -47.5t-47.5 -114.5z" />
    <glyph glyph-name="ugrave" unicode="&#xf9;" horiz-adv-x="494" 
d="M212 657l107 -114q12 -12 12 -21q0 -6 -6 -13q-9 -10 -16 -10q-8 0 -17 7l-122 95q-12 10 -12 22q0 11 6 18l10 12q8 11 21 11q8 0 17 -7zM360 48q-25 -29 -59 -46t-60 -17q-181 0 -181 209v206q0 13 9 21.5t21 8.5h14q12 0 21 -8.5t9 -21.5v-186q0 -63 25 -111t82 -48
q73 0 119 96v249q0 13 9 21.5t21 8.5h14q12 0 21 -8.5t9 -21.5v-370q0 -13 -9 -21.5t-21 -8.5h-14q-12 0 -21 8.5t-9 21.5v18z" />
    <glyph glyph-name="uacute" unicode="&#xfa;" horiz-adv-x="494" 
d="M170 543l107 114q9 7 17 7q13 0 21 -11l10 -12q6 -7 6 -18q0 -12 -12 -22l-122 -95q-9 -7 -17 -7q-7 0 -16 10q-6 7 -6 13q0 9 12 21zM360 48v-18q0 -13 9 -21.5t21 -8.5h14q12 0 21 8.5t9 21.5v370q0 13 -9 21.5t-21 8.5h-14q-12 0 -21 -8.5t-9 -21.5v-249
q-46 -96 -119 -96q-57 0 -82 48t-25 111v186q0 13 -9 21.5t-21 8.5h-14q-12 0 -21 -8.5t-9 -21.5v-206q0 -209 181 -209q26 0 60 17t59 46z" />
    <glyph glyph-name="ucircumflex" unicode="&#xfb;" horiz-adv-x="494" 
d="M312 500l-65 84l-65 -84q-17 -20 -37 -20h-10q-22 0 -22 11l16 29l97 135q13 18 21 18t21 -18l97 -135q16 -24 16 -29q0 -11 -22 -11h-10q-9 0 -18 5t-14 10zM360 48q-25 -29 -59 -46t-60 -17q-181 0 -181 209v206q0 13 9 21.5t21 8.5h14q12 0 21 -8.5t9 -21.5v-186
q0 -63 25 -111t82 -48q73 0 119 96v249q0 13 9 21.5t21 8.5h14q12 0 21 -8.5t9 -21.5v-370q0 -13 -9 -21.5t-21 -8.5h-14q-12 0 -21 8.5t-9 21.5v18z" />
    <glyph glyph-name="udieresis" unicode="&#xfc;" horiz-adv-x="494" 
d="M132 553q0 19 13 32t32 13t32 -13t13 -32t-13 -32t-32 -13t-32 13t-13 32zM272 553q0 19 13 32t32 13t32 -13t13 -32t-13 -32t-32 -13t-32 13t-13 32zM360 48v-18q0 -13 9 -21.5t21 -8.5h14q12 0 21 8.5t9 21.5v370q0 13 -9 21.5t-21 8.5h-14q-12 0 -21 -8.5t-9 -21.5
v-249q-46 -96 -119 -96q-57 0 -82 48t-25 111v186q0 13 -9 21.5t-21 8.5h-14q-12 0 -21 -8.5t-9 -21.5v-206q0 -209 181 -209q26 0 60 17t59 46z" />
    <glyph glyph-name="yacute" unicode="&#xfd;" horiz-adv-x="418" 
d="M35 -180h12q75 0 135 96l225 484q6 12 6 17q0 13 -28 13h-19q-24 0 -39 -30l-109 -241l-5 -30l-5 30l-109 241q-15 30 -39 30h-19q-28 0 -28 -13l6 -17l156 -338l-55 -116q-16 -30 -37.5 -46t-35.5 -16h-12q-13 0 -21.5 -9t-8.5 -21v-4q0 -12 8.5 -21t21.5 -9zM136 543
l107 114q9 7 17 7q13 0 21 -11l10 -12q6 -7 6 -18q0 -12 -12 -22l-122 -95q-9 -7 -17 -7q-7 0 -16 10q-6 7 -6 13q0 9 12 21z" />
    <glyph glyph-name="thorn" unicode="&#xfe;" horiz-adv-x="570" 
d="M133 216q0 -47 15.5 -81.5t39.5 -50.5t46 -23t43 -7q65 0 106.5 47t41.5 115t-41.5 115t-106.5 47q-48 0 -96 -40t-48 -122zM69 -140v810q0 13 9 21.5t21 8.5h14q12 0 21 -8.5t9 -21.5v-281q48 61 134 61q97 0 159 -68t62 -166q0 -100 -62 -168t-159 -68
q-42 0 -77.5 19.5t-56.5 45.5v-185q0 -13 -9 -21.5t-21 -8.5h-14q-12 0 -21 8.5t-9 21.5z" />
    <glyph glyph-name="ydieresis" unicode="&#xff;" horiz-adv-x="418" 
d="M35 -180h12q75 0 135 96l225 484q6 12 6 17q0 13 -28 13h-19q-24 0 -39 -30l-109 -241l-5 -30l-5 30l-109 241q-15 30 -39 30h-19q-28 0 -28 -13l6 -17l156 -338l-55 -116q-16 -30 -37.5 -46t-35.5 -16h-12q-13 0 -21.5 -9t-8.5 -21v-4q0 -12 8.5 -21t21.5 -9zM98 553
q0 19 13 32t32 13t32 -13t13 -32t-13 -32t-32 -13t-32 13t-13 32zM238 553q0 19 13 32t32 13t32 -13t13 -32t-13 -32t-32 -13t-32 13t-13 32z" />
    <glyph glyph-name="Amacron" unicode="&#x100;" horiz-adv-x="552" 
d="M276 525l4 -20l97 -255h-202l97 255zM146 171h260l54 -141q11 -30 36 -30h18q34 0 34 13l-3 17l-251 662q-5 18 -18 18q-6 0 -10.5 -4.5t-5.5 -9.5l-2 -4l-251 -662q-3 -10 -3 -17q0 -13 34 -13h18q25 0 36 30zM374 776h-196q-13 0 -21.5 9t-8.5 21v9q0 12 8.5 21t21.5 9
h196q13 0 21.5 -9t8.5 -21v-9q0 -12 -8.5 -21t-21.5 -9z" />
    <glyph glyph-name="amacron" unicode="&#x101;" horiz-adv-x="466" 
d="M326 506h-196q-13 0 -21.5 9t-8.5 21v9q0 12 8.5 21t21.5 9h196q13 0 21.5 -9t8.5 -21v-9q0 -12 -8.5 -21t-21.5 -9zM332 147v30q-39 17 -105 17q-106 0 -106 -75q0 -26 23.5 -43t63.5 -17q38 0 72.5 23t51.5 65zM94 419q55 31 134 31q92 0 135 -48.5t43 -122.5v-249
q0 -13 -9 -21.5t-21 -8.5h-14q-12 0 -21 8.5t-9 21.5v20q-39 -65 -124 -65q-72 0 -116.5 37.5t-44.5 96.5q0 73 52 107t132 34q62 0 101 -14v43q0 40 -35 64.5t-69 24.5q-52 0 -80 -14q-14 -8 -22 -8q-12 0 -23 11l-12 13q-7 7 -7 18q0 14 10 21z" />
    <glyph glyph-name="Abreve" unicode="&#x102;" horiz-adv-x="552" 
d="M276 525l4 -20l97 -255h-202l97 255zM146 171h260l54 -141q11 -30 36 -30h18q34 0 34 13l-3 17l-251 662q-5 18 -18 18q-6 0 -10.5 -4.5t-5.5 -9.5l-2 -4l-251 -662q-3 -10 -3 -17q0 -13 34 -13h18q25 0 36 30zM276 815q47 0 65 29q6 11 19 11q9 0 21 -10.5t12 -22.5
q0 -8 -9 -21q-32 -41 -108 -41t-108 41q-9 13 -9 21q0 12 12 22.5t21 10.5q13 0 19 -11q18 -29 65 -29z" />
    <glyph glyph-name="abreve" unicode="&#x103;" horiz-adv-x="466" 
d="M228 545q47 0 65 29q6 11 19 11q9 0 21 -10.5t12 -22.5q0 -8 -9 -21q-32 -41 -108 -41t-108 41q-9 13 -9 21q0 12 12 22.5t21 10.5q13 0 19 -11q18 -29 65 -29zM332 147v30q-39 17 -105 17q-106 0 -106 -75q0 -26 23.5 -43t63.5 -17q38 0 72.5 23t51.5 65zM94 419
q55 31 134 31q92 0 135 -48.5t43 -122.5v-249q0 -13 -9 -21.5t-21 -8.5h-14q-12 0 -21 8.5t-9 21.5v20q-39 -65 -124 -65q-72 0 -116.5 37.5t-44.5 96.5q0 73 52 107t132 34q62 0 101 -14v43q0 40 -35 64.5t-69 24.5q-52 0 -80 -14q-14 -8 -22 -8q-12 0 -23 11l-12 13
q-7 7 -7 18q0 14 10 21z" />
    <glyph glyph-name="Aogonek" unicode="&#x104;" horiz-adv-x="583" 
d="M280 505l-4 20l-4 -20l-97 -255h202zM294 692l256 -675q3 -8 3 -14t-8 -12q-60 -51 -60 -74q0 -24 77 -49q17 -5 17 -17q0 -9 -7 -20q-14 -21 -36 -21q-46 0 -77.5 20t-42.5 41.5t-11 37.5q0 18 11 34.5t31 34t24 22.5l-65 171h-260l-54 -141q-11 -30 -36 -30h-18
q-34 0 -34 13l3 17l251 662q5 18 18 18q6 0 10.5 -4.5t5.5 -9.5z" />
    <glyph glyph-name="aogonek" unicode="&#x105;" horiz-adv-x="466" 
d="M332 142v35q-39 17 -105 17q-106 0 -106 -75q0 -27 23 -46t64 -19q39 0 73 22.5t51 65.5zM406 279v-263q0 -16 -11 -26q-49 -41 -49 -73q0 -24 77 -49q17 -5 17 -17q0 -9 -7 -20q-14 -21 -36 -21q-46 0 -77.5 20t-42.5 41.5t-11 37.5q0 18 11 34.5t31 34t24 22.5v49
q-39 -65 -124 -65q-71 0 -116 38t-45 97q0 73 52 107t132 34q62 0 101 -14v43q0 40 -35 64.5t-69 24.5q-52 0 -80 -14q-14 -8 -22 -8q-12 0 -23 11l-12 13q-7 7 -7 18q0 14 10 21q55 31 134 31q92 0 135 -48.5t43 -122.5z" />
    <glyph glyph-name="Cacute" unicode="&#x106;" horiz-adv-x="720" 
d="M442 -20q83 0 159 37q30 15 30 39v29q0 34 -13 34l-26 -12q-68 -43 -150 -43q-118 0 -199.5 83.5t-81.5 202.5t81.5 202.5t199.5 83.5q82 0 150 -43q19 -12 26 -12q13 0 13 34v29q0 24 -30 39q-76 37 -159 37q-153 0 -261.5 -108.5t-108.5 -261.5t108.5 -261.5
t261.5 -108.5zM332 813l107 114q9 7 17 7q13 0 21 -11l10 -12q6 -7 6 -18q0 -12 -12 -22l-122 -95q-9 -7 -17 -7q-7 0 -16 10q-6 7 -6 13q0 9 12 21z" />
    <glyph glyph-name="cacute" unicode="&#x107;" horiz-adv-x="457" 
d="M47 216q0 97 69 165.5t167 68.5q42 0 89 -17q30 -9 30 -36v-33q0 -20 -15 -20q-3 0 -15 7q-42 27 -89 27q-67 0 -114.5 -47.5t-47.5 -114.5t47.5 -114.5t114.5 -47.5q46 0 88 26q13 8 16 8q15 0 15 -20v-35q0 -27 -30 -36q-47 -17 -89 -17q-98 0 -167 69.5t-69 166.5z
M201 543l107 114q9 7 17 7q13 0 21 -11l10 -12q6 -7 6 -18q0 -12 -12 -22l-122 -95q-9 -7 -17 -7q-7 0 -16 10q-6 7 -6 13q0 9 12 21z" />
    <glyph glyph-name="Ccircumflex" unicode="&#x108;" horiz-adv-x="720" 
d="M442 -20q-153 0 -261.5 108.5t-108.5 261.5t108.5 261.5t261.5 108.5q83 0 159 -37q30 -15 30 -39v-29q0 -34 -13 -34l-26 12q-68 43 -150 43q-118 0 -199.5 -83.5t-81.5 -202.5t81.5 -202.5t199.5 -83.5q82 0 150 43q19 12 26 12q13 0 13 -34v-29q0 -24 -30 -39
q-76 -37 -159 -37zM480 770l-65 84l-65 -84q-17 -20 -37 -20h-10q-22 0 -22 11l16 29l97 135q13 18 21 18t21 -18l97 -135q16 -24 16 -29q0 -11 -22 -11h-10q-9 0 -18 5t-14 10z" />
    <glyph glyph-name="ccircumflex" unicode="&#x109;" horiz-adv-x="457" 
d="M47 216q0 97 69 165.5t167 68.5q42 0 89 -17q30 -9 30 -36v-33q0 -20 -15 -20q-3 0 -15 7q-42 27 -89 27q-67 0 -114.5 -47.5t-47.5 -114.5t47.5 -114.5t114.5 -47.5q46 0 88 26q13 8 16 8q15 0 15 -20v-35q0 -27 -30 -36q-47 -17 -89 -17q-98 0 -167 69.5t-69 166.5z
M323 500l-65 84l-65 -84q-17 -20 -37 -20h-10q-22 0 -22 11l16 29l97 135q13 18 21 18t21 -18l97 -135q16 -24 16 -29q0 -11 -22 -11h-10q-9 0 -18 5t-14 10z" />
    <glyph glyph-name="Cdotaccent" unicode="&#x10a;" horiz-adv-x="720" 
d="M442 -20q83 0 159 37q30 15 30 39v29q0 34 -13 34l-26 -12q-68 -43 -150 -43q-118 0 -199.5 83.5t-81.5 202.5t81.5 202.5t199.5 83.5q82 0 150 -43q19 -12 26 -12q13 0 13 34v29q0 24 -30 39q-76 37 -159 37q-153 0 -261.5 -108.5t-108.5 -261.5t108.5 -261.5
t261.5 -108.5zM374 838q0 19 13 32t32 13t32 -13t13 -32t-13 -32t-32 -13t-32 13t-13 32z" />
    <glyph glyph-name="cdotaccent" unicode="&#x10b;" horiz-adv-x="457" 
d="M47 216q0 97 69 165.5t167 68.5q42 0 89 -17q30 -9 30 -36v-33q0 -20 -15 -20q-3 0 -15 7q-42 27 -89 27q-67 0 -114.5 -47.5t-47.5 -114.5t47.5 -114.5t114.5 -47.5q46 0 88 26q13 8 16 8q15 0 15 -20v-35q0 -27 -30 -36q-47 -17 -89 -17q-98 0 -167 69.5t-69 166.5z
M217 568q0 19 13 32t32 13t32 -13t13 -32t-13 -32t-32 -13t-32 13t-13 32z" />
    <glyph glyph-name="Ccaron" unicode="&#x10c;" horiz-adv-x="720" 
d="M442 -20q83 0 159 37q30 15 30 39v29q0 34 -13 34l-26 -12q-68 -43 -150 -43q-118 0 -199.5 83.5t-81.5 202.5t81.5 202.5t199.5 83.5q82 0 150 -43q19 -12 26 -12q13 0 13 34v29q0 24 -30 39q-76 37 -159 37q-153 0 -261.5 -108.5t-108.5 -261.5t108.5 -261.5
t261.5 -108.5zM412 849l65 84q17 20 37 20h10q22 0 22 -11l-16 -29l-97 -135q-13 -18 -21 -18t-21 18l-97 135q-16 24 -16 29q0 11 22 11h10q9 0 18 -5t14 -10l5 -5z" />
    <glyph glyph-name="ccaron" unicode="&#x10d;" horiz-adv-x="457" 
d="M47 216q0 97 69 165.5t167 68.5q42 0 89 -17q30 -9 30 -36v-33q0 -20 -15 -20q-3 0 -15 7q-42 27 -89 27q-67 0 -114.5 -47.5t-47.5 -114.5t47.5 -114.5t114.5 -47.5q46 0 88 26q13 8 16 8q15 0 15 -20v-35q0 -27 -30 -36q-47 -17 -89 -17q-98 0 -167 69.5t-69 166.5z
M258 579l65 84q17 20 37 20h10q22 0 22 -11l-16 -29l-97 -135q-13 -18 -21 -18t-21 18l-97 135q-16 24 -16 29q0 11 22 11h10q9 0 18 -5t14 -10l5 -5z" />
    <glyph glyph-name="Dcaron" unicode="&#x10e;" horiz-adv-x="694" 
d="M272 0h-152q-12 0 -21 8.5t-9 21.5v640q0 13 9 21.5t21 8.5h152q156 0 253 -101t97 -249t-97 -249t-253 -101zM174 79h98q115 0 190.5 81.5t75.5 189.5t-75.5 189.5t-190.5 81.5h-98v-542zM272 849l65 84q17 20 37 20h10q22 0 22 -11l-16 -29l-97 -135q-13 -18 -21 -18
t-21 18l-97 135q-16 24 -16 29q0 11 22 11h10q9 0 18 -5t14 -10l5 -5z" />
    <glyph glyph-name="dcaron" unicode="&#x10f;" horiz-adv-x="579" 
d="M505 479l62 194q5 17 24 17q9 0 15 -2l15 -5q19 -7 19 -25q0 -6 -3 -14l-76 -189q-7 -17 -24 -17q-4 0 -16 3q-19 7 -19 24q0 5 3 14zM413 216q0 42 -15.5 74.5t-39 49t-46.5 24.5t-43 8q-66 0 -107 -44t-41 -112t41 -113.5t107 -45.5q20 0 42.5 7.5t46.5 23.5t39.5 49.5
t15.5 78.5zM477 30q0 -13 -9 -21.5t-21 -8.5h-14q-12 0 -21 8.5t-9 21.5v20q-21 -26 -56.5 -45.5t-77.5 -19.5q-97 0 -159 66t-62 165q0 98 62 164t159 66q39 0 75 -18t59 -47v299q0 13 9 21.5t21 8.5h14q12 0 21 -8.5t9 -21.5v-650z" />
    <glyph glyph-name="Dcroat" unicode="&#x110;" horiz-adv-x="725" 
d="M283 0h-152q-12 0 -21 8.5t-9 21.5v640q0 13 9 21.5t21 8.5h152q156 0 253 -101t97 -249t-97 -249t-253 -101zM185 79h98q115 0 190.5 81.5t75.5 189.5t-75.5 189.5t-190.5 81.5h-98v-542zM234 310h-182q-13 0 -21.5 9t-8.5 21v19q0 12 8.5 21t21.5 9h182q13 0 21.5 -9
t8.5 -21v-19q0 -12 -8.5 -21t-21.5 -9z" />
    <glyph glyph-name="dcroat" unicode="&#x111;" horiz-adv-x="553" 
d="M479 30q0 -13 -9 -21.5t-21 -8.5h-14q-12 0 -21 8.5t-9 21.5v19q-21 -26 -56.5 -45t-77.5 -19q-97 0 -159 66t-62 165q0 98 62 164t159 66q39 0 75 -18t59 -47v143h-44q-13 0 -21.5 9t-8.5 21v14q0 12 8.5 21t21.5 9h44v82q0 13 9 21.5t21 8.5h14q12 0 21 -8.5t9 -21.5
v-82h44q13 0 21.5 -9t8.5 -21v-14q0 -12 -8.5 -21t-21.5 -9h-44v-494zM415 216q0 44 -16 76.5t-40.5 48.5t-47 23.5t-40.5 7.5q-66 0 -107 -44t-41 -112t41 -113.5t107 -45.5q19 0 41 7t46.5 22.5t40.5 49.5t16 80z" />
    <glyph glyph-name="Emacron" unicode="&#x112;" horiz-adv-x="565" 
d="M120 0h332q12 0 21 8.5t9 21.5v19q0 13 -9 21.5t-21 8.5h-278v253h248q12 0 21 8.5t9 21.5v19q0 13 -9 21.5t-21 8.5h-248v210h278q12 0 21 8.5t9 21.5v19q0 13 -9 21.5t-21 8.5h-332q-12 0 -21 -8.5t-9 -21.5v-640q0 -13 9 -21.5t21 -8.5zM384 776h-196q-13 0 -21.5 9
t-8.5 21v9q0 12 8.5 21t21.5 9h196q13 0 21.5 -9t8.5 -21v-9q0 -12 -8.5 -21t-21.5 -9z" />
    <glyph glyph-name="emacron" unicode="&#x113;" horiz-adv-x="524" 
d="M124 246h276q-29 132 -138 132t-138 -132zM262 54q78 0 132 61q9 9 21 9t21 -9l10 -10q9 -9 9 -21q0 -10 -9 -21q-71 -83 -184 -83q-96 0 -155.5 67.5t-59.5 167.5t59.5 167.5t155.5 67.5t155.5 -68t59.5 -170q0 -13 -9 -21.5t-21 -8.5h-323q1 -5 3 -13.5t12 -31
t23.5 -39t40 -30.5t59.5 -14zM360 506h-196q-13 0 -21.5 9t-8.5 21v9q0 12 8.5 21t21.5 9h196q13 0 21.5 -9t8.5 -21v-9q0 -12 -8.5 -21t-21.5 -9z" />
    <glyph glyph-name="Ebreve" unicode="&#x114;" horiz-adv-x="565" 
d="M120 0h332q12 0 21 8.5t9 21.5v19q0 13 -9 21.5t-21 8.5h-278v253h248q12 0 21 8.5t9 21.5v19q0 13 -9 21.5t-21 8.5h-248v210h278q12 0 21 8.5t9 21.5v19q0 13 -9 21.5t-21 8.5h-332q-12 0 -21 -8.5t-9 -21.5v-640q0 -13 9 -21.5t21 -8.5zM296 815q47 0 65 29
q6 11 19 11q9 0 21 -10.5t12 -22.5q0 -8 -9 -21q-32 -41 -108 -41t-108 41q-9 13 -9 21q0 12 12 22.5t21 10.5q13 0 19 -11q18 -29 65 -29z" />
    <glyph glyph-name="ebreve" unicode="&#x115;" horiz-adv-x="524" 
d="M124 246h276q-29 132 -138 132t-138 -132zM262 54q78 0 132 61q9 9 21 9t21 -9l10 -10q9 -9 9 -21q0 -10 -9 -21q-71 -83 -184 -83q-96 0 -155.5 67.5t-59.5 167.5t59.5 167.5t155.5 67.5t155.5 -68t59.5 -170q0 -13 -9 -21.5t-21 -8.5h-323q1 -5 3 -13.5t12 -31
t23.5 -39t40 -30.5t59.5 -14zM262 545q47 0 65 29q6 11 19 11q9 0 21 -10.5t12 -22.5q0 -8 -9 -21q-32 -41 -108 -41t-108 41q-9 13 -9 21q0 12 12 22.5t21 10.5q13 0 19 -11q18 -29 65 -29z" />
    <glyph glyph-name="Edotaccent" unicode="&#x116;" horiz-adv-x="565" 
d="M120 0h332q12 0 21 8.5t9 21.5v19q0 13 -9 21.5t-21 8.5h-278v253h248q12 0 21 8.5t9 21.5v19q0 13 -9 21.5t-21 8.5h-248v210h278q12 0 21 8.5t9 21.5v19q0 13 -9 21.5t-21 8.5h-332q-12 0 -21 -8.5t-9 -21.5v-640q0 -13 9 -21.5t21 -8.5zM231 838q0 19 13 32t32 13
t32 -13t13 -32t-13 -32t-32 -13t-32 13t-13 32z" />
    <glyph glyph-name="edotaccent" unicode="&#x117;" horiz-adv-x="524" 
d="M124 246h276q-29 132 -138 132t-138 -132zM262 54q78 0 132 61q9 9 21 9t21 -9l10 -10q9 -9 9 -21q0 -10 -9 -21q-71 -83 -184 -83q-96 0 -155.5 67.5t-59.5 167.5t59.5 167.5t155.5 67.5t155.5 -68t59.5 -170q0 -13 -9 -21.5t-21 -8.5h-323q1 -5 3 -13.5t12 -31
t23.5 -39t40 -30.5t59.5 -14zM217 568q0 19 13 32t32 13t32 -13t13 -32t-13 -32t-32 -13t-32 13t-13 32z" />
    <glyph glyph-name="Eogonek" unicode="&#x118;" horiz-adv-x="565" 
d="M338 -190q-46 0 -77.5 20t-42.5 41.5t-11 37.5q0 18 11 34.5t31 34t24 22.5h-153q-12 0 -21 8.5t-9 21.5v640q0 13 9 21.5t21 8.5h332q12 0 21 -8.5t9 -21.5v-19q0 -13 -9 -21.5t-21 -8.5h-278v-210h248q12 0 21 -8.5t9 -21.5v-19q0 -13 -9 -21.5t-21 -8.5h-248v-253h278
q12 0 21 -8.5t9 -21.5v-19q0 -13 -9 -21.5t-21 -8.5h-94q-2 -2 -12 -10.5t-14.5 -12t-13 -11.5t-12.5 -13t-9.5 -12t-7.5 -13t-2 -11q0 -24 77 -49q17 -5 17 -17q0 -9 -7 -20q-14 -21 -36 -21z" />
    <glyph glyph-name="eogonek" unicode="&#x119;" horiz-adv-x="524" 
d="M124 246h276q-29 132 -138 132t-138 -132zM232 -18q-84 11 -134.5 76.5t-50.5 156.5q0 100 59.5 167.5t155.5 67.5t155.5 -68t59.5 -170q0 -13 -9 -21.5t-21 -8.5h-323q1 -5 3 -13.5t12 -31t23.5 -39t40 -30.5t59.5 -14q78 0 132 61q9 9 21 9t21 -9l10 -10q9 -9 9 -21
q0 -10 -9 -21q-47 -57 -125 -76q-56 -47 -56 -70q0 -24 77 -49q17 -5 17 -17q0 -9 -7 -20q-14 -21 -36 -21q-46 0 -77.5 20t-42.5 41.5t-11 37.5q0 14 8.5 29t16 22.5t22.5 21.5z" />
    <glyph glyph-name="Ecaron" unicode="&#x11a;" horiz-adv-x="565" 
d="M120 0h332q12 0 21 8.5t9 21.5v19q0 13 -9 21.5t-21 8.5h-278v253h248q12 0 21 8.5t9 21.5v19q0 13 -9 21.5t-21 8.5h-248v210h278q12 0 21 8.5t9 21.5v19q0 13 -9 21.5t-21 8.5h-332q-12 0 -21 -8.5t-9 -21.5v-640q0 -13 9 -21.5t21 -8.5zM296 849l65 84q17 20 37 20h10
q22 0 22 -11l-16 -29l-97 -135q-13 -18 -21 -18t-21 18l-97 135q-16 24 -16 29q0 11 22 11h10q9 0 18 -5t14 -10l5 -5z" />
    <glyph glyph-name="ecaron" unicode="&#x11b;" horiz-adv-x="524" 
d="M124 246h276q-29 132 -138 132t-138 -132zM262 54q78 0 132 61q9 9 21 9t21 -9l10 -10q9 -9 9 -21q0 -10 -9 -21q-71 -83 -184 -83q-96 0 -155.5 67.5t-59.5 167.5t59.5 167.5t155.5 67.5t155.5 -68t59.5 -170q0 -13 -9 -21.5t-21 -8.5h-323q1 -5 3 -13.5t12 -31
t23.5 -39t40 -30.5t59.5 -14zM262 579l65 84q17 20 37 20h10q22 0 22 -11l-16 -29l-97 -135q-13 -18 -21 -18t-21 18l-97 135q-16 24 -16 29q0 11 22 11h10q9 0 18 -5t14 -10l5 -5z" />
    <glyph glyph-name="Gcircumflex" unicode="&#x11c;" horiz-adv-x="805" 
d="M715 280v-136q0 -45 -26 -70q-52 -48 -118.5 -71t-128.5 -23q-153 0 -261.5 108.5t-108.5 261.5t108.5 261.5t261.5 108.5q148 0 252 -99q9 -9 9 -21t-9 -21l-18 -17q-9 -9 -21 -9t-21 9q-32 30 -83.5 52t-108.5 22q-118 0 -202 -84t-84 -202t84 -202t202 -84
q109 0 189 72v144q0 13 9 21.5t21 8.5h24q12 0 21 -8.5t9 -21.5zM505 770l-65 84l-65 -84q-17 -20 -37 -20h-10q-22 0 -22 11l16 29l97 135q13 18 21 18t21 -18l97 -135q16 -24 16 -29q0 -11 -22 -11h-10q-9 0 -18 5t-14 10z" />
    <glyph glyph-name="gcircumflex" unicode="&#x11d;" horiz-adv-x="470" 
d="M131 279q0 -41 29.5 -70.5t69.5 -29.5q41 0 70.5 29.5t29.5 70.5t-29.5 70t-70.5 29t-70 -29t-29 -70zM122 -35q3 -9 9 -20.5t18.5 -27t34 -25.5t47.5 -10q46 0 79.5 34t33.5 80q0 48 -33 79.5t-80 31.5q-73 0 -122.5 49.5t-49.5 121.5t50 122t121 50q65 0 113 -42l21 21
q9 9 21 9t21 -9l8 -8q9 -9 9 -21t-9 -21l-28 -28q16 -37 16 -75q0 -79 -61 -130q75 -55 75 -151q0 -77 -53.5 -131t-130.5 -54q-74 0 -125 47t-59 108q-1 7 -1 9q0 10 8.5 15.5t20.5 5.5h16q21 0 30 -30zM295 500l-65 84l-65 -84q-17 -20 -37 -20h-10q-22 0 -22 11l16 29
l97 135q13 18 21 18t21 -18l97 -135q16 -24 16 -29q0 -11 -22 -11h-10q-9 0 -18 5t-14 10z" />
    <glyph glyph-name="Gbreve" unicode="&#x11e;" horiz-adv-x="805" 
d="M715 144v136q0 13 -9 21.5t-21 8.5h-24q-12 0 -21 -8.5t-9 -21.5v-144q-80 -72 -189 -72q-118 0 -202 84t-84 202t84 202t202 84q57 0 108.5 -22t83.5 -52q9 -9 21 -9t21 9l18 17q9 9 9 21t-9 21q-104 99 -252 99q-153 0 -261.5 -108.5t-108.5 -261.5t108.5 -261.5
t261.5 -108.5q62 0 128.5 23t118.5 71q26 25 26 70zM440 815q47 0 65 29q6 11 19 11q9 0 21 -10.5t12 -22.5q0 -8 -9 -21q-32 -41 -108 -41t-108 41q-9 13 -9 21q0 12 12 22.5t21 10.5q13 0 19 -11q18 -29 65 -29z" />
    <glyph glyph-name="gbreve" unicode="&#x11f;" horiz-adv-x="470" 
d="M131 279q0 -41 29.5 -70.5t69.5 -29.5q41 0 70.5 29.5t29.5 70.5t-29.5 70t-70.5 29t-70 -29t-29 -70zM122 -35q3 -9 9 -20.5t18.5 -27t34 -25.5t47.5 -10q46 0 79.5 34t33.5 80q0 48 -33 79.5t-80 31.5q-73 0 -122.5 49.5t-49.5 121.5t50 122t121 50q65 0 113 -42l21 21
q9 9 21 9t21 -9l8 -8q9 -9 9 -21t-9 -21l-28 -28q16 -37 16 -75q0 -79 -61 -130q75 -55 75 -151q0 -77 -53.5 -131t-130.5 -54q-74 0 -125 47t-59 108q-1 7 -1 9q0 10 8.5 15.5t20.5 5.5h16q21 0 30 -30zM230 545q47 0 65 29q6 11 19 11q9 0 21 -10.5t12 -22.5q0 -8 -9 -21
q-32 -41 -108 -41t-108 41q-9 13 -9 21q0 12 12 22.5t21 10.5q13 0 19 -11q18 -29 65 -29z" />
    <glyph glyph-name="Gdotaccent" unicode="&#x120;" horiz-adv-x="805" 
d="M715 144v136q0 13 -9 21.5t-21 8.5h-24q-12 0 -21 -8.5t-9 -21.5v-144q-80 -72 -189 -72q-118 0 -202 84t-84 202t84 202t202 84q57 0 108.5 -22t83.5 -52q9 -9 21 -9t21 9l18 17q9 9 9 21t-9 21q-104 99 -252 99q-153 0 -261.5 -108.5t-108.5 -261.5t108.5 -261.5
t261.5 -108.5q62 0 128.5 23t118.5 71q26 25 26 70zM395 838q0 19 13 32t32 13t32 -13t13 -32t-13 -32t-32 -13t-32 13t-13 32z" />
    <glyph glyph-name="gdotaccent" unicode="&#x121;" horiz-adv-x="470" 
d="M131 279q0 -41 29.5 -70.5t69.5 -29.5q41 0 70.5 29.5t29.5 70.5t-29.5 70t-70.5 29t-70 -29t-29 -70zM122 -35q3 -9 9 -20.5t18.5 -27t34 -25.5t47.5 -10q46 0 79.5 34t33.5 80q0 48 -33 79.5t-80 31.5q-73 0 -122.5 49.5t-49.5 121.5t50 122t121 50q65 0 113 -42l21 21
q9 9 21 9t21 -9l8 -8q9 -9 9 -21t-9 -21l-28 -28q16 -37 16 -75q0 -79 -61 -130q75 -55 75 -151q0 -77 -53.5 -131t-130.5 -54q-74 0 -125 47t-59 108q-1 7 -1 9q0 10 8.5 15.5t20.5 5.5h16q21 0 30 -30zM185 568q0 19 13 32t32 13t32 -13t13 -32t-13 -32t-32 -13t-32 13
t-13 32z" />
    <glyph glyph-name="Gcommaaccent" unicode="&#x122;" horiz-adv-x="805" 
d="M715 280v-136q0 -45 -26 -70q-52 -48 -118.5 -71t-128.5 -23q-153 0 -261.5 108.5t-108.5 261.5t108.5 261.5t261.5 108.5q148 0 252 -99q9 -9 9 -21t-9 -21l-18 -17q-9 -9 -21 -9t-21 9q-32 30 -83.5 52t-108.5 22q-118 0 -202 -84t-84 -202t84 -202t202 -84
q109 0 189 72v144q0 13 9 21.5t21 8.5h24q12 0 21 -8.5t9 -21.5zM377 -191l32 114q5 18 24 18l16 -3l14 -5q19 -7 19 -25q0 -7 -3 -14l-45 -109q-7 -17 -24 -17q-4 0 -16 3q-20 7 -20 24q0 5 3 14z" />
    <glyph glyph-name="gcommaaccent" unicode="&#x123;" horiz-adv-x="474" 
d="M135 279q0 -41 29.5 -70.5t69.5 -29.5q41 0 70.5 29.5t29.5 70.5t-29.5 70t-70.5 29t-70 -29t-29 -70zM126 -35q3 -9 9 -20.5t18.5 -27t34 -25.5t47.5 -10q46 0 79.5 34t33.5 80q0 48 -33 79.5t-80 31.5q-73 0 -122.5 49.5t-49.5 121.5t50 122t121 50q65 0 113 -42l21 21
q9 9 21 9t21 -9l8 -8q9 -9 9 -21t-9 -21l-28 -28q16 -37 16 -75q0 -79 -61 -130q75 -55 75 -151q0 -77 -53.5 -131t-130.5 -54q-74 0 -125 47t-59 108q-1 7 -1 9q0 10 8.5 15.5t20.5 5.5h16q21 0 30 -30zM302 703l-52 -106q20 -5 32 -21t12 -37q0 -25 -17.5 -42t-42.5 -17
q-24 0 -41.5 17t-17.5 42l89 180q8 16 24 16q18 0 18 -17q0 -7 -4 -15z" />
    <glyph glyph-name="Hcircumflex" unicode="&#x124;" horiz-adv-x="678" 
d="M503 30v280h-329v-280q0 -13 -9 -21.5t-21 -8.5h-24q-12 0 -21 8.5t-9 21.5v640q0 13 9 21.5t21 8.5h24q12 0 21 -8.5t9 -21.5v-281h329v281q0 13 9 21.5t21 8.5h24q12 0 21 -8.5t9 -21.5v-640q0 -13 -9 -21.5t-21 -8.5h-24q-12 0 -21 8.5t-9 21.5zM403 770l-65 84
l-65 -84q-17 -20 -37 -20h-10q-22 0 -22 11l16 29l97 135q13 18 21 18t21 -18l97 -135q16 -24 16 -29q0 -11 -22 -11h-10q-9 0 -18 5t-14 10z" />
    <glyph glyph-name="hcircumflex" unicode="&#x125;" horiz-adv-x="518" 
d="M446 30q0 -13 -9 -21.5t-21 -8.5h-14q-12 0 -21 8.5t-9 21.5v181q0 40 -8 73.5t-33 61t-66 27.5q-74 0 -119 -94v-249q0 -13 -9 -21.5t-21 -8.5h-14q-12 0 -21 8.5t-9 21.5v650q0 13 9 21.5t21 8.5h14q12 0 21 -8.5t9 -21.5v-298q25 29 59 46t60 17q181 0 181 -214v-201z
M324 760l-65 84l-65 -84q-17 -20 -37 -20h-10q-22 0 -22 11l16 29l97 135q13 18 21 18t21 -18l97 -135q16 -24 16 -29q0 -11 -22 -11h-10q-9 0 -18 5t-14 10z" />
    <glyph glyph-name="Hbar" unicode="&#x126;" horiz-adv-x="754" 
d="M675 468h-49v-438q0 -13 -9 -21.5t-21 -8.5h-24q-12 0 -21 8.5t-9 21.5v280h-329v-280q0 -13 -9 -21.5t-21 -8.5h-24q-12 0 -21 8.5t-9 21.5v438h-49q-13 0 -21.5 9t-8.5 21v19q0 12 8.5 21t21.5 9h49v123q0 13 9 21.5t21 8.5h24q12 0 21 -8.5t9 -21.5v-123h329v123
q0 13 9 21.5t21 8.5h24q12 0 21 -8.5t9 -21.5v-123h49q13 0 21.5 -9t8.5 -21v-19q0 -12 -8.5 -21t-21.5 -9zM213 389h329v79h-329v-79z" />
    <glyph glyph-name="hbar" unicode="&#x127;" horiz-adv-x="537" 
d="M165 680v-82h44q13 0 21.5 -9t8.5 -21v-14q0 -12 -8.5 -21t-21.5 -9h-44v-142q25 29 59 46t60 17q181 0 181 -214v-201q0 -13 -9 -21.5t-21 -8.5h-14q-12 0 -21 8.5t-9 21.5v181q0 40 -8 73.5t-33 61t-66 27.5q-74 0 -119 -94v-249q0 -13 -9 -21.5t-21 -8.5h-14
q-12 0 -21 8.5t-9 21.5v494h-44q-13 0 -21.5 9t-8.5 21v14q0 12 8.5 21t21.5 9h44v82q0 13 9 21.5t21 8.5h14q12 0 21 -8.5t9 -21.5z" />
    <glyph glyph-name="Itilde" unicode="&#x128;" horiz-adv-x="263" 
d="M90 30v640q0 13 9 21.5t21 8.5h24q12 0 21 -8.5t9 -21.5v-640q0 -13 -9 -21.5t-21 -8.5h-24q-12 0 -21 8.5t-9 21.5zM180 829q7 0 12.5 3.5t7.5 6.5l2 3q5 17 27 17h11q19 0 19 -17q0 -3 -1 -8.5t-6 -19.5t-12.5 -24.5t-23.5 -19.5t-36 -9q-22 0 -48 17.5t-48 17.5
q-7 0 -12.5 -3t-7.5 -7l-2 -3q-5 -17 -27 -17h-11q-19 0 -19 17q0 3 1 8.5t6 19.5t12.5 24.5t23.5 19.5t36 9q22 0 48 -17.5t48 -17.5z" />
    <glyph glyph-name="itilde" unicode="&#x129;" horiz-adv-x="274" 
d="M100 30q0 -13 9 -21.5t21 -8.5h14q12 0 21 8.5t9 21.5v370q0 13 -9 21.5t-21 8.5h-14q-12 0 -21 -8.5t-9 -21.5v-370zM185 559q7 0 12.5 3.5t7.5 6.5l2 3q5 17 27 17h11q19 0 19 -17q0 -3 -1 -8.5t-6 -19.5t-12.5 -24.5t-23.5 -19.5t-36 -9q-21 0 -48 17.5t-48 17.5
q-7 0 -12.5 -3t-7.5 -7l-2 -3q-5 -17 -27 -17h-11q-19 0 -19 17q0 3 1 8.5t6 19.5t12.5 24.5t23.5 19.5t36 9q21 0 48 -17.5t48 -17.5z" />
    <glyph glyph-name="Imacron" unicode="&#x12a;" horiz-adv-x="265" 
d="M90 30v640q0 13 9 21.5t21 8.5h24q12 0 21 -8.5t9 -21.5v-640q0 -13 -9 -21.5t-21 -8.5h-24q-12 0 -21 8.5t-9 21.5zM230 776h-196q-13 0 -21.5 9t-8.5 21v9q0 12 8.5 21t21.5 9h196q13 0 21.5 -9t8.5 -21v-9q0 -12 -8.5 -21t-21.5 -9z" />
    <glyph glyph-name="imacron" unicode="&#x12b;" horiz-adv-x="276" 
d="M101 30q0 -13 9 -21.5t21 -8.5h14q12 0 21 8.5t9 21.5v370q0 13 -9 21.5t-21 8.5h-14q-12 0 -21 -8.5t-9 -21.5v-370zM236 506h-196q-13 0 -21.5 9t-8.5 21v9q0 12 8.5 21t21.5 9h196q13 0 21.5 -9t8.5 -21v-9q0 -12 -8.5 -21t-21.5 -9z" />
    <glyph glyph-name="Ibreve" unicode="&#x12c;" horiz-adv-x="263" 
d="M90 30v640q0 13 9 21.5t21 8.5h24q12 0 21 -8.5t9 -21.5v-640q0 -13 -9 -21.5t-21 -8.5h-24q-12 0 -21 8.5t-9 21.5zM132 815q47 0 65 29q6 11 19 11q9 0 21 -10.5t12 -22.5q0 -8 -9 -21q-32 -41 -108 -41t-108 41q-9 13 -9 21q0 12 12 22.5t21 10.5q13 0 19 -11
q18 -29 65 -29z" />
    <glyph glyph-name="ibreve" unicode="&#x12d;" horiz-adv-x="254" 
d="M90 30q0 -13 9 -21.5t21 -8.5h14q12 0 21 8.5t9 21.5v370q0 13 -9 21.5t-21 8.5h-14q-12 0 -21 -8.5t-9 -21.5v-370zM127 545q47 0 65 29q6 11 19 11q9 0 21 -10.5t12 -22.5q0 -8 -9 -21q-32 -41 -108 -41t-108 41q-9 13 -9 21q0 12 12 22.5t21 10.5q13 0 19 -11
q18 -29 65 -29z" />
    <glyph glyph-name="Iogonek" unicode="&#x12e;" horiz-adv-x="265" 
d="M90 0v670q0 13 9 21.5t21 8.5h24q12 0 21 -8.5t9 -21.5v-649q0 -22 -17 -37q-18 -15 -26 -22.5t-17.5 -20.5t-9.5 -24q0 -24 77 -49q17 -5 17 -17q0 -9 -7 -20q-14 -21 -36 -21q-46 0 -77.5 20t-42.5 41.5t-11 37.5q0 18 11 34.5t31 34t24 22.5z" />
    <glyph glyph-name="iogonek" unicode="&#x12f;" horiz-adv-x="184" 
d="M68 533q0 19 13 32t32 13t32 -13t13 -32t-13 -32t-32 -13t-32 13t-13 32zM76 400v-400q-4 -5 -24 -22.5t-31 -34t-11 -34.5q0 -31 28 -65t93 -34q22 0 36 21q7 11 7 20q0 12 -17 17q-67 22 -67 49q0 28 43 67q17 15 17 37v379q0 13 -9 21.5t-21 8.5h-14q-12 0 -21 -8.5
t-9 -21.5z" />
    <glyph glyph-name="Idotaccent" unicode="&#x130;" horiz-adv-x="263" 
d="M90 30v640q0 13 9 21.5t21 8.5h24q12 0 21 -8.5t9 -21.5v-640q0 -13 -9 -21.5t-21 -8.5h-24q-12 0 -21 8.5t-9 21.5zM87 838q0 19 13 32t32 13t32 -13t13 -32t-13 -32t-32 -13t-32 13t-13 32z" />
    <glyph glyph-name="dotlessi" unicode="&#x131;" horiz-adv-x="196" 
d="M61 30v370q0 13 9 21.5t21 8.5h14q12 0 21 -8.5t9 -21.5v-370q0 -13 -9 -21.5t-21 -8.5h-14q-12 0 -21 8.5t-9 21.5z" />
    <glyph glyph-name="Jcircumflex" unicode="&#x134;" horiz-adv-x="418" 
d="M71 121q3 -9 9.5 -19t26.5 -24t46 -14q37 0 62 29t25 78v450h-144q-12 0 -21 8.5t-9 21.5v19q0 13 9 21.5t21 8.5h198q12 0 21 -8.5t9 -21.5v-529q0 -64 -50.5 -112.5t-120.5 -48.5q-73 0 -120.5 50.5t-47.5 95.5q0 25 30 25h24q20 0 32 -30zM259 770l-65 84l-65 -84
q-17 -20 -37 -20h-10q-22 0 -22 11l16 29l97 135q13 18 21 18t21 -18l97 -135q16 -24 16 -29q0 -11 -22 -11h-10q-9 0 -18 5t-14 10z" />
    <glyph glyph-name="jcircumflex" unicode="&#x135;" horiz-adv-x="239" 
d="M174 400v-370q0 -56 -22 -98.5t-53 -63t-55 -29.5t-38 -9q-13 0 -21.5 8t-8.5 20v14q0 18 30 26q41 11 67.5 44t26.5 88v370q0 13 9 21.5t21 8.5h14q12 0 21 -8.5t9 -21.5zM201 500l-65 84l-65 -84q-17 -20 -37 -20h-10q-22 0 -22 11l16 29l97 135q13 18 21 18t21 -18
l97 -135q16 -24 16 -29q0 -11 -22 -11h-10q-9 0 -18 5t-14 10z" />
    <glyph glyph-name="Kcommaaccent" unicode="&#x136;" horiz-adv-x="600" 
d="M90 30v640q0 13 9 21.5t21 8.5h24q12 0 21 -8.5t9 -21.5v-293l229 293q2 2 6.5 7.5t6.5 7.5l6 6t6.5 5t7 2.5t8.5 1.5h41q39 0 39 -13q0 -3 -2.5 -8t-5.5 -8l-2 -3l-240 -303l269 -333q10 -12 10 -19q0 -13 -39 -13h-34q-4 0 -8.5 1.5t-7 2.5t-6.5 5l-6 6t-6.5 7.5
t-6.5 7.5l-219 266l-46 -59v-207q0 -13 -9 -21.5t-21 -8.5h-24q-12 0 -21 8.5t-9 21.5zM236 -191l32 114q5 18 24 18l16 -3l14 -5q19 -7 19 -25q0 -7 -3 -14l-45 -109q-7 -17 -24 -17q-4 0 -16 3q-20 7 -20 24q0 5 3 14z" />
    <glyph glyph-name="kcommaaccent" unicode="&#x137;" horiz-adv-x="432" 
d="M212 248l202 -216q13 -13 13 -19q0 -13 -39 -13h-11q-27 0 -45 19l-171 186l-15 -13v-162q0 -13 -9 -21.5t-21 -8.5h-14q-12 0 -21 8.5t-9 21.5v650q0 13 9 21.5t21 8.5h14q12 0 21 -8.5t9 -21.5v-398l152 130q21 18 44 18h19q39 0 39 -13q0 -9 -13 -19zM175 -191l32 114
q5 18 24 18l16 -3l14 -5q19 -7 19 -25q0 -7 -3 -14l-45 -109q-7 -17 -24 -17q-4 0 -16 3q-20 7 -20 24q0 5 3 14z" />
    <glyph glyph-name="kgreenlandic" unicode="&#x138;" horiz-adv-x="420" 
d="M200 248l202 -216q13 -13 13 -19q0 -13 -39 -13h-11q-27 0 -45 19l-171 186l-15 -13v-162q0 -13 -9 -21.5t-21 -8.5h-14q-12 0 -21 8.5t-9 21.5v370q0 13 9 21.5t21 8.5h14q12 0 21 -8.5t9 -21.5v-122l157 134q21 18 44 18h14q39 0 39 -13q0 -9 -13 -19z" />
    <glyph glyph-name="Lacute" unicode="&#x139;" horiz-adv-x="531" 
d="M120 700h24q12 0 21 -8.5t9 -21.5v-591h291q12 0 21 -8.5t9 -21.5v-19q0 -13 -9 -21.5t-21 -8.5h-345q-12 0 -21 8.5t-9 21.5v640q0 13 9 21.5t21 8.5zM215 813l107 114q9 7 17 7q13 0 21 -11l10 -12q6 -7 6 -18q0 -12 -12 -22l-122 -95q-9 -7 -17 -7q-7 0 -16 10
q-6 7 -6 13q0 9 12 21z" />
    <glyph glyph-name="lacute" unicode="&#x13a;" horiz-adv-x="221" 
d="M77 30q0 -13 9 -21.5t21 -8.5h14q12 0 21 8.5t9 21.5v650q0 13 -9 21.5t-21 8.5h-14q-12 0 -21 -8.5t-9 -21.5v-650zM36 796l107 114q9 7 17 7q13 0 21 -11l10 -12q6 -7 6 -18q0 -12 -12 -22l-122 -95q-9 -7 -17 -7q-7 0 -16 10q-6 7 -6 13q0 9 12 21z" />
    <glyph glyph-name="Lcommaaccent" unicode="&#x13b;" horiz-adv-x="531" 
d="M120 700h24q12 0 21 -8.5t9 -21.5v-591h291q12 0 21 -8.5t9 -21.5v-19q0 -13 -9 -21.5t-21 -8.5h-345q-12 0 -21 8.5t-9 21.5v640q0 13 9 21.5t21 8.5zM239 -191l32 114q5 18 24 18l16 -3l14 -5q19 -7 19 -25q0 -7 -3 -14l-45 -109q-7 -17 -24 -17q-4 0 -16 3
q-20 7 -20 24q0 5 3 14z" />
    <glyph glyph-name="lcommaaccent" unicode="&#x13c;" horiz-adv-x="156" 
d="M42 30v650q0 13 9 21.5t21 8.5h14q12 0 21 -8.5t9 -21.5v-650q0 -13 -9 -21.5t-21 -8.5h-14q-12 0 -21 8.5t-9 21.5zM17 -191l32 114q5 18 24 18l16 -3l14 -5q19 -7 19 -25q0 -7 -3 -14l-45 -109q-7 -17 -24 -17q-4 0 -16 3q-20 7 -20 24q0 5 3 14z" />
    <glyph glyph-name="Lcaron" unicode="&#x13d;" horiz-adv-x="531" 
d="M120 700h24q12 0 21 -8.5t9 -21.5v-591h291q12 0 21 -8.5t9 -21.5v-19q0 -13 -9 -21.5t-21 -8.5h-345q-12 0 -21 8.5t-9 21.5v640q0 13 9 21.5t21 8.5zM130 849l65 84q17 20 37 20h10q22 0 22 -11l-16 -29l-97 -135q-13 -18 -21 -18t-21 18l-97 135q-16 24 -16 29
q0 11 22 11h10q9 0 18 -5t14 -10l5 -5z" />
    <glyph glyph-name="lcaron" unicode="&#x13e;" horiz-adv-x="310" 
d="M24 30v650q0 13 9 21.5t21 8.5h14q12 0 21 -8.5t9 -21.5v-650q0 -13 -9 -21.5t-21 -8.5h-14q-12 0 -21 8.5t-9 21.5zM159 477l52 106q-20 5 -32 21t-12 37q0 25 17.5 42t42.5 17q24 0 41.5 -17t17.5 -42l-89 -180q-8 -16 -24 -16q-18 0 -18 17q0 7 4 15z" />
    <glyph glyph-name="Ldot" unicode="&#x13f;" horiz-adv-x="531" 
d="M120 700h24q12 0 21 -8.5t9 -21.5v-591h291q12 0 21 -8.5t9 -21.5v-19q0 -13 -9 -21.5t-21 -8.5h-345q-12 0 -21 8.5t-9 21.5v640q0 13 9 21.5t21 8.5zM405 385q0 19 13 32t32 13t32 -13t13 -32t-13 -32t-32 -13t-32 13t-13 32z" />
    <glyph glyph-name="ldot" unicode="&#x140;" horiz-adv-x="262" 
d="M24 30v650q0 13 9 21.5t21 8.5h14q12 0 21 -8.5t9 -21.5v-650q0 -13 -9 -21.5t-21 -8.5h-14q-12 0 -21 8.5t-9 21.5zM148 385q0 19 13 32t32 13t32 -13t13 -32t-13 -32t-32 -13t-32 13t-13 32z" />
    <glyph glyph-name="Lslash" unicode="&#x141;" horiz-adv-x="531" 
d="M234 340l-60 -25v-236h291q12 0 21 -8.5t9 -21.5v-19q0 -13 -9 -21.5t-21 -8.5h-345q-12 0 -21 8.5t-9 21.5v249l-44 -18q-12 -5 -17 -5q-13 0 -13 34v14q0 29 30 41l44 18v307q0 13 9 21.5t21 8.5h24q12 0 21 -8.5t9 -21.5v-272l60 25q11 5 17 5q13 0 13 -34v-13
q0 -29 -30 -41z" />
    <glyph glyph-name="lslash" unicode="&#x142;" horiz-adv-x="284" 
d="M96 30v259l-44 -18q-12 -5 -17 -5q-13 0 -13 34v4q0 29 30 41l44 18v317q0 13 9 21.5t21 8.5h14q12 0 21 -8.5t9 -21.5v-287l60 25q11 5 17 5q13 0 13 -32v-5q0 -29 -30 -41l-60 -25v-290q0 -13 -9 -21.5t-21 -8.5h-14q-12 0 -21 8.5t-9 21.5z" />
    <glyph glyph-name="Nacute" unicode="&#x143;" horiz-adv-x="715" 
d="M581 13l-399 481l-13 30l5 -30v-464q0 -12 -8.5 -21t-21.5 -9h-24q-13 0 -21.5 9t-8.5 21v642q0 38 11 38q6 0 14 -6t13 -12l6 -5l399 -481l13 -30l-5 30v464q0 12 8.5 21t21.5 9h24q13 0 21.5 -9t8.5 -21v-642q0 -38 -11 -38q-15 0 -33 23zM280 813l107 114q9 7 17 7
q13 0 21 -11l10 -12q6 -7 6 -18q0 -12 -12 -22l-122 -95q-9 -7 -17 -7q-7 0 -16 10q-6 7 -6 13q0 9 12 21z" />
    <glyph glyph-name="nacute" unicode="&#x144;" horiz-adv-x="494" 
d="M170 543l107 114q9 7 17 7q13 0 21 -11l10 -12q6 -7 6 -18q0 -12 -12 -22l-122 -95q-9 -7 -17 -7q-7 0 -16 10q-6 7 -6 13q0 9 12 21zM134 383v17q0 13 -9 21.5t-21 8.5h-14q-12 0 -21 -8.5t-9 -21.5v-370q0 -13 9 -21.5t21 -8.5h14q12 0 21 8.5t9 21.5v250q45 94 119 94
q41 0 66 -27.5t33 -61t8 -73.5v-182q0 -13 9 -21.5t21 -8.5h14q12 0 21 8.5t9 21.5v202q0 214 -181 214q-64 0 -119 -63z" />
    <glyph glyph-name="Ncommaaccent" unicode="&#x145;" horiz-adv-x="715" 
d="M581 13l-399 481l-13 30l5 -30v-464q0 -12 -8.5 -21t-21.5 -9h-24q-13 0 -21.5 9t-8.5 21v642q0 38 11 38q6 0 14 -6t13 -12l6 -5l399 -481l13 -30l-5 30v464q0 12 8.5 21t21.5 9h24q13 0 21.5 -9t8.5 -21v-642q0 -38 -11 -38q-15 0 -33 23zM294 -192l32 114q5 18 24 18
l16 -3l14 -5q19 -7 19 -25q0 -7 -3 -14l-45 -109q-7 -17 -24 -17q-4 0 -16 3q-20 7 -20 24q0 5 3 14z" />
    <glyph glyph-name="ncommaaccent" unicode="&#x146;" horiz-adv-x="494" 
d="M194 -195l32 114q5 18 24 18l16 -3l14 -5q19 -7 19 -25q0 -6 -3 -14l-45 -109q-7 -17 -24 -17q-4 0 -16 3q-20 7 -20 24q0 5 3 14zM134 383q55 63 119 63q181 0 181 -214v-202q0 -13 -9 -21.5t-21 -8.5h-14q-12 0 -21 8.5t-9 21.5v182q0 40 -8 73.5t-33 61t-66 27.5
q-74 0 -119 -94v-250q0 -13 -9 -21.5t-21 -8.5h-14q-12 0 -21 8.5t-9 21.5v370q0 13 9 21.5t21 8.5h14q12 0 21 -8.5t9 -21.5v-17z" />
    <glyph glyph-name="Ncaron" unicode="&#x147;" horiz-adv-x="715" 
d="M581 13l-399 481l-13 30l5 -30v-464q0 -12 -8.5 -21t-21.5 -9h-24q-13 0 -21.5 9t-8.5 21v642q0 38 11 38q6 0 14 -6t13 -12l6 -5l399 -481l13 -30l-5 30v464q0 12 8.5 21t21.5 9h24q13 0 21.5 -9t8.5 -21v-642q0 -38 -11 -38q-15 0 -33 23zM357 849l65 84q17 20 37 20
h10q22 0 22 -11l-16 -29l-97 -135q-13 -18 -21 -18t-21 18l-97 135q-16 24 -16 29q0 11 22 11h10q9 0 18 -5t14 -10l5 -5z" />
    <glyph glyph-name="ncaron" unicode="&#x148;" horiz-adv-x="494" 
d="M255 579l65 84q17 20 37 20h10q22 0 22 -11l-16 -29l-97 -135q-13 -18 -21 -18t-21 18l-97 135q-16 24 -16 29q0 11 22 11h10q9 0 18 -5t14 -10l5 -5zM134 383v17q0 13 -9 21.5t-21 8.5h-14q-12 0 -21 -8.5t-9 -21.5v-370q0 -13 9 -21.5t21 -8.5h14q12 0 21 8.5t9 21.5
v250q45 94 119 94q41 0 66 -27.5t33 -61t8 -73.5v-182q0 -13 9 -21.5t21 -8.5h14q12 0 21 8.5t9 21.5v202q0 214 -181 214q-64 0 -119 -63z" />
    <glyph glyph-name="napostrophe" unicode="&#x149;" horiz-adv-x="494" 
d="M76 559l32 114q5 18 24 18l16 -3l14 -5q19 -7 19 -25q0 -6 -3 -14l-45 -109q-7 -17 -24 -17q-4 0 -16 3q-20 7 -20 24q0 5 3 14zM134 383v17q0 13 -9 21.5t-21 8.5h-14q-12 0 -21 -8.5t-9 -21.5v-370q0 -13 9 -21.5t21 -8.5h14q12 0 21 8.5t9 21.5v250q45 94 119 94
q41 0 66 -27.5t33 -61t8 -73.5v-182q0 -13 9 -21.5t21 -8.5h14q12 0 21 8.5t9 21.5v202q0 214 -181 214q-64 0 -119 -63z" />
    <glyph glyph-name="Omacron" unicode="&#x14c;" horiz-adv-x="884" 
d="M812 350q0 -153 -109.5 -261.5t-260.5 -108.5q-153 0 -261.5 108.5t-108.5 261.5t108.5 261.5t261.5 108.5q152 0 261 -108t109 -262zM161 350q0 -119 81.5 -202.5t199.5 -83.5q117 0 199 83.5t82 202.5t-82 202.5t-199 83.5q-118 0 -199.5 -83.5t-81.5 -202.5zM540 776
h-196q-13 0 -21.5 9t-8.5 21v9q0 12 8.5 21t21.5 9h196q13 0 21.5 -9t8.5 -21v-9q0 -12 -8.5 -21t-21.5 -9z" />
    <glyph glyph-name="omacron" unicode="&#x14d;" horiz-adv-x="564" 
d="M47 215q0 97 68.5 166t166.5 69t166.5 -69t68.5 -166t-68.5 -166t-166.5 -69t-166.5 69t-68.5 166zM120 216q0 -67 47.5 -114.5t114.5 -47.5t114.5 47.5t47.5 114.5t-47.5 114.5t-114.5 47.5t-114.5 -47.5t-47.5 -114.5zM380 506h-196q-13 0 -21.5 9t-8.5 21v9
q0 12 8.5 21t21.5 9h196q13 0 21.5 -9t8.5 -21v-9q0 -12 -8.5 -21t-21.5 -9z" />
    <glyph glyph-name="Obreve" unicode="&#x14e;" horiz-adv-x="884" 
d="M812 350q0 -153 -109.5 -261.5t-260.5 -108.5q-153 0 -261.5 108.5t-108.5 261.5t108.5 261.5t261.5 108.5q152 0 261 -108t109 -262zM161 350q0 -119 81.5 -202.5t199.5 -83.5q117 0 199 83.5t82 202.5t-82 202.5t-199 83.5q-118 0 -199.5 -83.5t-81.5 -202.5zM442 815
q47 0 65 29q6 11 19 11q9 0 21 -10.5t12 -22.5q0 -8 -9 -21q-32 -41 -108 -41t-108 41q-9 13 -9 21q0 12 12 22.5t21 10.5q13 0 19 -11q18 -29 65 -29z" />
    <glyph glyph-name="obreve" unicode="&#x14f;" horiz-adv-x="564" 
d="M47 215q0 97 68.5 166t166.5 69t166.5 -69t68.5 -166t-68.5 -166t-166.5 -69t-166.5 69t-68.5 166zM120 216q0 -67 47.5 -114.5t114.5 -47.5t114.5 47.5t47.5 114.5t-47.5 114.5t-114.5 47.5t-114.5 -47.5t-47.5 -114.5zM282 545q47 0 65 29q6 11 19 11q9 0 21 -10.5
t12 -22.5q0 -8 -9 -21q-32 -41 -108 -41t-108 41q-9 13 -9 21q0 12 12 22.5t21 10.5q13 0 19 -11q18 -29 65 -29z" />
    <glyph glyph-name="Ohungarumlaut" unicode="&#x150;" horiz-adv-x="884" 
d="M812 350q0 -153 -109.5 -261.5t-260.5 -108.5q-153 0 -261.5 108.5t-108.5 261.5t108.5 261.5t261.5 108.5q152 0 261 -108t109 -262zM161 350q0 -119 81.5 -202.5t199.5 -83.5q117 0 199 83.5t82 202.5t-82 202.5t-199 83.5q-118 0 -199.5 -83.5t-81.5 -202.5zM292 813
l107 114q9 7 17 7q13 0 21 -11l10 -12q6 -7 6 -18q0 -12 -12 -22l-122 -95q-9 -7 -17 -7q-7 0 -16 10q-6 7 -6 13q0 9 12 21zM439 813l107 114q9 7 17 7q13 0 21 -11l10 -12q6 -7 6 -18q0 -12 -12 -22l-122 -95q-9 -7 -17 -7q-7 0 -16 10q-6 7 -6 13q0 9 12 21z" />
    <glyph glyph-name="ohungarumlaut" unicode="&#x151;" horiz-adv-x="564" 
d="M47 215q0 97 68.5 166t166.5 69t166.5 -69t68.5 -166t-68.5 -166t-166.5 -69t-166.5 69t-68.5 166zM120 216q0 -67 47.5 -114.5t114.5 -47.5t114.5 47.5t47.5 114.5t-47.5 114.5t-114.5 47.5t-114.5 -47.5t-47.5 -114.5zM131 543l107 114q9 7 17 7q13 0 21 -11l10 -12
q6 -7 6 -18q0 -12 -12 -22l-122 -95q-9 -7 -17 -7q-7 0 -16 10q-6 7 -6 13q0 9 12 21zM278 543l107 114q9 7 17 7q13 0 21 -11l10 -12q6 -7 6 -18q0 -12 -12 -22l-122 -95q-9 -7 -17 -7q-7 0 -16 10q-6 7 -6 13q0 9 12 21z" />
    <glyph glyph-name="OE" unicode="&#x152;" horiz-adv-x="897" 
d="M784 0h-342q-155 0 -262.5 99.5t-107.5 250.5t107.5 250.5t262.5 99.5h342q12 0 21 -8.5t9 -21.5v-19q0 -13 -9 -21.5t-21 -8.5h-258v-210h228q12 0 21 -8.5t9 -21.5v-19q0 -13 -9 -21.5t-21 -8.5h-228v-253h258q12 0 21 -8.5t9 -21.5v-19q0 -13 -9 -21.5t-21 -8.5z
M442 79v542q-120 0 -200.5 -76.5t-80.5 -194.5t80.5 -194.5t200.5 -76.5z" />
    <glyph glyph-name="oe" unicode="&#x153;" horiz-adv-x="921" 
d="M521 246h276q-13 59 -47 95.5t-91 36.5t-91 -36.5t-47 -95.5zM659 450q96 0 155.5 -68t59.5 -170q0 -13 -9 -21.5t-21 -8.5h-323q1 -5 3 -13.5t12 -31t23.5 -39t40 -30.5t59.5 -14q78 0 132 61q9 9 21 9t21 -9l10 -10q9 -9 9 -21q0 -10 -9 -21q-71 -83 -184 -83
q-60 0 -107 28t-75 76q-32 -48 -83.5 -76t-111.5 -28q-98 0 -166.5 69t-68.5 166t68.5 166t166.5 69q60 0 111.5 -28t83.5 -76q28 48 75 76t107 28zM120 216q0 -67 47.5 -114.5t114.5 -47.5t114.5 47.5t47.5 114.5t-47.5 114.5t-114.5 47.5t-114.5 -47.5t-47.5 -114.5z" />
    <glyph glyph-name="Racute" unicode="&#x154;" horiz-adv-x="534" 
d="M174 621v-228h87q69 0 100.5 33.5t31.5 80.5q0 114 -132 114h-87zM331 323l150 -287q6 -12 6 -23q0 -13 -34 -13h-26q-21 0 -37 31l-149 283h-67v-284q0 -13 -9 -21.5t-21 -8.5h-24q-12 0 -21 8.5t-9 21.5v640q0 13 9 21.5t21 8.5h101q44 0 75.5 -3t69 -14t61 -31
t39.5 -57t16 -88q0 -64 -36 -114.5t-115 -69.5zM189 813l107 114q9 7 17 7q13 0 21 -11l10 -12q6 -7 6 -18q0 -12 -12 -22l-122 -95q-9 -7 -17 -7q-7 0 -16 10q-6 7 -6 13q0 9 12 21z" />
    <glyph glyph-name="racute" unicode="&#x155;" horiz-adv-x="337" 
d="M269 376q4 0 14 -1t13 -1q15 0 24 21l5 18q2 7 2 10q0 20 -21 24q-17 3 -38 3q-68 0 -134 -60v10q0 13 -9 21.5t-21 8.5h-14q-12 0 -21 -8.5t-9 -21.5v-370q0 -13 9 -21.5t21 -8.5h14q12 0 21 8.5t9 21.5v252q17 49 54 71.5t81 22.5zM119 543l107 114q9 7 17 7
q13 0 21 -11l10 -12q6 -7 6 -18q0 -12 -12 -22l-122 -95q-9 -7 -17 -7q-7 0 -16 10q-6 7 -6 13q0 9 12 21z" />
    <glyph glyph-name="Rcommaaccent" unicode="&#x156;" horiz-adv-x="494" 
d="M134 621v-228h87q69 0 100.5 33.5t31.5 80.5q0 114 -132 114h-87zM291 323l150 -287q6 -12 6 -23q0 -13 -34 -13h-26q-21 0 -37 31l-149 283h-67v-284q0 -13 -9 -21.5t-21 -8.5h-24q-12 0 -21 8.5t-9 21.5v640q0 13 9 21.5t21 8.5h101q44 0 75.5 -3t69 -14t61 -31
t39.5 -57t16 -88q0 -64 -36 -114.5t-115 -69.5zM183 -191l32 114q5 18 24 18l16 -3l14 -5q19 -7 19 -25q0 -7 -3 -14l-45 -109q-7 -17 -24 -17q-4 0 -16 3q-20 7 -20 24q0 5 3 14z" />
    <glyph glyph-name="rcommaaccent" unicode="&#x157;" horiz-adv-x="345" 
d="M277 376q-44 0 -81 -22.5t-54 -71.5v-252q0 -13 -9 -21.5t-21 -8.5h-14q-12 0 -21 8.5t-9 21.5v370q0 13 9 21.5t21 8.5h14q12 0 21 -8.5t9 -21.5v-10q66 60 134 60l38 -3q21 -4 21 -24l-2 -10l-5 -18q-9 -21 -24 -21q-3 0 -13 1t-14 1zM53 -191l32 114q5 18 24 18l16 -3
l14 -5q19 -7 19 -25q0 -7 -3 -14l-45 -109q-7 -17 -24 -17q-4 0 -16 3q-20 7 -20 24q0 5 3 14z" />
    <glyph glyph-name="Rcaron" unicode="&#x158;" horiz-adv-x="534" 
d="M174 621v-228h87q69 0 100.5 33.5t31.5 80.5q0 114 -132 114h-87zM331 323l150 -287q6 -12 6 -23q0 -13 -34 -13h-26q-21 0 -37 31l-149 283h-67v-284q0 -13 -9 -21.5t-21 -8.5h-24q-12 0 -21 8.5t-9 21.5v640q0 13 9 21.5t21 8.5h101q44 0 75.5 -3t69 -14t61 -31
t39.5 -57t16 -88q0 -64 -36 -114.5t-115 -69.5zM275 849l65 84q17 20 37 20h10q22 0 22 -11l-16 -29l-97 -135q-13 -18 -21 -18t-21 18l-97 135q-16 24 -16 29q0 11 22 11h10q9 0 18 -5t14 -10l5 -5z" />
    <glyph glyph-name="rcaron" unicode="&#x159;" horiz-adv-x="340" 
d="M269 376q4 0 14 -1t13 -1q15 0 24 21l5 18q2 7 2 10q0 20 -21 24q-17 3 -38 3q-68 0 -134 -60v10q0 13 -9 21.5t-21 8.5h-14q-12 0 -21 -8.5t-9 -21.5v-370q0 -13 9 -21.5t21 -8.5h14q12 0 21 8.5t9 21.5v252q17 49 54 71.5t81 22.5zM196 579l65 84q17 20 37 20h10
q22 0 22 -11l-16 -29l-97 -135q-13 -18 -21 -18t-21 18l-97 135q-16 24 -16 29q0 11 22 11h10q9 0 18 -5t14 -10l5 -5z" />
    <glyph glyph-name="Sacute" unicode="&#x15a;" horiz-adv-x="583" 
d="M62 93q-9 9 -9 21t9 21l19 19q9 9 21 9q5 0 9.5 -2.5t6.5 -4.5l3 -3q2 -2 10 -12t14.5 -16t17.5 -16.5t23 -17.5t27.5 -14.5t34.5 -11t40 -3.5q62 0 96.5 36t34.5 86q0 41 -35 73t-85 55.5t-100 49.5t-85 67.5t-35 96.5q0 71 60.5 132.5t159.5 61.5q39 0 69.5 -8.5
t45 -17.5t36.5 -26q9 -9 9 -21t-9 -21l-19 -19q-9 -9 -21 -9q-4 0 -9.5 2t-8.5 4l-3 3q-42 29 -96 29q-55 0 -90 -36.5t-35 -73.5q0 -31 25 -56.5t63 -43t82 -41t82 -47.5t63 -64t25 -90q0 -82 -59 -143t-161 -61q-77 0 -135.5 36t-90.5 77zM222 813l107 114q9 7 17 7
q13 0 21 -11l10 -12q6 -7 6 -18q0 -12 -12 -22l-122 -95q-9 -7 -17 -7q-7 0 -16 10q-6 7 -6 13q0 9 12 21z" />
    <glyph glyph-name="sacute" unicode="&#x15b;" horiz-adv-x="401" 
d="M57 45q-10 13 -10 21q0 12 9 21l12 13q9 9 21 9q13 0 22 -11l4 -5q4 -5 8 -9.5t12.5 -11t17.5 -11t22 -8t27 -3.5q32 0 56.5 17t24.5 45q0 29 -36 53.5t-78.5 40.5t-78.5 44.5t-36 64.5q0 59 39.5 97t108.5 38t113 -30q11 -8 11 -22q0 -12 -9 -21l-13 -14q-9 -9 -21 -9
q-4 0 -9 2t-8 4l-4 3q-20 13 -60 13q-28 0 -47.5 -15t-19.5 -34q0 -23 35.5 -44.5t77.5 -38t77.5 -48.5t35.5 -74q0 -64 -44 -103t-115 -39q-93 0 -145 65zM117 543l107 114q9 7 17 7q13 0 21 -11l10 -12q6 -7 6 -18q0 -12 -12 -22l-122 -95q-9 -7 -17 -7q-7 0 -16 10
q-6 7 -6 13q0 9 12 21z" />
    <glyph glyph-name="Scircumflex" unicode="&#x15c;" horiz-adv-x="583" 
d="M62 93q-9 9 -9 21t9 21l19 19q9 9 21 9q5 0 9.5 -2.5t6.5 -4.5l3 -3q2 -2 10 -12t14.5 -16t17.5 -16.5t23 -17.5t27.5 -14.5t34.5 -11t40 -3.5q62 0 96.5 36t34.5 86q0 41 -35 73t-85 55.5t-100 49.5t-85 67.5t-35 96.5q0 71 60.5 132.5t159.5 61.5q39 0 69.5 -8.5
t45 -17.5t36.5 -26q9 -9 9 -21t-9 -21l-19 -19q-9 -9 -21 -9q-4 0 -9.5 2t-8.5 4l-3 3q-42 29 -96 29q-55 0 -90 -36.5t-35 -73.5q0 -31 25 -56.5t63 -43t82 -41t82 -47.5t63 -64t25 -90q0 -82 -59 -143t-161 -61q-77 0 -135.5 36t-90.5 77zM358 770l-65 84l-65 -84
q-17 -20 -37 -20h-10q-22 0 -22 11l16 29l97 135q13 18 21 18t21 -18l97 -135q16 -24 16 -29q0 -11 -22 -11h-10q-9 0 -18 5t-14 10z" />
    <glyph glyph-name="scircumflex" unicode="&#x15d;" horiz-adv-x="401" 
d="M57 45q-10 13 -10 21q0 12 9 21l12 13q9 9 21 9q13 0 22 -11l4 -5q4 -5 8 -9.5t12.5 -11t17.5 -11t22 -8t27 -3.5q32 0 56.5 17t24.5 45q0 29 -36 53.5t-78.5 40.5t-78.5 44.5t-36 64.5q0 59 39.5 97t108.5 38t113 -30q11 -8 11 -22q0 -12 -9 -21l-13 -14q-9 -9 -21 -9
q-4 0 -9 2t-8 4l-4 3q-20 13 -60 13q-28 0 -47.5 -15t-19.5 -34q0 -23 35.5 -44.5t77.5 -38t77.5 -48.5t35.5 -74q0 -64 -44 -103t-115 -39q-93 0 -145 65zM259 500l-65 84l-65 -84q-17 -20 -37 -20h-10q-22 0 -22 11l16 29l97 135q13 18 21 18t21 -18l97 -135
q16 -24 16 -29q0 -11 -22 -11h-10q-9 0 -18 5t-14 10z" />
    <glyph glyph-name="Scedilla" unicode="&#x15e;" horiz-adv-x="583" 
d="M293 -125q16 -14 32 -14q26 0 26 22q0 28 -31 28q-44 0 -63 10.5t-19 38.5q0 15 6 24q-62 10 -109 42.5t-73 66.5q-9 9 -9 21t9 21l19 19q9 9 21 9q5 0 9.5 -2.5t6.5 -4.5l3 -3q2 -2 10 -12t14.5 -16t17.5 -16.5t23 -17.5t27.5 -14.5t34.5 -11t40 -3.5q62 0 96.5 36
t34.5 86q0 41 -35 73t-85 55.5t-100 49.5t-85 67.5t-35 96.5q0 71 60.5 132.5t159.5 61.5q39 0 69.5 -8.5t45 -17.5t36.5 -26q9 -9 9 -21t-9 -21l-19 -19q-9 -9 -21 -9q-4 0 -9.5 2t-8.5 4l-3 3q-42 29 -96 29q-55 0 -90 -36.5t-35 -73.5q0 -31 25 -56.5t63 -43t82 -41
t82 -47.5t63 -64t25 -90q0 -78 -54 -137.5t-148 -65.5q0 -18 26 -18t55 -20t29 -60q0 -29 -20.5 -51t-67.5 -22q-48 0 -80 26q-11 8 -11 22q0 11 13 19q13 7 22 7q12 0 21 -9z" />
    <glyph glyph-name="scedilla" unicode="&#x15f;" horiz-adv-x="401" 
d="M199 -125q16 -14 32 -14q26 0 26 22q0 28 -31 28q-44 0 -63 10.5t-19 38.5q0 15 7 27q-62 16 -94 58q-10 13 -10 21q0 12 9 21l12 13q9 9 21 9q13 0 22 -11l4 -5q4 -5 8 -9.5t12.5 -11t17.5 -11t22 -8t27 -3.5q32 0 56.5 17t24.5 45q0 29 -36 53.5t-78.5 40.5t-78.5 44.5
t-36 64.5q0 59 39.5 97t108.5 38t113 -30q11 -8 11 -22q0 -12 -9 -21l-13 -14q-9 -9 -21 -9q-4 0 -9 2t-8 4l-4 3q-20 13 -60 13q-28 0 -47.5 -15t-19.5 -34q0 -23 35.5 -44.5t77.5 -38t77.5 -48.5t35.5 -74q0 -62 -41 -100.5t-108 -41.5q0 -17 26 -17t55 -20t29 -60
q0 -29 -20.5 -51t-67.5 -22q-48 0 -80 26q-11 8 -11 22q0 11 13 19q13 7 22 7q12 0 21 -9z" />
    <glyph glyph-name="Scaron" unicode="&#x160;" horiz-adv-x="583" 
d="M62 93q-9 9 -9 21t9 21l19 19q9 9 21 9q5 0 9.5 -2.5t6.5 -4.5l3 -3q2 -2 10 -12t14.5 -16t17.5 -16.5t23 -17.5t27.5 -14.5t34.5 -11t40 -3.5q62 0 96.5 36t34.5 86q0 41 -35 73t-85 55.5t-100 49.5t-85 67.5t-35 96.5q0 71 60.5 132.5t159.5 61.5q39 0 69.5 -8.5
t45 -17.5t36.5 -26q9 -9 9 -21t-9 -21l-19 -19q-9 -9 -21 -9q-4 0 -9.5 2t-8.5 4l-3 3q-42 29 -96 29q-55 0 -90 -36.5t-35 -73.5q0 -31 25 -56.5t63 -43t82 -41t82 -47.5t63 -64t25 -90q0 -82 -59 -143t-161 -61q-77 0 -135.5 36t-90.5 77zM299 849l65 84q17 20 37 20h10
q22 0 22 -11l-16 -29l-97 -135q-13 -18 -21 -18t-21 18l-97 135q-16 24 -16 29q0 11 22 11h10q9 0 18 -5t14 -10l5 -5z" />
    <glyph glyph-name="scaron" unicode="&#x161;" horiz-adv-x="401" 
d="M57 45q-10 13 -10 21q0 12 9 21l12 13q9 9 21 9q13 0 22 -11l4 -5q4 -5 8 -9.5t12.5 -11t17.5 -11t22 -8t27 -3.5q32 0 56.5 17t24.5 45q0 29 -36 53.5t-78.5 40.5t-78.5 44.5t-36 64.5q0 59 39.5 97t108.5 38t113 -30q11 -8 11 -22q0 -12 -9 -21l-13 -14q-9 -9 -21 -9
q-4 0 -9 2t-8 4l-4 3q-20 13 -60 13q-28 0 -47.5 -15t-19.5 -34q0 -23 35.5 -44.5t77.5 -38t77.5 -48.5t35.5 -74q0 -64 -44 -103t-115 -39q-93 0 -145 65zM194 579l65 84q17 20 37 20h10q22 0 22 -11l-16 -29l-97 -135q-13 -18 -21 -18t-21 18l-97 135q-16 24 -16 29
q0 11 22 11h10q9 0 18 -5t14 -10l5 -5z" />
    <glyph glyph-name="Tcommaaccent" unicode="&#x162;" horiz-adv-x="468" 
d="M192 30v591h-151q-12 0 -21 8.5t-9 21.5v19q0 13 9 21.5t21 8.5h386q12 0 21 -8.5t9 -21.5v-19q0 -13 -9 -21.5t-21 -8.5h-151v-591q0 -12 -8.5 -21t-21.5 -9h-24q-13 0 -21.5 9t-8.5 21zM181 -191l32 114q5 18 24 18l16 -3l14 -5q19 -7 19 -25q0 -7 -3 -14l-45 -109
q-7 -17 -24 -17q-4 0 -16 3q-20 7 -20 24q0 5 3 14z" />
    <glyph glyph-name="tcommaaccent" unicode="&#x163;" horiz-adv-x="313" 
d="M263 -8q-11 0 -27.5 3t-42.5 14.5t-46.5 29t-36 51.5t-15.5 78v193h-39q-13 0 -21.5 9t-8.5 21v9q0 12 8.5 21t21.5 9h39v118q0 13 9 21.5t21 8.5h14q12 0 21 -8.5t9 -21.5v-118h94q13 0 21.5 -9t8.5 -21v-9q0 -12 -8.5 -21t-21.5 -9h-94v-202q0 -70 94 -95q30 -8 30 -30
v-14q0 -12 -8.5 -20t-21.5 -8zM126 -191l32 114q5 18 24 18l16 -3l14 -5q19 -7 19 -25q0 -7 -3 -14l-45 -109q-7 -17 -24 -17q-4 0 -16 3q-20 7 -20 24q0 5 3 14z" />
    <glyph glyph-name="Tcaron" unicode="&#x164;" horiz-adv-x="468" 
d="M192 30v591h-151q-12 0 -21 8.5t-9 21.5v19q0 13 9 21.5t21 8.5h386q12 0 21 -8.5t9 -21.5v-19q0 -13 -9 -21.5t-21 -8.5h-151v-591q0 -12 -8.5 -21t-21.5 -9h-24q-13 0 -21.5 9t-8.5 21zM234 849l65 84q17 20 37 20h10q22 0 22 -11l-16 -29l-97 -135q-13 -18 -21 -18
t-21 18l-97 135q-16 24 -16 29q0 11 22 11h10q9 0 18 -5t14 -10l5 -5z" />
    <glyph glyph-name="tcaron" unicode="&#x165;" horiz-adv-x="376" 
d="M263 -8q-11 0 -27.5 3t-42.5 14.5t-46.5 29t-36 51.5t-15.5 78v193h-39q-13 0 -21.5 9t-8.5 21v9q0 12 8.5 21t21.5 9h39v118q0 13 9 21.5t21 8.5h14q12 0 21 -8.5t9 -21.5v-118h94q13 0 21.5 -9t8.5 -21v-9q0 -12 -8.5 -21t-21.5 -9h-94v-202q0 -70 94 -95q30 -8 30 -30
v-14q0 -12 -8.5 -20t-21.5 -8zM306 477l52 106q-20 5 -32 21t-12 37q0 25 17.5 42t42.5 17q24 0 41.5 -17t17.5 -42l-89 -180q-8 -16 -24 -16q-18 0 -18 17q0 7 4 15z" />
    <glyph glyph-name="Tbar" unicode="&#x166;" horiz-adv-x="468" 
d="M276 351v-321q0 -12 -8.5 -21t-21.5 -9h-24q-13 0 -21.5 9t-8.5 21v321h-94q-12 0 -21 8.5t-9 21.5v19q0 13 9 21.5t21 8.5h94v191h-151q-12 0 -21 8.5t-9 21.5v19q0 13 9 21.5t21 8.5h386q12 0 21 -8.5t9 -21.5v-19q0 -13 -9 -21.5t-21 -8.5h-151v-191h94q12 0 21 -8.5
t9 -21.5v-19q0 -13 -9 -21.5t-21 -8.5h-94z" />
    <glyph glyph-name="tbar" unicode="&#x167;" horiz-adv-x="313" 
d="M169 223v-64q0 -70 94 -95q30 -8 30 -30v-14q0 -12 -8.5 -20t-21.5 -8q-11 0 -27.5 3t-42.5 14.5t-46.5 29t-36 51.5t-15.5 78v55h-39q-13 0 -21.5 9t-8.5 21v9q0 12 8.5 21t21.5 9h39v69h-39q-13 0 -21.5 9t-8.5 21v9q0 12 8.5 21t21.5 9h39v118q0 13 9 21.5t21 8.5h14
q12 0 21 -8.5t9 -21.5v-118h94q13 0 21.5 -9t8.5 -21v-9q0 -12 -8.5 -21t-21.5 -9h-94v-69h94q13 0 21.5 -9t8.5 -21v-9q0 -12 -8.5 -21t-21.5 -9h-94z" />
    <glyph glyph-name="Utilde" unicode="&#x168;" horiz-adv-x="676" 
d="M586 670v-446q0 -96 -69.5 -170t-178.5 -74t-178.5 74t-69.5 170v446q0 13 9 21.5t21 8.5h24q12 0 21 -8.5t9 -21.5v-417q0 -81 44 -135t120 -54t120 54t44 135v417q0 13 9 21.5t21 8.5h24q12 0 21 -8.5t9 -21.5zM386 829q7 0 12.5 3.5t7.5 6.5l2 3q5 17 27 17h11
q19 0 19 -17q0 -3 -1 -8.5t-6 -19.5t-12.5 -24.5t-23.5 -19.5t-36 -9q-22 0 -48 17.5t-48 17.5q-7 0 -12.5 -3t-7.5 -7l-2 -3q-5 -17 -27 -17h-11q-19 0 -19 17q0 3 1 8.5t6 19.5t12.5 24.5t23.5 19.5t36 9q22 0 48 -17.5t48 -17.5z" />
    <glyph glyph-name="utilde" unicode="&#x169;" horiz-adv-x="494" 
d="M295 559q7 0 12.5 3.5t7.5 6.5l2 3q5 17 27 17h11q19 0 19 -17q0 -3 -1 -8.5t-6 -19.5t-12.5 -24.5t-23.5 -19.5t-36 -9q-21 0 -48 17.5t-48 17.5q-7 0 -12.5 -3t-7.5 -7l-2 -3q-5 -17 -27 -17h-11q-19 0 -19 17q0 3 1 8.5t6 19.5t12.5 24.5t23.5 19.5t36 9
q21 0 48 -17.5t48 -17.5zM360 48v-18q0 -13 9 -21.5t21 -8.5h14q12 0 21 8.5t9 21.5v370q0 13 -9 21.5t-21 8.5h-14q-12 0 -21 -8.5t-9 -21.5v-249q-46 -96 -119 -96q-57 0 -82 48t-25 111v186q0 13 -9 21.5t-21 8.5h-14q-12 0 -21 -8.5t-9 -21.5v-206q0 -209 181 -209
q26 0 60 17t59 46z" />
    <glyph glyph-name="Umacron" unicode="&#x16a;" horiz-adv-x="676" 
d="M586 670v-446q0 -96 -69.5 -170t-178.5 -74t-178.5 74t-69.5 170v446q0 13 9 21.5t21 8.5h24q12 0 21 -8.5t9 -21.5v-417q0 -81 44 -135t120 -54t120 54t44 135v417q0 13 9 21.5t21 8.5h24q12 0 21 -8.5t9 -21.5zM436 776h-196q-13 0 -21.5 9t-8.5 21v9q0 12 8.5 21
t21.5 9h196q13 0 21.5 -9t8.5 -21v-9q0 -12 -8.5 -21t-21.5 -9z" />
    <glyph glyph-name="umacron" unicode="&#x16b;" horiz-adv-x="494" 
d="M345 506h-196q-13 0 -21.5 9t-8.5 21v9q0 12 8.5 21t21.5 9h196q13 0 21.5 -9t8.5 -21v-9q0 -12 -8.5 -21t-21.5 -9zM360 48v-18q0 -13 9 -21.5t21 -8.5h14q12 0 21 8.5t9 21.5v370q0 13 -9 21.5t-21 8.5h-14q-12 0 -21 -8.5t-9 -21.5v-249q-46 -96 -119 -96
q-57 0 -82 48t-25 111v186q0 13 -9 21.5t-21 8.5h-14q-12 0 -21 -8.5t-9 -21.5v-206q0 -209 181 -209q26 0 60 17t59 46z" />
    <glyph glyph-name="Ubreve" unicode="&#x16c;" horiz-adv-x="676" 
d="M586 670v-446q0 -96 -69.5 -170t-178.5 -74t-178.5 74t-69.5 170v446q0 13 9 21.5t21 8.5h24q12 0 21 -8.5t9 -21.5v-417q0 -81 44 -135t120 -54t120 54t44 135v417q0 13 9 21.5t21 8.5h24q12 0 21 -8.5t9 -21.5zM338 815q47 0 65 29q6 11 19 11q9 0 21 -10.5t12 -22.5
q0 -8 -9 -21q-32 -41 -108 -41t-108 41q-9 13 -9 21q0 12 12 22.5t21 10.5q13 0 19 -11q18 -29 65 -29z" />
    <glyph glyph-name="ubreve" unicode="&#x16d;" horiz-adv-x="494" 
d="M247 545q47 0 65 29q6 11 19 11q9 0 21 -10.5t12 -22.5q0 -8 -9 -21q-32 -41 -108 -41t-108 41q-9 13 -9 21q0 12 12 22.5t21 10.5q13 0 19 -11q18 -29 65 -29zM360 48v-18q0 -13 9 -21.5t21 -8.5h14q12 0 21 8.5t9 21.5v370q0 13 -9 21.5t-21 8.5h-14q-12 0 -21 -8.5
t-9 -21.5v-249q-46 -96 -119 -96q-57 0 -82 48t-25 111v186q0 13 -9 21.5t-21 8.5h-14q-12 0 -21 -8.5t-9 -21.5v-206q0 -209 181 -209q26 0 60 17t59 46z" />
    <glyph glyph-name="Uring" unicode="&#x16e;" horiz-adv-x="676" 
d="M586 670v-446q0 -96 -69.5 -170t-178.5 -74t-178.5 74t-69.5 170v446q0 13 9 21.5t21 8.5h24q12 0 21 -8.5t9 -21.5v-417q0 -81 44 -135t120 -54t120 54t44 135v417q0 13 9 21.5t21 8.5h24q12 0 21 -8.5t9 -21.5zM256 839q0 32 24.5 55t57.5 23t57.5 -23t24.5 -55
t-24.5 -55t-57.5 -23t-57.5 23t-24.5 55zM300 839q0 -15 11.5 -25t26.5 -10t26 10t11 25t-11 24.5t-26 9.5t-26.5 -9.5t-11.5 -24.5z" />
    <glyph glyph-name="uring" unicode="&#x16f;" horiz-adv-x="494" 
d="M165 569q0 32 24.5 55t57.5 23t57.5 -23t24.5 -55t-24.5 -55t-57.5 -23t-57.5 23t-24.5 55zM209 569q0 -15 11.5 -25t26.5 -10t26 10t11 25t-11 24.5t-26 9.5t-26.5 -9.5t-11.5 -24.5zM360 48v-18q0 -13 9 -21.5t21 -8.5h14q12 0 21 8.5t9 21.5v370q0 13 -9 21.5t-21 8.5
h-14q-12 0 -21 -8.5t-9 -21.5v-249q-46 -96 -119 -96q-57 0 -82 48t-25 111v186q0 13 -9 21.5t-21 8.5h-14q-12 0 -21 -8.5t-9 -21.5v-206q0 -209 181 -209q26 0 60 17t59 46z" />
    <glyph glyph-name="Uhungarumlaut" unicode="&#x170;" horiz-adv-x="676" 
d="M586 670v-446q0 -96 -69.5 -170t-178.5 -74t-178.5 74t-69.5 170v446q0 13 9 21.5t21 8.5h24q12 0 21 -8.5t9 -21.5v-417q0 -81 44 -135t120 -54t120 54t44 135v417q0 13 9 21.5t21 8.5h24q12 0 21 -8.5t9 -21.5zM187 813l107 114q9 7 17 7q13 0 21 -11l10 -12
q6 -7 6 -18q0 -12 -12 -22l-122 -95q-9 -7 -17 -7q-7 0 -16 10q-6 7 -6 13q0 9 12 21zM334 813l107 114q9 7 17 7q13 0 21 -11l10 -12q6 -7 6 -18q0 -12 -12 -22l-122 -95q-9 -7 -17 -7q-7 0 -16 10q-6 7 -6 13q0 9 12 21z" />
    <glyph glyph-name="uhungarumlaut" unicode="&#x171;" horiz-adv-x="494" 
d="M96 543l107 114q9 7 17 7q13 0 21 -11l10 -12q6 -7 6 -18q0 -12 -12 -22l-122 -95q-9 -7 -17 -7q-7 0 -16 10q-6 7 -6 13q0 9 12 21zM243 543l107 114q9 7 17 7q13 0 21 -11l10 -12q6 -7 6 -18q0 -12 -12 -22l-122 -95q-9 -7 -17 -7q-7 0 -16 10q-6 7 -6 13q0 9 12 21z
M360 48v-18q0 -13 9 -21.5t21 -8.5h14q12 0 21 8.5t9 21.5v370q0 13 -9 21.5t-21 8.5h-14q-12 0 -21 -8.5t-9 -21.5v-249q-46 -96 -119 -96q-57 0 -82 48t-25 111v186q0 13 -9 21.5t-21 8.5h-14q-12 0 -21 -8.5t-9 -21.5v-206q0 -209 181 -209q26 0 60 17t59 46z" />
    <glyph glyph-name="Uogonek" unicode="&#x172;" horiz-adv-x="676" 
d="M383 -190q-46 0 -77.5 20t-42.5 41.5t-11 37.5q0 31 48 74q-94 13 -152 83.5t-58 157.5v446q0 13 9 21.5t21 8.5h24q12 0 21 -8.5t9 -21.5v-417q0 -81 44 -135t120 -54t120 54t44 135v417q0 13 9 21.5t21 8.5h24q12 0 21 -8.5t9 -21.5v-446q0 -84 -56 -154t-146 -86
q-52 -44 -52 -67q0 -24 77 -49q17 -5 17 -17q0 -9 -7 -20q-14 -21 -36 -21z" />
    <glyph glyph-name="uogonek" unicode="&#x173;" horiz-adv-x="518" 
d="M434 21q0 -22 -17 -37q-43 -39 -43 -67q0 -27 67 -49q17 -5 17 -17q0 -9 -7 -20q-14 -21 -36 -21q-65 0 -93 34t-28 65q0 18 11 34.5t31 34t24 22.5v48q-25 -29 -59 -46t-60 -17q-181 0 -181 209v206q0 13 9 21.5t21 8.5h14q12 0 21 -8.5t9 -21.5v-186q0 -39 8.5 -72.5
t33.5 -60t65 -26.5q73 0 119 96v249q0 13 9 21.5t21 8.5h14q12 0 21 -8.5t9 -21.5v-379z" />
    <glyph glyph-name="Wcircumflex" unicode="&#x174;" horiz-adv-x="895" 
d="M454 476l-7 40l-7 -40l-166 -468q-5 -18 -17 -18q-5 0 -9.5 4.5t-5.5 9.5l-2 4l-233 662q-3 10 -3 17q0 13 34 13h22q25 0 36 -30l154 -446l7 -40l7 40l166 468q6 18 17 18q5 0 9 -4.5t6 -9.5l2 -4l166 -468l7 -40l7 40l154 446q11 30 36 30h22q34 0 34 -13l-3 -17
l-233 -662q-5 -18 -17 -18q-5 0 -9.5 4.5t-5.5 9.5l-2 4zM512 770l-65 84l-65 -84q-17 -20 -37 -20h-10q-22 0 -22 11l16 29l97 135q13 18 21 18t21 -18l97 -135q16 -24 16 -29q0 -11 -22 -11h-10q-9 0 -18 5t-14 10z" />
    <glyph glyph-name="wcircumflex" unicode="&#x175;" horiz-adv-x="644" 
d="M322 440q8 0 16 -18l103 -249l8 -40l9 40l96 227q14 30 41 30h17q27 0 27 -13l-5 -17l-173 -392q-8 -18 -12 -18q-2 0 -5 4.5t-5 9.5l-2 4l-106 249l-9 40l-9 -40l-106 -249q-8 -18 -12 -18q-2 0 -5 4.5t-5 9.5l-2 4l-173 392q-5 11 -5 17q0 13 27 13h17q27 0 41 -30
l96 -227l9 -40l8 40l103 249q8 18 16 18zM387 500l-65 84l-65 -84q-17 -20 -37 -20h-10q-22 0 -22 11l16 29l97 135q13 18 21 18t21 -18l97 -135q16 -24 16 -29q0 -11 -22 -11h-10q-9 0 -18 5t-14 10z" />
    <glyph glyph-name="Ycircumflex" unicode="&#x176;" horiz-adv-x="530" 
d="M105 670l160 -244l160 244q20 30 37 30h33q38 0 38 -13q0 -3 -2.5 -8.5t-5.5 -9.5l-3 -4l-215 -330v-305q0 -12 -8.5 -21t-21.5 -9h-24q-13 0 -21.5 9t-8.5 21v305l-215 330q-11 15 -11 22q0 13 38 13h33q8 0 17.5 -7.5t14.5 -14.5zM330 770l-65 84l-65 -84
q-17 -20 -37 -20h-10q-22 0 -22 11l16 29l97 135q13 18 21 18t21 -18l97 -135q16 -24 16 -29q0 -11 -22 -11h-10q-9 0 -18 5t-14 10z" />
    <glyph glyph-name="ycircumflex" unicode="&#x177;" horiz-adv-x="418" 
d="M47 -180h-12q-13 0 -21.5 9t-8.5 21v4q0 12 8.5 21t21.5 9h12q14 0 35.5 16t37.5 46l55 116l-156 338q-6 12 -6 17q0 13 28 13h19q24 0 39 -30l109 -241l5 -30l5 30l109 241q15 30 39 30h19q28 0 28 -13l-6 -17l-225 -484q-60 -96 -135 -96zM278 500l-65 84l-65 -84
q-17 -20 -37 -20h-10q-22 0 -22 11l16 29l97 135q13 18 21 18t21 -18l97 -135q16 -24 16 -29q0 -11 -22 -11h-10q-9 0 -18 5t-14 10z" />
    <glyph glyph-name="Ydieresis" unicode="&#x178;" horiz-adv-x="530" 
d="M265 426l-160 244q-19 30 -37 30h-33q-38 0 -38 -13q0 -3 3 -8.5t6 -9.5l2 -4l215 -330v-305q0 -12 8.5 -21t21.5 -9h24q13 0 21.5 9t8.5 21v305l215 330q11 15 11 22q0 13 -38 13h-33q-8 0 -17 -7.5t-15 -14.5l-5 -8zM150 823q0 19 13 32t32 13t32 -13t13 -32t-13 -32
t-32 -13t-32 13t-13 32zM290 823q0 19 13 32t32 13t32 -13t13 -32t-13 -32t-32 -13t-32 13t-13 32z" />
    <glyph glyph-name="Zacute" unicode="&#x179;" horiz-adv-x="641" 
d="M443 621h-335q-12 0 -21 8.5t-9 21.5v19q0 13 9 21.5t21 8.5h438q38 0 38 -11q0 -8 -22 -41l-371 -569h343q12 0 21 -8.5t9 -21.5v-19q0 -13 -9 -21.5t-21 -8.5h-446q-38 0 -38 11q0 8 22 41zM261 813l107 114q9 7 17 7q13 0 21 -11l10 -12q6 -7 6 -18q0 -12 -12 -22
l-122 -95q-9 -7 -17 -7q-7 0 -16 10q-6 7 -6 13q0 9 12 21z" />
    <glyph glyph-name="zacute" unicode="&#x17a;" horiz-adv-x="543" 
d="M137 69h228q13 0 21.5 -9t8.5 -21v-9q0 -12 -8.5 -21t-21.5 -9h-318q-38 0 -38 11q0 4 28 41l238 309h-228q-13 0 -21.5 9t-8.5 21v9q0 12 8.5 21t21.5 9h318q38 0 38 -11q0 -4 -28 -41zM129 543l107 114q9 7 17 7q13 0 21 -11l10 -12q6 -7 6 -18q0 -12 -12 -22l-122 -95
q-9 -7 -17 -7q-7 0 -16 10q-6 7 -6 13q0 9 12 21z" />
    <glyph glyph-name="Zdotaccent" unicode="&#x17b;" horiz-adv-x="641" 
d="M443 621h-335q-12 0 -21 8.5t-9 21.5v19q0 13 9 21.5t21 8.5h438q38 0 38 -11q0 -8 -22 -41l-371 -569h343q12 0 21 -8.5t9 -21.5v-19q0 -13 -9 -21.5t-21 -8.5h-446q-38 0 -38 11q0 8 22 41zM273 838q0 19 13 32t32 13t32 -13t13 -32t-13 -32t-32 -13t-32 13t-13 32z
" />
    <glyph glyph-name="zdotaccent" unicode="&#x17c;" horiz-adv-x="543" 
d="M137 69h228q13 0 21.5 -9t8.5 -21v-9q0 -12 -8.5 -21t-21.5 -9h-318q-38 0 -38 11q0 4 28 41l238 309h-228q-13 0 -21.5 9t-8.5 21v9q0 12 8.5 21t21.5 9h318q38 0 38 -11q0 -4 -28 -41zM161 568q0 19 13 32t32 13t32 -13t13 -32t-13 -32t-32 -13t-32 13t-13 32z" />
    <glyph glyph-name="Zcaron" unicode="&#x17d;" horiz-adv-x="641" 
d="M443 621h-335q-12 0 -21 8.5t-9 21.5v19q0 13 9 21.5t21 8.5h438q38 0 38 -11q0 -8 -22 -41l-371 -569h343q12 0 21 -8.5t9 -21.5v-19q0 -13 -9 -21.5t-21 -8.5h-446q-38 0 -38 11q0 8 22 41zM318 849l65 84q17 20 37 20h10q22 0 22 -11l-16 -29l-97 -135
q-13 -18 -21 -18t-21 18l-97 135q-16 24 -16 29q0 11 22 11h10q9 0 18 -5t14 -10l5 -5z" />
    <glyph glyph-name="zcaron" unicode="&#x17e;" horiz-adv-x="543" 
d="M137 69h228q13 0 21.5 -9t8.5 -21v-9q0 -12 -8.5 -21t-21.5 -9h-318q-38 0 -38 11q0 4 28 41l238 309h-228q-13 0 -21.5 9t-8.5 21v9q0 12 8.5 21t21.5 9h318q38 0 38 -11q0 -4 -28 -41zM206 579l65 84q17 20 37 20h10q22 0 22 -11l-16 -29l-97 -135q-13 -18 -21 -18
t-21 18l-97 135q-16 24 -16 29q0 11 22 11h10q9 0 18 -5t14 -10l5 -5z" />
    <glyph glyph-name="florin" unicode="&#x192;" horiz-adv-x="488" 
d="M281 361v-344q0 -46 -15 -82.5t-36.5 -57t-46.5 -34.5t-42.5 -18.5t-27.5 -4.5q-13 0 -21.5 9t-8.5 21v14q0 22 30 30q40 11 67 37t27 64v366h-39q-13 0 -21.5 9t-8.5 21v9q0 12 8.5 21t21.5 9h39v80q0 46 15 82.5t36.5 57t46.5 34.5t42.5 18.5t27.5 4.5q13 0 21.5 -9
t8.5 -21v-14q0 -22 -30 -30q-40 -11 -67 -37t-27 -64v-102h94q13 0 21.5 -9t8.5 -21v-9q0 -12 -8.5 -21t-21.5 -9h-94z" />
    <glyph glyph-name="AEacute" unicode="&#x1fc;" horiz-adv-x="731" 
d="M276 30v141h-130l-54 -141q-11 -30 -36 -30h-18q-34 0 -34 13l3 17l247 652q9 18 22 18h342q12 0 21 -8.5t9 -21.5v-19q0 -13 -9 -21.5t-21 -8.5h-258v-210h228q12 0 21 -8.5t9 -21.5v-19q0 -13 -9 -21.5t-21 -8.5h-228v-253h258q12 0 21 -8.5t9 -21.5v-19
q0 -13 -9 -21.5t-21 -8.5h-312q-12 0 -21 8.5t-9 21.5zM276 525l-4 -20l-97 -255h101v275zM384 822l107 114q9 7 17 7q13 0 21 -11l10 -12q6 -7 6 -18q0 -12 -12 -22l-122 -95q-9 -7 -17 -7q-7 0 -16 10q-6 7 -6 13q0 9 12 21z" />
    <glyph glyph-name="aeacute" unicode="&#x1fd;" horiz-adv-x="806" 
d="M332 141v36q-34 17 -90 17q-50 0 -85.5 -18t-35.5 -55q0 -24 23 -47.5t64 -23.5q39 0 72.5 24t51.5 67zM406 246h276q-13 59 -47.5 95.5t-90.5 36.5t-90.5 -36.5t-47.5 -95.5zM729 182h-323q13 -58 48 -93t90 -35q78 0 132 61q9 9 21 9t21 -9l10 -10q9 -9 9 -21
q0 -10 -9 -21q-71 -83 -184 -83q-82 0 -138 50q-28 24 -42 51q-12 -22 -21.5 -35.5t-27.5 -31t-45 -26t-62 -8.5q-71 0 -116 40t-45 99q0 39 18 68t48 44t62 22t67 7q58 0 90 -14v43q0 40 -35 64.5t-69 24.5q-52 0 -80 -14q-14 -8 -22 -8q-12 0 -23 11l-12 13q-7 7 -7 18
q0 14 10 21q55 31 134 31q111 0 155 -74q61 74 161 74q96 0 155.5 -68t59.5 -170q0 -13 -9 -21.5t-21 -8.5zM472 543l107 114q9 7 17 7q13 0 21 -11l10 -12q6 -7 6 -18q0 -12 -12 -22l-122 -95q-9 -7 -17 -7q-7 0 -16 10q-6 7 -6 13q0 9 12 21z" />
    <glyph glyph-name="Oslashacute" unicode="&#x1fe;" horiz-adv-x="884" 
d="M812 350q0 -153 -109.5 -261.5t-260.5 -108.5q-153 0 -261.5 108.5t-108.5 261.5t108.5 261.5t261.5 108.5q152 0 261 -108t109 -262zM161 350q0 -119 81.5 -202.5t199.5 -83.5q117 0 199 83.5t82 202.5t-82 202.5t-199 83.5q-118 0 -199.5 -83.5t-81.5 -202.5zM241 -22
l322 777q7 18 26 18l14 -2l22 -9q18 -8 18 -29q0 -3 -2 -11l-323 -776q-6 -18 -27 -18l-12 2l-22 9q-19 7 -19 27q0 6 3 12zM365 813l107 114q9 7 17 7q13 0 21 -11l10 -12q6 -7 6 -18q0 -12 -12 -22l-122 -95q-9 -7 -17 -7q-7 0 -16 10q-6 7 -6 13q0 9 12 21z" />
    <glyph glyph-name="oslashacute" unicode="&#x1ff;" horiz-adv-x="564" 
d="M47 215q0 97 68.5 166t166.5 69q28 0 53 -6l25 61q8 18 26 18l14 -2l14 -6q18 -8 18 -29q0 -3 -2 -11l-25 -60q51 -31 81.5 -84.5t30.5 -115.5q0 -97 -68.5 -166t-166.5 -69q-25 0 -55 7l-25 -61q-6 -18 -27 -18l-12 2l-14 6q-19 7 -19 27q0 6 3 12l25 60q-51 31 -81 84
t-30 116zM444 216q0 81 -67 131l-121 -291q8 -2 26 -2q67 0 114.5 47.5t47.5 114.5zM120 216q0 -84 67 -131l120 291q-16 2 -25 2q-67 0 -114.5 -47.5t-47.5 -114.5zM205 543l107 114q9 7 17 7q13 0 21 -11l10 -12q6 -7 6 -18q0 -12 -12 -22l-122 -95q-9 -7 -17 -7
q-7 0 -16 10q-6 7 -6 13q0 9 12 21z" />
    <glyph glyph-name="Scommaaccent" unicode="&#x218;" horiz-adv-x="583" 
d="M62 93q-9 9 -9 21t9 21l19 19q9 9 21 9q5 0 9.5 -2.5t6.5 -4.5l3 -3q2 -2 10 -12t14.5 -16t17.5 -16.5t23 -17.5t27.5 -14.5t34.5 -11t40 -3.5q62 0 96.5 36t34.5 86q0 41 -35 73t-85 55.5t-100 49.5t-85 67.5t-35 96.5q0 71 60.5 132.5t159.5 61.5q39 0 69.5 -8.5
t45 -17.5t36.5 -26q9 -9 9 -21t-9 -21l-19 -19q-9 -9 -21 -9q-4 0 -9.5 2t-8.5 4l-3 3q-42 29 -96 29q-55 0 -90 -36.5t-35 -73.5q0 -31 25 -56.5t63 -43t82 -41t82 -47.5t63 -64t25 -90q0 -82 -59 -143t-161 -61q-77 0 -135.5 36t-90.5 77zM216 -191l32 114q5 18 24 18
l16 -3l14 -5q19 -7 19 -25q0 -7 -3 -14l-45 -109q-7 -17 -24 -17q-4 0 -16 3q-20 7 -20 24q0 5 3 14z" />
    <glyph glyph-name="scommaaccent" unicode="&#x219;" horiz-adv-x="401" 
d="M57 45q-10 13 -10 21q0 12 9 21l12 13q9 9 21 9q13 0 22 -11l4 -5q4 -5 8 -9.5t12.5 -11t17.5 -11t22 -8t27 -3.5q32 0 56.5 17t24.5 45q0 29 -36 53.5t-78.5 40.5t-78.5 44.5t-36 64.5q0 59 39.5 97t108.5 38t113 -30q11 -8 11 -22q0 -12 -9 -21l-13 -14q-9 -9 -21 -9
q-4 0 -9 2t-8 4l-4 3q-20 13 -60 13q-28 0 -47.5 -15t-19.5 -34q0 -23 35.5 -44.5t77.5 -38t77.5 -48.5t35.5 -74q0 -64 -44 -103t-115 -39q-93 0 -145 65zM141 -191l32 114q5 18 24 18l16 -3l14 -5q19 -7 19 -25q0 -7 -3 -14l-45 -109q-7 -17 -24 -17q-4 0 -16 3
q-20 7 -20 24q0 5 3 14z" />
    <glyph glyph-name="uni021A" unicode="&#x21a;" horiz-adv-x="468" 
d="M232 -53q24 0 41.5 -17t17.5 -42l-72 -146l-37 19l34 69q-20 5 -32 21t-12 37q0 25 17.5 42t42.5 17zM192 30v591h-151q-12 0 -21 8.5t-9 21.5v19q0 13 9 21.5t21 8.5h386q12 0 21 -8.5t9 -21.5v-19q0 -13 -9 -21.5t-21 -8.5h-151v-591q0 -12 -8.5 -21t-21.5 -9h-24
q-13 0 -21.5 9t-8.5 21z" />
    <glyph glyph-name="uni021B" unicode="&#x21b;" horiz-adv-x="313" 
d="M182 -53q24 0 41.5 -17t17.5 -42l-68 -138l-37 19l30 61q-20 5 -32 21t-12 37q0 25 17.5 42t42.5 17zM263 -8q-11 0 -27.5 3t-42.5 14.5t-46.5 29t-36 51.5t-15.5 78v193h-39q-13 0 -21.5 9t-8.5 21v9q0 12 8.5 21t21.5 9h39v118q0 13 9 21.5t21 8.5h14q12 0 21 -8.5
t9 -21.5v-118h94q13 0 21.5 -9t8.5 -21v-9q0 -12 -8.5 -21t-21.5 -9h-94v-202q0 -70 94 -95q30 -8 30 -30v-14q0 -12 -8.5 -20t-21.5 -8z" />
    <glyph glyph-name="dotlessj" unicode="&#x237;" horiz-adv-x="235" 
d="M174 400v-370q0 -56 -22 -98.5t-53 -63t-55 -29.5t-38 -9q-13 0 -21.5 8t-8.5 20v14q0 18 30 26q41 11 67.5 44t26.5 88v370q0 13 9 21.5t21 8.5h14q12 0 21 -8.5t9 -21.5z" />
    <glyph glyph-name="circumflex" unicode="&#x2c6;" horiz-adv-x="489" 
d="M309 500l-65 84l-65 -84q-17 -20 -37 -20h-10q-22 0 -22 11l16 29l97 135q13 18 21 18t21 -18l97 -135q16 -24 16 -29q0 -11 -22 -11h-10q-9 0 -18 5t-14 10z" />
    <glyph glyph-name="caron" unicode="&#x2c7;" horiz-adv-x="489" 
d="M244 579l65 84q17 20 37 20h10q22 0 22 -11l-16 -29l-97 -135q-13 -18 -21 -18t-21 18l-97 135q-16 24 -16 29q0 11 22 11h10q9 0 18 -5t14 -10l5 -5z" />
    <glyph glyph-name="breve" unicode="&#x2d8;" horiz-adv-x="450" 
d="M225 545q47 0 65 29q6 11 19 11q9 0 21 -10.5t12 -22.5q0 -8 -9 -21q-32 -41 -108 -41t-108 41q-9 13 -9 21q0 12 12 22.5t21 10.5q13 0 19 -11q18 -29 65 -29z" />
    <glyph glyph-name="dotaccent" unicode="&#x2d9;" horiz-adv-x="472" 
d="M191 568q0 19 13 32t32 13t32 -13t13 -32t-13 -32t-32 -13t-32 13t-13 32z" />
    <glyph glyph-name="ring" unicode="&#x2da;" horiz-adv-x="546" 
d="M191 569q0 32 24.5 55t57.5 23t57.5 -23t24.5 -55t-24.5 -55t-57.5 -23t-57.5 23t-24.5 55zM235 569q0 -15 11.5 -25t26.5 -10t26 10t11 25t-11 24.5t-26 9.5t-26.5 -9.5t-11.5 -24.5z" />
    <glyph glyph-name="ogonek" unicode="&#x2db;" horiz-adv-x="650" 
d="M355 -190q-46 0 -77.5 20t-42.5 41.5t-11 37.5q0 18 11 34.5t31 34t24 22.5h85q-2 -2 -12 -10.5t-14.5 -12t-13 -11.5t-12.5 -13t-9.5 -12t-7.5 -13t-2 -11q0 -24 77 -49q17 -5 17 -17q0 -9 -7 -20q-14 -21 -36 -21z" />
    <glyph glyph-name="tilde" unicode="&#x2dc;" horiz-adv-x="420" 
d="M258 559q7 0 12.5 3.5t7.5 6.5l2 3q5 17 27 17h11q19 0 19 -17q0 -3 -1 -8.5t-6 -19.5t-12.5 -24.5t-23.5 -19.5t-36 -9q-21 0 -47.5 17.5t-48.5 17.5q-7 0 -12.5 -3t-7.5 -7l-2 -3q-5 -17 -27 -17h-11q-19 0 -19 17q0 3 1 8.5t6 19.5t12.5 24.5t23.5 19.5t36 9
q22 0 48.5 -17.5t47.5 -17.5z" />
    <glyph glyph-name="hungarumlaut" unicode="&#x2dd;" horiz-adv-x="446" 
d="M123 543l107 114q9 7 17 7q13 0 21 -11l10 -12q6 -7 6 -18q0 -12 -12 -22l-122 -95q-9 -7 -17 -7q-7 0 -16 10q-6 7 -6 13q0 9 12 21zM270 543l107 114q9 7 17 7q13 0 21 -11l10 -12q6 -7 6 -18q0 -12 -12 -22l-122 -95q-9 -7 -17 -7q-7 0 -16 10q-6 7 -6 13q0 9 12 21z
" />
    <glyph glyph-name="uni03A9" unicode="&#x3a9;" horiz-adv-x="584" 
d="M292 710q115 0 187.5 -88t72.5 -259q0 -198 -99 -294h69q12 0 21 -8.5t9 -21.5v-9q0 -13 -9 -21.5t-21 -8.5h-162q-12 0 -21 8.5t-9 21.5v11q0 25 29 32q48 17 78 88t30 202q0 118 -49.5 204t-125.5 86t-125.5 -86t-49.5 -204q0 -131 30 -202t78 -88q29 -7 29 -32v-11
q0 -13 -9 -21.5t-21 -8.5h-162q-12 0 -21 8.5t-9 21.5v9q0 13 9 21.5t21 8.5h69q-99 96 -99 294q0 171 72.5 259t187.5 88z" />
    <glyph glyph-name="pi" unicode="&#x3c0;" horiz-adv-x="583" 
d="M542 361h-95v-196q0 -66 94 -91q30 -8 30 -30v-14q0 -12 -8.5 -21t-21.5 -9q-15 0 -38 7t-54.5 25t-53.5 58.5t-22 96.5v174h-138v-331q0 -13 -9 -21.5t-21 -8.5h-14q-12 0 -21 8.5t-9 21.5v331h-94q-13 0 -21.5 9t-8.5 21v9q0 12 8.5 21t21.5 9h475q13 0 21.5 -9
t8.5 -21v-9q0 -12 -8.5 -21t-21.5 -9z" />
    <glyph glyph-name="Wgrave" unicode="&#x1e80;" horiz-adv-x="895" 
d="M454 476l-7 40l-7 -40l-166 -468q-5 -18 -17 -18q-5 0 -9.5 4.5t-5.5 9.5l-2 4l-233 662q-3 10 -3 17q0 13 34 13h22q25 0 36 -30l154 -446l7 -40l7 40l166 468q6 18 17 18q5 0 9 -4.5t6 -9.5l2 -4l166 -468l7 -40l7 40l154 446q11 30 36 30h22q34 0 34 -13l-3 -17
l-233 -662q-5 -18 -17 -18q-5 0 -9.5 4.5t-5.5 9.5l-2 4zM420 927l107 -114q12 -12 12 -21q0 -6 -6 -13q-9 -10 -16 -10q-8 0 -17 7l-122 95q-12 10 -12 22q0 11 6 18l10 12q8 11 21 11q8 0 17 -7z" />
    <glyph glyph-name="wgrave" unicode="&#x1e81;" horiz-adv-x="644" 
d="M322 440q8 0 16 -18l103 -249l8 -40l9 40l96 227q14 30 41 30h17q27 0 27 -13l-5 -17l-173 -392q-8 -18 -12 -18q-2 0 -5 4.5t-5 9.5l-2 4l-106 249l-9 40l-9 -40l-106 -249q-8 -18 -12 -18q-2 0 -5 4.5t-5 9.5l-2 4l-173 392q-5 11 -5 17q0 13 27 13h17q27 0 41 -30
l96 -227l9 -40l8 40l103 249q8 18 16 18zM287 657l107 -114q12 -12 12 -21q0 -6 -6 -13q-9 -10 -16 -10q-8 0 -17 7l-122 95q-12 10 -12 22q0 11 6 18l10 12q8 11 21 11q8 0 17 -7z" />
    <glyph glyph-name="Wacute" unicode="&#x1e82;" horiz-adv-x="895" 
d="M447 516l7 -40l166 -468q5 -18 17 -18q5 0 9.5 4.5t5.5 9.5l2 4l233 662q3 10 3 17q0 13 -34 13h-22q-25 0 -36 -30l-154 -446l-7 -40l-7 40l-166 468q-6 18 -17 18q-5 0 -9 -4.5t-6 -9.5l-2 -4l-166 -468l-7 -40l-7 40l-154 446q-11 30 -36 30h-22q-34 0 -34 -13l3 -17
l233 -662q5 -18 17 -18q5 0 9.5 4.5t5.5 9.5l2 4l166 468zM361 813l107 114q9 7 17 7q13 0 21 -11l10 -12q6 -7 6 -18q0 -12 -12 -22l-122 -95q-9 -7 -17 -7q-7 0 -16 10q-6 7 -6 13q0 9 12 21z" />
    <glyph glyph-name="wacute" unicode="&#x1e83;" horiz-adv-x="644" 
d="M322 440q-8 0 -16 -18l-103 -249l-8 -40l-9 40l-96 227q-14 30 -41 30h-17q-27 0 -27 -13l5 -17l173 -392q8 -18 12 -18q2 0 5 4.5t5 9.5l2 4l106 249l9 40l9 -40l106 -249q8 -18 12 -18q2 0 5 4.5t5 9.5l2 4l173 392q5 11 5 17q0 13 -27 13h-17q-27 0 -41 -30l-96 -227
l-9 -40l-8 40l-103 249q-8 18 -16 18zM245 543l107 114q9 7 17 7q13 0 21 -11l10 -12q6 -7 6 -18q0 -12 -12 -22l-122 -95q-9 -7 -17 -7q-7 0 -16 10q-6 7 -6 13q0 9 12 21z" />
    <glyph glyph-name="Wdieresis" unicode="&#x1e84;" horiz-adv-x="895" 
d="M447 516l7 -40l166 -468q5 -18 17 -18q5 0 9.5 4.5t5.5 9.5l2 4l233 662q3 10 3 17q0 13 -34 13h-22q-25 0 -36 -30l-154 -446l-7 -40l-7 40l-166 468q-6 18 -17 18q-5 0 -9 -4.5t-6 -9.5l-2 -4l-166 -468l-7 -40l-7 40l-154 446q-11 30 -36 30h-22q-34 0 -34 -13l3 -17
l233 -662q5 -18 17 -18q5 0 9.5 4.5t5.5 9.5l2 4l166 468zM332 823q0 19 13 32t32 13t32 -13t13 -32t-13 -32t-32 -13t-32 13t-13 32zM472 823q0 19 13 32t32 13t32 -13t13 -32t-13 -32t-32 -13t-32 13t-13 32z" />
    <glyph glyph-name="wdieresis" unicode="&#x1e85;" horiz-adv-x="644" 
d="M322 440q-8 0 -16 -18l-103 -249l-8 -40l-9 40l-96 227q-14 30 -41 30h-17q-27 0 -27 -13l5 -17l173 -392q8 -18 12 -18q2 0 5 4.5t5 9.5l2 4l106 249l9 40l9 -40l106 -249q8 -18 12 -18q2 0 5 4.5t5 9.5l2 4l173 392q5 11 5 17q0 13 -27 13h-17q-27 0 -41 -30l-96 -227
l-9 -40l-8 40l-103 249q-8 18 -16 18zM207 553q0 19 13 32t32 13t32 -13t13 -32t-13 -32t-32 -13t-32 13t-13 32zM347 553q0 19 13 32t32 13t32 -13t13 -32t-13 -32t-32 -13t-32 13t-13 32z" />
    <glyph glyph-name="Ygrave" unicode="&#x1ef2;" horiz-adv-x="594" 
d="M169 670l160 -244l160 244q20 30 37 30h33q38 0 38 -13q0 -3 -2.5 -8.5t-5.5 -9.5l-3 -4l-215 -330v-305q0 -12 -8.5 -21t-21.5 -9h-24q-13 0 -21.5 9t-8.5 21v305l-215 330q-11 15 -11 22q0 13 38 13h33q8 0 17.5 -7.5t14.5 -14.5zM304 927l107 -114q12 -12 12 -21
q0 -6 -6 -13q-9 -10 -16 -10q-8 0 -17 7l-122 95q-12 10 -12 22q0 11 6 18l10 12q8 11 21 11q8 0 17 -7z" />
    <glyph glyph-name="ygrave" unicode="&#x1ef3;" horiz-adv-x="418" 
d="M47 -180h-12q-13 0 -21.5 9t-8.5 21v4q0 12 8.5 21t21.5 9h12q14 0 35.5 16t37.5 46l55 116l-156 338q-6 12 -6 17q0 13 28 13h19q24 0 39 -30l109 -241l5 -30l5 30l109 241q15 30 39 30h19q28 0 28 -13l-6 -17l-225 -484q-60 -96 -135 -96zM178 657l107 -114
q12 -12 12 -21q0 -6 -6 -13q-9 -10 -16 -10q-8 0 -17 7l-122 95q-12 10 -12 22q0 11 6 18l10 12q8 11 21 11q8 0 17 -7z" />
    <glyph glyph-name="endash" unicode="&#x2013;" horiz-adv-x="414" 
d="M364 250h-314q-13 0 -21.5 9t-8.5 21v9q0 12 8.5 21t21.5 9h314q13 0 21.5 -9t8.5 -21v-9q0 -12 -8.5 -21t-21.5 -9z" />
    <glyph glyph-name="emdash" unicode="&#x2014;" horiz-adv-x="580" 
d="M530 250h-480q-13 0 -21.5 9t-8.5 21v9q0 12 8.5 21t21.5 9h480q13 0 21.5 -9t8.5 -21v-9q0 -12 -8.5 -21t-21.5 -9z" />
    <glyph glyph-name="quoteleft" unicode="&#x2018;" horiz-adv-x="199" 
d="M161 659l-52 -106q20 -5 32 -21t12 -37q0 -25 -17.5 -42t-42.5 -17q-24 0 -41.5 17t-17.5 42l89 180q8 16 24 16q18 0 18 -17q0 -7 -4 -15z" />
    <glyph glyph-name="quoteright" unicode="&#x2019;" horiz-adv-x="248" 
d="M61 477l52 106q-20 5 -32 21t-12 37q0 25 17.5 42t42.5 17q24 0 41.5 -17t17.5 -42l-89 -180q-8 -16 -24 -16q-18 0 -18 17q0 7 4 15z" />
    <glyph glyph-name="quotesinglbase" unicode="&#x201a;" horiz-adv-x="245" 
d="M61 -106l52 106q-20 5 -32 21t-12 37q0 25 17.5 42t42.5 17q24 0 41.5 -17t17.5 -42l-89 -180q-8 -16 -24 -16q-18 0 -18 17q0 7 4 15z" />
    <glyph glyph-name="quotedblleft" unicode="&#x201c;" horiz-adv-x="396" 
d="M184 659l-52 -106q20 -5 32 -21t12 -37q0 -25 -17.5 -42t-42.5 -17q-24 0 -41.5 17t-17.5 42l89 180q8 16 24 16q18 0 18 -17q0 -7 -4 -15zM363 659l-52 -106q20 -5 32 -21t12 -37q0 -25 -17.5 -42t-42.5 -17q-24 0 -41.5 17t-17.5 42l89 180q8 16 24 16q18 0 18 -17
q0 -7 -4 -15z" />
    <glyph glyph-name="quotedblright" unicode="&#x201d;" horiz-adv-x="422" 
d="M235 477l52 106q-20 5 -32 21t-12 37q0 25 17.5 42t42.5 17q24 0 41.5 -17t17.5 -42l-89 -180q-8 -16 -24 -16q-18 0 -18 17q0 7 4 15zM56 477l52 106q-20 5 -32 21t-12 37q0 25 17.5 42t42.5 17q24 0 41.5 -17t17.5 -42l-89 -180q-8 -16 -24 -16q-18 0 -18 17q0 7 4 15z
" />
    <glyph glyph-name="quotedblbase" unicode="&#x201e;" horiz-adv-x="424" 
d="M61 -106l52 106q-20 5 -32 21t-12 37q0 25 17.5 42t42.5 17q24 0 41.5 -17t17.5 -42l-89 -180q-8 -16 -24 -16q-18 0 -18 17q0 7 4 15zM240 -106l52 106q-20 5 -32 21t-12 37q0 25 17.5 42t42.5 17q24 0 41.5 -17t17.5 -42l-89 -180q-7 -16 -24 -16q-18 0 -18 17
q0 7 4 15z" />
    <glyph glyph-name="dagger" unicode="&#x2020;" horiz-adv-x="374" 
d="M224 366v-336q0 -13 -9 -21.5t-21 -8.5h-14q-12 0 -21 8.5t-9 21.5v336l-94 -4q-3 0 -8 1t-13.5 8.5t-8.5 20.5v6q0 13 7.5 20.5t14.5 8.5l8 1l94 -4v124q0 13 9 21.5t21 8.5h14q12 0 21 -8.5t9 -21.5v-124l94 4q3 0 8 -1t13.5 -8.5t8.5 -20.5v-6q0 -13 -7.5 -20.5
t-14.5 -8.5l-8 -1z" />
    <glyph glyph-name="daggerdbl" unicode="&#x2021;" horiz-adv-x="374" 
d="M150 63v303l-94 -4q-3 0 -8 1t-13.5 8.5t-8.5 20.5v6q0 13 7.5 20.5t14.5 8.5l8 1l94 -4v124q0 13 9 21.5t21 8.5h14q12 0 21 -8.5t9 -21.5v-124l94 4q3 0 8 -1t13.5 -8.5t8.5 -20.5v-6q0 -13 -7.5 -20.5t-14.5 -8.5l-8 -1l-94 4v-303l94 4q3 0 8 -1t13.5 -8.5t8.5 -20.5
v-6q0 -13 -7.5 -20.5t-14.5 -8.5l-8 -1l-94 4v-123q0 -13 -9 -21.5t-21 -8.5h-14q-12 0 -21 8.5t-9 21.5v123l-94 -4q-3 0 -8 1t-13.5 8.5t-8.5 20.5v6q0 13 7.5 20.5t14.5 8.5l8 1z" />
    <glyph glyph-name="bullet" unicode="&#x2022;" horiz-adv-x="579" 
d="M222 363q0 28 19.5 48t47.5 20q29 0 48.5 -19.5t19.5 -48.5q0 -28 -20 -47.5t-48 -19.5t-47.5 19.5t-19.5 47.5z" />
    <glyph glyph-name="ellipsis" unicode="&#x2026;" horiz-adv-x="628" 
d="M449 47q0 19 13 32t32 13t32 -13t13 -32t-13 -32t-32 -13t-32 13t-13 32zM89 45q0 19 13 32t32 13t32 -13t13 -32t-13 -32t-32 -13t-32 13t-13 32zM269 45q0 19 13 32t32 13t32 -13t13 -32t-13 -32t-32 -13t-32 13t-13 32z" />
    <glyph glyph-name="perthousand" unicode="&#x2030;" horiz-adv-x="973" 
d="M780 -20q-63 0 -100.5 50t-37.5 135q0 84 38 134.5t100 50.5t100 -50.5t38 -134.5q0 -85 -38 -135t-100 -50zM780 287q-30 0 -49.5 -34t-19.5 -88t19.5 -88t49.5 -34t49 34t19 88t-19 88t-49 34zM176 350q-63 0 -100.5 50t-37.5 135q0 84 38 134.5t100 50.5t100 -50.5
t38 -134.5q0 -85 -38 -135t-100 -50zM176 657q-30 0 -49.5 -34t-19.5 -88t19.5 -88t49.5 -34t49 34t19 88t-19 88t-49 34zM489 -20q-63 0 -100.5 50t-37.5 135q0 84 38 134.5t100 50.5t100 -50.5t38 -134.5q0 -85 -38 -135t-100 -50zM489 287q-30 0 -49.5 -34t-19.5 -88
t19.5 -88t49.5 -34t49 34t19 88t-19 88t-49 34zM750 520l-682 -348q-12 -5 -17 -5q-13 0 -13 34v6q0 29 30 41l682 347q11 5 17 5q13 0 13 -34v-5q0 -29 -30 -41z" />
    <glyph glyph-name="guilsinglleft" unicode="&#x2039;" horiz-adv-x="462" 
d="M363 344l-194 -157l194 -157q9 -9 9 -17q0 -13 -38 -13h-38q-32 0 -57 23l-176 143q-18 14 -18 21t18 21l176 143q25 23 57 23h38q38 0 38 -13q0 -8 -9 -17z" />
    <glyph glyph-name="guilsinglright" unicode="&#x203a;" horiz-adv-x="462" 
d="M293 187l-194 157q-9 9 -9 17q0 13 38 13h38q32 0 57 -23l176 -143q18 -14 18 -21t-18 -21l-176 -143q-25 -23 -57 -23h-38q-38 0 -38 13q0 8 9 17z" />
    <glyph glyph-name="exclamdbl" unicode="&#x203c;" horiz-adv-x="558" 
d="M234 25q0 -19 -13 -32t-32 -13t-32 13t-13 32t13 32t32 13t32 -13t13 -32zM154 176l-9 494q0 13 9 21.5t21 8.5h29q12 0 21 -8.5t9 -21.5l-9 -494q0 -13 -9 -21.5t-21 -8.5h-11q-12 0 -21 8.5t-9 21.5zM414 25q0 -19 -13 -32t-32 -13t-32 13t-13 32t13 32t32 13t32 -13
t13 -32zM334 176l-9 494q0 13 9 21.5t21 8.5h29q12 0 21 -8.5t9 -21.5l-9 -494q0 -13 -9 -21.5t-21 -8.5h-11q-12 0 -21 8.5t-9 21.5z" />
    <glyph glyph-name="fraction" unicode="&#x2044;" horiz-adv-x="414" 
d="M79 30q-17 -30 -42 -30h-14q-30 0 -30 13q0 7 5 17l320 640q15 30 42 30h14q30 0 30 -13l-5 -17z" />
    <glyph glyph-name="zero.numerator" unicode="&#x2070;" horiz-adv-x="316" 
d="M158 340q-63 0 -100.5 50t-37.5 135q0 84 38 134.5t100 50.5t100 -50.5t38 -134.5q0 -85 -38 -135t-100 -50zM158 647q-30 0 -49.5 -34t-19.5 -88t19.5 -88t49.5 -34t49 34t19 88t-19 88t-49 34z" />
    <glyph glyph-name="four.numerator" unicode="&#x2074;" horiz-adv-x="349" 
d="M219 442h-142q-38 0 -38 11q0 10 26 39l174 190q26 28 36 28q11 0 11 -38v-170h13q12 0 21 -8.5t9 -21.5t-9 -21.5t-21 -8.5h-13v-62q0 -13 -9 -21.5t-21 -8.5h-7q-12 0 -21 8.5t-9 21.5v62zM219 502v68l-60 -68h60z" />
    <glyph glyph-name="five.numerator" unicode="&#x2075;" horiz-adv-x="293" 
d="M43 378q-9 9 -9 26q0 12 9.5 22t21.5 10q14 0 21 -9q17 -25 53 -25q28 0 48 18.5t20 44.5t-20 45t-48 19q-34 0 -90 -27q-8 -4 -18 -4q-2 0 -5 2.5t-3 5.5l2 13l26 151q5 30 30 30h140q13 0 21.5 -8.5t8.5 -21.5q0 -12 -9 -21.5t-21 -9.5h-106l-9 -52q12 4 33 4
q56 0 95 -36.5t39 -89.5q0 -52 -39 -88.5t-95 -36.5q-58 0 -96 38z" />
    <glyph glyph-name="six.numerator" unicode="&#x2076;" horiz-adv-x="309" 
d="M155 528q-28 0 -48 -18.5t-20 -44.5t20 -44.5t48 -18.5t48 18.5t20 44.5t-20 44.5t-48 18.5zM28 507l66 163q11 30 37 30h12q14 0 18.5 -4t4.5 -16q0 -6 -6 -18l-30 -74q16 2 25 2q56 0 95 -36.5t39 -88.5t-39 -88.5t-95 -36.5t-95.5 36.5t-39.5 88.5q0 20 8 42z" />
    <glyph glyph-name="seven.numerator" unicode="&#x2077;" horiz-adv-x="330" 
d="M280 650l-162 -270q-16 -30 -42 -30h-12q-32 0 -32 13q0 8 11 25l155 252h-144q-12 0 -21 8.5t-9 21.5t9 21.5t21 8.5h209q36 0 36 -10q0 -11 -19 -40z" />
    <glyph glyph-name="eight.numerator" unicode="&#x2078;" horiz-adv-x="286" 
d="M143 340q-51 0 -87 33.5t-36 81.5q0 53 41 86q-27 29 -27 68q0 41 31.5 71t76.5 30q44 0 76 -30t32 -71q0 -38 -27 -67q43 -33 43 -87q0 -48 -36 -81.5t-87 -33.5zM142 647q-17 0 -29 -11t-12 -27t12 -27.5t29 -11.5t29 11.5t12 27.5t-12 27t-29 11zM143 507
q-23 0 -39.5 -15t-16.5 -37t16.5 -37t39.5 -15t39.5 15t16.5 37t-16.5 37t-39.5 15z" />
    <glyph glyph-name="nine.numerator" unicode="&#x2079;" horiz-adv-x="309" 
d="M154 522q28 0 48 18.5t20 44.5t-20 44.5t-48 18.5t-48 -18.5t-20 -44.5t20 -44.5t48 -18.5zM281 543l-66 -163q-11 -30 -37 -30h-12q-14 0 -18.5 4t-4.5 16q0 6 6 18l30 74q-16 -2 -25 -2q-56 0 -95 36.5t-39 88.5t39 88.5t95 36.5t95.5 -36.5t39.5 -88.5q0 -20 -8 -42z
" />
    <glyph glyph-name="parenleft.numerator" unicode="&#x207d;" horiz-adv-x="168" 
d="M85 473q0 -127 36 -168q28 -24 28 -40q0 -8 -7 -15.5t-18 -7.5l-6 1q-98 50 -98 230t98 230q5 1 6 1q11 0 18 -7.5t7 -15.5q0 -16 -28 -40q-36 -41 -36 -168z" />
    <glyph glyph-name="parenright.numerator" unicode="&#x207e;" horiz-adv-x="168" 
d="M84 473q0 127 -36 168q-28 24 -28 40q0 8 7 15.5t18 7.5l6 -1q98 -50 98 -230t-98 -230q-5 -1 -6 -1q-11 0 -18 7.5t-7 15.5q0 16 28 40q36 41 36 168z" />
    <glyph glyph-name="franc" unicode="&#x20a3;" horiz-adv-x="611" 
d="M381 87h-128v-57q0 -13 -9 -21.5t-21 -8.5h-24q-12 0 -21 8.5t-9 21.5v57h-49q-13 0 -21.5 9t-8.5 21v19q0 12 8.5 21t21.5 9h49v504q0 13 9 21.5t21 8.5h332q12 0 21 -8.5t9 -21.5v-19q0 -13 -9 -21.5t-21 -8.5h-278v-210h248q12 0 21 -8.5t9 -21.5v-19q0 -13 -9 -21.5
t-21 -8.5h-248v-166h128q13 0 21.5 -9t8.5 -21v-19q0 -12 -8.5 -21t-21.5 -9z" />
    <glyph glyph-name="lira" unicode="&#x20a4;" horiz-adv-x="588" 
d="M312 319h-96v-69h96q13 0 21.5 -9t8.5 -21v-9q0 -12 -8.5 -21t-21.5 -9h-96v-67q31 0 113 -30t112 -30q6 0 14.5 4t13.5 8l5 3q17 13 25 13q11 0 17 -12l10 -22q6 -15 6 -23q0 -7 -12 -19q-34 -26 -79 -26q-30 0 -112 30t-113 30q-21 0 -43 -9t-33 -18l-12 -9
q-15 -12 -22 -12q-10 0 -19 9l-21 29q-9 13 -9 21q0 10 11 21q24 26 65 37v72h-49q-13 0 -21.5 9t-8.5 21v9q0 12 8.5 21t21.5 9h49v69h-49q-13 0 -21.5 9t-8.5 21v9q0 12 8.5 21t21.5 9h49v41q0 86 61.5 147.5t147.5 61.5q62 0 111.5 -33t70.5 -75q9 -18 9 -23
q0 -12 -9 -21l-24 -24q-9 -9 -21 -9q-5 0 -9.5 3.5t-6.5 6.5l-2 3q-41 89 -119 89q-52 0 -89 -37t-37 -89v-41h96q13 0 21.5 -9t8.5 -21v-9q0 -12 -8.5 -21t-21.5 -9z" />
    <glyph glyph-name="Euro" unicode="&#x20ac;" horiz-adv-x="810" 
d="M383 223h-105q35 -73 102.5 -116t150.5 -43q82 0 150 43q19 12 26 12q13 0 13 -34v-29q0 -24 -30 -39q-76 -37 -159 -37q-118 0 -213 67.5t-135 175.5h-81q-13 0 -21.5 9t-8.5 21v9q0 12 8.5 21t21.5 9h63q-4 25 -4 58v11h-59q-13 0 -21.5 9t-8.5 21v9q0 12 8.5 21
t21.5 9h68q27 125 128.5 207.5t232.5 82.5q83 0 159 -37q30 -15 30 -39v-29q0 -34 -13 -34l-26 12q-68 43 -150 43q-96 0 -170.5 -58t-99.5 -148h122q13 0 21.5 -9t8.5 -21v-9q0 -12 -8.5 -21t-21.5 -9h-133v-11q0 -26 5 -58h128q13 0 21.5 -9t8.5 -21v-9q0 -12 -8.5 -21
t-21.5 -9z" />
    <glyph glyph-name="uni2113" unicode="&#x2113;" horiz-adv-x="376" 
d="M115 223q72 46 109 112t37 115q0 65 -39 65q-47 0 -78.5 -79t-31.5 -164q0 -28 3 -49zM118 200q16 -91 38 -135t56 -44q25 0 46.5 18.5t35.5 37.5t21 19q11 0 11 -24q0 -23 -29 -52.5t-86 -29.5q-74 0 -117.5 71t-43.5 214q0 50 16.5 105.5t58 102t97.5 46.5q30 0 49 -23
t19 -60q0 -54 -42 -119t-130 -127z" />
    <glyph glyph-name="trademark" unicode="&#x2122;" horiz-adv-x="625" 
d="M530 675l20 -296q0 -29 -26 -29q-24 0 -26 29l-13 177l-84 -177q-14 -29 -24 -29q-5 0 -11 7t-10 15l-3 7l-85 177l-13 -177q-2 -29 -26 -29q-26 0 -26 29l19 271h-85v-271q0 -29 -26 -29t-26 29v271h-57q-29 0 -29 25t29 25h198q9 0 17 -6t11 -12l4 -7l119 -246l118 246
q12 25 23 25q10 0 12 -25z" />
    <glyph glyph-name="Omega" unicode="&#x2126;" horiz-adv-x="584" 
d="M292 710q115 0 187.5 -88t72.5 -259q0 -198 -99 -294h69q12 0 21 -8.5t9 -21.5v-9q0 -13 -9 -21.5t-21 -8.5h-162q-12 0 -21 8.5t-9 21.5v11q0 25 29 32q48 17 78 88t30 202q0 118 -49.5 204t-125.5 86t-125.5 -86t-49.5 -204q0 -131 30 -202t78 -88q29 -7 29 -32v-11
q0 -13 -9 -21.5t-21 -8.5h-162q-12 0 -21 8.5t-9 21.5v9q0 13 9 21.5t21 8.5h69q-99 96 -99 294q0 171 72.5 259t187.5 88z" />
    <glyph glyph-name="partialdiff" unicode="&#x2202;" horiz-adv-x="565" 
d="M518 393q0 -76 -22.5 -143t-59 -113.5t-81.5 -80.5t-90 -50t-86 -16q-72 0 -112 39t-40 93q0 122 92.5 211t200.5 89q101 0 128 -46q0 70 -18 131t-61 104.5t-105 43.5q-11 0 -22 3t-17 6.5t-6 5.5q0 11 19 25.5t45 14.5q106 0 170.5 -91.5t64.5 -225.5zM410 276
q0 95 -92 95q-62 0 -112.5 -44t-74 -98.5t-23.5 -101.5q0 -84 83 -84q78 0 148.5 71.5t70.5 161.5z" />
    <glyph glyph-name="Delta" unicode="&#x2206;" horiz-adv-x="660" 
d="M152 69h356l-178 444zM564 0h-468q-38 0 -38 11q0 12 17 51l242 606q11 22 13 22t13 -22l242 -606q17 -39 17 -51q0 -11 -38 -11z" />
    <glyph glyph-name="product" unicode="&#x220f;" horiz-adv-x="626" 
d="M506 0h-14q-12 0 -21 8.5t-9 21.5v601h-298v-601q0 -13 -9 -21.5t-21 -8.5h-14q-12 0 -21 8.5t-9 21.5v640q0 13 9 21.5t21 8.5h386q12 0 21 -8.5t9 -21.5v-640q0 -13 -9 -21.5t-21 -8.5z" />
    <glyph glyph-name="summation" unicode="&#x2211;" horiz-adv-x="542" 
d="M289 350l-238 254q-23 23 -23 49v17q0 12 8.5 21t21.5 9h409q13 0 21.5 -9t8.5 -21v-12q0 -12 -8.5 -21t-21.5 -9h-333l240 -249q18 -18 18 -29q0 -5 -4.5 -12t-9.5 -12l-4 -5l-240 -249h333q13 0 21.5 -9t8.5 -21v-12q0 -12 -8.5 -21t-21.5 -9h-409q-13 0 -21.5 9
t-8.5 21v17q0 26 23 49z" />
    <glyph glyph-name="minus" unicode="&#x2212;" horiz-adv-x="515" 
d="M423 361h-332q-13 0 -21.5 9t-8.5 21v9q0 12 8.5 21t21.5 9h332q13 0 21.5 -9t8.5 -21v-9q0 -12 -8.5 -21t-21.5 -9z" />
    <glyph glyph-name="radical" unicode="&#x221a;" horiz-adv-x="639" 
d="M69 118q-9 -9 -21 -9t-21 9l-18 18q-9 9 -9 21q0 13 9 22l97 97q19 20 27 20q4 0 8 -5t6 -10l2 -5l100 -261l251 655q12 30 41 30h15q34 0 34 -13l-5 -17l-315 -822q-9 -22 -17 -22q-4 0 -8.5 5.5t-6.5 10.5l-2 6l-122 315z" />
    <glyph glyph-name="infinity" unicode="&#x221e;" horiz-adv-x="754" 
d="M211 91q44 1 75.5 32.5t31.5 75.5t-31.5 75.5t-75.5 31.5q-45 0 -76.5 -31.5t-31.5 -75.5q1 -44 32.5 -75.5t75.5 -32.5zM356 76q-55 -68 -145 -68q-79 0 -135 56t-56 135t56 135t135 56q87 0 143 -66q31 45 79.5 71.5t105.5 26.5q91 0 155.5 -65t64.5 -156t-64.5 -156
t-155.5 -65q-114 0 -183 96zM538 64q58 0 97.5 40t39.5 97t-39.5 97t-97.5 40q-57 0 -96.5 -40t-39.5 -97t39.5 -96.5t96.5 -40.5z" />
    <glyph glyph-name="integral" unicode="&#x222b;" horiz-adv-x="488" 
d="M281 532v-515q0 -46 -15 -82.5t-36.5 -57t-46.5 -34.5t-42.5 -18.5t-27.5 -4.5q-13 0 -21.5 9t-8.5 21v14q0 22 30 30q40 11 67 37t27 64v515q0 46 15 82.5t36.5 57t46.5 34.5t42.5 18.5t27.5 4.5q13 0 21.5 -9t8.5 -21v-14q0 -22 -30 -30q-40 -11 -67 -37t-27 -64z" />
    <glyph glyph-name="approxequal" unicode="&#x2248;" horiz-adv-x="528" 
d="M401 74q-79 0 -136 42q-26 19 -40 27.5t-40 16.5t-58 8q-11 0 -23.5 -9.5t-17.5 -28.5q-6 -30 -31 -30h-14q-12 0 -21 8t-9 19q0 31 30.5 70.5t87.5 39.5q79 0 136 -42q26 -19 40 -27.5t40 -16.5t58 -8q11 0 23.5 9.5t17.5 28.5q6 30 31 30h14q12 0 21 -8t9 -19
q0 -31 -30.5 -70.5t-87.5 -39.5zM399 241q-79 0 -136 42q-26 19 -40 27.5t-40 16.5t-58 8q-11 0 -23.5 -9.5t-17.5 -28.5q-6 -30 -31 -30h-14q-12 0 -21 8t-9 19q0 31 30.5 70.5t87.5 39.5q79 0 136 -42q26 -19 40 -27.5t40 -16.5t58 -8q11 0 23.5 9.5t17.5 28.5q6 30 31 30
h14q12 0 21 -8t9 -19q0 -31 -30.5 -70.5t-87.5 -39.5z" />
    <glyph glyph-name="notequal" unicode="&#x2260;" horiz-adv-x="496" 
d="M399 292h-156l-108 -262q-12 -30 -41 -30h-15q-34 0 -34 13l5 17l108 262h-90q-13 0 -21.5 9t-8.5 21v9q0 12 8.5 21t21.5 9h119l28 69h-147q-13 0 -21.5 9t-8.5 21v9q0 12 8.5 21t21.5 9h176l71 171q12 30 41 30h15q34 0 34 -13l-5 -17l-71 -171h70q13 0 21.5 -9
t8.5 -21v-9q0 -12 -8.5 -21t-21.5 -9h-99l-28 -69h127q13 0 21.5 -9t8.5 -21v-9q0 -12 -8.5 -21t-21.5 -9z" />
    <glyph glyph-name="lessequal" unicode="&#x2264;" horiz-adv-x="469" 
d="M61 407q0 6 18 21l296 239q20 16 27 16q13 0 13 -38v-30q0 -9 -7.5 -20t-15.5 -18l-7 -7l-200 -163l200 -163q30 -25 30 -45v-30q0 -38 -13 -38q-3 0 -10 4t-12 8l-5 4l-296 239q-18 15 -18 21zM399 0h-331q-13 0 -21.5 9t-8.5 21v9q0 12 8.5 21t21.5 9h331q13 0 21.5 -9
t8.5 -21v-9q0 -12 -8.5 -21t-21.5 -9z" />
    <glyph glyph-name="greaterequal" unicode="&#x2265;" horiz-adv-x="469" 
d="M406 407q0 -6 -18 -21l-296 -239q-20 -16 -27 -16q-13 0 -13 38v30q0 9 7.5 20t14.5 18l8 7l200 163l-200 163q-30 25 -30 45v30q0 38 13 38q3 0 10 -4t12 -8l5 -4l296 -239q18 -15 18 -21zM68 0h331q13 0 21.5 9t8.5 21v9q0 12 -8.5 21t-21.5 9h-331q-13 0 -21.5 -9
t-8.5 -21v-9q0 -12 8.5 -21t21.5 -9z" />
    <glyph glyph-name="lozenge" unicode="&#x25ca;" horiz-adv-x="555" 
d="M162 349l131 -236l131 236l-131 236zM293 724q9 0 21 -22l179 -324q10 -16 10 -29q0 -6 -2.5 -13t-4.5 -12l-3 -4l-179 -324q-12 -22 -21 -22t-21 22l-179 324q-10 16 -10 29q0 6 2.5 13t4.5 12l3 4l179 324q12 22 21 22z" />
    <glyph glyph-name="commaaccent" unicode="&#xf6c3;" horiz-adv-x="0" 
d="M-170 -23l32 114q5 18 24 18l16 -3l14 -5q19 -7 19 -25q0 -6 -3 -14l-45 -109q-7 -17 -24 -17q-4 0 -16 3q-20 7 -20 24q0 5 3 14z" />
    <glyph glyph-name="apple" unicode="&#xf8ff;" horiz-adv-x="790" 
d="M640 187q-57 -114 -88 -144q-38 -42 -85 -42q-17 0 -56 14q-32 14 -52 14q-23 0 -55 -14q-44 -14 -54 -14q-28 0 -53 20q-22 13 -53 54q-46 59 -70 126q-23 65 -23 127q0 92 53 151t137 59q26 0 65 -15q35 -14 50 -14q19 0 55 14q33 15 63 15q48 0 85 -18q37 -15 67 -52
q-44 -28 -66 -60q-19 -38 -19 -77q0 -45 25 -85q28 -39 74 -59zM355 547q0 50 40 96q36 41 100 58v-12q1 -2 1 -15q0 -56 -43 -99q-41 -44 -86 -44h-12v16z" />
    <glyph glyph-name="f_f" unicode="&#xfb00;" horiz-adv-x="647" 
d="M607 707q13 0 21.5 -9t8.5 -21v-14q0 -22 -30 -30q-40 -11 -67 -37t-27 -64v-102h94q13 0 21.5 -9t8.5 -21v-9q0 -12 -8.5 -21t-21.5 -9h-94v-331q0 -13 -9 -21.5t-21 -8.5h-14q-12 0 -21 8.5t-9 21.5v331h-262v-331q0 -13 -9 -21.5t-21 -8.5h-14q-12 0 -21 8.5t-9 21.5
v331h-39q-13 0 -21.5 9t-8.5 21v9q0 12 8.5 21t21.5 9h39v80q0 46 15 82.5t36.5 57t46.5 34.5t42.5 18.5t27.5 4.5q13 0 21.5 -9t8.5 -21v-14q0 -22 -30 -30q-40 -11 -67 -37t-27 -64v-102h262v80q0 46 15 82.5t36.5 57t46.5 34.5t42.5 18.5t27.5 4.5z" />
    <glyph glyph-name="f_i" unicode="&#xfb01;" horiz-adv-x="508" 
d="M381 361h-204v-331q0 -13 -9 -21.5t-21 -8.5h-14q-12 0 -21 8.5t-9 21.5v331h-39q-13 0 -21.5 9t-8.5 21v9q0 12 8.5 21t21.5 9h39v80q0 46 15 82.5t36.5 57t46.5 34.5t42.5 18.5t27.5 4.5q13 0 21.5 -9t8.5 -21v-14q0 -22 -30 -30q-40 -11 -67 -37t-27 -64v-102h248
q12 0 21 -8.5t9 -21.5v-370q0 -13 -9 -21.5t-21 -8.5h-14q-12 0 -21 8.5t-9 21.5v331z" />
    <glyph glyph-name="f_l" unicode="&#xfb02;" horiz-adv-x="515" 
d="M381 636h-110q-23 0 -58.5 -29.5t-35.5 -74.5v-102h94q13 0 21.5 -9t8.5 -21v-9q0 -12 -8.5 -21t-21.5 -9h-94v-331q0 -13 -9 -21.5t-21 -8.5h-14q-12 0 -21 8.5t-9 21.5v331h-39q-13 0 -21.5 9t-8.5 21v9q0 12 8.5 21t21.5 9h39v80q0 56 22 98.5t53 63t55 29.5t38 9h154
q12 0 21 -8.5t9 -21.5v-650q0 -13 -9 -21.5t-21 -8.5h-14q-12 0 -21 8.5t-9 21.5v606z" />
    <glyph glyph-name="f_f_i" unicode="&#xfb03;" horiz-adv-x="851" 
d="M513 430h248q12 0 21 -8.5t9 -21.5v-370q0 -13 -9 -21.5t-21 -8.5h-14q-12 0 -21 8.5t-9 21.5v331h-204v-331q0 -13 -9 -21.5t-21 -8.5h-14q-12 0 -21 8.5t-9 21.5v331h-262v-331q0 -13 -9 -21.5t-21 -8.5h-14q-12 0 -21 8.5t-9 21.5v331h-39q-13 0 -21.5 9t-8.5 21v9
q0 12 8.5 21t21.5 9h39v80q0 46 15 82.5t36.5 57t46.5 34.5t42.5 18.5t27.5 4.5q13 0 21.5 -9t8.5 -21v-14q0 -22 -30 -30q-40 -11 -67 -37t-27 -64v-102h262v80q0 46 15 82.5t36.5 57t46.5 34.5t42.5 18.5t27.5 4.5q13 0 21.5 -9t8.5 -21v-14q0 -22 -30 -30
q-40 -11 -67 -37t-27 -64v-102z" />
    <glyph glyph-name="f_f_l" unicode="&#xfb04;" horiz-adv-x="867" 
d="M455 30v331h-262v-331q0 -13 -9 -21.5t-21 -8.5h-14q-12 0 -21 8.5t-9 21.5v331h-39q-13 0 -21.5 9t-8.5 21v9q0 12 8.5 21t21.5 9h39v80q0 46 15 82.5t36.5 57t46.5 34.5t42.5 18.5t27.5 4.5q13 0 21.5 -9t8.5 -21v-14q0 -22 -30 -30q-40 -11 -67 -37t-27 -64v-102h262
v80q0 56 22 98.5t53 63t55 29.5t38 9h154q12 0 21 -8.5t9 -21.5v-650q0 -13 -9 -21.5t-21 -8.5h-14q-12 0 -21 8.5t-9 21.5v606h-110q-23 0 -58.5 -29.5t-35.5 -74.5v-102h94q13 0 21.5 -9t8.5 -21v-9q0 -12 -8.5 -21t-21.5 -9h-94v-331q0 -13 -9 -21.5t-21 -8.5h-14
q-12 0 -21 8.5t-9 21.5z" />
    <glyph glyph-name="s_t" unicode="&#xfb06;" horiz-adv-x="708" 
d="M564 430h94q13 0 21.5 -9t8.5 -21v-9q0 -12 -8.5 -21t-21.5 -9h-94v-202q0 -70 94 -95q30 -8 30 -30v-14q0 -12 -8.5 -20t-21.5 -8q-11 0 -27.5 3t-42.5 14.5t-46.5 29t-36 51.5t-15.5 78v193h-39q-13 0 -21.5 9t-8.5 21v9q0 12 8.5 21t21.5 9h39q0 38 -26 64t-63 26
q-34 0 -59.5 -25.5t-25.5 -59.5q0 -11 5 -22t5 -15q0 -12 -9 -21l-13 -14q-9 -9 -21 -9q-4 0 -9 2t-8 4l-4 3q-20 13 -60 13q-28 0 -47.5 -15t-19.5 -34q0 -23 35.5 -44.5t77.5 -38t77.5 -48.5t35.5 -74q0 -64 -44 -103t-115 -39q-93 0 -145 65q-10 13 -10 21q0 12 9 21
l12 13q9 9 21 9q13 0 22 -11l4 -5q4 -5 8 -9.5t12.5 -11t17.5 -11t22 -8t27 -3.5q32 0 56.5 17t24.5 45q0 29 -36 53.5t-78.5 40.5t-78.5 44.5t-36 64.5q0 59 39.5 97t108.5 38l42 -2q5 63 49.5 104.5t106.5 41.5q69 0 116.5 -47.5t47.5 -116.5z" />
    <glyph glyph-name="ELEFUNT" horiz-adv-x="675" 
d="M50 315v229l77 -25v-34l-46 18v-73h35v-31h-35v-54h46v-30h-77zM280 430h345v-31h-20v-399h-31v399h-294v-84h-77v30h45v54h-35v31h35v73l-45 -18v34l77 25v-114zM517 84v103h31v-187h-43l-46 193v-193h-29v277h41zM371 30v157h31v-187h-94v158h-64v-28h34v-30h-34v-100
h-30v100h-64v299h30v-269h34v57h125v-157h32z" />
    <glyph glyph-name="zero.denominator" horiz-adv-x="316" 
d="M158 -10q-63 0 -100.5 50t-37.5 135q0 84 38 134.5t100 50.5t100 -50.5t38 -134.5q0 -85 -38 -135t-100 -50zM158 297q-30 0 -49.5 -34t-19.5 -88t19.5 -88t49.5 -34t49 34t19 88t-19 88t-49 34z" />
    <glyph glyph-name="one.denominator" horiz-adv-x="174" 
d="M87 30v194q-9 -9 -21 -9t-21 9l-4 4q-9 9 -9 21q0 13 9 22l65 61q32 28 37 28q11 0 11 -38v-292q0 -13 -9 -21.5t-21 -8.5h-7q-12 0 -21 8.5t-9 21.5z" />
    <glyph glyph-name="two.denominator" horiz-adv-x="301" 
d="M70 48q35 35 54 58q81 94 81 144q0 20 -15 34t-36 14q-12 0 -21.5 -6t-14 -12t-12.5 -19q-6 -9 -21 -9q-12 0 -21 9l-4 4q-9 9 -9 21t7 24q12 18 37 34t59 16q49 0 83 -32t34 -78q0 -62 -61 -141q-12 -17 -40 -49h81q12 0 21 -8.5t9 -21.5t-9 -21.5t-21 -8.5h-169
q-38 0 -38 11q0 9 26 37z" />
    <glyph glyph-name="three.denominator" horiz-adv-x="276" 
d="M160 216q29 10 29 38q0 18 -13.5 30.5t-32.5 12.5q-12 0 -21.5 -5.5t-13.5 -10.5t-5 -9q-11 -30 -31 -30h-11q-11 0 -20 5.5t-9 15.5l1 9q8 35 37 61.5t73 26.5q46 0 79.5 -31t33.5 -75q0 -45 -34 -76q34 -32 34 -78t-34.5 -78t-83.5 -32q-42 0 -74.5 26t-40.5 66
q-1 7 -1 9q0 10 9 15.5t20 5.5h11q20 0 31 -30q14 -29 45 -29q20 0 35.5 14t15.5 33q0 15 -9.5 26.5t-19.5 15.5q-30 9 -30 30v14q0 22 30 30z" />
    <glyph glyph-name="four.denominator" horiz-adv-x="349" 
d="M219 92h-142q-38 0 -38 11q0 10 26 39l174 190q26 28 36 28q11 0 11 -38v-170h13q12 0 21 -8.5t9 -21.5t-9 -21.5t-21 -8.5h-13v-62q0 -13 -9 -21.5t-21 -8.5h-7q-12 0 -21 8.5t-9 21.5v62zM219 152v68l-60 -68h60z" />
    <glyph glyph-name="five.denominator" horiz-adv-x="293" 
d="M43 28q-9 9 -9 26q0 12 9.5 22t21.5 10q14 0 21 -9q17 -25 53 -25q28 0 48 18.5t20 44.5t-20 45t-48 19q-34 0 -90 -27q-8 -4 -18 -4q-2 0 -5 2.5t-3 5.5l2 13l26 151q5 30 30 30h140q13 0 21.5 -8.5t8.5 -21.5q0 -12 -9 -21.5t-21 -9.5h-106l-9 -52q12 4 33 4
q56 0 95 -36.5t39 -89.5q0 -52 -39 -88.5t-95 -36.5q-58 0 -96 38z" />
    <glyph glyph-name="six.denominator" horiz-adv-x="309" 
d="M155 178q-28 0 -48 -18.5t-20 -44.5t20 -44.5t48 -18.5t48 18.5t20 44.5t-20 44.5t-48 18.5zM28 157l66 163q11 30 37 30h12q14 0 18.5 -4t4.5 -16q0 -6 -6 -18l-30 -74q16 2 25 2q56 0 95 -36.5t39 -88.5t-39 -88.5t-95 -36.5t-95.5 36.5t-39.5 88.5q0 20 8 42z" />
    <glyph glyph-name="seven.denominator" horiz-adv-x="330" 
d="M280 300l-162 -270q-16 -30 -42 -30h-12q-32 0 -32 13q0 8 11 25l155 252h-144q-12 0 -21 8.5t-9 21.5t9 21.5t21 8.5h209q36 0 36 -10q0 -11 -19 -40z" />
    <glyph glyph-name="eight.denominator" horiz-adv-x="286" 
d="M143 -10q-51 0 -87 33.5t-36 81.5q0 53 41 86q-27 29 -27 68q0 41 31.5 71t76.5 30q44 0 76 -30t32 -71q0 -38 -27 -67q43 -33 43 -87q0 -48 -36 -81.5t-87 -33.5zM142 297q-17 0 -29 -11t-12 -27t12 -27.5t29 -11.5t29 11.5t12 27.5t-12 27t-29 11zM143 157
q-23 0 -39.5 -15t-16.5 -37t16.5 -37t39.5 -15t39.5 15t16.5 37t-16.5 37t-39.5 15z" />
    <glyph glyph-name="nine.denominator" horiz-adv-x="309" 
d="M154 172q28 0 48 18.5t20 44.5t-20 44.5t-48 18.5t-48 -18.5t-20 -44.5t20 -44.5t48 -18.5zM281 193l-66 -163q-11 -30 -37 -30h-12q-14 0 -18.5 4t-4.5 16q0 6 6 18l30 74q-16 -2 -25 -2q-56 0 -95 36.5t-39 88.5t39 88.5t95 36.5t95.5 -36.5t39.5 -88.5q0 -20 -8 -42z
" />
    <glyph glyph-name="parenleft.denominator" horiz-adv-x="168" 
d="M85 123q0 -127 36 -168q28 -24 28 -40q0 -8 -7 -15.5t-18 -7.5l-6 1q-98 50 -98 230t98 230q5 1 6 1q11 0 18 -7.5t7 -15.5q0 -16 -28 -40q-36 -41 -36 -168z" />
    <glyph glyph-name="parenright.denominator" horiz-adv-x="168" 
d="M84 123q0 127 -36 168q-28 24 -28 40q0 8 7 15.5t18 7.5l6 -1q98 -50 98 -230t-98 -230q-5 -1 -6 -1q-11 0 -18 7.5t-7 15.5q0 16 28 40q36 41 36 168z" />
    <glyph glyph-name="C_o" horiz-adv-x="1208" 
d="M764 216q0 -67 47.5 -114.5t114.5 -47.5t114.5 47.5t47.5 114.5t-47.5 114.5t-114.5 47.5t-114.5 -47.5t-47.5 -114.5zM161 350q0 -119 81.5 -202.5t199.5 -83.5q88 0 153 45.5t96 105.5q0 97 68.5 166t166.5 69t166.5 -69t68.5 -166t-68.5 -166t-166.5 -69
q-66 0 -121 33.5t-86 90.5q-115 -124 -277 -124q-153 0 -261.5 108.5t-108.5 261.5t108.5 261.5t261.5 108.5q83 0 159 -37q30 -15 30 -39v-29q0 -34 -13 -34l-26 12q-68 43 -150 43q-118 0 -199.5 -83.5t-81.5 -202.5z" />
    <glyph glyph-name="c_h" horiz-adv-x="926" 
d="M866 30q0 -13 -9 -21.5t-21 -8.5h-14q-12 0 -21 8.5t-9 21.5v181q0 40 -8 73.5t-33 61t-66 27.5q-74 0 -119 -94v-249q0 -13 -9 -21.5t-21 -8.5h-14q-12 0 -21 8.5t-9 21.5v76q-34 -63 -90 -94.5t-119 -31.5q-98 0 -167 69t-69 167q0 97 69 165.5t167 68.5q42 0 89 -17
q30 -9 30 -36v-33q0 -20 -15 -20q-3 0 -15 7q-42 27 -89 27q-67 0 -114.5 -47.5t-47.5 -114.5t47.5 -114.5t114.5 -47.5q39 0 75 19t58.5 44t41 55.5t25 46t9.5 23.5v438q0 13 9 21.5t21 8.5h14q12 0 21 -8.5t9 -21.5v-298q25 29 59 46t60 17q181 0 181 -214v-201z" />
    <glyph glyph-name="c_k" horiz-adv-x="852" 
d="M632 248l202 -216q13 -13 13 -19q0 -13 -39 -13h-11q-27 0 -45 19l-171 186l-15 -13v-162q0 -13 -9 -21.5t-21 -8.5h-14q-12 0 -21 8.5t-9 21.5v76q-34 -63 -90 -94.5t-119 -31.5q-98 0 -167 69t-69 167q0 97 69 165.5t167 68.5q42 0 89 -17q30 -9 30 -36v-33
q0 -20 -15 -20q-3 0 -15 7q-42 27 -89 27q-67 0 -114.5 -47.5t-47.5 -114.5t47.5 -114.5t114.5 -47.5q39 0 75 19t58.5 44t41 55.5t25 46t9.5 23.5v438q0 13 9 21.5t21 8.5h14q12 0 21 -8.5t9 -21.5v-397l153 129q21 18 44 18h18q39 0 39 -13q0 -9 -13 -19z" />
    <glyph glyph-name="c_l" horiz-adv-x="626" 
d="M492 30v76q-34 -63 -90 -94.5t-119 -31.5q-98 0 -167 69t-69 167q0 97 69 165.5t167 68.5q42 0 89 -17q30 -9 30 -36v-33q0 -20 -15 -20q-3 0 -15 7q-42 27 -89 27q-67 0 -114.5 -47.5t-47.5 -114.5t47.5 -114.5t114.5 -47.5q39 0 75 19t58.5 44t41 55.5t25 46t9.5 23.5
v438q0 13 9 21.5t21 8.5h14q12 0 21 -8.5t9 -21.5v-650q0 -13 -9 -21.5t-21 -8.5h-14q-12 0 -21 8.5t-9 21.5z" />
    <glyph glyph-name="c_t" horiz-adv-x="759" 
d="M615 430h94q13 0 21.5 -9t8.5 -21v-9q0 -12 -8.5 -21t-21.5 -9h-94v-202q0 -70 94 -95q30 -8 30 -30v-14q0 -12 -8.5 -20t-21.5 -8q-11 0 -27.5 3t-42.5 14.5t-46.5 29t-36 51.5t-15.5 78v193h-39q-13 0 -21.5 9t-8.5 21v9q0 12 8.5 21t21.5 9h39q0 39 -21.5 64.5
t-57.5 25.5q-24 0 -42 -26.5t-18 -63.5v-104q-49 52 -119 52q-67 0 -114.5 -47.5t-47.5 -114.5t47.5 -114.5t114.5 -47.5q43 0 88 26q13 8 16 8q15 0 15 -20v-35q0 -27 -30 -36q-47 -17 -89 -17q-98 0 -167 69t-69 167q0 97 69 165.5t167 68.5q23 0 46 -5q5 67 40 108t92 41
q68 0 111 -47t43 -117z" />
    <glyph glyph-name="c_t_i" horiz-adv-x="964" 
d="M821 533q0 19 13 32t32 13t32 -13t13 -32t-13 -32t-32 -13t-32 13t-13 32zM625 430h248q12 0 21 -8.5t9 -21.5v-370q0 -13 -9 -21.5t-21 -8.5h-14q-12 0 -21 8.5t-9 21.5v331h-204v-202q0 -70 94 -95q30 -8 30 -30v-14q0 -12 -8.5 -20t-21.5 -8q-11 0 -27.5 3t-42.5 14.5
t-46.5 29t-36 51.5t-15.5 78v193h-39q-13 0 -21.5 9t-8.5 21v9q0 12 8.5 21t21.5 9h39q0 39 -21.5 64.5t-57.5 25.5q-25 0 -47.5 -27t-22.5 -63v-104q-49 52 -119 52q-67 0 -114.5 -47.5t-47.5 -114.5t47.5 -114.5t114.5 -47.5q43 0 88 26q13 8 16 8q15 0 15 -20v-35
q0 -27 -30 -36q-47 -17 -89 -17q-98 0 -167 69t-69 167q0 97 69 165.5t167 68.5q23 0 46 -5q4 66 44 107.5t98 41.5q68 0 111 -46.5t43 -117.5z" />
    <glyph glyph-name="f_b" horiz-adv-x="857" 
d="M271 710h154q12 0 21 -8.5t9 -21.5v-291q48 61 134 61q97 0 159 -68t62 -166q0 -99 -62 -165t-159 -66q-42 0 -77.5 19.5t-56.5 45.5v-20q0 -13 -9 -21.5t-21 -8.5h-14q-12 0 -21 8.5t-9 21.5v331h-204v-331q0 -13 -9 -21.5t-21 -8.5h-14q-12 0 -21 8.5t-9 21.5v331h-39
q-13 0 -21.5 9t-8.5 21v9q0 12 8.5 21t21.5 9h39v80q0 56 22 98.5t53 63t55 29.5t38 9zM445 216q0 -47 15.5 -81t39.5 -49.5t46 -22t43 -6.5q66 0 107 45.5t41 113.5t-41.5 115t-106.5 47q-48 0 -96 -40t-48 -122zM381 430v206h-110q-23 0 -58.5 -29.5t-35.5 -74.5v-102h204
z" />
    <glyph glyph-name="f_j" horiz-adv-x="532" 
d="M405 30v331h-228v-331q0 -13 -9 -21.5t-21 -8.5h-14q-12 0 -21 8.5t-9 21.5v331h-39q-13 0 -21.5 9t-8.5 21v9q0 12 8.5 21t21.5 9h39v80q0 46 15 82.5t36.5 57t46.5 34.5t42.5 18.5t27.5 4.5q13 0 21.5 -9t8.5 -21v-14q0 -22 -30 -30q-40 -11 -67 -37t-27 -64v-102h272
q12 0 21 -8.5t9 -21.5v-370q0 -56 -22 -98.5t-53 -63t-55 -29.5t-38 -9q-13 0 -21.5 8t-8.5 20v14q0 18 30 26q41 11 67.5 44t26.5 88z" />
    <glyph glyph-name="f_k" horiz-adv-x="741" 
d="M381 430v206h-110q-23 0 -58.5 -29.5t-35.5 -74.5v-102h204zM455 680v-402l157 134q21 18 44 18h14q39 0 39 -13q0 -9 -13 -19l-175 -150l202 -216q13 -13 13 -19q0 -13 -39 -13h-11q-27 0 -45 19l-171 186l-15 -13v-162q0 -13 -9 -21.5t-21 -8.5h-14q-12 0 -21 8.5
t-9 21.5v331h-204v-331q0 -13 -9 -21.5t-21 -8.5h-14q-12 0 -21 8.5t-9 21.5v331h-39q-13 0 -21.5 9t-8.5 21v9q0 12 8.5 21t21.5 9h39v80q0 56 22 98.5t53 63t55 29.5t38 9h154q12 0 21 -8.5t9 -21.5z" />
    <glyph glyph-name="f_f_j" horiz-adv-x="845" 
d="M711 30v331h-228v-331q0 -13 -9 -21.5t-21 -8.5h-14q-12 0 -21 8.5t-9 21.5v331h-262v-331q0 -13 -9 -21.5t-21 -8.5h-14q-12 0 -21 8.5t-9 21.5v331h-39q-13 0 -21.5 9t-8.5 21v9q0 12 8.5 21t21.5 9h39v80q0 46 15 82.5t36.5 57t46.5 34.5t42.5 18.5t27.5 4.5
q13 0 21.5 -9t8.5 -21v-14q0 -22 -30 -30q-40 -11 -67 -37t-27 -64v-102h262v80q0 46 15 82.5t36.5 57t46.5 34.5t42.5 18.5t27.5 4.5q13 0 21.5 -9t8.5 -21v-14q0 -22 -30 -30q-40 -11 -67 -37t-27 -64v-102h272q12 0 21 -8.5t9 -21.5v-370q0 -56 -22 -98.5t-53 -63
t-55 -29.5t-38 -9q-13 0 -21.5 8t-8.5 20v14q0 18 30 26q41 11 67.5 44t26.5 88z" />
    <glyph glyph-name="f_t" horiz-adv-x="668" 
d="M177 430h273v118q0 13 9 21.5t21 8.5h14q12 0 21 -8.5t9 -21.5v-118h94q13 0 21.5 -9t8.5 -21v-9q0 -12 -8.5 -21t-21.5 -9h-94v-202q0 -70 94 -95q30 -8 30 -30v-14q0 -12 -8.5 -20t-21.5 -8q-11 0 -27.5 3t-42.5 14.5t-46.5 29t-36 51.5t-15.5 78v193h-273v-331
q0 -13 -9 -21.5t-21 -8.5h-14q-12 0 -21 8.5t-9 21.5v331h-39q-13 0 -21.5 9t-8.5 21v9q0 12 8.5 21t21.5 9h39v80q0 46 15 82.5t36.5 57t46.5 34.5t42.5 18.5t27.5 4.5q13 0 21.5 -9t8.5 -21v-14q0 -22 -30 -30q-40 -11 -67 -37t-27 -64v-102z" />
    <glyph glyph-name="f_u" horiz-adv-x="815" 
d="M381 361h-204v-331q0 -13 -9 -21.5t-21 -8.5h-14q-12 0 -21 8.5t-9 21.5v331h-39q-13 0 -21.5 9t-8.5 21v9q0 12 8.5 21t21.5 9h39v80q0 46 15 82.5t36.5 57t46.5 34.5t42.5 18.5t27.5 4.5q13 0 21.5 -9t8.5 -21v-14q0 -22 -30 -30q-40 -11 -67 -37t-27 -64v-102h248
q12 0 21 -8.5t9 -21.5v-186q0 -39 8.5 -72.5t33.5 -60t65 -26.5q73 0 119 96v249q0 13 9 21.5t21 8.5h14q12 0 21 -8.5t9 -21.5v-370q0 -13 -9 -21.5t-21 -8.5h-14q-12 0 -21 8.5t-9 21.5v18q-25 -29 -59 -46t-60 -17q-181 0 -181 209v167z" />
    <glyph glyph-name="i_n" horiz-adv-x="659" 
d="M53 533q0 19 13 32t32 13t32 -13t13 -32t-13 -32t-32 -13t-32 13t-13 32zM225 400v-301q0 -60 -45 -60t-45 60v301q0 13 -9 21.5t-21 8.5h-14q-12 0 -21 -8.5t-9 -21.5v-301q0 -61 33 -90t86 -29t86 29t33 90v180q45 94 119 94q41 0 66 -27.5t33 -61t8 -73.5v-181
q0 -13 9 -21.5t21 -8.5h14q12 0 21 8.5t9 21.5v201q0 214 -181 214q-64 0 -119 -63v18q0 13 -9 21.5t-21 8.5h-14q-12 0 -21 -8.5t-9 -21.5z" />
    <glyph glyph-name="i_s" horiz-adv-x="591" 
d="M53 533q0 19 13 32t32 13t32 -13t13 -32t-13 -32t-32 -13t-32 13t-13 32zM286 101q1 -1 8 -8.5t14 -13.5t18.5 -13t26.5 -11.5t32 -4.5q28 0 54.5 16t26.5 46q0 27 -36 52.5t-78.5 43t-78.5 46.5t-36 61q0 59 39.5 97t108.5 38t113 -30q11 -8 11 -22q0 -12 -9 -21
l-13 -14q-9 -9 -21 -9q-4 0 -9 2t-9 4l-3 3q-20 13 -60 13q-28 0 -47.5 -15t-19.5 -34q0 -18 23.5 -34t56.5 -31t66 -33t56.5 -45.5t23.5 -61.5q0 -66 -41 -104t-118 -38q-73 0 -131 41q-33 -41 -86 -41q-107 0 -107 107v313q0 13 9 21.5t21 8.5h14q12 0 21 -8.5t9 -21.5
v-327q0 -4 1 -9.5t9 -15t23 -9.5q17 0 30 10t17 25l29 29q9 9 21 9q8 0 21 -11z" />
    <glyph glyph-name="o_o" horiz-adv-x="961" 
d="M120 216q0 -67 47.5 -114.5t114.5 -47.5t114.5 47.5t47.5 114.5t-47.5 114.5t-114.5 47.5t-114.5 -47.5t-47.5 -114.5zM517 216q0 -67 47.5 -114.5t114.5 -47.5t114.5 47.5t47.5 114.5t-47.5 114.5t-114.5 47.5t-114.5 -47.5t-47.5 -114.5zM480 88q-32 -50 -84.5 -79
t-113.5 -29q-98 0 -166.5 69t-68.5 166t68.5 166t166.5 69q62 0 114.5 -29.5t84.5 -79.5q32 50 84 79.5t114 29.5q97 0 166 -69t69 -166t-69 -166t-166 -69q-62 0 -114.5 29t-84.5 79z" />
    <glyph glyph-name="T_h" horiz-adv-x="973" 
d="M41 700h542q12 0 21 -8.5t9 -21.5v-283q25 29 59 46t60 17q181 0 181 -214v-206q0 -13 -9 -21.5t-21 -8.5h-14q-12 0 -21 8.5t-9 21.5v186q0 40 -8 73.5t-33 61t-66 27.5q-74 0 -119 -94v-254q0 -13 -9 -21.5t-21 -8.5h-14q-12 0 -21 8.5t-9 21.5v591h-263v-591
q0 -12 -8.5 -21t-21.5 -9h-24q-13 0 -21.5 9t-8.5 21v591h-151q-12 0 -21 8.5t-9 21.5v19q0 13 9 21.5t21 8.5z" />
    <glyph glyph-name="t_h" horiz-adv-x="817" 
d="M757 30q0 -13 -9 -21.5t-21 -8.5h-14q-12 0 -21 8.5t-9 21.5v186q0 40 -8 73.5t-33 61t-66 27.5q-74 0 -119 -94v-254q0 -13 -9 -21.5t-21 -8.5h-14q-12 0 -21 8.5t-9 21.5v331h-214v-202q0 -70 94 -95q30 -8 30 -30v-14q0 -12 -8.5 -20t-21.5 -8q-11 0 -27.5 3
t-42.5 14.5t-46.5 29t-36 51.5t-15.5 78v193h-39q-13 0 -21.5 9t-8.5 21v9q0 12 8.5 21t21.5 9h39v118q0 13 9 21.5t21 8.5h14q12 0 21 -8.5t9 -21.5v-118h214v250q0 13 9 21.5t21 8.5h14q12 0 21 -8.5t9 -21.5v-293q25 29 59 46t60 17q181 0 181 -214v-206z" />
    <glyph glyph-name="t_i" horiz-adv-x="508" 
d="M365 533q0 19 13 32t32 13t32 -13t13 -32t-13 -32t-32 -13t-32 13t-13 32zM169 430h248q12 0 21 -8.5t9 -21.5v-370q0 -13 -9 -21.5t-21 -8.5h-14q-12 0 -21 8.5t-9 21.5v331h-204v-202q0 -70 94 -95q30 -8 30 -30v-14q0 -12 -8.5 -20t-21.5 -8q-11 0 -27.5 3t-42.5 14.5
t-46.5 29t-36 51.5t-15.5 78v193h-39q-13 0 -21.5 9t-8.5 21v9q0 12 8.5 21t21.5 9h39v118q0 13 9 21.5t21 8.5h14q12 0 21 -8.5t9 -21.5v-118z" />
    <glyph glyph-name="t_o" horiz-adv-x="871" 
d="M354 215q0 82 51 146h-236v-202q0 -70 94 -95q30 -8 30 -30v-14q0 -12 -8.5 -20t-21.5 -8q-11 0 -27.5 3t-42.5 14.5t-46.5 29t-36 51.5t-15.5 78v193h-39q-13 0 -21.5 9t-8.5 21v9q0 12 8.5 21t21.5 9h39v118q0 13 9 21.5t21 8.5h14q12 0 21 -8.5t9 -21.5v-118h325
q45 20 95 20q97 0 166 -69t69 -166t-69 -166t-166 -69t-166 69t-69 166zM427 216q0 -67 47.5 -114.5t114.5 -47.5t114.5 47.5t47.5 114.5t-47.5 114.5t-114.5 47.5t-114.5 -47.5t-47.5 -114.5z" />
    <glyph glyph-name="t_t" horiz-adv-x="640" 
d="M169 430h253v118q0 13 9 21.5t21 8.5h14q12 0 21 -8.5t9 -21.5v-118h94q13 0 21.5 -9t8.5 -21v-9q0 -12 -8.5 -21t-21.5 -9h-94v-202q0 -70 94 -95q30 -8 30 -30v-14q0 -12 -8.5 -20t-21.5 -8q-11 0 -27.5 3t-42.5 14.5t-46.5 29t-36 51.5t-15.5 78v193h-253v-202
q0 -70 94 -95q30 -8 30 -30v-14q0 -12 -8.5 -20t-21.5 -8q-11 0 -27.5 3t-42.5 14.5t-46.5 29t-36 51.5t-15.5 78v193h-39q-13 0 -21.5 9t-8.5 21v9q0 12 8.5 21t21.5 9h39v118q0 13 9 21.5t21 8.5h14q12 0 21 -8.5t9 -21.5v-118z" />
    <glyph glyph-name="t_u" horiz-adv-x="786" 
d="M652 48q-25 -29 -59 -46t-60 -17q-181 0 -181 209v167h-203v-202q0 -70 94 -95q30 -8 30 -30v-14q0 -12 -8.5 -20t-21.5 -8q-11 0 -27.5 3t-42.5 14.5t-46.5 29t-36 51.5t-15.5 78v193h-39q-13 0 -21.5 9t-8.5 21v9q0 12 8.5 21t21.5 9h39v118q0 13 9 21.5t21 8.5h14
q12 0 21 -8.5t9 -21.5v-118h247q12 0 21 -8.5t9 -21.5v-186q0 -39 8.5 -72.5t33.5 -60t65 -26.5q73 0 119 96v249q0 13 9 21.5t21 8.5h14q12 0 21 -8.5t9 -21.5v-370q0 -13 -9 -21.5t-21 -8.5h-14q-12 0 -21 8.5t-9 21.5v18z" />
    <glyph glyph-name="u_t" horiz-adv-x="801" 
d="M657 430h94q13 0 21.5 -9t8.5 -21v-9q0 -12 -8.5 -21t-21.5 -9h-94v-202q0 -70 94 -95q30 -8 30 -30v-14q0 -12 -8.5 -20t-21.5 -8q-11 0 -27.5 3t-42.5 14.5t-46.5 29t-36 51.5t-15.5 78v193h-39q-13 0 -21.5 9t-8.5 21v9q0 12 8.5 21t21.5 9h39q0 39 -21.5 64.5
t-57.5 25.5q-29 0 -49.5 -28t-20.5 -72v-390q0 -13 -9 -21.5t-21 -8.5h-14q-12 0 -21 8.5t-9 21.5v18q-25 -29 -59 -46t-60 -17q-181 0 -181 209v206q0 13 9 21.5t21 8.5h14q12 0 21 -8.5t9 -21.5v-186q0 -40 8 -73t33 -59.5t66 -26.5q73 0 119 95v280q0 72 40.5 118
t102.5 46q68 0 111 -47t43 -117z" />
    <glyph glyph-name="a.salt" 
d="M412 216q0 42 -15.5 74.5t-39 49t-46.5 24.5t-43 8q-66 0 -107 -44t-41 -112t41 -113.5t107 -45.5q20 0 42.5 7.5t46.5 23.5t39.5 49.5t15.5 78.5zM476 30q0 -13 -9 -21.5t-21 -8.5h-14q-12 0 -21 8.5t-9 21.5v20q-21 -26 -56.5 -45.5t-77.5 -19.5q-97 0 -159 66t-62 165
q0 98 62 164t159 66q39 0 75 -18t59 -47v19q0 13 9 21.5t21 8.5h14q12 0 21 -8.5t9 -21.5v-370z" />
    <glyph glyph-name="aacute.salt" 
d="M181 536l107 114q9 7 17 7q13 0 21 -11l10 -12q6 -7 6 -18q0 -12 -12 -22l-122 -95q-9 -7 -17 -7q-7 0 -16 10q-6 7 -6 13q0 9 12 21zM412 216q0 42 -15.5 74.5t-39 49t-46.5 24.5t-43 8q-66 0 -107 -44t-41 -112t41 -113.5t107 -45.5q20 0 42.5 7.5t46.5 23.5t39.5 49.5
t15.5 78.5zM476 30q0 -13 -9 -21.5t-21 -8.5h-14q-12 0 -21 8.5t-9 21.5v20q-21 -26 -56.5 -45.5t-77.5 -19.5q-97 0 -159 66t-62 165q0 98 62 164t159 66q39 0 75 -18t59 -47v19q0 13 9 21.5t21 8.5h14q12 0 21 -8.5t9 -21.5v-370z" />
    <glyph glyph-name="agrave.salt" 
d="M243 657l107 -114q12 -12 12 -21q0 -6 -6 -13q-9 -10 -16 -10q-8 0 -17 7l-122 95q-12 10 -12 22q0 11 6 18l10 12q8 11 21 11q8 0 17 -7zM412 216q0 42 -15.5 74.5t-39 49t-46.5 24.5t-43 8q-66 0 -107 -44t-41 -112t41 -113.5t107 -45.5q20 0 42.5 7.5t46.5 23.5
t39.5 49.5t15.5 78.5zM476 30q0 -13 -9 -21.5t-21 -8.5h-14q-12 0 -21 8.5t-9 21.5v20q-21 -26 -56.5 -45.5t-77.5 -19.5q-97 0 -159 66t-62 165q0 98 62 164t159 66q39 0 75 -18t59 -47v19q0 13 9 21.5t21 8.5h14q12 0 21 -8.5t9 -21.5v-370z" />
    <glyph glyph-name="acircumflex.salt" 
d="M333 500l-65 84l-65 -84q-17 -20 -37 -20h-10q-22 0 -22 11l16 29l97 135q13 18 21 18t21 -18l97 -135q16 -24 16 -29q0 -11 -22 -11h-10q-9 0 -18 5t-14 10zM412 216q0 42 -15.5 74.5t-39 49t-46.5 24.5t-43 8q-66 0 -107 -44t-41 -112t41 -113.5t107 -45.5
q20 0 42.5 7.5t46.5 23.5t39.5 49.5t15.5 78.5zM476 30q0 -13 -9 -21.5t-21 -8.5h-14q-12 0 -21 8.5t-9 21.5v20q-21 -26 -56.5 -45.5t-77.5 -19.5q-97 0 -159 66t-62 165q0 98 62 164t159 66q39 0 75 -18t59 -47v19q0 13 9 21.5t21 8.5h14q12 0 21 -8.5t9 -21.5v-370z" />
    <glyph glyph-name="adieresis.salt" 
d="M153 553q0 19 13 32t32 13t32 -13t13 -32t-13 -32t-32 -13t-32 13t-13 32zM293 553q0 19 13 32t32 13t32 -13t13 -32t-13 -32t-32 -13t-32 13t-13 32zM412 216q0 42 -15.5 74.5t-39 49t-46.5 24.5t-43 8q-66 0 -107 -44t-41 -112t41 -113.5t107 -45.5q20 0 42.5 7.5
t46.5 23.5t39.5 49.5t15.5 78.5zM476 30q0 -13 -9 -21.5t-21 -8.5h-14q-12 0 -21 8.5t-9 21.5v20q-21 -26 -56.5 -45.5t-77.5 -19.5q-97 0 -159 66t-62 165q0 98 62 164t159 66q39 0 75 -18t59 -47v19q0 13 9 21.5t21 8.5h14q12 0 21 -8.5t9 -21.5v-370z" />
    <glyph glyph-name="atilde.salt" 
d="M316 559q7 0 12.5 3.5t7.5 6.5l2 3q5 17 27 17h11q19 0 19 -17q0 -3 -1 -8.5t-6 -19.5t-12.5 -24.5t-23.5 -19.5t-36 -9q-22 0 -48 17.5t-48 17.5q-7 0 -12.5 -3t-7.5 -7l-2 -3q-5 -17 -27 -17h-11q-19 0 -19 17q0 3 1 8.5t6 19.5t12.5 24.5t23.5 19.5t36 9
q22 0 48 -17.5t48 -17.5zM412 216q0 42 -15.5 74.5t-39 49t-46.5 24.5t-43 8q-66 0 -107 -44t-41 -112t41 -113.5t107 -45.5q20 0 42.5 7.5t46.5 23.5t39.5 49.5t15.5 78.5zM476 30q0 -13 -9 -21.5t-21 -8.5h-14q-12 0 -21 8.5t-9 21.5v20q-21 -26 -56.5 -45.5t-77.5 -19.5
q-97 0 -159 66t-62 165q0 98 62 164t159 66q39 0 75 -18t59 -47v19q0 13 9 21.5t21 8.5h14q12 0 21 -8.5t9 -21.5v-370z" />
    <glyph glyph-name="aring.salt" 
d="M186 569q0 32 24.5 55t57.5 23t57.5 -23t24.5 -55t-24.5 -55t-57.5 -23t-57.5 23t-24.5 55zM230 569q0 -15 11.5 -25t26.5 -10t26 10t11 25t-11 24.5t-26 9.5t-26.5 -9.5t-11.5 -24.5zM412 216q0 42 -15.5 74.5t-39 49t-46.5 24.5t-43 8q-66 0 -107 -44t-41 -112
t41 -113.5t107 -45.5q20 0 42.5 7.5t46.5 23.5t39.5 49.5t15.5 78.5zM476 30q0 -13 -9 -21.5t-21 -8.5h-14q-12 0 -21 8.5t-9 21.5v20q-21 -26 -56.5 -45.5t-77.5 -19.5q-97 0 -159 66t-62 165q0 98 62 164t159 66q39 0 75 -18t59 -47v19q0 13 9 21.5t21 8.5h14
q12 0 21 -8.5t9 -21.5v-370z" />
    <glyph glyph-name="aogonek.salt" 
d="M402 50q-21 -26 -56.5 -45.5t-77.5 -19.5q-97 0 -159 66t-62 165q0 98 62 164t159 66q39 0 75 -18t59 -47v19q0 13 9 21.5t21 8.5h14q12 0 21 -8.5t9 -21.5v-384q0 -21 -16 -35q-44 -40 -44 -64t77 -49q17 -5 17 -17q0 -9 -7 -20q-14 -21 -36 -21q-46 0 -77.5 20
t-42.5 41.5t-11 37.5q0 18 11 34.5t31 34t24 22.5v50zM412 216q0 42 -15.5 74.5t-39 49t-46.5 24.5t-43 8q-66 0 -107 -44t-41 -112t41 -113.5t107 -45.5q20 0 42.5 7.5t46.5 23.5t39.5 49.5t15.5 78.5z" />
    <glyph glyph-name="amacron.salt" 
d="M366 506h-196q-13 0 -21.5 9t-8.5 21v9q0 12 8.5 21t21.5 9h196q13 0 21.5 -9t8.5 -21v-9q0 -12 -8.5 -21t-21.5 -9zM412 216q0 42 -15.5 74.5t-39 49t-46.5 24.5t-43 8q-66 0 -107 -44t-41 -112t41 -113.5t107 -45.5q20 0 42.5 7.5t46.5 23.5t39.5 49.5t15.5 78.5z
M476 30q0 -13 -9 -21.5t-21 -8.5h-14q-12 0 -21 8.5t-9 21.5v20q-21 -26 -56.5 -45.5t-77.5 -19.5q-97 0 -159 66t-62 165q0 98 62 164t159 66q39 0 75 -18t59 -47v19q0 13 9 21.5t21 8.5h14q12 0 21 -8.5t9 -21.5v-370z" />
    <glyph glyph-name="abreve.salt" 
d="M268 545q47 0 65 29q6 11 19 11q9 0 21 -10.5t12 -22.5q0 -8 -9 -21q-32 -41 -108 -41t-108 41q-9 13 -9 21q0 12 12 22.5t21 10.5q13 0 19 -11q18 -29 65 -29zM412 216q0 42 -15.5 74.5t-39 49t-46.5 24.5t-43 8q-66 0 -107 -44t-41 -112t41 -113.5t107 -45.5
q20 0 42.5 7.5t46.5 23.5t39.5 49.5t15.5 78.5zM476 30q0 -13 -9 -21.5t-21 -8.5h-14q-12 0 -21 8.5t-9 21.5v20q-21 -26 -56.5 -45.5t-77.5 -19.5q-97 0 -159 66t-62 165q0 98 62 164t159 66q39 0 75 -18t59 -47v19q0 13 9 21.5t21 8.5h14q12 0 21 -8.5t9 -21.5v-370z" />
    <glyph glyph-name="g.salt" 
d="M412 216q0 80 -48 118t-96 38q-66 0 -107 -44t-41 -112t41 -113.5t107 -45.5q20 0 42.5 7.5t46.5 24t39.5 49.5t15.5 78zM85 -89q-12 19 -12 26q0 13 34 13h22q8 0 15.5 -5t16 -13.5l10.5 -10.5q37 -37 97 -37q47 0 90.5 30t43.5 86v50q-21 -26 -56.5 -45.5t-77.5 -19.5
q-97 0 -159 66t-62 165q0 98 62 164t159 66q39 0 75 -18t59 -47v19q0 13 9 21.5t21 8.5h14q12 0 21 -8.5t9 -21.5v-354q0 -65 -19 -113t-50.5 -73.5t-66 -37.5t-72.5 -12q-118 0 -183 101z" />
    <glyph glyph-name="gcircumflex.salt" 
d="M333 500l-65 84l-65 -84q-17 -20 -37 -20h-10q-22 0 -22 11l16 29l97 135q13 18 21 18t21 -18l97 -135q16 -24 16 -29q0 -11 -22 -11h-10q-9 0 -18 5t-14 10zM412 216q0 80 -48 118t-96 38q-66 0 -107 -44t-41 -112t41 -113.5t107 -45.5q20 0 42.5 7.5t46.5 24t39.5 49.5
t15.5 78zM85 -89q-12 19 -12 26q0 13 34 13h22q8 0 15.5 -5t16 -13.5l10.5 -10.5q37 -37 97 -37q47 0 90.5 30t43.5 86v50q-21 -26 -56.5 -45.5t-77.5 -19.5q-97 0 -159 66t-62 165q0 98 62 164t159 66q39 0 75 -18t59 -47v19q0 13 9 21.5t21 8.5h14q12 0 21 -8.5t9 -21.5
v-354q0 -65 -19 -113t-50.5 -73.5t-66 -37.5t-72.5 -12q-118 0 -183 101z" />
    <glyph glyph-name="gbreve.salt" 
d="M268 545q47 0 65 29q6 11 19 11q9 0 21 -10.5t12 -22.5q0 -8 -9 -21q-32 -41 -108 -41t-108 41q-9 13 -9 21q0 12 12 22.5t21 10.5q13 0 19 -11q18 -29 65 -29zM412 216q0 80 -48 118t-96 38q-66 0 -107 -44t-41 -112t41 -113.5t107 -45.5q20 0 42.5 7.5t46.5 24
t39.5 49.5t15.5 78zM85 -89q-12 19 -12 26q0 13 34 13h22q8 0 15.5 -5t16 -13.5l10.5 -10.5q37 -37 97 -37q47 0 90.5 30t43.5 86v50q-21 -26 -56.5 -45.5t-77.5 -19.5q-97 0 -159 66t-62 165q0 98 62 164t159 66q39 0 75 -18t59 -47v19q0 13 9 21.5t21 8.5h14q12 0 21 -8.5
t9 -21.5v-354q0 -65 -19 -113t-50.5 -73.5t-66 -37.5t-72.5 -12q-118 0 -183 101z" />
    <glyph glyph-name="gcommaaccent.salt" 
d="M326 703l-52 -106q20 -5 32 -21t12 -37q0 -25 -17.5 -42t-42.5 -17q-24 0 -41.5 17t-17.5 42l89 180q8 16 24 16q18 0 18 -17q0 -7 -4 -15zM412 216q0 80 -48 118t-96 38q-66 0 -107 -44t-41 -112t41 -113.5t107 -45.5q20 0 42.5 7.5t46.5 24t39.5 49.5t15.5 78zM85 -89
q-12 19 -12 26q0 13 34 13h22q8 0 15.5 -5t16 -13.5l10.5 -10.5q37 -37 97 -37q47 0 90.5 30t43.5 86v50q-21 -26 -56.5 -45.5t-77.5 -19.5q-97 0 -159 66t-62 165q0 98 62 164t159 66q39 0 75 -18t59 -47v19q0 13 9 21.5t21 8.5h14q12 0 21 -8.5t9 -21.5v-354
q0 -65 -19 -113t-50.5 -73.5t-66 -37.5t-72.5 -12q-118 0 -183 101z" />
    <glyph glyph-name="gdotaccent.salt" 
d="M223 568q0 19 13 32t32 13t32 -13t13 -32t-13 -32t-32 -13t-32 13t-13 32zM412 216q0 80 -48 118t-96 38q-66 0 -107 -44t-41 -112t41 -113.5t107 -45.5q20 0 42.5 7.5t46.5 24t39.5 49.5t15.5 78zM85 -89q-12 19 -12 26q0 13 34 13h22q8 0 15.5 -5t16 -13.5l10.5 -10.5
q37 -37 97 -37q47 0 90.5 30t43.5 86v50q-21 -26 -56.5 -45.5t-77.5 -19.5q-97 0 -159 66t-62 165q0 98 62 164t159 66q39 0 75 -18t59 -47v19q0 13 9 21.5t21 8.5h14q12 0 21 -8.5t9 -21.5v-354q0 -65 -19 -113t-50.5 -73.5t-66 -37.5t-72.5 -12q-118 0 -183 101z" />
    <glyph glyph-name="y.salt" horiz-adv-x="504" 
d="M444 46q0 -125 -56 -180.5t-137 -55.5q-114 0 -179 101q-12 19 -12 26q0 13 30 13h20q7 0 13 -1.5t11.5 -5.5t8.5 -6.5t8 -8t7 -7.5q37 -37 93 -37q45 0 82 29.5t37 86.5v48q-25 -29 -59 -46t-60 -17q-181 0 -181 209v206q0 13 9 21.5t21 8.5h14q12 0 21 -8.5t9 -21.5
v-186q0 -39 8.5 -72.5t33.5 -60t65 -26.5q73 0 119 96v249q0 13 9 21.5t21 8.5h14q12 0 21 -8.5t9 -21.5v-354z" />
    <glyph glyph-name="yacute.salt" horiz-adv-x="504" 
d="M173 543l107 114q9 7 17 7q13 0 21 -11l10 -12q6 -7 6 -18q0 -12 -12 -22l-122 -95q-9 -7 -17 -7q-7 0 -16 10q-6 7 -6 13q0 9 12 21zM444 46v354q0 13 -9 21.5t-21 8.5h-14q-12 0 -21 -8.5t-9 -21.5v-249q-46 -96 -119 -96q-40 0 -65 26.5t-33.5 60t-8.5 72.5v186
q0 13 -9 21.5t-21 8.5h-14q-12 0 -21 -8.5t-9 -21.5v-206q0 -209 181 -209q26 0 60 17t59 46v-48q0 -57 -37 -86.5t-82 -29.5q-56 0 -93 37q-2 2 -7 7.5t-8 8t-8.5 6.5t-11.5 5.5t-13 1.5h-20q-30 0 -30 -13l12 -26q65 -101 179 -101q81 0 137 55.5t56 180.5z" />
    <glyph glyph-name="ygrave.salt" horiz-adv-x="504" 
d="M216 657l107 -114q12 -12 12 -21q0 -6 -6 -13q-9 -10 -16 -10q-8 0 -17 7l-122 95q-12 10 -12 22q0 11 6 18l10 12q8 11 21 11q8 0 17 -7zM444 46q0 -125 -56 -180.5t-137 -55.5q-114 0 -179 101q-12 19 -12 26q0 13 30 13h20q7 0 13 -1.5t11.5 -5.5t8.5 -6.5t8 -8
t7 -7.5q37 -37 93 -37q45 0 82 29.5t37 86.5v48q-25 -29 -59 -46t-60 -17q-181 0 -181 209v206q0 13 9 21.5t21 8.5h14q12 0 21 -8.5t9 -21.5v-186q0 -39 8.5 -72.5t33.5 -60t65 -26.5q73 0 119 96v249q0 13 9 21.5t21 8.5h14q12 0 21 -8.5t9 -21.5v-354z" />
    <glyph glyph-name="ycircumflex.salt" horiz-adv-x="504" 
d="M316 500l-65 84l-65 -84q-17 -20 -37 -20h-10q-22 0 -22 11l16 29l97 135q13 18 21 18t21 -18l97 -135q16 -24 16 -29q0 -11 -22 -11h-10q-9 0 -18 5t-14 10zM444 46q0 -125 -56 -180.5t-137 -55.5q-114 0 -179 101q-12 19 -12 26q0 13 30 13h20q7 0 13 -1.5t11.5 -5.5
t8.5 -6.5t8 -8t7 -7.5q37 -37 93 -37q45 0 82 29.5t37 86.5v48q-25 -29 -59 -46t-60 -17q-181 0 -181 209v206q0 13 9 21.5t21 8.5h14q12 0 21 -8.5t9 -21.5v-186q0 -39 8.5 -72.5t33.5 -60t65 -26.5q73 0 119 96v249q0 13 9 21.5t21 8.5h14q12 0 21 -8.5t9 -21.5v-354z" />
    <glyph glyph-name="ydieresis.salt" horiz-adv-x="504" 
d="M136 550q0 19 13 32t32 13t32 -13t13 -32t-13 -32t-32 -13t-32 13t-13 32zM276 550q0 19 13 32t32 13t32 -13t13 -32t-13 -32t-32 -13t-32 13t-13 32zM444 46v354q0 13 -9 21.5t-21 8.5h-14q-12 0 -21 -8.5t-9 -21.5v-249q-46 -96 -119 -96q-40 0 -65 26.5t-33.5 60
t-8.5 72.5v186q0 13 -9 21.5t-21 8.5h-14q-12 0 -21 -8.5t-9 -21.5v-206q0 -209 181 -209q26 0 60 17t59 46v-48q0 -57 -37 -86.5t-82 -29.5q-56 0 -93 37q-2 2 -7 7.5t-8 8t-8.5 6.5t-11.5 5.5t-13 1.5h-20q-30 0 -30 -13l12 -26q65 -101 179 -101q81 0 137 55.5t56 180.5z
" />
    </font>
</defs>
</svg>
