<?xml version="1.0" standalone="no"?>
<!DOCTYPE svg PUBLIC "-//W3C//DTD SVG 1.1//EN" "http://www.w3.org/Graphics/SVG/1.1/DTD/svg11.dtd" >
<svg xmlns="http://www.w3.org/2000/svg" xmlns:xlink="http://www.w3.org/1999/xlink" version="1.1">
<metadata>
Created by FontForge 20170731 at Sat Mar 14 00:16:15 2015
 By Aleksey,,,
Copyright (c) 2011 by Khaito Gengo. All rights reserved.
</metadata>
<defs>
<font id="AirFactoryRounded-Regular4" horiz-adv-x="496" >
  <font-face 
    font-family="AirFactoryRounded"
    font-weight="400"
    font-stretch="normal"
    units-per-em="1000"
    panose-1="2 0 5 3 0 0 0 2 0 3"
    ascent="790"
    descent="-210"
    x-height="432"
    cap-height="704"
    bbox="-173 -289 1163 967"
    underline-thickness="50"
    underline-position="-150"
    unicode-range="U+000D-FB06"
  />
<missing-glyph horiz-adv-x="399" 
 />
    <glyph glyph-name=".notdef" horiz-adv-x="399" 
 />
    <glyph glyph-name=".null" horiz-adv-x="0" 
 />
    <glyph glyph-name=".null" horiz-adv-x="0" 
 />
    <glyph glyph-name="glyph2" horiz-adv-x="333" 
 />
    <glyph glyph-name="nonmarkingreturn" unicode="&#xd;" horiz-adv-x="500" 
 />
    <glyph glyph-name="space" unicode=" " horiz-adv-x="300" 
 />
    <glyph glyph-name="exclam" unicode="!" horiz-adv-x="257" 
d="M72 36q0 23 16.5 40t39.5 17t40 -17t17 -40t-17 -39.5t-40 -16.5t-39.5 16.5t-16.5 39.5zM90 171l-7 503q0 13 9 21.5t21 8.5h31q12 0 21 -8.5t9 -21.5l-7 -503q0 -13 -9 -21.5t-21 -8.5h-17q-12 0 -21 8.5t-9 21.5z" />
    <glyph glyph-name="quotedbl" unicode="&#x22;" horiz-adv-x="359" 
d="M37 510l50 167q5 18 24 18q9 0 15 -2l26 -10q19 -7 19 -25q0 -6 -3 -13l-63 -165q-7 -17 -24 -17q-9 0 -15 2l-13 5q-19 7 -19 25q0 6 3 15zM191 510l50 167q5 18 24 18q9 0 15 -2l26 -10q19 -7 19 -25q0 -6 -3 -13l-63 -165q-7 -17 -24 -17q-9 0 -15 2l-13 5
q-19 7 -19 25q0 6 3 15z" />
    <glyph glyph-name="numbersign" unicode="#" horiz-adv-x="626" 
d="M153 506h69l69 168q12 30 41 30h38q34 0 34 -13l-5 -17l-69 -168h93l69 168q12 30 41 30h38q34 0 34 -13l-5 -17l-69 -168h38q13 0 21.5 -9t8.5 -21v-31q0 -12 -8.5 -21t-21.5 -9h-76l-45 -109h40q13 0 21.5 -9t8.5 -21v-31q0 -12 -8.5 -21t-21.5 -9h-77l-76 -185
q-12 -30 -41 -30h-38q-34 0 -34 13l5 17l76 185h-93l-76 -185q-12 -30 -41 -30h-38q-34 0 -34 13l5 17l76 185h-30q-13 0 -21.5 9t-8.5 21v31q0 12 8.5 21t21.5 9h67l45 109h-31q-13 0 -21.5 9t-8.5 21v31q0 12 8.5 21t21.5 9zM292 415l-45 -109h93l45 109h-93z" />
    <glyph glyph-name="dollar" unicode="$" horiz-adv-x="529" 
d="M195 715v55q0 13 9 21.5t21 8.5h43q12 0 21 -8.5t9 -21.5v-55q62 -18 102 -78q8 -11 8 -22q0 -12 -9 -21l-32 -33q-9 -9 -21 -9q-4 0 -8.5 3t-7.5 6l-2 3q-22 30 -39 40.5t-43 10.5q-34 0 -58 -25t-24 -60t30 -62t73 -48t86 -47.5t73 -74t30 -113.5q0 -73 -44 -128.5
t-114 -72.5v-54q0 -13 -9 -21.5t-21 -8.5h-43q-12 0 -21 8.5t-9 21.5v55q-79 24 -133 106q-9 15 -9 23q0 12 9 21l30 31q9 9 21 9q4 0 8.5 -3t6.5 -6l3 -3q53 -79 115 -79q47 0 77.5 29t30.5 72q0 49 -30.5 81t-73.5 51t-86 40.5t-73.5 64.5t-30.5 108t38 116.5t97 68.5z
" />
    <glyph glyph-name="percent" unicode="%" horiz-adv-x="730" 
d="M182 338q-66 0 -105 52.5t-39 138.5q0 85 39 138t105 53t105.5 -52.5t39.5 -138.5t-39.5 -138.5t-105.5 -52.5zM523 -20q-67 0 -106 52.5t-39 138.5t39 138.5t106 52.5q66 0 105 -53t39 -138q0 -86 -39 -138.5t-105 -52.5zM182 635q-21 0 -37.5 -28t-16.5 -78t16.5 -78
t37.5 -28t37.5 28t16.5 78t-16.5 78t-37.5 28zM523 277q-22 0 -38.5 -28t-16.5 -78t16.5 -78t38.5 -28q21 0 37 28t16 78t-16 78t-37 28zM244 30q-17 -30 -42 -30h-32q-30 0 -30 13q0 7 5 17l320 644q15 30 42 30h32q30 0 30 -13l-5 -17z" />
    <glyph glyph-name="ampersand" unicode="&#x26;" horiz-adv-x="646" 
d="M270 618q-33 0 -61.5 -25t-28.5 -67q0 -29 14.5 -51t52.5 -56q31 4 54.5 16t34.5 27t17.5 29.5t7.5 24.5l1 10q0 38 -27 65t-65 27zM378 146l-169 165q-56 -39 -56 -104q0 -50 35 -85.5t84 -35.5q33 0 62 16.5t44 43.5zM599 393l7 1q23 0 23 -31v-46q0 -25 -30 -30
q-45 -9 -73 -40.5t-30 -73.5l138 -137q12 -11 12 -23q0 -13 -28 -13h-72q-16 0 -43 27l-48 47q-32 -44 -80 -69t-103 -25q-93 0 -159 66.5t-66 160.5q0 102 91 172q-64 60 -64 147q0 82 58 140t138 58q82 0 139.5 -58t57.5 -140q0 -53 -34 -106t-111 -75l88 -87
q24 56 73.5 92t115.5 43z" />
    <glyph glyph-name="quotesingle" unicode="'" horiz-adv-x="205" 
d="M37 510l50 167q5 18 24 18q9 0 15 -2l26 -10q19 -7 19 -25q0 -6 -3 -13l-63 -165q-7 -17 -24 -17q-9 0 -15 2l-13 5q-19 7 -19 25q0 6 3 15z" />
    <glyph glyph-name="parenleft" unicode="(" horiz-adv-x="360" 
d="M74 270q0 80 11.5 146.5t27 109.5t40.5 77t44.5 51.5t46.5 30.5t38 16t28 7q5 1 6 1q12 0 18 -9.5t6 -21.5v-37q0 -23 -30 -30q-146 -39 -146 -341t146 -341q30 -7 30 -30v-37q0 -12 -6 -21.5t-18 -9.5l-6 1q-17 4 -28 7t-38 16t-46.5 30.5t-44.5 51.5t-40.5 77
t-27 109.5t-11.5 146.5z" />
    <glyph glyph-name="parenright" unicode=")" horiz-adv-x="396" 
d="M306 270q0 -80 -11.5 -146.5t-27 -109.5t-40.5 -77t-44.5 -51.5t-46.5 -30.5t-38 -16t-28 -7q-5 -1 -6 -1q-12 0 -18 9.5t-6 21.5v37q0 23 30 30q146 39 146 341t-146 341q-30 7 -30 30v37q0 12 6 21.5t18 9.5l6 -1q17 -4 28 -7t38 -16t46.5 -30.5t44.5 -51.5t40.5 -77
t27 -109.5t11.5 -146.5z" />
    <glyph glyph-name="asterisk" unicode="*" horiz-adv-x="374" 
d="M57 436l92 84l-92 84q-10 9 -10 20t8 19l7 7q9 9 21 9t21 -9l54 -60l-4 80q0 3 1 8t8.5 13.5t20.5 8.5h6q13 0 20.5 -7.5t8.5 -14.5l1 -8l-4 -80l54 60q9 9 21 9t21 -9l7 -7q8 -8 8 -19t-10 -20l-92 -84l92 -84q10 -9 10 -20t-8 -19l-7 -7q-9 -9 -21 -9t-21 9l-54 60
l4 -80q0 -3 -1 -8t-8.5 -13.5t-20.5 -8.5h-6q-13 0 -20.5 7.5t-8.5 14.5l-1 8l4 80l-54 -60q-9 -9 -21 -9t-21 9l-7 7q-8 8 -8 19t10 20z" />
    <glyph glyph-name="plus" unicode="+" horiz-adv-x="459" 
d="M276 430h119q13 0 21.5 -9t8.5 -21v-29q0 -12 -8.5 -21t-21.5 -9h-119v-131q0 -13 -9 -21.5t-21 -8.5h-33q-12 0 -21 8.5t-9 21.5v131h-119q-13 0 -21.5 9t-8.5 21v29q0 12 8.5 21t21.5 9h119v131q0 13 9 21.5t21 8.5h33q12 0 21 -8.5t9 -21.5v-131z" />
    <glyph glyph-name="comma" unicode="," horiz-adv-x="230" 
d="M50 -70l49 163q5 18 24 18q9 0 15 -2l26 -10q19 -7 19 -25q0 -6 -3 -13l-64 -160q-7 -17 -24 -17q-9 0 -15 2l-11 4q-19 7 -19 25q0 6 3 15z" />
    <glyph glyph-name="hyphen" unicode="-" horiz-adv-x="271" 
d="M40 329h191q13 0 21.5 -9t8.5 -21v-19q0 -12 -8.5 -21t-21.5 -9h-191q-13 0 -21.5 9t-8.5 21v19q0 12 8.5 21t21.5 9z" />
    <glyph glyph-name="period" unicode="." horiz-adv-x="160" 
d="M24 56q0 23 16.5 39.5t39.5 16.5t39.5 -16.5t16.5 -39.5t-16.5 -39.5t-39.5 -16.5t-39.5 16.5t-16.5 39.5z" />
    <glyph glyph-name="slash" unicode="/" horiz-adv-x="374" 
d="M379 674l-259 -644q-12 -30 -41 -30h-35q-34 0 -34 13l5 17l258 644q12 30 41 30h36q34 0 34 -13z" />
    <glyph glyph-name="zero" unicode="0" horiz-adv-x="589" 
d="M294 -20q-112 0 -182 100t-70 272q0 173 70 272.5t182 99.5q113 0 183 -99.5t70 -272.5t-70 -272.5t-183 -99.5zM294 619q-64 0 -103 -76t-39 -191t39 -190.5t103 -75.5q65 0 104 75.5t39 190.5t-39 191t-104 76z" />
    <glyph glyph-name="one" unicode="1" horiz-adv-x="318" 
d="M138 487l-25 -26q-9 -9 -21 -9t-21 9l-29 31q-9 9 -9 21q0 13 9 22l136 147q29 32 43 32t14 -38v-646q0 -13 -9 -21.5t-21 -8.5h-37q-12 0 -21 8.5t-9 21.5v457z" />
    <glyph glyph-name="two" unicode="2" horiz-adv-x="517" 
d="M429 0h-366q-38 0 -38 11t25 37q12 12 31.5 33t69 81t87.5 114.5t69 120.5t31 112q0 48 -33.5 79t-73.5 31q-16 0 -30 -4.5t-22.5 -9t-18.5 -17t-13.5 -18t-14 -23.5t-12.5 -22q-6 -9 -21 -9q-12 0 -21 9l-34 34q-9 9 -9 21q0 11 7 25q24 47 71.5 83t118.5 36
q86 0 147 -63t61 -150q0 -51 -21 -112t-51.5 -111.5t-61 -93.5t-51.5 -68l-21 -24h195q12 0 21 -8.5t9 -21.5v-42q0 -13 -9 -21.5t-21 -8.5z" />
    <glyph glyph-name="three" unicode="3" horiz-adv-x="516" 
d="M167 534q-1 -13 -11.5 -21.5t-22.5 -8.5h-43q-12 0 -20.5 5.5t-8.5 15.5l1 9q10 84 66.5 137t134.5 53q84 0 143 -60.5t59 -147.5q0 -95 -69 -157q69 -66 69 -161q0 -90 -62 -154t-150 -64q-81 0 -140.5 56.5t-69.5 143.5q-1 7 -1 9q0 10 8.5 15.5t20.5 5.5h47
q23 0 30 -30q8 -42 37 -68t68 -26q46 0 77.5 32.5t31.5 79.5q0 36 -22 66.5t-59 40.5q-30 9 -30 30v52q0 23 30 30q37 8 59 35.5t22 63.5q0 43 -29 73t-70 30q-35 0 -61.5 -23t-34.5 -62z" />
    <glyph glyph-name="four" unicode="4" horiz-adv-x="528" 
d="M346 291v173l-142 -173h142zM450 291h51q12 0 21 -8.5t9 -21.5v-41q0 -13 -9 -21.5t-21 -8.5h-51v-160q0 -13 -9 -21.5t-21 -8.5h-44q-12 0 -21 8.5t-9 21.5v160h-299q-38 0 -38 11q0 8 26 39l370 446q23 28 34 28t11 -38v-385z" />
    <glyph glyph-name="five" unicode="5" horiz-adv-x="544" 
d="M415 602h-226l-21 -138q34 14 76 14q101 0 173 -73.5t72 -176.5t-72 -175.5t-173 -72.5q-117 0 -192 97q-9 9 -9 21t9 21l34 34q9 9 21 9t19 -9q45 -68 118 -68q59 0 100.5 42t41.5 101q0 60 -41.5 102t-100.5 42q-69 0 -177 -57q-14 -7 -21 -7q-9 0 -9 8l2 14l54 344
q5 30 30 30h292q12 0 21 -8.5t9 -21.5v-42q0 -13 -9 -21.5t-21 -8.5z" />
    <glyph glyph-name="six" unicode="6" horiz-adv-x="585" 
d="M300 666l-75 -199q33 9 67 9q102 0 174 -73t72 -176q0 -102 -72 -174.5t-174 -72.5q-101 0 -173 72.5t-72 174.5q0 49 14 84l136 363q11 30 34 30h49q24 0 24 -23zM292 371q-58 0 -99.5 -42t-41.5 -101t41.5 -101t99.5 -42q59 0 100.5 42t41.5 101t-41.5 101t-100.5 42z
" />
    <glyph glyph-name="seven" unicode="7" horiz-adv-x="558" 
d="M50 704h435q38 0 38 -11t-21 -48l-339 -615q-16 -30 -42 -30h-59q-31 0 -31 13q0 7 11 25l320 566h-312q-12 0 -21 8.5t-9 21.5v40q0 13 9 21.5t21 8.5z" />
    <glyph glyph-name="eight" unicode="8" horiz-adv-x="588" 
d="M294 -20q-92 0 -157 66.5t-65 160.5q0 109 84 178q-57 57 -57 141q0 82 56.5 140t136.5 58t137 -58t57 -140q0 -80 -56 -139q86 -68 86 -180q0 -94 -65 -160.5t-157 -66.5zM292 618q-37 0 -63 -27t-26 -65t26 -65t63 -27t64 27.5t27 64.5q0 38 -27 65t-64 27zM294 328
q-49 0 -83.5 -35t-34.5 -86q0 -50 34.5 -85.5t83.5 -35.5t84 35.5t35 85.5q0 51 -34.5 86t-84.5 35z" />
    <glyph glyph-name="nine" unicode="9" horiz-adv-x="601" 
d="M293 38l75 199q-33 -9 -67 -9q-102 0 -174 73t-72 176q0 102 72 174.5t174 72.5q101 0 173 -72.5t72 -174.5q0 -49 -14 -84l-136 -363q-10 -30 -34 -30h-49q-24 0 -24 23zM301 333q58 0 99.5 42t41.5 101t-41.5 101t-99.5 42q-59 0 -100.5 -42t-41.5 -101t41.5 -101
t100.5 -42z" />
    <glyph glyph-name="colon" unicode=":" horiz-adv-x="284" 
d="M86 346q0 23 16.5 39.5t39.5 16.5t39.5 -16.5t16.5 -39.5t-16.5 -39.5t-39.5 -16.5t-39.5 16.5t-16.5 39.5zM86 56q0 23 16.5 39.5t39.5 16.5t39.5 -16.5t16.5 -39.5t-16.5 -39.5t-39.5 -16.5t-39.5 16.5t-16.5 39.5z" />
    <glyph glyph-name="semicolon" unicode=";" horiz-adv-x="267" 
d="M67 346q0 23 16.5 39.5t39.5 16.5t39.5 -16.5t16.5 -39.5t-16.5 -39.5t-39.5 -16.5t-39.5 16.5t-16.5 39.5zM24 -70l49 163q5 18 24 18q9 0 15 -2l26 -10q19 -7 19 -25q0 -6 -3 -13l-64 -160q-7 -17 -24 -17q-9 0 -15 2l-11 4q-19 7 -19 25q0 6 3 15z" />
    <glyph glyph-name="less" unicode="&#x3c;" horiz-adv-x="429" 
d="M379 489l-178 -149l178 -149q30 -25 30 -51v-51q0 -38 -13 -38q-3 0 -10 4t-12 8l-5 4l-304 252q-18 15 -18 21t18 21l304 252q20 16 27 16q13 0 13 -38v-51q0 -12 -7.5 -24.5t-15.5 -19.5z" />
    <glyph glyph-name="equal" unicode="=" horiz-adv-x="489" 
d="M78 514h331q13 0 21.5 -9t8.5 -21v-24q0 -12 -8.5 -21t-21.5 -9h-331q-13 0 -21.5 9t-8.5 21v24q0 12 8.5 21t21.5 9zM78 346h331q13 0 21.5 -9t8.5 -21v-24q0 -12 -8.5 -21t-21.5 -9h-331q-13 0 -21.5 9t-8.5 21v24q0 12 8.5 21t21.5 9z" />
    <glyph glyph-name="greater" unicode="&#x3e;" horiz-adv-x="429" 
d="M228 340l-178 149q-30 25 -30 51v51q0 38 13 38q3 0 10 -4t12 -8l5 -4l304 -252q18 -15 18 -21t-18 -21l-304 -252q-20 -16 -27 -16q-13 0 -13 38v51q0 12 7.5 24.5t14.5 19.5l8 7z" />
    <glyph glyph-name="question" unicode="?" horiz-adv-x="463" 
d="M154 36q0 23 16.5 40t39.5 17t40 -17t17 -40t-17 -39.5t-40 -16.5t-39.5 16.5t-16.5 39.5zM164 172v74q0 29 13.5 57.5t27 44t38.5 40.5q35 35 49 55q22 30 22 61q0 61 -30 88t-73 27q-52 0 -92 -40q-9 -9 -20 -9q-12 0 -21 9l-29 28q-12 12 -12 24t9 21q71 72 165 72
q91 0 148 -61.5t57 -158.5q0 -55 -22 -92.5t-61 -74.5q-5 -6 -15.5 -15.5t-13.5 -12.5q-47 -49 -47 -92v-45q0 -13 -9 -21.5t-21 -8.5h-33q-12 0 -21 8.5t-9 21.5z" />
    <glyph glyph-name="at" unicode="@" horiz-adv-x="864" 
d="M426 449q-35 0 -61 -30.5t-26 -68.5t26 -69t61 -31q21 0 42 7.5t40 31.5t19 61q0 48 -34 73.5t-67 25.5zM613 498v-245q0 -16 10 -16q31 0 45 45t14 107q0 85 -68.5 155.5t-171.5 70.5q-109 0 -184.5 -77.5t-75.5 -187.5q0 -113 72 -189t188 -76q95 0 136 10.5t103 43.5
q13 9 22 9t21 -12l37 -39q9 -9 9 -20q0 -15 -9 -21q-66 -40 -133.5 -58t-185.5 -18q-153 0 -261.5 108.5t-108.5 261.5t108.5 261.5t261.5 108.5q147 0 248.5 -100.5t101.5 -230.5q0 -107 -42 -180t-127 -73q-33 0 -69 15.5t-36 31.5v8q-39 -36 -92 -36q-80 0 -131.5 56.5
t-51.5 138.5q0 81 51.5 137t131.5 56q28 0 54.5 -11.5t37.5 -33.5q0 13 9 21.5t21 8.5h35q12 0 21 -8.5t9 -21.5z" />
    <glyph glyph-name="A" unicode="A" horiz-adv-x="562" 
d="M281 487l-4 -20l-75 -201h158l-75 201zM397 165h-232l-51 -135q-11 -30 -36 -30h-40q-34 0 -34 13l3 17l256 666q5 18 18 18q6 0 10.5 -4.5t6.5 -9.5l1 -4l256 -666q3 -8 3 -17q0 -13 -34 -13h-40q-25 0 -36 30z" />
    <glyph glyph-name="B" unicode="B" horiz-adv-x="594" 
d="M120 704h132q103 0 163 -51t60 -152q0 -38 -16.5 -77.5t-42.5 -59.5q51 -18 78.5 -62.5t27.5 -102.5q0 -39 -9.5 -69.5t-25 -51t-40 -35.5t-48 -23t-56 -13t-58 -6t-59.5 -1h-106q-12 0 -21 8.5t-9 21.5v644q0 13 9 21.5t21 8.5zM252 604h-58v-206h58q62 0 89.5 23.5
t27.5 79.5q0 46 -27.5 74.5t-89.5 28.5zM291 299h-97v-199h97q70 0 98.5 23t28.5 76q0 100 -127 100z" />
    <glyph glyph-name="C" unicode="C" horiz-adv-x="724" 
d="M72 352q0 154 108 263t260 109q86 0 164 -39q30 -15 30 -39v-63q0 -34 -13 -34q-3 0 -9.5 3.5t-11.5 7.5l-5 4q-73 54 -155 54q-107 0 -177.5 -77t-70.5 -189t70.5 -189t177.5 -77q82 0 155 54q19 15 26 15q13 0 13 -34v-63q0 -24 -30 -39q-78 -39 -164 -39
q-152 0 -260 109t-108 263z" />
    <glyph glyph-name="D" unicode="D" horiz-adv-x="707" 
d="M120 704h167q155 0 251.5 -101.5t96.5 -250.5t-96.5 -250.5t-251.5 -101.5h-167q-12 0 -21 8.5t-9 21.5v644q0 13 9 21.5t21 8.5zM287 603h-93v-502h93q105 0 169 74.5t64 176.5t-64 176.5t-169 74.5z" />
    <glyph glyph-name="E" unicode="E" horiz-adv-x="574" 
d="M194 101h267q12 0 21 -8.5t9 -21.5v-41q0 -13 -9 -21.5t-21 -8.5h-341q-12 0 -21 8.5t-9 21.5v644q0 13 9 21.5t21 8.5h341q12 0 21 -8.5t9 -21.5v-41q0 -13 -9 -21.5t-21 -8.5h-267v-180h239q12 0 21 -8.5t9 -21.5v-40q0 -13 -9 -21.5t-21 -8.5h-239v-222z" />
    <glyph glyph-name="F" unicode="F" horiz-adv-x="541" 
d="M194 323v-293q0 -13 -9 -21.5t-21 -8.5h-44q-12 0 -21 8.5t-9 21.5v644q0 13 9 21.5t21 8.5h341q12 0 21 -8.5t9 -21.5v-41q0 -13 -9 -21.5t-21 -8.5h-267v-180h239q12 0 21 -8.5t9 -21.5v-40q0 -13 -9 -21.5t-21 -8.5h-239z" />
    <glyph glyph-name="G" unicode="G" horiz-adv-x="808" 
d="M718 295v-146q0 -45 -26 -70q-104 -99 -250 -99q-153 0 -261.5 109t-108.5 263t108.5 263t261.5 109q141 0 260 -108q9 -9 9 -21t-9 -21l-33 -34q-9 -9 -21 -9t-21 9q-83 78 -185 78q-108 0 -181 -77.5t-73 -188.5t72.5 -188.5t181.5 -77.5q97 0 170 63v146q0 13 9 21.5
t21 8.5h46q12 0 21 -8.5t9 -21.5z" />
    <glyph glyph-name="H" unicode="H" horiz-adv-x="668" 
d="M473 402v272q0 13 9 21.5t21 8.5h44q12 0 21 -8.5t9 -21.5v-644q0 -13 -9 -21.5t-21 -8.5h-44q-12 0 -21 8.5t-9 21.5v271h-279v-271q0 -13 -9 -21.5t-21 -8.5h-44q-12 0 -21 8.5t-9 21.5v644q0 13 9 21.5t21 8.5h44q12 0 21 -8.5t9 -21.5v-272h279z" />
    <glyph glyph-name="I" unicode="I" horiz-adv-x="284" 
d="M194 674v-644q0 -13 -9 -21.5t-21 -8.5h-44q-12 0 -21 8.5t-9 21.5v644q0 13 9 21.5t21 8.5h44q12 0 21 -8.5t9 -21.5z" />
    <glyph glyph-name="J" unicode="J" horiz-adv-x="416" 
d="M326 674v-525q0 -68 -50.5 -118.5t-121.5 -50.5q-72 0 -120.5 53t-48.5 112q0 25 28 25h44q24 0 32 -30q5 -20 22 -37t43 -17q29 0 48.5 24t19.5 68v425h-132q-12 0 -21 8.5t-9 21.5v41q0 13 9 21.5t21 8.5h206q12 0 21 -8.5t9 -21.5z" />
    <glyph glyph-name="K" unicode="K" horiz-adv-x="615" 
d="M530 672l-238 -305l266 -335q10 -12 10 -19q0 -13 -39 -13h-59q-4 0 -7.5 1t-6.5 3t-5.5 3.5t-6 5t-5 5.5t-5.5 6.5t-5 5.5l-203 251l-32 -43v-208q0 -13 -9 -21.5t-21 -8.5h-44q-12 0 -21 8.5t-9 21.5v644q0 13 9 21.5t21 8.5h44q12 0 21 -8.5t9 -21.5v-260l200 260
q2 2 6.5 7.5t6.5 7.5l6 6t6.5 5t7 2.5t8.5 1.5h66q39 0 39 -13q0 -3 -2.5 -8t-5.5 -8z" />
    <glyph glyph-name="L" unicode="L" horiz-adv-x="540" 
d="M194 674v-573h280q12 0 21 -8.5t9 -21.5v-41q0 -13 -9 -21.5t-21 -8.5h-354q-12 0 -21 8.5t-9 21.5v644q0 13 9 21.5t21 8.5h44q12 0 21 -8.5t9 -21.5z" />
    <glyph glyph-name="M" unicode="M" horiz-adv-x="868" 
d="M434 -10q-7 0 -15 7.5t-13 14.5l-4 8l-188 354l-7 30l1 -30l-24 -344q-1 -12 -10 -21t-23 -9h-44q-10 0 -19 9t-9 19l45 651q2 35 11 35q10 0 22 -22l272 -510l5 -30l5 30l272 510q12 22 22 22q4 0 6.5 -8.5t3.5 -17.5l1 -9l45 -651q0 -10 -9 -19t-19 -9h-44q-14 0 -23 9
t-10 21l-24 344l1 30l-7 -30l-188 -354q-17 -30 -32 -30z" />
    <glyph glyph-name="N" unicode="N" horiz-adv-x="725" 
d="M586 13l-384 441l-10 30l2 -30v-424q0 -12 -8.5 -21t-21.5 -9h-44q-13 0 -21.5 9t-8.5 21v646q0 38 12 38q6 0 14.5 -6t13.5 -12l6 -5l386 -443l11 -31l-2 30v427q0 12 8.5 21t21.5 9h44q13 0 21.5 -9t8.5 -21v-646q0 -38 -13 -38q-6 0 -15 6t-15 12z" />
    <glyph glyph-name="O" unicode="O" horiz-adv-x="888" 
d="M444 -20q-154 0 -263 109t-109 263t109 263t263 109q153 0 262.5 -108.5t109.5 -263.5q0 -154 -110 -263t-262 -109zM444 618q-109 0 -180 -77t-71 -189t71 -189t180 -77q108 0 179.5 77t71.5 189t-71.5 189t-179.5 77z" />
    <glyph glyph-name="P" unicode="P" horiz-adv-x="550" 
d="M90 30v644q0 13 9 21.5t21 8.5h114q41 0 71.5 -3t68 -14.5t61.5 -32t40.5 -58.5t16.5 -91q0 -39 -12 -73t-38 -63.5t-74.5 -46.5t-114.5 -17h-59v-275q0 -13 -9 -21.5t-21 -8.5h-44q-12 0 -21 8.5t-9 21.5zM271 603h-77v-197h77q53 0 78 29t25 70q0 98 -103 98z" />
    <glyph glyph-name="Q" unicode="Q" horiz-adv-x="860" 
d="M443 618q-109 0 -179.5 -77t-70.5 -190q0 -112 70.5 -189t179.5 -77q108 0 179.5 77.5t71.5 188.5q0 112 -71.5 189.5t-179.5 77.5zM684 70l113 -116q9 -9 9 -21t-9 -21l-33 -33q-9 -9 -21 -9t-21 9l-131 132q-68 -31 -148 -31q-153 0 -262 108.5t-109 262.5t109 263.5
t262 109.5t261.5 -109t108.5 -264q0 -82 -35 -155.5t-94 -125.5z" />
    <glyph glyph-name="R" unicode="R" horiz-adv-x="551" 
d="M120 704h113q42 0 72.5 -2.5t68 -14t61.5 -32t40.5 -59t16.5 -91.5q0 -64 -32.5 -114.5t-105.5 -72.5l144 -282q6 -12 6 -23q0 -13 -34 -13h-47q-21 0 -37 31l-141 274h-51v-275q0 -13 -9 -21.5t-21 -8.5h-44q-12 0 -21 8.5t-9 21.5v644q0 13 9 21.5t21 8.5zM271 603h-77
v-197h77q53 0 78.5 29.5t25.5 69.5q0 98 -104 98z" />
    <glyph glyph-name="S" unicode="S" horiz-adv-x="584" 
d="M62 102q-9 9 -9 21t9 21l33 34q9 9 21 9q5 0 9.5 -2.5t6.5 -4.5l3 -3q25 -32 39.5 -47t45.5 -29.5t71 -14.5q55 0 85.5 30.5t30.5 72.5q0 35 -33.5 63.5t-81 51.5t-95.5 49.5t-81.5 69t-33.5 97.5q0 74 60.5 139t159.5 65q41 0 81 -16.5t56 -28t24 -19.5q9 -9 9 -21
t-9 -21l-35 -36q-9 -9 -21 -9q-4 0 -9 2.5t-8 4.5l-3 2q-3 2 -8.5 6t-8.5 6t-8 5.5t-8.5 5t-9 4t-10 3.5t-11 2.5t-13 2t-14.5 0.5q-47 0 -78 -33t-31 -64q0 -30 33 -55.5t80.5 -48t95 -49.5t80.5 -72.5t33 -105.5q0 -84 -58 -146.5t-160 -62.5q-132 0 -229 122z" />
    <glyph glyph-name="T" unicode="T" horiz-adv-x="476" 
d="M186 603h-145q-12 0 -21 8.5t-9 21.5v41q0 13 9 21.5t21 8.5h394q12 0 21 -8.5t9 -21.5v-41q0 -13 -9 -21.5t-21 -8.5h-145v-573q0 -13 -9 -21.5t-21 -8.5h-44q-12 0 -21 8.5t-9 21.5v573z" />
    <glyph glyph-name="U" unicode="U" horiz-adv-x="696" 
d="M348 -20q-116 0 -187 73.5t-71 175.5v445q0 13 9 21.5t21 8.5h44q12 0 21 -8.5t9 -21.5v-416q0 -80 40.5 -126t113.5 -46t113.5 46t40.5 126v416q0 13 9 21.5t21 8.5h44q12 0 21 -8.5t9 -21.5v-445q0 -102 -71 -175.5t-187 -73.5z" />
    <glyph glyph-name="V" unicode="V" horiz-adv-x="563" 
d="M285 237l163 437q11 30 36 30h40q34 0 34 -13l-3 -17l-256 -666q-5 -18 -18 -18q-6 0 -10.5 4.5t-6.5 9.5l-1 4l-256 666q-3 8 -3 17q0 13 34 13h40q25 0 36 -30l163 -437l4 -20z" />
    <glyph glyph-name="W" unicode="W" horiz-adv-x="905" 
d="M452 714q5 0 10 -4.5t7 -9.5l2 -4l163 -417l8 -40l7 40l141 395q11 30 36 30h40q34 0 34 -13l-4 -21l-237 -662q-5 -18 -17 -18q-5 0 -9.5 4.5t-6.5 9.5l-2 4l-168 437l-4 40l-4 -40l-168 -437q-6 -18 -18 -18q-5 0 -9.5 4.5t-6.5 9.5l-1 4l-237 662q-4 14 -4 21
q0 13 34 13h40q25 0 36 -30l141 -395l7 -40l8 40l163 417q7 18 19 18z" />
    <glyph glyph-name="X" unicode="X" horiz-adv-x="579" 
d="M289 270l-146 -240q-19 -30 -37 -30h-57q-38 0 -38 13l11 22l209 332l-189 302q-11 15 -11 22q0 13 38 13h52q11 0 21 -7.5t15 -14.5l5 -8l127 -210l127 210q17 30 41 30h52q38 0 38 -13q0 -3 -2.5 -8.5t-5.5 -9.5l-3 -4l-189 -302l209 -332q11 -17 11 -22q0 -13 -38 -13
h-57q-8 0 -17 7.5t-15 14.5l-5 8z" />
    <glyph glyph-name="Y" unicode="Y" horiz-adv-x="552" 
d="M276 442l147 232q20 30 41 30h53q38 0 38 -13q0 -3 -2.5 -8.5t-5.5 -9.5l-3 -4l-216 -335v-304q0 -12 -8.5 -21t-21.5 -9h-44q-13 0 -21.5 9t-8.5 21v304l-216 335q-11 15 -11 22q0 13 38 13h53q9 0 19.5 -7.5t16.5 -14.5l5 -8z" />
    <glyph glyph-name="Z" unicode="Z" horiz-adv-x="664" 
d="M116 704h453q38 0 38 -11q0 -8 -22 -41l-356 -551h319q12 0 21 -8.5t9 -21.5v-41q0 -13 -9 -21.5t-21 -8.5h-460q-38 0 -38 11q0 8 22 41l356 551h-312q-12 0 -21 8.5t-9 21.5v41q0 13 9 21.5t21 8.5z" />
    <glyph glyph-name="bracketleft" unicode="[" horiz-adv-x="360" 
d="M164 -69h146q12 0 21 -8.5t9 -21.5v-41q0 -13 -9 -21.5t-21 -8.5h-206q-12 0 -21 8.5t-9 21.5v814q0 13 9 21.5t21 8.5h206q12 0 21 -8.5t9 -21.5v-41q0 -13 -9 -21.5t-21 -8.5h-146v-672z" />
    <glyph glyph-name="backslash" unicode="\" horiz-adv-x="377" 
d="M274 30l-259 644q-5 12 -5 17q0 13 34 13h36q29 0 41 -30l258 -644q5 -11 5 -17q0 -13 -34 -13h-35q-29 0 -41 30z" />
    <glyph glyph-name="bracketright" unicode="]" horiz-adv-x="360" 
d="M50 -69h146v672h-146q-12 0 -21 8.5t-9 21.5v41q0 13 9 21.5t21 8.5h206q12 0 21 -8.5t9 -21.5v-814q0 -13 -9 -21.5t-21 -8.5h-206q-12 0 -21 8.5t-9 21.5v41q0 13 9 21.5t21 8.5z" />
    <glyph glyph-name="asciicircum" unicode="^" horiz-adv-x="614" 
d="M455 371l-148 178l-148 -178q-25 -30 -45 -30h-58q-38 0 -38 13q0 3 4 10t8 12l4 5l252 304q15 18 21 18t21 -18l252 -304q16 -20 16 -27q0 -13 -38 -13h-58q-9 0 -20 7.5t-18 15.5z" />
    <glyph glyph-name="underscore" unicode="_" horiz-adv-x="561" 
d="M50 79h461q13 0 21.5 -9t8.5 -21v-19q0 -12 -8.5 -21t-21.5 -9h-461q-13 0 -21.5 9t-8.5 21v19q0 12 8.5 21t21.5 9z" />
    <glyph glyph-name="grave" unicode="`" horiz-adv-x="469" 
d="M159 673l107 -113q12 -14 12 -21t-6 -14l-10 -13q-8 -9 -15 -9q-8 0 -17 7l-122 94q-12 10 -12 23q0 11 6 18l19 24q8 11 21 11q10 0 17 -7z" />
    <glyph glyph-name="a" unicode="a" horiz-adv-x="478" 
d="M154 344q-16 -9 -22 -9q-12 0 -23 11l-25 28q-7 7 -7 18q0 14 10 21q60 39 147 39q92 0 138 -50.5t46 -124.5v-247q0 -13 -9 -21.5t-21 -8.5h-35q-21 0 -29 21q-36 -41 -109 -41q-72 0 -120 41.5t-48 103.5q0 76 55 111t135 35q53 0 87 -10v25q0 32 -31 53t-59 21
q-52 0 -80 -16zM324 139v33q-38 12 -91 12q-93 0 -93 -59q0 -16 21.5 -35.5t53.5 -19.5q82 0 109 69z" />
    <glyph glyph-name="b" unicode="b" horiz-adv-x="549" 
d="M154 30q0 -13 -9 -21.5t-21 -8.5h-34q-12 0 -21 8.5t-9 21.5v654q0 13 9 21.5t21 8.5h34q12 0 21 -8.5t9 -21.5v-280q23 23 57.5 35.5t62.5 12.5q99 0 163.5 -66t64.5 -165q0 -101 -65 -171t-163 -70q-70 0 -120 50zM274 361q-44 0 -87 -36t-43 -104q0 -43 14.5 -74.5
t36 -46.5t41.5 -22t38 -7q52 0 88.5 44.5t36.5 105.5q0 54 -37 97t-88 43z" />
    <glyph glyph-name="c" unicode="c" horiz-adv-x="459" 
d="M47 217q0 98 68 166.5t165 68.5q48 0 93 -19q31 -11 31 -36v-65q0 -20 -15 -20q-5 0 -15 8q-43 39 -94 39q-58 0 -99 -41.5t-41 -100.5t41 -100.5t99 -41.5q51 0 94 39q10 8 15 8q15 0 15 -20v-67q0 -25 -31 -36q-45 -19 -93 -19q-97 0 -165 69.5t-68 167.5z" />
    <glyph glyph-name="d" unicode="d" horiz-adv-x="549" 
d="M396 30q-50 -50 -120 -50q-98 0 -163 70t-65 171q0 99 64.5 165t163.5 66q28 0 62.5 -12.5t57.5 -35.5v280q0 13 9 21.5t21 8.5h34q12 0 21 -8.5t9 -21.5v-654q0 -13 -9 -21.5t-21 -8.5h-34q-12 0 -21 8.5t-9 21.5zM276 361q-51 0 -88 -43t-37 -97q0 -61 36.5 -105.5
t88.5 -44.5q18 0 38 7t41.5 22t36 46.5t14.5 74.5q0 68 -43 104t-87 36z" />
    <glyph glyph-name="e" unicode="e" horiz-adv-x="526" 
d="M263 360q-90 0 -106 -115h212q-16 115 -106 115zM428 43q-71 -63 -165 -63q-97 0 -156.5 68t-59.5 168t59.5 168t156.5 68t156.5 -68t59.5 -168v-13q0 -13 -9 -21.5t-21 -8.5h-292q15 -48 39.5 -73.5t66.5 -25.5q52 0 97 37q10 9 21 9q12 0 21 -9l26 -26q9 -9 9 -21
q0 -10 -9 -21z" />
    <glyph glyph-name="f" unicode="f" horiz-adv-x="312" 
d="M272 714q13 0 21.5 -9t8.5 -21v-39q0 -22 -30 -30q-36 -9 -58.5 -36t-22.5 -58v-89h80q13 0 21.5 -9t8.5 -21v-32q0 -12 -8.5 -21t-21.5 -9h-80v-310q0 -13 -9 -21.5t-21 -8.5h-34q-12 0 -21 8.5t-9 21.5v310h-33q-13 0 -21.5 9t-8.5 21v32q0 12 8.5 21t21.5 9h33v78
q0 51 18.5 92.5t46 64.5t56.5 35t54 12z" />
    <glyph glyph-name="g" unicode="g" horiz-adv-x="478" 
d="M230 363q-33 0 -55 -24t-22 -60q0 -34 22 -59t55 -25q34 0 56 24.5t22 59.5q0 36 -22 60t-56 24zM337 416l21 21q9 9 21 9t21 -9l22 -23q9 -9 9 -21t-9 -21l-30 -31q11 -30 11 -69q0 -66 -52 -118q30 -26 48.5 -68t18.5 -86q0 -80 -53.5 -135t-131.5 -55q-73 0 -124.5 48
t-60.5 125q-1 7 -1 9q0 10 8.5 15.5t20.5 5.5h34q21 0 30 -30q8 -36 34 -58t58 -22q38 0 64 29t26 69q0 43 -26 74.5t-64 31.5q-69 0 -121 48.5t-52 123.5q0 74 50 123.5t122 49.5q59 0 106 -36z" />
    <glyph glyph-name="h" unicode="h" 
d="M436 236v-206q0 -13 -9 -21.5t-21 -8.5h-33q-12 0 -21 8.5t-9 21.5v187q0 60 -21 101t-68 41q-63 0 -100 -80v-249q0 -13 -9 -21.5t-21 -8.5h-34q-12 0 -21 8.5t-9 21.5v644q0 13 9 21.5t21 8.5h34q12 0 21 -8.5t9 -21.5v-270q50 48 100 48q182 0 182 -216z" />
    <glyph glyph-name="i" unicode="i" horiz-adv-x="218" 
d="M53 523q0 23 16.5 39.5t39.5 16.5t39.5 -16.5t16.5 -39.5t-16.5 -39.5t-39.5 -16.5t-39.5 16.5t-16.5 39.5zM155 402v-372q0 -13 -9 -21.5t-21 -8.5h-34q-12 0 -21 8.5t-9 21.5v372q0 13 9 21.5t21 8.5h34q12 0 21 -8.5t9 -21.5z" />
    <glyph glyph-name="j" unicode="j" horiz-adv-x="238" 
d="M175 36v366q0 13 -9 21.5t-21 8.5h-34q-12 0 -21 -8.5t-9 -21.5v-397q0 -31 -20 -52.5t-55 -28.5q-30 -8 -30 -26v-40q0 -12 8.5 -20t21.5 -8q25 0 53 12.5t54.5 36t44 65t17.5 92.5zM73 523q0 23 16.5 39.5t39.5 16.5t39.5 -16.5t16.5 -39.5t-16.5 -39.5t-39.5 -16.5
t-39.5 16.5t-16.5 39.5z" />
    <glyph glyph-name="k" unicode="k" horiz-adv-x="436" 
d="M220 251l198 -219q13 -13 13 -19q0 -13 -39 -13h-34q-27 0 -45 19l-159 175v-164q0 -13 -9 -21.5t-21 -8.5h-34q-12 0 -21 8.5t-9 21.5v654q0 13 9 21.5t21 8.5h34q12 0 21 -8.5t9 -21.5v-377l122 107q21 18 44 18h42q39 0 39 -13q0 -9 -13 -19z" />
    <glyph glyph-name="l" unicode="l" horiz-adv-x="214" 
d="M154 684v-654q0 -13 -9 -21.5t-21 -8.5h-34q-12 0 -21 8.5t-9 21.5v654q0 13 9 21.5t21 8.5h34q12 0 21 -8.5t9 -21.5z" />
    <glyph glyph-name="m" unicode="m" horiz-adv-x="687" 
d="M383 285v-255q0 -13 -9 -21.5t-21 -8.5h-34q-12 0 -21 8.5t-9 21.5v192q0 29 -1 48.5t-5 44t-14 37t-25 12.5q-52 0 -90 -80v-254q0 -13 -9 -21.5t-21 -8.5h-34q-12 0 -21 8.5t-9 21.5v372q0 13 9 21.5t21 8.5h34q12 0 21 -8.5t9 -19.5q46 48 100 48q46 0 71 -14t39 -43
q48 57 103 57q39 0 66.5 -11.5t43 -29t24 -47.5t11 -58.5t2.5 -69.5v-206q0 -13 -9 -21.5t-21 -8.5h-34q-12 0 -21 8.5t-9 21.5v192q0 19 -0.5 32t-1.5 31t-4.5 30.5t-8 24.5t-12.5 18t-19 6q-48 0 -91 -79z" />
    <glyph glyph-name="n" unicode="n" 
d="M436 236v-206q0 -13 -9 -21.5t-21 -8.5h-34q-12 0 -21 8.5t-9 21.5v187q0 60 -20.5 101t-67.5 41q-63 0 -100 -80v-249q0 -13 -9 -21.5t-21 -8.5h-34q-12 0 -21 8.5t-9 21.5v372q0 13 9 21.5t21 8.5h34q12 0 21 -8.5t9 -19.5q50 48 100 48q182 0 182 -216z" />
    <glyph glyph-name="o" unicode="o" horiz-adv-x="566" 
d="M283 -20q-98 0 -167 69t-69 167t69 167t167 69t167 -69t69 -167t-69 -167t-167 -69zM283 360q-58 0 -95.5 -41.5t-37.5 -101.5t37.5 -101.5t95.5 -41.5t95.5 41.5t37.5 101.5t-37.5 101.5t-95.5 41.5z" />
    <glyph glyph-name="p" unicode="p" horiz-adv-x="549" 
d="M154 402q50 50 120 50q98 0 163 -70t65 -171q0 -99 -64.5 -165t-163.5 -66q-28 0 -62.5 12.5t-57.5 35.5v-168q0 -13 -9 -21.5t-21 -8.5h-34q-12 0 -21 8.5t-9 21.5v542q0 13 9 21.5t21 8.5h34q12 0 21 -8.5t9 -21.5zM274 71q51 0 88 43t37 97q0 61 -36.5 105.5
t-88.5 44.5q-18 0 -38 -7t-41.5 -22t-36 -46.5t-14.5 -74.5q0 -68 43 -104t87 -36z" />
    <glyph glyph-name="q" unicode="q" horiz-adv-x="549" 
d="M395 402q0 13 9 21.5t21 8.5h34q12 0 21 -8.5t9 -21.5v-542q0 -13 -9 -21.5t-21 -8.5h-34q-12 0 -21 8.5t-9 21.5v168q-23 -23 -57.5 -35.5t-62.5 -12.5q-99 0 -163.5 66t-64.5 165q0 101 65 171t163 70q70 0 120 -50zM275 71q44 0 87 36t43 104q0 43 -14.5 74.5
t-36 46.5t-41.5 22t-38 7q-52 0 -88.5 -44.5t-36.5 -105.5q0 -54 37 -97t88 -43z" />
    <glyph glyph-name="r" unicode="r" horiz-adv-x="341" 
d="M291 354q-2 0 -12.5 1.5t-14.5 1.5q-83 0 -110 -78v-249q0 -13 -9 -21.5t-21 -8.5h-34q-12 0 -21 8.5t-9 21.5v372q0 13 9 21.5t21 8.5h34q12 0 21 -8.5t9 -21.5q43 50 109 50q22 0 47 -5q21 -6 21 -24l-2 -10l-10 -38q-5 -21 -28 -21z" />
    <glyph glyph-name="s" unicode="s" horiz-adv-x="417" 
d="M274 343q-22 15 -57 15q-22 0 -33.5 -11t-11.5 -25q0 -15 21 -28.5t51 -27t60.5 -30.5t51.5 -45t21 -63q0 -69 -41.5 -108.5t-118.5 -39.5q-52 0 -94 21t-66 51q-10 13 -10 21q0 12 9 21l28 31q9 9 21 9q13 0 22 -11q41 -53 90 -53q22 0 40.5 13t18.5 35q0 18 -21.5 35
t-52 31t-61.5 30t-52.5 41t-21.5 56q0 61 41 101t109 40q42 0 68 -8.5t54 -29.5q11 -8 11 -22q0 -12 -9 -21l-25 -28q-9 -9 -21 -9q-4 0 -9 2t-8 4z" />
    <glyph glyph-name="t" unicode="t" horiz-adv-x="314" 
d="M264 -10q-20 0 -42 5t-46 18t-43 32t-31.5 50t-12.5 69v176h-33q-13 0 -21.5 9t-8.5 21v32q0 12 8.5 21t21.5 9h33v118q0 13 9 21.5t21 8.5h34q12 0 21 -8.5t9 -21.5v-118h80q13 0 21.5 -9t8.5 -21v-32q0 -12 -8.5 -21t-21.5 -9h-80v-177q0 -32 20 -48t61 -26
q30 -8 30 -30v-39q0 -12 -8.5 -21t-21.5 -9z" />
    <glyph glyph-name="u" unicode="u" 
d="M60 196v206q0 13 9 21.5t21 8.5h34q12 0 21 -8.5t9 -21.5v-187q0 -60 20.5 -101t67.5 -41q63 0 100 80v249q0 13 9 21.5t21 8.5h34q12 0 21 -8.5t9 -21.5v-372q0 -13 -9 -21.5t-21 -8.5h-34q-12 0 -21 8.5t-9 19.5q-50 -48 -100 -48q-182 0 -182 216z" />
    <glyph glyph-name="v" unicode="v" horiz-adv-x="427" 
d="M213 160l5 30l96 212q14 30 41 30h38q28 0 28 -13l-6 -17l-180 -391q-9 -21 -22 -21q-6 0 -11.5 5t-7.5 11l-3 5l-180 391q-6 13 -6 17q0 13 28 13h38q27 0 41 -30l96 -212z" />
    <glyph glyph-name="w" unicode="w" horiz-adv-x="656" 
d="M328 442q7 0 14 -7t10 -14l3 -7l92 -229l4 -30l4 30l93 217q14 30 41 30h34q28 0 28 -13l-6 -17l-170 -384q-12 -28 -24 -28q-6 0 -12 7t-9 14l-4 7l-94 223l-4 30l-4 -30l-94 -223q-12 -28 -25 -28q-5 0 -11 7t-10 14l-3 7l-170 384q-6 13 -6 17q0 13 28 13h34
q27 0 41 -30l93 -217l4 -30l4 30l92 229q11 28 27 28z" />
    <glyph glyph-name="x" unicode="x" horiz-adv-x="395" 
d="M197 304l66 98q7 11 11 16t12 9.5t18 4.5h47q28 0 28 -13l-6 -17l-121 -178l131 -194q6 -9 6 -17q0 -13 -28 -13h-48q-22 0 -39 27l-77 115l-77 -115q-17 -27 -39 -27h-48q-28 0 -28 13q0 8 6 17l131 194l-121 178q-6 9 -6 17q0 13 28 13h47q15 0 23 -7t18 -23z" />
    <glyph glyph-name="y" unicode="y" horiz-adv-x="426" 
d="M35 -85h21q4 0 13 3t23.5 13.5t22.5 27.5l50 107l-153 336q-6 14 -6 19q0 11 28 11h38q27 0 41 -30l97 -214l4 -30l4 30l96 214q14 30 41 30h38q28 0 28 -11l-6 -19l-220 -483q-15 -25 -35 -43.5t-35.5 -26.5t-32.5 -13t-23.5 -5.5t-12.5 -0.5h-21q-13 0 -21.5 9t-8.5 21
v25q0 12 8.5 21t21.5 9z" />
    <glyph glyph-name="z" unicode="z" horiz-adv-x="443" 
d="M37 52l223 288h-213q-13 0 -21.5 9t-8.5 21v32q0 12 8.5 21t21.5 9h349q38 0 38 -11q0 -4 -28 -41l-223 -288h221q13 0 21.5 -9t8.5 -21v-32q0 -12 -8.5 -21t-21.5 -9h-357q-38 0 -38 11q0 4 28 41z" />
    <glyph glyph-name="braceleft" unicode="{" horiz-adv-x="360" 
d="M196 266q0 -2 3 -4t7 -4t9.5 -4.5t9.5 -5.5q40 -26 40 -82v-237h45q12 0 21 -8.5t9 -21.5v-41q0 -13 -9 -21.5t-21 -8.5h-105q-12 0 -21 8.5t-9 21.5v308q0 15 -50.5 51.5t-50.5 48.5t50.5 48.5t50.5 51.5v308q0 13 9 21.5t21 8.5h105q12 0 21 -8.5t9 -21.5v-41
q0 -13 -9 -21.5t-21 -8.5h-45v-237q0 -56 -40 -82q-4 -3 -9.5 -5.5t-9.5 -4.5t-7 -4t-3 -4z" />
    <glyph glyph-name="bar" unicode="|" horiz-adv-x="254" 
d="M164 674v-814q0 -13 -9 -21.5t-21 -8.5h-14q-12 0 -21 8.5t-9 21.5v814q0 13 9 21.5t21 8.5h14q12 0 21 -8.5t9 -21.5z" />
    <glyph glyph-name="braceright" unicode="}" horiz-adv-x="360" 
d="M164 266q0 2 -3 4t-7 4t-9.5 4.5t-9.5 5.5q-40 26 -40 82v237h-45q-12 0 -21 8.5t-9 21.5v41q0 13 9 21.5t21 8.5h105q12 0 21 -8.5t9 -21.5v-308q0 -15 50.5 -51.5t50.5 -48.5t-50.5 -48.5t-50.5 -51.5v-308q0 -13 -9 -21.5t-21 -8.5h-105q-12 0 -21 8.5t-9 21.5v41
q0 13 9 21.5t21 8.5h45v237q0 56 40 82q4 3 9.5 5.5t9.5 4.5t7 4t3 4z" />
    <glyph glyph-name="asciitilde" unicode="~" horiz-adv-x="597" 
d="M436 152q-52 0 -90 14t-57 30t-52.5 30t-77.5 14q-6 0 -15 -7t-12 -21q-2 -12 -11 -21t-21 -9h-33q-12 0 -21 8t-9 19q0 35 31.5 74t92.5 39q52 0 90 -14t57 -30t52.5 -30t77.5 -14q6 0 15 7t12 21q2 12 11 21t21 9h33q12 0 21 -8t9 -19q0 -35 -31.5 -74t-92.5 -39z" />
    <glyph glyph-name="exclamdown" unicode="&#xa1;" horiz-adv-x="401" 
d="M257 405q0 -23 -16.5 -40t-39.5 -17t-40 17t-17 40t17 39.5t40 16.5t39.5 -16.5t16.5 -39.5zM246 -233l-7 503q0 13 -9 21.5t-21 8.5h-17q-12 0 -21 -8.5t-9 -21.5l-7 -503q0 -13 9 -21.5t21 -8.5h31q12 0 21 8.5t9 21.5z" />
    <glyph glyph-name="cent" unicode="&#xa2;" horiz-adv-x="476" 
d="M72 217q0 83 51 147t130 82v54q0 13 9 21.5t21 8.5h42q12 0 21 -8.5t9 -21.5v-53q17 -4 43 -14q31 -11 31 -36v-65q0 -20 -15 -20q-5 0 -15 8q-43 39 -94 39q-58 0 -99 -41.5t-41 -100.5t41 -100.5t99 -41.5q51 0 94 39q10 8 15 8q15 0 15 -20v-67q0 -25 -31 -36
q-26 -10 -43 -14v-55q0 -13 -9 -21.5t-21 -8.5h-42q-12 0 -21 8.5t-9 21.5v56q-79 18 -130 82.5t-51 148.5z" />
    <glyph glyph-name="sterling" unicode="&#xa3;" horiz-adv-x="592" 
d="M85 288h45v40q0 88 62 150.5t149 62.5q59 0 109 -32t78 -86q9 -18 9 -23q0 -12 -9 -21l-40 -40q-9 -9 -21 -9q-5 0 -9.5 3t-6.5 7l-2 3q-25 51 -48.5 72.5t-59.5 21.5q-44 0 -76 -32.5t-32 -76.5v-40h91q13 0 21.5 -9t8.5 -21v-30q0 -12 -8.5 -21t-21.5 -9h-91v-65
q16 0 96 -29t106 -29q11 0 34 21q17 17 25 17q9 0 17 -16l18 -41q6 -15 6 -23q0 -7 -12 -19q-41 -34 -88 -34q-33 0 -109 29t-105 29q-42 0 -84 -40q-15 -12 -22 -12q-10 0 -19 9l-33 45q-9 13 -9 21q0 10 11 21q29 32 65 43v73h-45q-13 0 -21.5 9t-8.5 21v30q0 12 8.5 21
t21.5 9z" />
    <glyph glyph-name="currency" unicode="&#xa4;" horiz-adv-x="388" 
d="M194 388q-22 0 -36.5 -15t-14.5 -39q0 -53 51 -53t51 53q0 24 -14.5 39t-36.5 15zM53 230l28 27q-21 33 -21 76q0 45 21 78l-28 27q-9 9 -9 21t9 21q8 8 20 8t21 -9l27 -24q31 22 73 22t73 -22l27 24q9 9 21 9t20 -8q9 -9 9 -21t-9 -21l-28 -27q21 -33 21 -78
q0 -43 -21 -76l28 -27q9 -9 9 -21t-9 -21q-8 -8 -20 -8t-21 9l-27 24q-32 -21 -73 -21t-73 21l-27 -24q-9 -9 -21 -9t-20 8q-9 9 -9 21t9 21z" />
    <glyph glyph-name="yen" unicode="&#xa5;" horiz-adv-x="552" 
d="M111 320h113v14l-216 335q-11 15 -11 22q0 13 38 13h53q9 0 19.5 -7.5t16.5 -14.5l5 -8l147 -232l147 232q20 30 41 30h53q38 0 38 -13q0 -3 -2.5 -8.5t-5.5 -9.5l-3 -4l-216 -335v-14h114q13 0 21.5 -9t8.5 -21v-24q0 -12 -8.5 -21t-21.5 -9h-114v-54h114q13 0 21.5 -9
t8.5 -21v-24q0 -12 -8.5 -21t-21.5 -9h-114v-68q0 -12 -8.5 -21t-21.5 -9h-44q-13 0 -21.5 9t-8.5 21v68h-113q-13 0 -21.5 9t-8.5 21v24q0 12 8.5 21t21.5 9h113v54h-113q-13 0 -21.5 9t-8.5 21v24q0 12 8.5 21t21.5 9z" />
    <glyph glyph-name="brokenbar" unicode="&#xa6;" horiz-adv-x="254" 
d="M164 136v-276q0 -13 -9 -21.5t-21 -8.5h-14q-12 0 -21 8.5t-9 21.5v276q0 13 9 21.5t21 8.5h14q12 0 21 -8.5t9 -21.5zM164 600v-280q0 -13 -9 -21.5t-21 -8.5h-14q-12 0 -21 8.5t-9 21.5v280q0 13 9 21.5t21 8.5h14q12 0 21 -8.5t9 -21.5z" />
    <glyph glyph-name="section" unicode="&#xa7;" horiz-adv-x="461" 
d="M232 362q-25 0 -37 -10.5t-12 -24.5q0 -15 17.5 -26.5t43.5 -11.5q38 0 56 28q-15 45 -68 45zM92 56q-10 14 -10 23q0 12 9 21l27 28q9 9 21 9q13 0 18 -9q16 -26 32.5 -39t43.5 -13q30 0 46.5 15.5t16.5 30.5q0 17 -32 37.5t-70.5 39t-70.5 49.5t-32 67q0 37 18 70
t50 52q-56 36 -56 92q0 55 40 98.5t102 43.5q69 0 124 -68q11 -13 11 -22q0 -12 -9 -21l-26 -27q-9 -9 -21 -9q-4 0 -9 2t-7 4l-3 3q-36 42 -60 42q-26 0 -38 -10.5t-12 -24.5q0 -15 21 -29t51.5 -27t60.5 -30.5t51 -48t21 -69.5q0 -75 -57 -114q45 -38 45 -100t-42.5 -102
t-112.5 -40q-93 0 -141 76z" />
    <glyph glyph-name="dieresis" unicode="&#xa8;" horiz-adv-x="469" 
d="M111 560q0 22 15 37t37 15t37 -15t15 -37t-15 -37t-37 -15t-37 15t-15 37zM254 560q0 22 15 37t37 15t37 -15t15 -37t-15 -37t-37 -15t-37 15t-15 37z" />
    <glyph glyph-name="copyright" unicode="&#xa9;" horiz-adv-x="666" 
d="M38 362q0 119 84.5 203.5t203.5 84.5t203.5 -84.5t84.5 -203.5t-84.5 -203.5t-203.5 -84.5t-203.5 84.5t-84.5 203.5zM109 362q0 -89 64 -153t153 -64t153 64t64 153t-64 153t-153 64t-153 -64t-64 -153zM157 362q0 76 54.5 130.5t130.5 54.5q33 0 64 -11q30 -12 30 -36
v-23q0 -20 -15 -20q-1 0 -15 7q-30 16 -64 16q-48 0 -81.5 -35t-33.5 -83t33.5 -83t81.5 -35q34 0 64 16q14 7 15 7q15 0 15 -20v-23q0 -24 -30 -36q-31 -11 -64 -11q-76 0 -130.5 54.5t-54.5 130.5z" />
    <glyph glyph-name="ordfeminine" unicode="&#xaa;" horiz-adv-x="277" 
d="M99 657q-7 -5 -11 -5q-5 0 -11 6l-13 14q-3 3 -3 9q0 7 5 10q30 20 73 20q46 0 69 -25.5t23 -62.5v-123q0 -15 -15 -15h-17q-10 0 -15 10q-18 -20 -54 -20t-60 20.5t-24 51.5q0 38 27.5 55.5t67.5 17.5q30 0 43 -5v13q0 16 -15.5 26.5t-29.5 10.5q-25 0 -40 -8zM184 554
v17q-24 6 -45 6q-47 0 -47 -30q0 -8 11 -17.5t27 -9.5q41 0 54 34z" />
    <glyph glyph-name="guillemotleft" unicode="&#xab;" horiz-adv-x="812" 
d="M390 344l-193 -157l193 -157q9 -9 9 -17q0 -13 -38 -13h-65q-32 0 -57 23l-176 143q-18 14 -18 21t18 21l176 143q25 23 57 23h65q38 0 38 -13q0 -8 -9 -17zM713 344l-193 -157l193 -157q9 -9 9 -17q0 -13 -38 -13h-65q-32 0 -57 23l-176 143q-18 13 -18 21q0 7 18 21
l176 143q25 23 57 23h65q38 0 38 -13q0 -8 -9 -17z" />
    <glyph glyph-name="logicalnot" unicode="&#xac;" horiz-adv-x="565" 
d="M390 395h-322q-13 0 -21.5 9t-8.5 21v25q0 12 8.5 21t21.5 9h386q13 0 21.5 -9t8.5 -21v-170q0 -12 -8.5 -21t-21.5 -9h-34q-13 0 -21.5 9t-8.5 21v115z" />
    <glyph glyph-name="registered" unicode="&#xae;" horiz-adv-x="667" 
d="M38 362q0 119 84.5 203.5t203.5 84.5t203.5 -84.5t84.5 -203.5t-84.5 -203.5t-203.5 -84.5t-203.5 84.5t-84.5 203.5zM109 362q0 -89 64 -153t153 -64t153 64t64 153t-64 153t-153 64t-153 -64t-64 -153zM285 478v-74h34q46 0 46 37q0 19 -9 28t-37 9h-34zM259 188
q-12 0 -19 8.5t-7 21.5v290q0 13 9 21.5t21 8.5h36q28 0 47.5 -3t40 -12t31.5 -29.5t11 -52.5q0 -74 -75 -92l67 -129q9 -18 9 -23q0 -9 -18 -9h-26q-5 0 -11.5 8t-10.5 16l-4 7l-66 126h-9v-127q0 -13 -7 -21.5t-19 -8.5z" />
    <glyph glyph-name="macron" unicode="&#xaf;" horiz-adv-x="316" 
d="M60 575h196q13 0 21.5 -9t8.5 -21v-9q0 -12 -8.5 -21t-21.5 -9h-196q-13 0 -21.5 9t-8.5 21v9q0 12 8.5 21t21.5 9z" />
    <glyph glyph-name="degree" unicode="&#xb0;" 
d="M248 421q-32 0 -55 23t-23 55t23 55t55 23t55 -23t23 -55t-23 -55t-55 -23zM248 517q-8 0 -13.5 -5t-5.5 -13q0 -7 5.5 -13t13.5 -6t13 5.5t5 13.5q0 7 -5 12.5t-13 5.5z" />
    <glyph glyph-name="plusminus" unicode="&#xb1;" horiz-adv-x="489" 
d="M78 89h331q13 0 21.5 -9t8.5 -21v-29q0 -12 -8.5 -21t-21.5 -9h-331q-13 0 -21.5 9t-8.5 21v29q0 12 8.5 21t21.5 9zM290 430h119q13 0 21.5 -9t8.5 -21v-29q0 -12 -8.5 -21t-21.5 -9h-119v-131q0 -13 -9 -21.5t-21 -8.5h-33q-12 0 -21 8.5t-9 21.5v131h-119
q-13 0 -21.5 9t-8.5 21v29q0 12 8.5 21t21.5 9h119v131q0 13 9 21.5t21 8.5h33q12 0 21 -8.5t9 -21.5v-131z" />
    <glyph glyph-name="two.numerator" unicode="&#xb2;" horiz-adv-x="321" 
d="M271 350h-189q-38 0 -38 11q0 10 26 38q138 141 138 199q0 14 -10 24t-25 10q-11 0 -19 -7.5t-22 -34.5q-6 -9 -21 -9q-12 0 -21 9l-18 18q-9 9 -9 21q0 13 7 25q37 60 103 60q49 0 84 -34t35 -82q0 -30 -15 -64.5t-27.5 -52.5t-37.5 -51h59q13 0 21.5 -9t8.5 -21v-20
q0 -12 -8.5 -21t-21.5 -9z" />
    <glyph glyph-name="three.numerator" unicode="&#xb3;" horiz-adv-x="280" 
d="M118 609q-11 -30 -31 -30h-27q-12 0 -20.5 5.5t-8.5 15.5l1 9q8 49 39 77t74 28q47 0 81 -33t34 -79q0 -40 -27 -72q27 -34 27 -74q0 -48 -35.5 -82t-84.5 -34q-44 0 -76.5 29t-40.5 80q-1 7 -1 9q0 10 9 15.5t20 5.5h27q20 0 31 -30q8 -26 31 -26q14 0 25 10t11 23
q0 16 -15 26q-30 18 -30 35v31q0 5 1.5 8.5t4.5 6.5t6 5t9 5t9 5q15 8 15 24q0 12 -9 20.5t-22 8.5q-20 0 -27 -22z" />
    <glyph glyph-name="acute" unicode="&#xb4;" horiz-adv-x="574" 
d="M244 560l107 113q7 7 17 7q13 0 21 -11l19 -24q6 -7 6 -18q0 -13 -12 -23l-122 -94q-9 -7 -17 -7t-15 9l-10 13q-6 7 -6 14t12 21z" />
    <glyph glyph-name="mu" unicode="&#xb5;" horiz-adv-x="516" 
d="M163 28v-168q0 -13 -9 -21.5t-21 -8.5h-34q-12 0 -21 8.5t-9 21.5v542q0 13 9 21.5t21 8.5h34q12 0 21 -8.5t9 -21.5v-249q37 -80 100 -80q47 0 67.5 41t20.5 101v187q0 13 9 21.5t21 8.5h34q12 0 21 -8.5t9 -21.5v-206q0 -216 -182 -216q-51 0 -100 48z" />
    <glyph glyph-name="paragraph" unicode="&#xb6;" horiz-adv-x="544" 
d="M360 168v463h-36v-609q24 2 30 27t6 119zM269 704h155q12 0 21 -8.5t9 -21.5v-506q0 -65 -5 -104t-21 -72t-49 -47t-86 -14h-97q-12 0 -21 8.5t-9 21.5v31q0 13 9 21.5t21 8.5h35v296q-54 2 -97 21t-67 47.5t-36.5 59t-12.5 60.5q0 98 67.5 148t183.5 50z" />
    <glyph glyph-name="periodcentered" unicode="&#xb7;" horiz-adv-x="192" 
d="M40 346q0 23 16.5 39.5t39.5 16.5t39.5 -16.5t16.5 -39.5t-16.5 -39.5t-39.5 -16.5t-39.5 16.5t-16.5 39.5z" />
    <glyph glyph-name="cedilla" unicode="&#xb8;" horiz-adv-x="565" 
d="M250 -125q12 -14 24 -14t19 6.5t7 15.5q0 28 -31 28q-72 0 -72 49q0 12 5 22t10 14l5 4h60q-12 -1 -12 -20q0 -17 26 -17t55 -20t29 -60q0 -29 -20.5 -51t-67.5 -22q-50 0 -80 26q-11 9 -11 22q0 11 13 19q13 7 20 7q12 0 21 -9z" />
    <glyph glyph-name="one.numerator" unicode="&#xb9;" horiz-adv-x="190" 
d="M92 380v137l9 19q-17 -19 -21 -19q-11 0 -20 9l-19 21q-9 9 -9 21q0 13 9 22l97 100q15 14 21 14q8 0 9.5 -5t1.5 -23v-296q0 -13 -9 -21.5t-21 -8.5h-18q-12 0 -21 8.5t-9 21.5z" />
    <glyph glyph-name="ordmasculine" unicode="&#xba;" horiz-adv-x="328" 
d="M164 478q-50 0 -84 34t-34 84q0 49 34.5 83.5t83.5 34.5t83.5 -34.5t34.5 -83.5t-34.5 -83.5t-83.5 -34.5zM164 668q-29 0 -48 -21t-19 -51t19 -50.5t48 -20.5t47.5 20.5t18.5 50.5t-18.5 51t-47.5 21z" />
    <glyph glyph-name="guillemotright" unicode="&#xbb;" horiz-adv-x="810" 
d="M613 187l-193 157q-9 9 -9 17q0 13 38 13h65q32 0 57 -23l176 -143q18 -14 18 -21t-18 -21l-176 -143q-25 -23 -57 -23h-65q-38 0 -38 13q0 8 9 17zM292 187l-193 157q-9 9 -9 17q0 13 38 13h65q32 0 57 -23l176 -143q18 -14 18 -21t-18 -21l-176 -143q-25 -23 -57 -23
h-65q-38 0 -38 13q0 8 9 17z" />
    <glyph glyph-name="questiondown" unicode="&#xbf;" horiz-adv-x="501" 
d="M323 405q0 -23 -16.5 -40t-39.5 -17t-40 17t-17 40t17 39.5t40 16.5t39.5 -16.5t16.5 -39.5zM313 269v-74q0 -29 -13.5 -57.5t-27 -44t-38.5 -40.5q-35 -35 -49 -55q-22 -30 -22 -61q0 -61 30 -88t73 -27q52 0 92 40q9 9 20 9q12 0 21 -9l29 -28q12 -12 12 -24t-9 -21
q-71 -72 -165 -72q-91 0 -148 61.5t-57 158.5q0 55 22 92.5t61 74.5q5 6 15.5 15.5t13.5 12.5q47 49 47 92v45q0 13 9 21.5t21 8.5h33q12 0 21 -8.5t9 -21.5z" />
    <glyph glyph-name="Agrave" unicode="&#xc0;" horiz-adv-x="562" 
d="M281 487l-4 -20l-75 -201h158l-75 201zM397 165h-232l-51 -135q-11 -30 -36 -30h-40q-34 0 -34 13l3 17l256 666q5 18 18 18q6 0 10.5 -4.5t6.5 -9.5l1 -4l256 -666q3 -8 3 -17q0 -13 -34 -13h-40q-25 0 -36 30zM256 943l107 -113q12 -14 12 -21t-6 -14l-10 -13
q-7 -9 -15 -9t-17 7l-122 94q-12 10 -12 23q0 11 6 18l19 24q8 11 21 11q10 0 17 -7z" />
    <glyph glyph-name="Aacute" unicode="&#xc1;" horiz-adv-x="562" 
d="M281 487l-4 -20l-75 -201h158l-75 201zM397 165h-232l-51 -135q-11 -30 -36 -30h-40q-34 0 -34 13l3 17l256 666q5 18 18 18q6 0 10.5 -4.5t6.5 -9.5l1 -4l256 -666q3 -8 3 -17q0 -13 -34 -13h-40q-25 0 -36 30zM199 830l107 113q7 7 17 7q13 0 21 -11l19 -24q6 -7 6 -18
q0 -13 -12 -23l-122 -94q-9 -7 -17 -7t-15 9l-10 13q-6 7 -6 14t12 21z" />
    <glyph glyph-name="Acircumflex" unicode="&#xc2;" horiz-adv-x="562" 
d="M281 487l-4 -20l-75 -201h158l-75 201zM397 165h-232l-51 -135q-11 -30 -36 -30h-40q-34 0 -34 13l3 17l256 666q5 18 18 18q6 0 10.5 -4.5t6.5 -9.5l1 -4l256 -666q3 -8 3 -17q0 -13 -34 -13h-40q-25 0 -36 30zM281 950q12 0 28 -22l99 -135q16 -19 16 -29
q0 -11 -22 -11h-32q-9 0 -18 5t-14 10l-5 5l-52 66l-52 -66q-17 -20 -37 -20h-33q-22 0 -22 11q0 5 17 29l99 135q16 22 28 22z" />
    <glyph glyph-name="Atilde" unicode="&#xc3;" horiz-adv-x="562" 
d="M281 487l-4 -20l-75 -201h158l-75 201zM397 165h-232l-51 -135q-11 -30 -36 -30h-40q-34 0 -34 13l3 17l256 666q5 18 18 18q6 0 10.5 -4.5t6.5 -9.5l1 -4l256 -666q3 -8 3 -17q0 -13 -34 -13h-40q-25 0 -36 30zM325 836q7 0 10 7q5 17 27 17h27q18 0 18 -17
q0 -25 -20 -53.5t-62 -28.5q-21 0 -45.5 14t-42.5 14q-7 0 -10 -7q-5 -17 -27 -17h-27q-18 0 -18 17q0 25 20 53.5t62 28.5q21 0 45.5 -14t42.5 -14z" />
    <glyph glyph-name="Adieresis" unicode="&#xc4;" horiz-adv-x="562" 
d="M281 487l-4 -20l-75 -201h158l-75 201zM397 165h-232l-51 -135q-11 -30 -36 -30h-40q-34 0 -34 13l3 17l256 666q5 18 18 18q6 0 10.5 -4.5t6.5 -9.5l1 -4l256 -666q3 -8 3 -17q0 -13 -34 -13h-40q-25 0 -36 30zM157 830q0 22 15 37t37 15t37 -15t15 -37t-15 -37t-37 -15
t-37 15t-15 37zM300 830q0 22 15 37t37 15t37 -15t15 -37t-15 -37t-37 -15t-37 15t-15 37z" />
    <glyph glyph-name="Aring" unicode="&#xc5;" horiz-adv-x="562" 
d="M281 487l-4 -20l-75 -201h158l-75 201zM397 165h-232l-51 -135q-11 -30 -36 -30h-40q-34 0 -34 13l3 17l256 666q5 18 18 18q6 0 10.5 -4.5t6.5 -9.5l1 -4l256 -666q3 -8 3 -17q0 -13 -34 -13h-40q-25 0 -36 30zM281 761q-33 0 -57.5 23t-24.5 55t24.5 55t57.5 23
t57.5 -23t24.5 -55t-24.5 -55t-57.5 -23zM281 858q-10 0 -16 -5.5t-6 -13.5t6 -13.5t16 -5.5q21 0 21 19q0 8 -6 13.5t-15 5.5z" />
    <glyph glyph-name="AE" unicode="&#xc6;" horiz-adv-x="765" 
d="M282 266l-1 221l-4 -20l-75 -201h80zM281 30l1 135h-117l-51 -135q-11 -30 -36 -30h-40q-34 0 -34 13l3 17l247 644q11 30 36 30h362q12 0 21 -8.5t9 -21.5v-41q0 -13 -9 -21.5t-21 -8.5h-267v-180h239q12 0 21 -8.5t9 -21.5v-40q0 -13 -9 -21.5t-21 -8.5h-239v-222h267
q12 0 21 -8.5t9 -21.5v-41q0 -13 -9 -21.5t-21 -8.5h-341q-12 0 -21 8.5t-9 21.5z" />
    <glyph glyph-name="Ccedilla" unicode="&#xc7;" horiz-adv-x="723" 
d="M442 -125q12 -14 24 -14t19 6.5t7 15.5q0 28 -31 28q-72 0 -72 49q0 13 5 23q-137 17 -229.5 122t-92.5 247q0 154 108 263t260 109q86 0 164 -39q30 -15 30 -39v-63q0 -34 -13 -34q-3 0 -9.5 3.5t-11.5 7.5l-5 4q-73 54 -155 54q-107 0 -177.5 -77t-70.5 -189t70.5 -189
t177.5 -77q82 0 155 54q19 15 26 15q13 0 13 -34v-63q0 -24 -30 -39q-73 -36 -147 -38q0 -18 26 -18t55 -20t29 -60q0 -29 -20.5 -51t-67.5 -22q-50 0 -80 26q-11 9 -11 22q0 11 13 19q13 7 20 7q12 0 21 -9z" />
    <glyph glyph-name="Egrave" unicode="&#xc8;" horiz-adv-x="574" 
d="M194 101h267q12 0 21 -8.5t9 -21.5v-41q0 -13 -9 -21.5t-21 -8.5h-341q-12 0 -21 8.5t-9 21.5v644q0 13 9 21.5t21 8.5h341q12 0 21 -8.5t9 -21.5v-41q0 -13 -9 -21.5t-21 -8.5h-267v-180h239q12 0 21 -8.5t9 -21.5v-40q0 -13 -9 -21.5t-21 -8.5h-239v-222zM264 943
l107 -113q12 -14 12 -21t-6 -14l-10 -13q-7 -9 -15 -9t-17 7l-122 94q-12 10 -12 23q0 11 6 18l19 24q8 11 21 11q10 0 17 -7z" />
    <glyph glyph-name="Eacute" unicode="&#xc9;" horiz-adv-x="574" 
d="M461 101h-267v222h239q12 0 21 8.5t9 21.5v40q0 13 -9 21.5t-21 8.5h-239v180h267q12 0 21 8.5t9 21.5v41q0 13 -9 21.5t-21 8.5h-341q-12 0 -21 -8.5t-9 -21.5v-644q0 -13 9 -21.5t21 -8.5h341q12 0 21 8.5t9 21.5v41q0 13 -9 21.5t-21 8.5zM209 830l107 113q7 7 17 7
q13 0 21 -11l19 -24q6 -7 6 -18q0 -13 -12 -23l-122 -94q-9 -7 -17 -7q-7 0 -15 9l-10 13q-6 7 -6 14t12 21z" />
    <glyph glyph-name="Ecircumflex" unicode="&#xca;" horiz-adv-x="574" 
d="M461 101h-267v222h239q12 0 21 8.5t9 21.5v40q0 13 -9 21.5t-21 8.5h-239v180h267q12 0 21 8.5t9 21.5v41q0 13 -9 21.5t-21 8.5h-341q-12 0 -21 -8.5t-9 -21.5v-644q0 -13 9 -21.5t21 -8.5h341q12 0 21 8.5t9 21.5v41q0 13 -9 21.5t-21 8.5zM289 950q12 0 28 -22
l99 -135q16 -19 16 -29q0 -11 -22 -11h-32q-9 0 -18 5t-14 10l-5 5l-52 66l-52 -66q-17 -20 -37 -20h-33q-22 0 -22 11q0 5 17 29l99 135q16 22 28 22z" />
    <glyph glyph-name="Edieresis" unicode="&#xcb;" horiz-adv-x="574" 
d="M461 101h-267v222h239q12 0 21 8.5t9 21.5v40q0 13 -9 21.5t-21 8.5h-239v180h267q12 0 21 8.5t9 21.5v41q0 13 -9 21.5t-21 8.5h-341q-12 0 -21 -8.5t-9 -21.5v-644q0 -13 9 -21.5t21 -8.5h341q12 0 21 8.5t9 21.5v41q0 13 -9 21.5t-21 8.5zM166 830q0 22 15 37t37 15
t37 -15t15 -37t-15 -37t-37 -15t-37 15t-15 37zM309 830q0 22 15 37t37 15t37 -15t15 -37t-15 -37t-37 -15t-37 15t-15 37z" />
    <glyph glyph-name="Igrave" unicode="&#xcc;" horiz-adv-x="274" 
d="M183 674v-644q0 -13 -9 -21.5t-21 -8.5h-44q-12 0 -21 8.5t-9 21.5v644q0 13 9 21.5t21 8.5h44q12 0 21 -8.5t9 -21.5zM106 945l107 -113q12 -14 12 -21t-6 -14l-10 -13q-8 -9 -15 -9q-8 0 -17 7l-122 94q-12 10 -12 23q0 11 6 18l19 24q8 11 21 11q10 0 17 -7z" />
    <glyph glyph-name="Iacute" unicode="&#xcd;" horiz-adv-x="274" 
d="M189 674v-644q0 -13 -9 -21.5t-21 -8.5h-44q-12 0 -21 8.5t-9 21.5v644q0 13 9 21.5t21 8.5h44q12 0 21 -8.5t9 -21.5zM55 832l107 113q7 7 17 7q13 0 21 -11l19 -24q6 -7 6 -18q0 -13 -12 -23l-122 -94q-9 -7 -17 -7t-15 9l-10 13q-6 7 -6 14t12 21z" />
    <glyph glyph-name="Icircumflex" unicode="&#xce;" horiz-adv-x="284" 
d="M194 674v-644q0 -13 -9 -21.5t-21 -8.5h-44q-12 0 -21 8.5t-9 21.5v644q0 13 9 21.5t21 8.5h44q12 0 21 -8.5t9 -21.5zM142 952q12 0 28 -22l99 -135q16 -19 16 -29q0 -11 -22 -11h-32q-9 0 -18 5t-14 10l-5 5l-52 66l-52 -66q-17 -20 -37 -20h-33q-22 0 -22 11
q0 5 17 29l99 135q16 22 28 22z" />
    <glyph glyph-name="Idieresis" unicode="&#xcf;" horiz-adv-x="282" 
d="M192 674v-644q0 -13 -9 -21.5t-21 -8.5h-44q-12 0 -21 8.5t-9 21.5v644q0 13 9 21.5t21 8.5h44q12 0 21 -8.5t9 -21.5zM17 832q0 22 15 37t37 15t37 -15t15 -37t-15 -37t-37 -15t-37 15t-15 37zM160 832q0 22 15 37t37 15t37 -15t15 -37t-15 -37t-37 -15t-37 15t-15 37z
" />
    <glyph glyph-name="Eth" unicode="&#xd0;" horiz-adv-x="736" 
d="M52 400h46v274q0 13 9 21.5t21 8.5h167q155 0 251.5 -101.5t96.5 -250.5t-96.5 -250.5t-251.5 -101.5h-167q-12 0 -21 8.5t-9 21.5v269h-46q-13 0 -21.5 9t-8.5 21v41q0 12 8.5 21t21.5 9zM295 603h-93v-203h47q13 0 21.5 -9t8.5 -21v-41q0 -12 -8.5 -21t-21.5 -9h-47
v-198h93q105 0 169 74.5t64 176.5t-64 176.5t-169 74.5z" />
    <glyph glyph-name="Ntilde" unicode="&#xd1;" horiz-adv-x="725" 
d="M586 13l-384 441l-10 30l2 -30v-424q0 -12 -8.5 -21t-21.5 -9h-44q-13 0 -21.5 9t-8.5 21v646q0 38 12 38q6 0 14.5 -6t13.5 -12l6 -5l386 -443l11 -31l-2 30v427q0 12 8.5 21t21.5 9h44q13 0 21.5 -9t8.5 -21v-646q0 -38 -13 -38q-6 0 -15 6t-15 12zM407 836q7 0 10 7
q5 17 27 17h27q18 0 18 -17q0 -25 -20 -53.5t-62 -28.5q-21 0 -45.5 14t-42.5 14q-7 0 -10 -7q-5 -17 -27 -17h-27q-18 0 -18 17q0 25 20 53.5t62 28.5q21 0 45.5 -14t42.5 -14z" />
    <glyph glyph-name="Ograve" unicode="&#xd2;" horiz-adv-x="888" 
d="M444 -20q-154 0 -263 109t-109 263t109 263t263 109q153 0 262.5 -108.5t109.5 -263.5q0 -154 -110 -263t-262 -109zM444 618q-109 0 -180 -77t-71 -189t71 -189t180 -77q108 0 179.5 77t71.5 189t-71.5 189t-179.5 77zM430 943l107 -113q12 -14 12 -21t-6 -14l-10 -13
q-7 -9 -15 -9t-17 7l-122 94q-12 10 -12 23q0 11 6 18l19 24q8 11 21 11q10 0 17 -7z" />
    <glyph glyph-name="Oacute" unicode="&#xd3;" horiz-adv-x="888" 
d="M444 -20q152 0 262 109t110 263q0 155 -109.5 263.5t-262.5 108.5q-154 0 -263 -109t-109 -263t109 -263t263 -109zM444 618q108 0 179.5 -77t71.5 -189t-71.5 -189t-179.5 -77q-109 0 -180 77t-71 189t71 189t180 77zM353 830l107 113q7 7 17 7q13 0 21 -11l19 -24
q6 -7 6 -18q0 -13 -12 -23l-122 -94q-9 -7 -17 -7t-15 9l-10 13q-6 7 -6 14t12 21z" />
    <glyph glyph-name="Ocircumflex" unicode="&#xd4;" horiz-adv-x="888" 
d="M444 -20q152 0 262 109t110 263q0 155 -109.5 263.5t-262.5 108.5q-154 0 -263 -109t-109 -263t109 -263t263 -109zM444 618q108 0 179.5 -77t71.5 -189t-71.5 -189t-179.5 -77q-109 0 -180 77t-71 189t71 189t180 77zM445 950q12 0 28 -22l99 -135q16 -19 16 -29
q0 -11 -22 -11h-32q-9 0 -18 5t-14 10l-5 5l-52 66l-52 -66q-17 -20 -37 -20h-33q-22 0 -22 11q0 5 17 29l99 135q16 22 28 22z" />
    <glyph glyph-name="Otilde" unicode="&#xd5;" horiz-adv-x="888" 
d="M444 -20q-154 0 -263 109t-109 263t109 263t263 109q153 0 262.5 -108.5t109.5 -263.5q0 -154 -110 -263t-262 -109zM444 618q-109 0 -180 -77t-71 -189t71 -189t180 -77q108 0 179.5 77t71.5 189t-71.5 189t-179.5 77zM488 836q6 0 10 7q5 17 27 17h27q18 0 18 -17
q0 -25 -20 -53.5t-62 -28.5q-21 0 -45.5 14t-42.5 14q-6 0 -10 -7q-5 -17 -27 -17h-27q-18 0 -18 17q0 25 20 53.5t62 28.5q21 0 45.5 -14t42.5 -14z" />
    <glyph glyph-name="Odieresis" unicode="&#xd6;" horiz-adv-x="888" 
d="M444 -20q152 0 262 109t110 263q0 155 -109.5 263.5t-262.5 108.5q-154 0 -263 -109t-109 -263t109 -263t263 -109zM444 618q108 0 179.5 -77t71.5 -189t-71.5 -189t-179.5 -77q-109 0 -180 77t-71 189t71 189t180 77zM322 830q0 22 15 37t37 15t37 -15t15 -37t-15 -37
t-37 -15t-37 15t-15 37zM465 830q0 22 15 37t37 15t37 -15t15 -37t-15 -37t-37 -15t-37 15t-15 37z" />
    <glyph glyph-name="multiply" unicode="&#xd7;" horiz-adv-x="412" 
d="M120 542l86 -87l86 87q9 9 21 9t21 -9l20 -20q9 -9 9 -21t-9 -21l-83 -82l85 -86q9 -9 9 -21q0 -13 -9 -21l-23 -23q-9 -9 -21 -9t-21 9l-85 85l-85 -85q-9 -9 -21 -9t-21 9l-23 23q-9 8 -9 21q0 12 9 21l85 86l-83 82q-9 9 -9 21t9 21l20 20q9 9 21 9t21 -9z" />
    <glyph glyph-name="Oslash" unicode="&#xd8;" horiz-adv-x="888" 
d="M232 -18l21 51q-83 50 -132 134.5t-49 184.5q0 154 109 263t263 109q44 0 88 -11l21 50q8 19 24 19q9 0 20 -5l37 -15q18 -8 18 -29q0 -3 -2 -11l-20 -48q85 -49 135.5 -134.5t50.5 -187.5q0 -154 -110 -263t-262 -109q-50 0 -95 12l-20 -50q-6 -18 -27 -18l-12 2l-42 17
q-19 7 -19 27q0 6 3 12zM695 352q0 68 -28.5 126t-78.5 94l-198 -481q28 -5 54 -5q108 0 179.5 77t71.5 189zM444 618q-109 0 -180 -77t-71 -189q0 -67 27 -124t75 -93l196 478q-25 5 -47 5z" />
    <glyph glyph-name="Ugrave" unicode="&#xd9;" horiz-adv-x="696" 
d="M348 -20q-116 0 -187 73.5t-71 175.5v445q0 13 9 21.5t21 8.5h44q12 0 21 -8.5t9 -21.5v-416q0 -80 40.5 -126t113.5 -46t113.5 46t40.5 126v416q0 13 9 21.5t21 8.5h44q12 0 21 -8.5t9 -21.5v-445q0 -102 -71 -175.5t-187 -73.5zM323 943l107 -113q12 -14 12 -21t-6 -14
l-10 -13q-8 -9 -15 -9q-8 0 -17 7l-122 94q-12 10 -12 23q0 11 6 18l19 24q8 11 21 11q10 0 17 -7z" />
    <glyph glyph-name="Uacute" unicode="&#xda;" horiz-adv-x="696" 
d="M348 -20q116 0 187 73.5t71 175.5v445q0 13 -9 21.5t-21 8.5h-44q-12 0 -21 -8.5t-9 -21.5v-416q0 -80 -40.5 -126t-113.5 -46t-113.5 46t-40.5 126v416q0 13 -9 21.5t-21 8.5h-44q-12 0 -21 -8.5t-9 -21.5v-445q0 -102 71 -175.5t187 -73.5zM266 830l107 113q7 7 17 7
q13 0 21 -11l19 -24q6 -7 6 -18q0 -13 -12 -23l-122 -94q-9 -7 -17 -7q-7 0 -15 9l-10 13q-6 7 -6 14t12 21z" />
    <glyph glyph-name="Ucircumflex" unicode="&#xdb;" horiz-adv-x="696" 
d="M348 -20q116 0 187 73.5t71 175.5v445q0 13 -9 21.5t-21 8.5h-44q-12 0 -21 -8.5t-9 -21.5v-416q0 -80 -40.5 -126t-113.5 -46t-113.5 46t-40.5 126v416q0 13 -9 21.5t-21 8.5h-44q-12 0 -21 -8.5t-9 -21.5v-445q0 -102 71 -175.5t187 -73.5zM348 950q12 0 28 -22
l99 -135q16 -19 16 -29q0 -11 -22 -11h-32q-9 0 -18 5t-14 10l-5 5l-52 66l-52 -66q-17 -20 -37 -20h-33q-22 0 -22 11q0 5 17 29l99 135q16 22 28 22z" />
    <glyph glyph-name="Udieresis" unicode="&#xdc;" horiz-adv-x="696" 
d="M348 -20q116 0 187 73.5t71 175.5v445q0 13 -9 21.5t-21 8.5h-44q-12 0 -21 -8.5t-9 -21.5v-416q0 -80 -40.5 -126t-113.5 -46t-113.5 46t-40.5 126v416q0 13 -9 21.5t-21 8.5h-44q-12 0 -21 -8.5t-9 -21.5v-445q0 -102 71 -175.5t187 -73.5zM225 830q0 22 15 37t37 15
t37 -15t15 -37t-15 -37t-37 -15t-37 15t-15 37zM368 830q0 22 15 37t37 15t37 -15t15 -37t-15 -37t-37 -15t-37 15t-15 37z" />
    <glyph glyph-name="Yacute" unicode="&#xdd;" horiz-adv-x="552" 
d="M276 442l147 232q20 30 41 30h53q38 0 38 -13q0 -3 -2.5 -8.5t-5.5 -9.5l-3 -4l-216 -335v-304q0 -12 -8.5 -21t-21.5 -9h-44q-13 0 -21.5 9t-8.5 21v304l-216 335q-11 15 -11 22q0 13 38 13h53q9 0 19.5 -7.5t16.5 -14.5l5 -8zM193 830l107 113q7 7 17 7q13 0 21 -11
l19 -24q6 -7 6 -18q0 -13 -12 -23l-122 -94q-9 -7 -17 -7t-15 9l-10 13q-6 7 -6 14t12 21z" />
    <glyph glyph-name="Thorn" unicode="&#xde;" horiz-adv-x="526" 
d="M233 465h-69v-197h69q60 0 86.5 28.5t26.5 70.5q0 98 -113 98zM164 566h32q41 0 71.5 -3t68 -14.5t61.5 -32t40.5 -58.5t16.5 -91q0 -39 -12 -73t-38 -63.5t-74.5 -46.5t-114.5 -17h-51v-137q0 -13 -9 -21.5t-21 -8.5h-44q-12 0 -21 8.5t-9 21.5v654q0 13 9 21.5t21 8.5
h44q12 0 21 -8.5t9 -21.5v-118z" />
    <glyph glyph-name="germandbls" unicode="&#xdf;" horiz-adv-x="500" 
d="M182 112q38 -25 67 -25q41 0 70.5 31t29.5 70q0 27 -27.5 47.5t-60.5 32t-60.5 35t-27.5 55.5q0 23 20 41.5t44 29.5t44 29t20 40q0 41 -25.5 71t-61.5 30q-30 0 -55.5 -27t-25.5 -56v-486q0 -13 -9 -21.5t-21 -8.5h-43q-12 0 -21 8.5t-9 21.5v485q0 28 9.5 58t29 59.5
t57 48.5t87.5 19q75 0 133.5 -58.5t58.5 -143.5q0 -53 -23 -80.5t-69 -52.5q-12 -5 -12 -7l12 -4q26 -12 40 -19.5t36 -23.5t33.5 -31t20.5 -39t9 -53q0 -98 -62 -153t-141 -55q-32 0 -70 21q-28 17 -28 36v63q0 20 15 20q2 0 16 -8z" />
    <glyph glyph-name="agrave" unicode="&#xe0;" horiz-adv-x="478" 
d="M154 344q-16 -9 -22 -9q-12 0 -23 11l-25 28q-7 7 -7 18q0 14 10 21q60 39 147 39q92 0 138 -50.5t46 -124.5v-247q0 -13 -9 -21.5t-21 -8.5h-35q-21 0 -29 21q-36 -41 -109 -41q-72 0 -120 41.5t-48 103.5q0 76 55 111t135 35q53 0 87 -10v25q0 32 -31 53t-59 21
q-52 0 -80 -16zM324 139v33q-38 12 -91 12q-93 0 -93 -59q0 -16 21.5 -35.5t53.5 -19.5q82 0 109 69zM208 673l107 -113q12 -14 12 -21t-6 -14l-10 -13q-7 -9 -15 -9t-17 7l-122 94q-12 10 -12 23q0 11 6 18l19 24q8 11 21 11q10 0 17 -7z" />
    <glyph glyph-name="aacute" unicode="&#xe1;" horiz-adv-x="478" 
d="M154 344q-16 -9 -22 -9q-12 0 -23 11l-25 28q-7 7 -7 18q0 14 10 21q60 39 147 39q92 0 138 -50.5t46 -124.5v-247q0 -13 -9 -21.5t-21 -8.5h-35q-21 0 -29 21q-36 -41 -109 -41q-72 0 -120 41.5t-48 103.5q0 76 55 111t135 35q53 0 87 -10v25q0 32 -31 53t-59 21
q-52 0 -80 -16zM324 139v33q-38 12 -91 12q-93 0 -93 -59q0 -16 21.5 -35.5t53.5 -19.5q82 0 109 69zM152 560l107 113q7 7 17 7q13 0 21 -11l19 -24q6 -7 6 -18q0 -13 -12 -23l-122 -94q-9 -7 -17 -7q-7 0 -15 9l-10 13q-6 7 -6 14t12 21z" />
    <glyph glyph-name="acircumflex" unicode="&#xe2;" horiz-adv-x="478" 
d="M154 344q-16 -9 -22 -9q-12 0 -23 11l-25 28q-7 7 -7 18q0 14 10 21q60 39 147 39q92 0 138 -50.5t46 -124.5v-247q0 -13 -9 -21.5t-21 -8.5h-35q-21 0 -29 21q-36 -41 -109 -41q-72 0 -120 41.5t-48 103.5q0 76 55 111t135 35q53 0 87 -10v25q0 32 -31 53t-59 21
q-52 0 -80 -16zM324 139v33q-38 12 -91 12q-93 0 -93 -59q0 -16 21.5 -35.5t53.5 -19.5q82 0 109 69zM232 680q12 0 28 -22l99 -135q16 -19 16 -29q0 -11 -22 -11h-32q-9 0 -18 5t-14 10l-5 5l-52 66l-52 -66q-17 -20 -37 -20h-33q-22 0 -22 11q0 5 17 29l99 135
q16 22 28 22z" />
    <glyph glyph-name="atilde" unicode="&#xe3;" horiz-adv-x="478" 
d="M154 344q-16 -9 -22 -9q-12 0 -23 11l-25 28q-7 7 -7 18q0 14 10 21q60 39 147 39q92 0 138 -50.5t46 -124.5v-247q0 -13 -9 -21.5t-21 -8.5h-35q-21 0 -29 21q-36 -41 -109 -41q-72 0 -120 41.5t-48 103.5q0 76 55 111t135 35q53 0 87 -10v25q0 32 -31 53t-59 21
q-52 0 -80 -16zM324 139v33q-38 12 -91 12q-93 0 -93 -59q0 -16 21.5 -35.5t53.5 -19.5q82 0 109 69zM279 566q7 0 10 7q5 17 27 17h27q18 0 18 -17q0 -25 -20 -53.5t-62 -28.5q-21 0 -45.5 14t-42.5 14q-7 0 -10 -7q-5 -17 -27 -17h-27q-18 0 -18 17q0 25 20 53.5t62 28.5
q21 0 45.5 -14t42.5 -14z" />
    <glyph glyph-name="adieresis" unicode="&#xe4;" horiz-adv-x="478" 
d="M154 344q-16 -9 -22 -9q-12 0 -23 11l-25 28q-7 7 -7 18q0 14 10 21q60 39 147 39q92 0 138 -50.5t46 -124.5v-247q0 -13 -9 -21.5t-21 -8.5h-35q-21 0 -29 21q-36 -41 -109 -41q-72 0 -120 41.5t-48 103.5q0 76 55 111t135 35q53 0 87 -10v25q0 32 -31 53t-59 21
q-52 0 -80 -16zM324 139v33q-38 12 -91 12q-93 0 -93 -59q0 -16 21.5 -35.5t53.5 -19.5q82 0 109 69zM109 560q0 22 15 37t37 15t37 -15t15 -37t-15 -37t-37 -15t-37 15t-15 37zM252 560q0 22 15 37t37 15t37 -15t15 -37t-15 -37t-37 -15t-37 15t-15 37z" />
    <glyph glyph-name="aring" unicode="&#xe5;" horiz-adv-x="478" 
d="M154 344q-16 -9 -22 -9q-12 0 -23 11l-25 28q-7 7 -7 18q0 14 10 21q60 39 147 39q92 0 138 -50.5t46 -124.5v-247q0 -13 -9 -21.5t-21 -8.5h-35q-21 0 -29 21q-36 -41 -109 -41q-72 0 -120 41.5t-48 103.5q0 76 55 111t135 35q53 0 87 -10v25q0 32 -31 53t-59 21
q-52 0 -80 -16zM324 139v33q-38 12 -91 12q-93 0 -93 -59q0 -16 21.5 -35.5t53.5 -19.5q82 0 109 69zM221 491q-33 0 -57.5 23t-24.5 55t24.5 55t57.5 23t57.5 -23t24.5 -55t-24.5 -55t-57.5 -23zM221 588q-10 0 -16 -5.5t-6 -13.5t6 -13.5t16 -5.5q21 0 21 19q0 8 -6 13.5
t-15 5.5z" />
    <glyph glyph-name="ae" unicode="&#xe6;" horiz-adv-x="809" 
d="M762 216v-13q0 -13 -9 -21.5t-21 -8.5h-309q30 -99 118 -99q52 0 97 37q10 9 21 9q12 0 21 -9l26 -26q9 -9 9 -21q0 -10 -9 -21q-71 -63 -165 -63q-106 0 -174 84q-50 -84 -151 -84q-74 0 -121.5 41t-47.5 104q0 41 19.5 71.5t51 45.5t64 22t66.5 7q41 0 75 -9v24
q0 32 -29.5 53t-58.5 21q-52 0 -80 -16q-16 -9 -22 -9q-12 0 -23 11l-25 28q-7 7 -7 18q0 14 10 21q60 39 147 39q103 0 151 -63q63 63 155 63q99 0 160 -68t61 -168zM541 360q-87 0 -118 -98h237q-13 45 -43.5 71.5t-75.5 26.5zM323 148v24q-29 12 -75 12t-75.5 -15
t-29.5 -42q0 -18 19 -37.5t54 -19.5q34 0 63 20t44 58z" />
    <glyph glyph-name="ccedilla" unicode="&#xe7;" horiz-adv-x="459" 
d="M253 -125q12 -14 24 -14q13 0 19.5 6.5t6.5 15.5q0 28 -31 28q-72 0 -72 49q0 17 10 31q-72 22 -117.5 84.5t-45.5 141.5q0 98 68 166.5t165 68.5q48 0 93 -19q31 -11 31 -36v-65q0 -20 -15 -20q-5 0 -15 8q-43 39 -94 39q-58 0 -99 -41.5t-41 -100.5t41 -100.5t99 -41.5
q51 0 94 39q10 8 15 8q15 0 15 -20v-67q0 -25 -31 -36q-45 -19 -93 -19h-12q0 -17 26 -17t55 -20t29 -60q0 -29 -20.5 -51t-67.5 -22q-50 0 -80 26q-11 9 -11 22q0 11 13 19q13 7 20 7q12 0 21 -9z" />
    <glyph glyph-name="egrave" unicode="&#xe8;" horiz-adv-x="526" 
d="M263 360q-90 0 -106 -115h212q-16 115 -106 115zM428 43q-71 -63 -165 -63q-97 0 -156.5 68t-59.5 168t59.5 168t156.5 68t156.5 -68t59.5 -168v-13q0 -13 -9 -21.5t-21 -8.5h-292q15 -48 39.5 -73.5t66.5 -25.5q52 0 97 37q10 9 21 9q12 0 21 -9l26 -26q9 -9 9 -21
q0 -10 -9 -21zM237 673l107 -113q12 -14 12 -21t-6 -14l-10 -13q-8 -9 -15 -9q-8 0 -17 7l-122 94q-12 10 -12 23q0 11 6 18l19 24q8 11 21 11q10 0 17 -7z" />
    <glyph glyph-name="eacute" unicode="&#xe9;" horiz-adv-x="526" 
d="M263 360q-90 0 -106 -115h212q-16 115 -106 115zM428 43q-71 -63 -165 -63q-97 0 -156.5 68t-59.5 168t59.5 168t156.5 68t156.5 -68t59.5 -168v-13q0 -13 -9 -21.5t-21 -8.5h-292q15 -48 39.5 -73.5t66.5 -25.5q52 0 97 37q10 9 21 9q12 0 21 -9l26 -26q9 -9 9 -21
q0 -10 -9 -21zM180 560l107 113q7 7 17 7q13 0 21 -11l19 -24q6 -7 6 -18q0 -13 -12 -23l-122 -94q-9 -7 -17 -7q-7 0 -15 9l-10 13q-6 7 -6 14t12 21z" />
    <glyph glyph-name="ecircumflex" unicode="&#xea;" horiz-adv-x="526" 
d="M263 360q-90 0 -106 -115h212q-16 115 -106 115zM428 43q-71 -63 -165 -63q-97 0 -156.5 68t-59.5 168t59.5 168t156.5 68t156.5 -68t59.5 -168v-13q0 -13 -9 -21.5t-21 -8.5h-292q15 -48 39.5 -73.5t66.5 -25.5q52 0 97 37q10 9 21 9q12 0 21 -9l26 -26q9 -9 9 -21
q0 -10 -9 -21zM262 680q12 0 28 -22l99 -135q16 -19 16 -29q0 -11 -22 -11h-32q-9 0 -18 5t-14 10l-5 5l-52 66l-52 -66q-17 -20 -37 -20h-33q-22 0 -22 11q0 5 17 29l99 135q16 22 28 22z" />
    <glyph glyph-name="edieresis" unicode="&#xeb;" horiz-adv-x="526" 
d="M263 360q-90 0 -106 -115h212q-16 115 -106 115zM428 43q-71 -63 -165 -63q-97 0 -156.5 68t-59.5 168t59.5 168t156.5 68t156.5 -68t59.5 -168v-13q0 -13 -9 -21.5t-21 -8.5h-292q15 -48 39.5 -73.5t66.5 -25.5q52 0 97 37q10 9 21 9q12 0 21 -9l26 -26q9 -9 9 -21
q0 -10 -9 -21zM139 560q0 22 15 37t37 15t37 -15t15 -37t-15 -37t-37 -15t-37 15t-15 37zM282 560q0 22 15 37t37 15t37 -15t15 -37t-15 -37t-37 -15t-37 15t-15 37z" />
    <glyph glyph-name="igrave" unicode="&#xec;" horiz-adv-x="202" 
d="M73 673l107 -113q12 -14 12 -21t-6 -14l-10 -13q-8 -9 -15 -9q-8 0 -17 7l-122 94q-12 10 -12 23q0 11 6 18l19 24q8 11 21 11q10 0 17 -7zM145 402v-372q0 -13 -9 -21.5t-21 -8.5h-34q-12 0 -21 8.5t-9 21.5v372q0 13 9 21.5t21 8.5h34q12 0 21 -8.5t9 -21.5z" />
    <glyph glyph-name="iacute" unicode="&#xed;" horiz-adv-x="253" 
d="M22 560l107 113q7 7 17 7q13 0 21 -11l19 -24q6 -7 6 -18q0 -13 -12 -23l-122 -94q-9 -7 -17 -7q-7 0 -15 9l-10 13q-6 7 -6 14t12 21zM151 402v-372q0 -13 -9 -21.5t-21 -8.5h-34q-12 0 -21 8.5t-9 21.5v372q0 13 9 21.5t21 8.5h34q12 0 21 -8.5t9 -21.5z" />
    <glyph glyph-name="icircumflex" unicode="&#xee;" horiz-adv-x="307" 
d="M154 680q12 0 28 -22l99 -135q16 -19 16 -29q0 -11 -22 -11h-32q-9 0 -18 5t-14 10l-5 5l-52 66l-52 -66q-17 -20 -37 -20h-33q-22 0 -22 11q0 5 17 29l99 135q16 22 28 22zM201 402v-372q0 -13 -9 -21.5t-21 -8.5h-34q-12 0 -21 8.5t-9 21.5v372q0 13 9 21.5t21 8.5h34
q12 0 21 -8.5t9 -21.5z" />
    <glyph glyph-name="idieresis" unicode="&#xef;" horiz-adv-x="267" 
d="M10 560q0 22 15 37t37 15t37 -15t15 -37t-15 -37t-37 -15t-37 15t-15 37zM153 560q0 22 15 37t37 15t37 -15t15 -37t-15 -37t-37 -15t-37 15t-15 37zM180 402v-372q0 -13 -9 -21.5t-21 -8.5h-34q-12 0 -21 8.5t-9 21.5v372q0 13 9 21.5t21 8.5h34q12 0 21 -8.5t9 -21.5z
" />
    <glyph glyph-name="eth" unicode="&#xf0;" horiz-adv-x="601" 
d="M332 521l-45 -19q-12 -5 -17 -5q-13 0 -13 34v28q0 29 30 41l15 6l-20 56q-4 11 -4 15q0 23 24 23h42q22 0 34 -30q1 -3 5 -12t7 -16l86 36q11 5 17 5q13 0 13 -34v-26q0 -29 -30 -41l-54 -23q84 -223 84 -337q0 -16 -0.5 -28.5t-5.5 -39.5t-13 -47.5t-26 -45.5
t-42 -41.5t-63 -28t-88 -11.5q-97 0 -159 69.5t-62 170.5q0 99 62.5 168.5t158.5 69.5q58 0 97 -31zM268 365q-56 0 -92 -41.5t-36 -103.5t36 -103t92 -41q18 0 37 6t40 20t34.5 44.5t13.5 73.5q0 51 -23.5 86t-50.5 47t-51 12z" />
    <glyph glyph-name="ntilde" unicode="&#xf1;" 
d="M436 236v-206q0 -13 -9 -21.5t-21 -8.5h-34q-12 0 -21 8.5t-9 21.5v187q0 60 -20.5 101t-67.5 41q-63 0 -100 -80v-249q0 -13 -9 -21.5t-21 -8.5h-34q-12 0 -21 8.5t-9 21.5v372q0 13 9 21.5t21 8.5h34q12 0 21 -8.5t9 -19.5q50 48 100 48q182 0 182 -216zM293 566
q7 0 10 7q5 17 27 17h27q18 0 18 -17q0 -25 -20 -53.5t-62 -28.5q-21 0 -45.5 14t-42.5 14q-7 0 -10 -7q-5 -17 -27 -17h-27q-18 0 -18 17q0 25 20 53.5t62 28.5q21 0 45.5 -14t42.5 -14z" />
    <glyph glyph-name="ograve" unicode="&#xf2;" horiz-adv-x="566" 
d="M283 -20q-98 0 -167 69t-69 167t69 167t167 69t167 -69t69 -167t-69 -167t-167 -69zM283 360q-58 0 -95.5 -41.5t-37.5 -101.5t37.5 -101.5t95.5 -41.5t95.5 41.5t37.5 101.5t-37.5 101.5t-95.5 41.5zM268 673l107 -113q12 -14 12 -21t-6 -14l-10 -13q-7 -9 -15 -9t-17 7
l-122 94q-12 10 -12 23q0 11 6 18l19 24q8 11 21 11q10 0 17 -7z" />
    <glyph glyph-name="oacute" unicode="&#xf3;" horiz-adv-x="566" 
d="M283 -20q98 0 167 69t69 167t-69 167t-167 69t-167 -69t-69 -167t69 -167t167 -69zM283 360q58 0 95.5 -41.5t37.5 -101.5t-37.5 -101.5t-95.5 -41.5t-95.5 41.5t-37.5 101.5t37.5 101.5t95.5 41.5zM191 560l107 113q7 7 17 7q13 0 21 -11l19 -24q6 -7 6 -18
q0 -13 -12 -23l-122 -94q-9 -7 -17 -7t-15 9l-10 13q-6 7 -6 14t12 21z" />
    <glyph glyph-name="ocircumflex" unicode="&#xf4;" horiz-adv-x="566" 
d="M283 -20q98 0 167 69t69 167t-69 167t-167 69t-167 -69t-69 -167t69 -167t167 -69zM283 360q58 0 95.5 -41.5t37.5 -101.5t-37.5 -101.5t-95.5 -41.5t-95.5 41.5t-37.5 101.5t37.5 101.5t95.5 41.5zM283 680q12 0 28 -22l99 -135q16 -19 16 -29q0 -11 -22 -11h-32
q-9 0 -18 5t-14 10l-5 5l-52 66l-52 -66q-17 -20 -37 -20h-33q-22 0 -22 11q0 5 17 29l99 135q16 22 28 22z" />
    <glyph glyph-name="otilde" unicode="&#xf5;" horiz-adv-x="566" 
d="M283 -20q-98 0 -167 69t-69 167t69 167t167 69t167 -69t69 -167t-69 -167t-167 -69zM283 360q-58 0 -95.5 -41.5t-37.5 -101.5t37.5 -101.5t95.5 -41.5t95.5 41.5t37.5 101.5t-37.5 101.5t-95.5 41.5zM327 566q7 0 10 7q5 17 27 17h27q18 0 18 -17q0 -25 -20 -53.5
t-62 -28.5q-21 0 -45.5 14t-42.5 14q-7 0 -10 -7q-5 -17 -27 -17h-27q-18 0 -18 17q0 25 20 53.5t62 28.5q21 0 45.5 -14t42.5 -14z" />
    <glyph glyph-name="odieresis" unicode="&#xf6;" horiz-adv-x="566" 
d="M283 -20q98 0 167 69t69 167t-69 167t-167 69t-167 -69t-69 -167t69 -167t167 -69zM283 360q58 0 95.5 -41.5t37.5 -101.5t-37.5 -101.5t-95.5 -41.5t-95.5 41.5t-37.5 101.5t37.5 101.5t95.5 41.5zM160 560q0 22 15 37t37 15t37 -15t15 -37t-15 -37t-37 -15t-37 15
t-15 37zM303 560q0 22 15 37t37 15t37 -15t15 -37t-15 -37t-37 -15t-37 15t-15 37z" />
    <glyph glyph-name="divide" unicode="&#xf7;" horiz-adv-x="489" 
d="M188 530q0 23 16.5 39.5t39.5 16.5t39.5 -16.5t16.5 -39.5t-16.5 -39.5t-39.5 -16.5t-39.5 16.5t-16.5 39.5zM188 240q0 23 16.5 39.5t39.5 16.5t39.5 -16.5t16.5 -39.5t-16.5 -39.5t-39.5 -16.5t-39.5 16.5t-16.5 39.5zM78 430h331q13 0 21.5 -9t8.5 -21v-29
q0 -12 -8.5 -21t-21.5 -9h-331q-13 0 -21.5 9t-8.5 21v29q0 12 8.5 21t21.5 9z" />
    <glyph glyph-name="oslash" unicode="&#xf8;" horiz-adv-x="566" 
d="M283 -20q-22 0 -49 5l-23 -58q-6 -18 -27 -18l-12 2l-32 12q-19 7 -19 27q0 6 3 12l24 60q-47 32 -74 83t-27 111q0 98 69 167t167 69q20 0 38 -3l24 58q8 19 24 19q9 0 20 -5l25 -11q18 -8 18 -29q0 -3 -2 -11l-22 -54q51 -31 81 -84.5t30 -115.5q0 -98 -69 -167
t-167 -69zM416 217q0 66 -45 108l-101 -251h13q58 0 95.5 41.5t37.5 101.5zM285 360q-59 0 -97 -41.5t-38 -101.5q0 -58 37 -100z" />
    <glyph glyph-name="ugrave" unicode="&#xf9;" 
d="M60 196v206q0 13 9 21.5t21 8.5h34q12 0 21 -8.5t9 -21.5v-187q0 -60 20.5 -101t67.5 -41q63 0 100 80v249q0 13 9 21.5t21 8.5h34q12 0 21 -8.5t9 -21.5v-372q0 -13 -9 -21.5t-21 -8.5h-34q-12 0 -21 8.5t-9 19.5q-50 -48 -100 -48q-182 0 -182 216zM224 673l107 -113
q12 -14 12 -21t-6 -14l-10 -13q-7 -9 -15 -9t-17 7l-122 94q-12 10 -12 23q0 11 6 18l19 24q8 11 21 11q10 0 17 -7z" />
    <glyph glyph-name="uacute" unicode="&#xfa;" 
d="M60 402v-206q0 -216 182 -216q50 0 100 48q0 -11 9 -19.5t21 -8.5h34q12 0 21 8.5t9 21.5v372q0 13 -9 21.5t-21 8.5h-34q-12 0 -21 -8.5t-9 -21.5v-249q-37 -80 -100 -80q-47 0 -67.5 41t-20.5 101v187q0 13 -9 21.5t-21 8.5h-34q-12 0 -21 -8.5t-9 -21.5zM166 560
l107 113q7 7 17 7q13 0 21 -11l19 -24q6 -7 6 -18q0 -13 -12 -23l-122 -94q-9 -7 -17 -7q-7 0 -15 9l-10 13q-6 7 -6 14t12 21z" />
    <glyph glyph-name="ucircumflex" unicode="&#xfb;" 
d="M60 402v-206q0 -216 182 -216q50 0 100 48q0 -11 9 -19.5t21 -8.5h34q12 0 21 8.5t9 21.5v372q0 13 -9 21.5t-21 8.5h-34q-12 0 -21 -8.5t-9 -21.5v-249q-37 -80 -100 -80q-47 0 -67.5 41t-20.5 101v187q0 13 -9 21.5t-21 8.5h-34q-12 0 -21 -8.5t-9 -21.5zM248 680
q12 0 28 -22l99 -135q16 -19 16 -29q0 -11 -22 -11h-32q-9 0 -18 5t-14 10l-5 5l-52 66l-52 -66q-17 -20 -37 -20h-33q-22 0 -22 11q0 5 17 29l99 135q16 22 28 22z" />
    <glyph glyph-name="udieresis" unicode="&#xfc;" 
d="M60 402v-206q0 -216 182 -216q50 0 100 48q0 -11 9 -19.5t21 -8.5h34q12 0 21 8.5t9 21.5v372q0 13 -9 21.5t-21 8.5h-34q-12 0 -21 -8.5t-9 -21.5v-249q-37 -80 -100 -80q-47 0 -67.5 41t-20.5 101v187q0 13 -9 21.5t-21 8.5h-34q-12 0 -21 -8.5t-9 -21.5zM125 560
q0 22 15 37t37 15t37 -15t15 -37t-15 -37t-37 -15t-37 15t-15 37zM268 560q0 22 15 37t37 15t37 -15t15 -37t-15 -37t-37 -15t-37 15t-15 37z" />
    <glyph glyph-name="yacute" unicode="&#xfd;" horiz-adv-x="426" 
d="M56 -85h-21q-13 0 -21.5 -9t-8.5 -21v-25q0 -12 8.5 -21t21.5 -9h21q6 0 12.5 0.5t23.5 5.5t32.5 13t35.5 26.5t35 43.5l220 483q6 14 6 19q0 11 -28 11h-38q-27 0 -41 -30l-96 -214l-4 -30l-4 30l-97 214q-14 30 -41 30h-38q-28 0 -28 -11l6 -19l153 -336l-50 -107
q-8 -17 -22.5 -27.5t-23.5 -13.5t-13 -3zM132 560l107 113q7 7 17 7q13 0 21 -11l19 -24q6 -7 6 -18q0 -13 -12 -23l-122 -94q-9 -7 -17 -7q-7 0 -15 9l-10 13q-6 7 -6 14t12 21z" />
    <glyph glyph-name="thorn" unicode="&#xfe;" horiz-adv-x="583" 
d="M69 -140v814q0 13 9 21.5t21 8.5h34q12 0 21 -8.5t9 -21.5v-270q23 23 57.5 35.5t62.5 12.5q99 0 163.5 -66t64.5 -165q0 -101 -65 -171t-163 -70q-70 0 -120 50v-170q0 -13 -9 -21.5t-21 -8.5h-34q-12 0 -21 8.5t-9 21.5zM283 361q-44 0 -87 -36t-43 -104
q0 -43 14.5 -74.5t36 -46.5t41.5 -22t38 -7q52 0 88.5 44.5t36.5 105.5q0 54 -37 97t-88 43z" />
    <glyph glyph-name="ydieresis" unicode="&#xff;" horiz-adv-x="426" 
d="M56 -85h-21q-13 0 -21.5 -9t-8.5 -21v-25q0 -12 8.5 -21t21.5 -9h21q6 0 12.5 0.5t23.5 5.5t32.5 13t35.5 26.5t35 43.5l220 483q6 14 6 19q0 11 -28 11h-38q-27 0 -41 -30l-96 -214l-4 -30l-4 30l-97 214q-14 30 -41 30h-38q-28 0 -28 -11l6 -19l153 -336l-50 -107
q-8 -17 -22.5 -27.5t-23.5 -13.5t-13 -3zM91 560q0 22 15 37t37 15t37 -15t15 -37t-15 -37t-37 -15t-37 15t-15 37zM234 560q0 22 15 37t37 15t37 -15t15 -37t-15 -37t-37 -15t-37 15t-15 37z" />
    <glyph glyph-name="Amacron" unicode="&#x100;" horiz-adv-x="562" 
d="M281 487l-4 -20l-75 -201h158l-75 201zM397 165h-232l-51 -135q-11 -30 -36 -30h-40q-34 0 -34 13l3 17l256 666q5 18 18 18q6 0 10.5 -4.5t6.5 -9.5l1 -4l256 -666q3 -8 3 -17q0 -13 -34 -13h-40q-25 0 -36 30zM183 845h196q13 0 21.5 -9t8.5 -21v-9q0 -12 -8.5 -21
t-21.5 -9h-196q-13 0 -21.5 9t-8.5 21v9q0 12 8.5 21t21.5 9z" />
    <glyph glyph-name="amacron" unicode="&#x101;" horiz-adv-x="478" 
d="M154 344q-16 -9 -22 -9q-12 0 -23 11l-25 28q-7 7 -7 18q0 14 10 21q60 39 147 39q92 0 138 -50.5t46 -124.5v-247q0 -13 -9 -21.5t-21 -8.5h-35q-21 0 -29 21q-36 -41 -109 -41q-72 0 -120 41.5t-48 103.5q0 76 55 111t135 35q53 0 87 -10v25q0 32 -31 53t-59 21
q-52 0 -80 -16zM324 139v33q-38 12 -91 12q-93 0 -93 -59q0 -16 21.5 -35.5t53.5 -19.5q82 0 109 69zM127 575h196q13 0 21.5 -9t8.5 -21v-9q0 -12 -8.5 -21t-21.5 -9h-196q-13 0 -21.5 9t-8.5 21v9q0 12 8.5 21t21.5 9z" />
    <glyph glyph-name="Abreve" unicode="&#x102;" horiz-adv-x="562" 
d="M281 487l-4 -20l-75 -201h158l-75 201zM397 165h-232l-51 -135q-11 -30 -36 -30h-40q-34 0 -34 13l3 17l256 666q5 18 18 18q6 0 10.5 -4.5t6.5 -9.5l1 -4l256 -666q3 -8 3 -17q0 -13 -34 -13h-40q-25 0 -36 30zM281 765q-74 0 -109 41q-9 13 -9 21q0 10 17 25t25 15
q10 0 18 -11q20 -26 58 -26t58 26q8 11 18 11q8 0 25 -15t17 -25q0 -8 -9 -21q-35 -41 -109 -41z" />
    <glyph glyph-name="abreve" unicode="&#x103;" horiz-adv-x="478" 
d="M154 344q-16 -9 -22 -9q-12 0 -23 11l-25 28q-7 7 -7 18q0 14 10 21q60 39 147 39q92 0 138 -50.5t46 -124.5v-247q0 -13 -9 -21.5t-21 -8.5h-35q-21 0 -29 21q-36 -41 -109 -41q-72 0 -120 41.5t-48 103.5q0 76 55 111t135 35q53 0 87 -10v25q0 32 -31 53t-59 21
q-52 0 -80 -16zM324 139v33q-38 12 -91 12q-93 0 -93 -59q0 -16 21.5 -35.5t53.5 -19.5q82 0 109 69zM233 495q-74 0 -109 41q-9 13 -9 21q0 10 17 25t25 15q10 0 18 -11q20 -26 58 -26t58 26q8 11 18 11q8 0 25 -15t17 -25q0 -8 -9 -21q-35 -41 -109 -41z" />
    <glyph glyph-name="Aogonek" unicode="&#x104;" horiz-adv-x="580" 
d="M281 487l-4 -20l-75 -201h158l-75 201zM459 0l-62 165h-232l-51 -135q-11 -30 -36 -30h-40q-34 0 -34 13l3 17l256 666q5 18 18 18q6 0 10.5 -4.5t6.5 -9.5l1 -4l256 -666q6 -16 6 -26q0 -6 -17 -18q-56 -37 -56 -70q0 -18 71 -36q17 -5 17 -17q0 -9 -7 -20l-10 -14
q-15 -19 -35 -19q-36 2 -62.5 13t-39 25t-19 27.5t-7.5 22.5l-1 10q0 9 3.5 19t6.5 16t12 16t12.5 13.5t15.5 14.5t14 13z" />
    <glyph glyph-name="aogonek" unicode="&#x105;" horiz-adv-x="469" 
d="M418 277v-241q0 -29 -19 -58l-7 -10.5t-7.5 -11.5t-5.5 -11t-4.5 -14t-1.5 -15q0 -23 53 -36q17 -5 17 -17q0 -9 -7 -20l-9 -13q-15 -19 -35 -19q-30 0 -53.5 9t-35.5 21t-20 27t-10.5 24.5t-2.5 15.5q0 42 54 92v21q-36 -41 -109 -41q-72 0 -120 41.5t-48 103.5
q0 76 55 111t135 35q53 0 87 -10v25q0 32 -31 53t-59 21q-52 0 -80 -16q-16 -9 -22 -9q-12 0 -23 11l-25 28q-7 7 -7 18q0 14 10 21q60 39 147 39q92 0 138 -50.5t46 -124.5zM324 139v33q-38 12 -91 12q-93 0 -93 -59q0 -16 21.5 -35.5t53.5 -19.5q82 0 109 69z" />
    <glyph glyph-name="Cacute" unicode="&#x106;" horiz-adv-x="723" 
d="M72 352q0 -154 108 -263t260 -109q86 0 164 39q30 15 30 39v63q0 34 -13 34q-3 0 -9.5 -3.5t-11.5 -7.5l-5 -4q-73 -54 -155 -54q-107 0 -177.5 77t-70.5 189t70.5 189t177.5 77q82 0 155 -54q19 -15 26 -15q13 0 13 34v63q0 24 -30 39q-78 39 -164 39q-152 0 -260 -109
t-108 -263zM348 830l107 113q7 7 17 7q13 0 21 -11l19 -24q6 -7 6 -18q0 -13 -12 -23l-122 -94q-9 -7 -17 -7q-7 0 -15 9l-10 13q-6 7 -6 14t12 21z" />
    <glyph glyph-name="cacute" unicode="&#x107;" horiz-adv-x="459" 
d="M47 217q0 -98 68 -167.5t165 -69.5q48 0 93 19q31 11 31 36v67q0 20 -15 20q-5 0 -15 -8q-43 -39 -94 -39q-58 0 -99 41.5t-41 100.5t41 100.5t99 41.5q51 0 94 -39q10 -8 15 -8q15 0 15 20v65q0 25 -31 36q-45 19 -93 19q-97 0 -165 -68.5t-68 -166.5zM188 560l107 113
q7 7 17 7q13 0 21 -11l19 -24q6 -7 6 -18q0 -13 -12 -23l-122 -94q-9 -7 -17 -7q-7 0 -15 9l-10 13q-6 7 -6 14t12 21z" />
    <glyph glyph-name="Ccircumflex" unicode="&#x108;" horiz-adv-x="723" 
d="M72 352q0 -154 108 -263t260 -109q86 0 164 39q30 15 30 39v63q0 34 -13 34q-3 0 -9.5 -3.5t-11.5 -7.5l-5 -4q-73 -54 -155 -54q-107 0 -177.5 77t-70.5 189t70.5 189t177.5 77q82 0 155 -54q19 -15 26 -15q13 0 13 34v63q0 24 -30 39q-78 39 -164 39q-152 0 -260 -109
t-108 -263zM410 950q12 0 28 -22l99 -135q16 -19 16 -29q0 -11 -22 -11h-32q-9 0 -18 5t-14 10l-5 5l-52 66l-52 -66q-17 -20 -37 -20h-33q-22 0 -22 11q0 5 17 29l99 135q16 22 28 22z" />
    <glyph glyph-name="ccircumflex" unicode="&#x109;" horiz-adv-x="477" 
d="M47 217q0 -98 68 -167.5t165 -69.5q48 0 93 19q31 11 31 36v67q0 20 -15 20q-5 0 -15 -8q-43 -39 -94 -39q-58 0 -99 41.5t-41 100.5t41 100.5t99 41.5q51 0 94 -39q10 -8 15 -8q15 0 15 20v65q0 25 -31 36q-45 19 -93 19q-97 0 -165 -68.5t-68 -166.5zM259 680
q12 0 28 -22l99 -135q16 -19 16 -29q0 -11 -22 -11h-32q-9 0 -18 5t-14 10l-5 5l-52 66l-52 -66q-17 -20 -37 -20h-33q-22 0 -22 11q0 5 17 29l99 135q16 22 28 22z" />
    <glyph glyph-name="Cdotaccent" unicode="&#x10a;" horiz-adv-x="723" 
d="M72 352q0 -154 108 -263t260 -109q86 0 164 39q30 15 30 39v63q0 34 -13 34q-3 0 -9.5 -3.5t-11.5 -7.5l-5 -4q-73 -54 -155 -54q-107 0 -177.5 77t-70.5 189t70.5 189t177.5 77q82 0 155 -54q19 -15 26 -15q13 0 13 34v63q0 24 -30 39q-78 39 -164 39q-152 0 -260 -109
t-108 -263zM358 838q0 22 15 37t37 15t37 -15t15 -37t-15 -37t-37 -15t-37 15t-15 37z" />
    <glyph glyph-name="cdotaccent" unicode="&#x10b;" horiz-adv-x="459" 
d="M47 217q0 -98 68 -167.5t165 -69.5q48 0 93 19q31 11 31 36v67q0 20 -15 20q-5 0 -15 -8q-43 -39 -94 -39q-58 0 -99 41.5t-41 100.5t41 100.5t99 41.5q51 0 94 -39q10 -8 15 -8q15 0 15 20v65q0 25 -31 36q-45 19 -93 19q-97 0 -165 -68.5t-68 -166.5zM207 568
q0 22 15 37t37 15t37 -15t15 -37t-15 -37t-37 -15t-37 15t-15 37z" />
    <glyph glyph-name="Ccaron" unicode="&#x10c;" horiz-adv-x="723" 
d="M72 352q0 154 108 263t260 109q86 0 164 -39q30 -15 30 -39v-63q0 -34 -13 -34q-3 0 -9.5 3.5t-11.5 7.5l-5 4q-73 54 -155 54q-107 0 -177.5 -77t-70.5 -189t70.5 -189t177.5 -77q82 0 155 54q19 15 26 15q13 0 13 -34v-63q0 -24 -30 -39q-78 -39 -164 -39
q-152 0 -260 109t-108 263zM410 770q-12 0 -28 22l-99 135q-17 24 -17 29q0 11 22 11h33q9 0 18 -5t14 -10l5 -5l52 -66l52 66q17 20 37 20h32q22 0 22 -11q0 -10 -16 -29l-99 -135q-16 -22 -28 -22z" />
    <glyph glyph-name="ccaron" unicode="&#x10d;" horiz-adv-x="477" 
d="M47 217q0 98 68 166.5t165 68.5q48 0 93 -19q31 -11 31 -36v-65q0 -20 -15 -20q-5 0 -15 8q-43 39 -94 39q-58 0 -99 -41.5t-41 -100.5t41 -100.5t99 -41.5q51 0 94 39q10 8 15 8q15 0 15 -20v-67q0 -25 -31 -36q-45 -19 -93 -19q-97 0 -165 69.5t-68 167.5zM259 500
q-12 0 -28 22l-99 135q-17 24 -17 29q0 11 22 11h33q9 0 18 -5t14 -10l5 -5l52 -66l52 66q17 20 37 20h32q22 0 22 -11q0 -10 -16 -29l-99 -135q-16 -22 -28 -22z" />
    <glyph glyph-name="Dcaron" unicode="&#x10e;" horiz-adv-x="707" 
d="M120 704h167q155 0 251.5 -101.5t96.5 -250.5t-96.5 -250.5t-251.5 -101.5h-167q-12 0 -21 8.5t-9 21.5v644q0 13 9 21.5t21 8.5zM287 603h-93v-502h93q105 0 169 74.5t64 176.5t-64 176.5t-169 74.5zM286 770q-12 0 -28 22l-99 135q-17 24 -17 29q0 11 22 11h33
q9 0 18 -5t14 -10l5 -5l52 -66l52 66q17 20 37 20h32q22 0 22 -11q0 -10 -16 -29l-99 -135q-16 -22 -28 -22z" />
    <glyph glyph-name="dcaron" unicode="&#x10f;" horiz-adv-x="593" 
d="M396 30q-50 -50 -120 -50q-98 0 -163 70t-65 171q0 99 64.5 165t163.5 66q28 0 62.5 -12.5t57.5 -35.5v280q0 13 9 21.5t21 8.5h34q12 0 21 -8.5t9 -21.5v-654q0 -13 -9 -21.5t-21 -8.5h-34q-12 0 -21 8.5t-9 21.5zM276 361q-51 0 -88 -43t-37 -97q0 -61 36.5 -105.5
t88.5 -44.5q18 0 38 7t41.5 22t36 46.5t14.5 74.5q0 68 -43 104t-87 36zM515 533l48 163q5 18 24 18q9 0 15 -2l26 -10q18 -7 18 -25q0 -5 -3 -13l-61 -161q-7 -17 -23 -17q-9 0 -15 2l-13 5q-19 7 -19 25q0 6 3 15z" />
    <glyph glyph-name="Dcroat" unicode="&#x110;" horiz-adv-x="735" 
d="M128 704h167q155 0 251.5 -101.5t96.5 -250.5t-96.5 -250.5t-251.5 -101.5h-167q-12 0 -21 8.5t-9 21.5v644q0 13 9 21.5t21 8.5zM295 603h-93v-502h93q105 0 169 74.5t64 176.5t-64 176.5t-169 74.5zM52 400h197q13 0 21.5 -9t8.5 -21v-41q0 -12 -8.5 -21t-21.5 -9h-197
q-13 0 -21.5 9t-8.5 21v41q0 12 8.5 21t21.5 9z" />
    <glyph glyph-name="dcroat" unicode="&#x111;" horiz-adv-x="586" 
d="M334 608h222q13 0 21.5 -9t8.5 -21v-34q0 -12 -8.5 -21t-21.5 -9h-222q-13 0 -21.5 9t-8.5 21v34q0 12 8.5 21t21.5 9zM398 30q-50 -50 -120 -50q-98 0 -163 70t-65 171q0 99 64.5 165t163.5 66q28 0 62.5 -12.5t57.5 -35.5v270q0 13 9 21.5t21 8.5h34q12 0 21 -8.5
t9 -21.5v-644q0 -13 -9 -21.5t-21 -8.5h-34q-12 0 -21 8.5t-9 21.5zM278 361q-51 0 -88 -43t-37 -97q0 -61 36.5 -105.5t88.5 -44.5q18 0 38 7t41.5 22t36 46.5t14.5 74.5q0 68 -43 104t-87 36z" />
    <glyph glyph-name="Emacron" unicode="&#x112;" horiz-adv-x="574" 
d="M461 101h-267v222h239q12 0 21 8.5t9 21.5v40q0 13 -9 21.5t-21 8.5h-239v180h267q12 0 21 8.5t9 21.5v41q0 13 -9 21.5t-21 8.5h-341q-12 0 -21 -8.5t-9 -21.5v-644q0 -13 9 -21.5t21 -8.5h341q12 0 21 8.5t9 21.5v41q0 13 -9 21.5t-21 8.5zM194 849h196q13 0 21.5 -9
t8.5 -21v-13q0 -12 -8.5 -21t-21.5 -9h-196q-13 0 -21.5 9t-8.5 21v13q0 12 8.5 21t21.5 9z" />
    <glyph glyph-name="emacron" unicode="&#x113;" horiz-adv-x="526" 
d="M263 360q-90 0 -106 -115h212q-16 115 -106 115zM428 43q-71 -63 -165 -63q-97 0 -156.5 68t-59.5 168t59.5 168t156.5 68t156.5 -68t59.5 -168v-13q0 -13 -9 -21.5t-21 -8.5h-292q15 -48 39.5 -73.5t66.5 -25.5q52 0 97 37q10 9 21 9q12 0 21 -9l26 -26q9 -9 9 -21
q0 -10 -9 -21zM167 585h196q13 0 21.5 -9t8.5 -21v-14q0 -12 -8.5 -21t-21.5 -9h-196q-13 0 -21.5 9t-8.5 21v14q0 12 8.5 21t21.5 9z" />
    <glyph glyph-name="Ebreve" unicode="&#x114;" horiz-adv-x="574" 
d="M194 101h267q12 0 21 -8.5t9 -21.5v-41q0 -13 -9 -21.5t-21 -8.5h-341q-12 0 -21 8.5t-9 21.5v644q0 13 9 21.5t21 8.5h341q12 0 21 -8.5t9 -21.5v-41q0 -13 -9 -21.5t-21 -8.5h-267v-180h239q12 0 21 -8.5t9 -21.5v-40q0 -13 -9 -21.5t-21 -8.5h-239v-222zM299 765
q-74 0 -109 41q-9 13 -9 21q0 10 17 25t25 15q10 0 18 -11q20 -26 58 -26t58 26q8 11 18 11q8 0 25 -15t17 -25q0 -8 -9 -21q-35 -41 -109 -41z" />
    <glyph glyph-name="ebreve" unicode="&#x115;" horiz-adv-x="526" 
d="M263 360q-90 0 -106 -115h212q-16 115 -106 115zM428 43q-71 -63 -165 -63q-97 0 -156.5 68t-59.5 168t59.5 168t156.5 68t156.5 -68t59.5 -168v-13q0 -13 -9 -21.5t-21 -8.5h-292q15 -48 39.5 -73.5t66.5 -25.5q52 0 97 37q10 9 21 9q12 0 21 -9l26 -26q9 -9 9 -21
q0 -10 -9 -21zM262 495q-74 0 -109 41q-9 13 -9 21q0 10 17 25t25 15q10 0 18 -11q20 -26 58 -26t58 26q8 11 18 11q8 0 25 -15t17 -25q0 -8 -9 -21q-35 -41 -109 -41z" />
    <glyph glyph-name="Edotaccent" unicode="&#x116;" horiz-adv-x="574" 
d="M461 101h-267v222h239q12 0 21 8.5t9 21.5v40q0 13 -9 21.5t-21 8.5h-239v180h267q12 0 21 8.5t9 21.5v41q0 13 -9 21.5t-21 8.5h-341q-12 0 -21 -8.5t-9 -21.5v-644q0 -13 9 -21.5t21 -8.5h341q12 0 21 8.5t9 21.5v41q0 13 -9 21.5t-21 8.5zM237 838q0 22 15 37t37 15
t37 -15t15 -37t-15 -37t-37 -15t-37 15t-15 37z" />
    <glyph glyph-name="edotaccent" unicode="&#x117;" horiz-adv-x="526" 
d="M263 360q-90 0 -106 -115h212q-16 115 -106 115zM428 43q-71 -63 -165 -63q-97 0 -156.5 68t-59.5 168t59.5 168t156.5 68t156.5 -68t59.5 -168v-13q0 -13 -9 -21.5t-21 -8.5h-292q15 -48 39.5 -73.5t66.5 -25.5q52 0 97 37q10 9 21 9q12 0 21 -9l26 -26q9 -9 9 -21
q0 -10 -9 -21zM210 568q0 22 15 37t37 15t37 -15t15 -37t-15 -37t-37 -15t-37 15t-15 37z" />
    <glyph glyph-name="Eogonek" unicode="&#x118;" horiz-adv-x="574" 
d="M461 0h-108q-9 -5 -22 -13.5t-34.5 -30.5t-21.5 -40t71 -36q17 -5 17 -17q0 -9 -7 -20l-10 -14q-15 -19 -35 -19q-36 2 -62.5 13t-39 25t-19 27.5t-7.5 22.5l-1 10q1 10 4.5 20t7 16.5t12 16t12 13t14.5 14t14 12.5h-126q-12 0 -21 8.5t-9 21.5v644q0 13 9 21.5t21 8.5
h341q12 0 21 -8.5t9 -21.5v-41q0 -13 -9 -21.5t-21 -8.5h-267v-180h239q12 0 21 -8.5t9 -21.5v-40q0 -13 -9 -21.5t-21 -8.5h-239v-222h267q12 0 21 -8.5t9 -21.5v-41q0 -13 -9 -21.5t-21 -8.5z" />
    <glyph glyph-name="eogonek" unicode="&#x119;" horiz-adv-x="526" 
d="M294 -190q-36 2 -62.5 13t-39 25t-19 27.5t-7.5 22.5l-1 10q3 37 48 78q-76 16 -121 80t-45 150q0 100 59.5 168t156.5 68t156.5 -68t59.5 -168v-13q0 -13 -9 -21.5t-21 -8.5h-292q15 -48 39.5 -73.5t66.5 -25.5q52 0 97 37q10 9 21 9q12 0 21 -9l26 -26q9 -9 9 -21
q0 -10 -9 -21q-50 -44 -115 -58q-55 -38 -55 -69q0 -18 71 -36q17 -5 17 -17q0 -9 -7 -20l-10 -14q-15 -19 -35 -19zM263 360q-90 0 -106 -115h212q-16 115 -106 115z" />
    <glyph glyph-name="Ecaron" unicode="&#x11a;" horiz-adv-x="574" 
d="M194 101h267q12 0 21 -8.5t9 -21.5v-41q0 -13 -9 -21.5t-21 -8.5h-341q-12 0 -21 8.5t-9 21.5v644q0 13 9 21.5t21 8.5h341q12 0 21 -8.5t9 -21.5v-41q0 -13 -9 -21.5t-21 -8.5h-267v-180h239q12 0 21 -8.5t9 -21.5v-40q0 -13 -9 -21.5t-21 -8.5h-239v-222zM289 770
q-12 0 -28 22l-99 135q-17 24 -17 29q0 11 22 11h33q9 0 18 -5t14 -10l5 -5l52 -66l52 66q17 20 37 20h32q22 0 22 -11q0 -10 -16 -29l-99 -135q-16 -22 -28 -22z" />
    <glyph glyph-name="ecaron" unicode="&#x11b;" horiz-adv-x="526" 
d="M263 360q-90 0 -106 -115h212q-16 115 -106 115zM428 43q-71 -63 -165 -63q-97 0 -156.5 68t-59.5 168t59.5 168t156.5 68t156.5 -68t59.5 -168v-13q0 -13 -9 -21.5t-21 -8.5h-292q15 -48 39.5 -73.5t66.5 -25.5q52 0 97 37q10 9 21 9q12 0 21 -9l26 -26q9 -9 9 -21
q0 -10 -9 -21zM262 500q-12 0 -28 22l-99 135q-17 24 -17 29q0 11 22 11h33q9 0 18 -5t14 -10l5 -5l52 -66l52 66q17 20 37 20h32q22 0 22 -11q0 -10 -16 -29l-99 -135q-16 -22 -28 -22z" />
    <glyph glyph-name="Gcircumflex" unicode="&#x11c;" horiz-adv-x="808" 
d="M718 295v-146q0 -45 -26 -70q-104 -99 -250 -99q-153 0 -261.5 109t-108.5 263t108.5 263t261.5 109q141 0 260 -108q9 -9 9 -21t-9 -21l-33 -34q-9 -9 -21 -9t-21 9q-83 78 -185 78q-108 0 -181 -77.5t-73 -188.5t72.5 -188.5t181.5 -77.5q97 0 170 63v146q0 13 9 21.5
t21 8.5h46q12 0 21 -8.5t9 -21.5zM432 950q12 0 28 -22l99 -135q16 -19 16 -29q0 -11 -22 -11h-32q-9 0 -18 5t-14 10l-5 5l-52 66l-52 -66q-17 -20 -37 -20h-33q-22 0 -22 11q0 5 17 29l99 135q16 22 28 22z" />
    <glyph glyph-name="gcircumflex" unicode="&#x11d;" horiz-adv-x="478" 
d="M230 363q34 0 56 -24t22 -60q0 -35 -22 -59.5t-56 -24.5q-33 0 -55 25t-22 59q0 36 22 60t55 24zM358 437l-21 -21q-47 36 -106 36q-72 0 -122 -49.5t-50 -123.5q0 -75 52 -123.5t121 -48.5q38 0 64 -31.5t26 -74.5q0 -40 -26 -69t-64 -29q-32 0 -58 22t-34 58
q-9 30 -30 30h-34q-12 0 -20.5 -5.5t-8.5 -15.5l1 -9q9 -77 60.5 -125t124.5 -48q78 0 131.5 55t53.5 135q0 44 -18.5 86t-48.5 68q52 52 52 118q0 39 -11 69l30 31q9 9 9 21t-9 21l-22 23q-9 9 -21 9t-21 -9zM231 680q12 0 28 -22l99 -135q16 -19 16 -29q0 -11 -22 -11h-32
q-9 0 -18 5t-14 10l-5 5l-52 66l-52 -66q-17 -20 -37 -20h-33q-22 0 -22 11q0 5 17 29l99 135q16 22 28 22z" />
    <glyph glyph-name="Gbreve" unicode="&#x11e;" horiz-adv-x="808" 
d="M718 295v-146q0 -45 -26 -70q-104 -99 -250 -99q-153 0 -261.5 109t-108.5 263t108.5 263t261.5 109q141 0 260 -108q9 -9 9 -21t-9 -21l-33 -34q-9 -9 -21 -9t-21 9q-83 78 -185 78q-108 0 -181 -77.5t-73 -188.5t72.5 -188.5t181.5 -77.5q97 0 170 63v146q0 13 9 21.5
t21 8.5h46q12 0 21 -8.5t9 -21.5zM442 765q-74 0 -109 41q-9 13 -9 21q0 10 17 25t25 15q10 0 18 -11q20 -26 58 -26t58 26q8 11 18 11q8 0 25 -15t17 -25q0 -8 -9 -21q-35 -41 -109 -41z" />
    <glyph glyph-name="gbreve" unicode="&#x11f;" horiz-adv-x="478" 
d="M230 363q-33 0 -55 -24t-22 -60q0 -34 22 -59t55 -25q34 0 56 24.5t22 59.5q0 36 -22 60t-56 24zM337 416l21 21q9 9 21 9t21 -9l22 -23q9 -9 9 -21t-9 -21l-30 -31q11 -30 11 -69q0 -66 -52 -118q30 -26 48.5 -68t18.5 -86q0 -80 -53.5 -135t-131.5 -55q-73 0 -124.5 48
t-60.5 125q-1 7 -1 9q0 10 8.5 15.5t20.5 5.5h34q21 0 30 -30q8 -36 34 -58t58 -22q38 0 64 29t26 69q0 43 -26 74.5t-64 31.5q-69 0 -121 48.5t-52 123.5q0 74 50 123.5t122 49.5q59 0 106 -36zM231 495q-74 0 -109 41q-9 13 -9 21q0 10 17 25t25 15q10 0 18 -11
q20 -26 58 -26t58 26q8 11 18 11q8 0 25 -15t17 -25q0 -8 -9 -21q-35 -41 -109 -41z" />
    <glyph glyph-name="Gdotaccent" unicode="&#x120;" horiz-adv-x="808" 
d="M718 295v-146q0 -45 -26 -70q-104 -99 -250 -99q-153 0 -261.5 109t-108.5 263t108.5 263t261.5 109q141 0 260 -108q9 -9 9 -21t-9 -21l-33 -34q-9 -9 -21 -9t-21 9q-83 78 -185 78q-108 0 -181 -77.5t-73 -188.5t72.5 -188.5t181.5 -77.5q97 0 170 63v146q0 13 9 21.5
t21 8.5h46q12 0 21 -8.5t9 -21.5zM380 838q0 22 15 37t37 15t37 -15t15 -37t-15 -37t-37 -15t-37 15t-15 37z" />
    <glyph glyph-name="gdotaccent" unicode="&#x121;" horiz-adv-x="478" 
d="M230 363q34 0 56 -24t22 -60q0 -35 -22 -59.5t-56 -24.5q-33 0 -55 25t-22 59q0 36 22 60t55 24zM358 437l-21 -21q-47 36 -106 36q-72 0 -122 -49.5t-50 -123.5q0 -75 52 -123.5t121 -48.5q38 0 64 -31.5t26 -74.5q0 -40 -26 -69t-64 -29q-32 0 -58 22t-34 58
q-9 30 -30 30h-34q-12 0 -20.5 -5.5t-8.5 -15.5l1 -9q9 -77 60.5 -125t124.5 -48q78 0 131.5 55t53.5 135q0 44 -18.5 86t-48.5 68q52 52 52 118q0 39 -11 69l30 31q9 9 9 21t-9 21l-22 23q-9 9 -21 9t-21 -9zM179 568q0 22 15 37t37 15t37 -15t15 -37t-15 -37t-37 -15
t-37 15t-15 37z" />
    <glyph glyph-name="Gcommaaccent" unicode="&#x122;" horiz-adv-x="808" 
d="M718 295v-146q0 -45 -26 -70q-104 -99 -250 -99q-153 0 -261.5 109t-108.5 263t108.5 263t261.5 109q141 0 260 -108q9 -9 9 -21t-9 -21l-33 -34q-9 -9 -21 -9t-21 9q-83 78 -185 78q-108 0 -181 -77.5t-73 -188.5t72.5 -188.5t181.5 -77.5q97 0 170 63v146q0 13 9 21.5
t21 8.5h46q12 0 21 -8.5t9 -21.5zM348 -238l48 163q5 18 23 18q9 0 15 -2l26 -10q19 -7 19 -25q0 -6 -3 -13l-61 -161q-7 -17 -24 -17q-9 0 -15 2l-13 5q-18 7 -18 25q0 6 3 15z" />
    <glyph glyph-name="gcommaaccent" unicode="&#x123;" horiz-adv-x="482" 
d="M234 363q34 0 56 -24t22 -60q0 -35 -22 -59.5t-56 -24.5q-33 0 -55 25t-22 59q0 36 22 60t55 24zM362 437l-21 -21q-47 36 -106 36q-72 0 -122 -49.5t-50 -123.5q0 -75 52 -123.5t121 -48.5q38 0 64 -31.5t26 -74.5q0 -40 -26 -69t-64 -29q-32 0 -58 22t-34 58
q-9 30 -30 30h-34q-12 0 -20.5 -5.5t-8.5 -15.5l1 -9q9 -77 60.5 -125t124.5 -48q78 0 131.5 55t53.5 135q0 44 -18.5 86t-48.5 68q52 52 52 118q0 39 -11 69l30 31q9 9 9 21t-9 21l-22 23q-9 9 -21 9t-21 -9zM161 539l92 188q9 18 22 18q8 0 16.5 -5.5t8.5 -12.5
q0 -9 -3 -15l-53 -109q21 -6 34.5 -24t13.5 -40q0 -28 -19 -46.5t-47 -18.5q-27 0 -46 18.5t-19 46.5z" />
    <glyph glyph-name="Hcircumflex" unicode="&#x124;" horiz-adv-x="668" 
d="M473 402v272q0 13 9 21.5t21 8.5h44q12 0 21 -8.5t9 -21.5v-644q0 -13 -9 -21.5t-21 -8.5h-44q-12 0 -21 8.5t-9 21.5v271h-279v-271q0 -13 -9 -21.5t-21 -8.5h-44q-12 0 -21 8.5t-9 21.5v644q0 13 9 21.5t21 8.5h44q12 0 21 -8.5t9 -21.5v-272h279zM332 950q12 0 28 -22
l99 -135q16 -19 16 -29q0 -11 -22 -11h-32q-9 0 -18 5t-14 10l-5 5l-52 66l-52 -66q-17 -20 -37 -20h-33q-22 0 -22 11q0 5 17 29l99 135q16 22 28 22z" />
    <glyph glyph-name="hcircumflex" unicode="&#x125;" horiz-adv-x="520" 
d="M448 30v206q0 216 -182 216q-50 0 -100 -48v270q0 13 -9 21.5t-21 8.5h-34q-12 0 -21 -8.5t-9 -21.5v-644q0 -13 9 -21.5t21 -8.5h34q12 0 21 8.5t9 21.5v249q37 80 100 80q47 0 68 -41t21 -101v-187q0 -13 9 -21.5t21 -8.5h33q12 0 21 8.5t9 21.5zM266 940q12 0 28 -22
l99 -135q16 -19 16 -29q0 -11 -22 -11h-32q-9 0 -18 5t-14 10l-5 5l-52 66l-52 -66q-17 -20 -37 -20h-33q-22 0 -22 11q0 5 17 29l99 135q16 22 28 22z" />
    <glyph glyph-name="Hbar" unicode="&#x126;" horiz-adv-x="794" 
d="M80 603h74v71q0 13 9 21.5t21 8.5h44q12 0 21 -8.5t9 -21.5v-71h279v71q0 13 9 21.5t21 8.5h44q12 0 21 -8.5t9 -21.5v-71h74q13 0 21.5 -9t8.5 -21v-40q0 -12 -8.5 -21t-21.5 -9h-74v-473q0 -13 -9 -21.5t-21 -8.5h-44q-12 0 -21 8.5t-9 21.5v271h-279v-271
q0 -13 -9 -21.5t-21 -8.5h-44q-12 0 -21 8.5t-9 21.5v473h-74q-13 0 -21.5 9t-8.5 21v40q0 12 8.5 21t21.5 9zM537 402v101h-279v-101h279z" />
    <glyph glyph-name="hbar" unicode="&#x127;" horiz-adv-x="559" 
d="M47 608h64v66q0 13 9 21.5t21 8.5h34q12 0 21 -8.5t9 -21.5v-66h64q13 0 21.5 -9t8.5 -21v-34q0 -12 -8.5 -21t-21.5 -9h-64v-110q49 48 100 48q182 0 182 -216v-206q0 -13 -9 -21.5t-21 -8.5h-33q-12 0 -21 8.5t-9 21.5v187q0 60 -21 101t-68 41q-63 0 -100 -80v-249
q0 -13 -9 -21.5t-21 -8.5h-34q-12 0 -21 8.5t-9 21.5v484h-64q-13 0 -21.5 9t-8.5 21v34q0 12 8.5 21t21.5 9z" />
    <glyph glyph-name="Itilde" unicode="&#x128;" horiz-adv-x="261" 
d="M183 674v-644q0 -13 -9 -21.5t-21 -8.5h-44q-12 0 -21 8.5t-9 21.5v644q0 13 9 21.5t21 8.5h44q12 0 21 -8.5t9 -21.5zM175 838q7 0 10 7q5 17 27 17h27q18 0 18 -17q0 -25 -20 -53.5t-62 -28.5q-21 0 -45.5 14t-42.5 14q-7 0 -10 -7q-5 -17 -27 -17h-27q-18 0 -18 17
q0 25 20 53.5t62 28.5q21 0 45.5 -14t42.5 -14z" />
    <glyph glyph-name="itilde" unicode="&#x129;" horiz-adv-x="272" 
d="M180 566q6 0 10 7q5 17 27 17h27q18 0 18 -17q0 -25 -20 -53.5t-62 -28.5q-21 0 -45.5 14t-42.5 14q-6 0 -10 -7q-5 -17 -27 -17h-27q-18 0 -18 17q0 25 20 53.5t62 28.5q21 0 45.5 -14t42.5 -14zM183 402v-372q0 -13 -9 -21.5t-21 -8.5h-34q-12 0 -21 8.5t-9 21.5v372
q0 13 9 21.5t21 8.5h34q12 0 21 -8.5t9 -21.5z" />
    <glyph glyph-name="Imacron" unicode="&#x12a;" horiz-adv-x="265" 
d="M185 674v-644q0 -13 -9 -21.5t-21 -8.5h-44q-12 0 -21 8.5t-9 21.5v644q0 13 9 21.5t21 8.5h44q12 0 21 -8.5t9 -21.5zM34 847h196q13 0 21.5 -9t8.5 -21v-9q0 -12 -8.5 -21t-21.5 -9h-196q-13 0 -21.5 9t-8.5 21v9q0 12 8.5 21t21.5 9z" />
    <glyph glyph-name="imacron" unicode="&#x12b;" horiz-adv-x="276" 
d="M40 575h196q13 0 21.5 -9t8.5 -21v-9q0 -12 -8.5 -21t-21.5 -9h-196q-13 0 -21.5 9t-8.5 21v9q0 12 8.5 21t21.5 9zM188 402v-372q0 -13 -9 -21.5t-21 -8.5h-34q-12 0 -21 8.5t-9 21.5v372q0 13 9 21.5t21 8.5h34q12 0 21 -8.5t9 -21.5z" />
    <glyph glyph-name="Ibreve" unicode="&#x12c;" horiz-adv-x="265" 
d="M185 674v-644q0 -13 -9 -21.5t-21 -8.5h-44q-12 0 -21 8.5t-9 21.5v644q0 13 9 21.5t21 8.5h44q12 0 21 -8.5t9 -21.5zM133 767q-74 0 -109 41q-9 13 -9 21q0 10 17 25t25 15q10 0 18 -11q20 -26 58 -26t58 26q8 11 18 11q8 0 25 -15t17 -25q0 -8 -9 -21
q-35 -41 -109 -41z" />
    <glyph glyph-name="ibreve" unicode="&#x12d;" horiz-adv-x="256" 
d="M128 495q-74 0 -109 41q-9 13 -9 21q0 10 17 25t25 15q10 0 18 -11q20 -26 58 -26t58 26q8 11 18 11q8 0 25 -15t17 -25q0 -8 -9 -21q-35 -41 -109 -41zM175 402v-372q0 -13 -9 -21.5t-21 -8.5h-34q-12 0 -21 8.5t-9 21.5v372q0 13 9 21.5t21 8.5h34q12 0 21 -8.5
t9 -21.5z" />
    <glyph glyph-name="Iogonek" unicode="&#x12e;" horiz-adv-x="274" 
d="M78 0v674q0 13 9 21.5t21 8.5h44q12 0 21 -8.5t9 -21.5v-638q0 -29 -19 -58l-7 -10.5t-7.5 -11.5t-5.5 -11t-4.5 -14t-1.5 -15q0 -23 53 -36q17 -5 17 -17q0 -9 -7 -20l-9 -13q-15 -19 -35 -19q-37 0 -65 13t-41.5 31t-19.5 32t-6 21q0 42 54 92z" />
    <glyph glyph-name="iogonek" unicode="&#x12f;" horiz-adv-x="193" 
d="M56 523q0 23 16.5 39.5t39.5 16.5t39.5 -16.5t16.5 -39.5t-16.5 -39.5t-39.5 -16.5t-39.5 16.5t-16.5 39.5zM64 0v402q0 13 9 21.5t21 8.5h34q12 0 21 -8.5t9 -21.5v-366q0 -29 -19 -58l-7 -10.5t-7.5 -11.5t-5.5 -11t-4.5 -14t-1.5 -15q0 -23 53 -36q17 -5 17 -17
q0 -9 -7 -20l-9 -13q-15 -19 -35 -19q-30 0 -53.5 9t-35.5 21t-20 27t-10.5 24.5t-2.5 15.5q0 42 54 92z" />
    <glyph glyph-name="Idotaccent" unicode="&#x130;" horiz-adv-x="277" 
d="M191 674v-644q0 -13 -9 -21.5t-21 -8.5h-44q-12 0 -21 8.5t-9 21.5v644q0 13 9 21.5t21 8.5h44q12 0 21 -8.5t9 -21.5zM87 840q0 22 15 37t37 15t37 -15t15 -37t-15 -37t-37 -15t-37 15t-15 37z" />
    <glyph glyph-name="dotlessi" unicode="&#x131;" horiz-adv-x="165" 
d="M155 402v-372q0 -13 -9 -21.5t-21 -8.5h-34q-12 0 -21 8.5t-9 21.5v372q0 13 9 21.5t21 8.5h34q12 0 21 -8.5t9 -21.5z" />
    <glyph glyph-name="Jcircumflex" unicode="&#x134;" horiz-adv-x="428" 
d="M326 674v-525q0 -68 -50.5 -118.5t-121.5 -50.5q-72 0 -120.5 53t-48.5 112q0 25 28 25h44q24 0 32 -30q5 -20 22 -37t43 -17q29 0 48.5 24t19.5 68v425h-132q-12 0 -21 8.5t-9 21.5v41q0 13 9 21.5t21 8.5h206q12 0 21 -8.5t9 -21.5zM195 950q12 0 28 -22l99 -135
q16 -19 16 -29q0 -11 -22 -11h-32q-9 0 -18 5t-14 10l-5 5l-52 66l-52 -66q-17 -20 -37 -20h-33q-22 0 -22 11q0 5 17 29l99 135q16 22 28 22z" />
    <glyph glyph-name="jcircumflex" unicode="&#x135;" horiz-adv-x="249" 
d="M175 36v366q0 13 -9 21.5t-21 8.5h-34q-12 0 -21 -8.5t-9 -21.5v-397q0 -31 -20 -52.5t-55 -28.5q-30 -8 -30 -26v-40q0 -12 8.5 -20t21.5 -8q25 0 53 12.5t54.5 36t44 65t17.5 92.5zM137 680q12 0 28 -22l99 -135q16 -19 16 -29q0 -11 -22 -11h-32q-9 0 -18 5t-14 10
l-5 5l-52 66l-52 -66q-17 -20 -37 -20h-33q-22 0 -22 11q0 5 17 29l99 135q16 22 28 22z" />
    <glyph glyph-name="Kcommaaccent" unicode="&#x136;" horiz-adv-x="615" 
d="M530 672l-238 -305l266 -335q10 -12 10 -19q0 -13 -39 -13h-62q-4 0 -7.5 1t-6.5 3t-5.5 3.5t-6 5t-5 5.5t-5.5 6.5t-5 5.5l-200 251l-32 -43v-208q0 -13 -9 -21.5t-21 -8.5h-44q-12 0 -21 8.5t-9 21.5v644q0 13 9 21.5t21 8.5h44q12 0 21 -8.5t9 -21.5v-260l200 260
q2 2 6.5 7.5t6.5 7.5l6 6t6.5 5t7 2.5t8.5 1.5h66q39 0 39 -13q0 -3 -2.5 -8t-5.5 -8zM237 -238l48 163q5 18 23 18q9 0 15 -2l26 -10q19 -7 19 -25q0 -6 -3 -13l-61 -161q-7 -17 -24 -17q-9 0 -15 2l-13 5q-18 7 -18 25q0 6 3 15z" />
    <glyph glyph-name="kcommaaccent" unicode="&#x137;" horiz-adv-x="448" 
d="M232 251l198 -219q13 -13 13 -19q0 -13 -39 -13h-34q-27 0 -45 19l-159 175v-164q0 -13 -9 -21.5t-21 -8.5h-34q-12 0 -21 8.5t-9 21.5v654q0 13 9 21.5t21 8.5h34q12 0 21 -8.5t9 -21.5v-377l122 107q21 18 44 18h42q39 0 39 -13q0 -9 -13 -19zM166 -238l48 163
q5 18 23 18q9 0 15 -2l26 -10q19 -7 19 -25q0 -6 -3 -13l-61 -161q-7 -17 -24 -17q-9 0 -15 2l-13 5q-18 7 -18 25q0 6 3 15z" />
    <glyph glyph-name="kgreenlandic" unicode="&#x138;" horiz-adv-x="436" 
d="M220 231l188 -199q13 -13 13 -19q0 -13 -39 -13h-42q-27 0 -45 19l-141 155v-144q0 -13 -9 -21.5t-21 -8.5h-34q-12 0 -21 8.5t-9 21.5v372q0 13 9 21.5t21 8.5h34q12 0 21 -8.5t9 -21.5v-115l122 127q21 18 44 18h42q39 0 39 -13q0 -9 -13 -19z" />
    <glyph glyph-name="Lacute" unicode="&#x139;" horiz-adv-x="540" 
d="M194 674v-573h280q12 0 21 -8.5t9 -21.5v-41q0 -13 -9 -21.5t-21 -8.5h-354q-12 0 -21 8.5t-9 21.5v644q0 13 9 21.5t21 8.5h44q12 0 21 -8.5t9 -21.5zM215 830l107 113q7 7 17 7q13 0 21 -11l19 -24q6 -7 6 -18q0 -13 -12 -23l-122 -94q-9 -7 -17 -7q-7 0 -15 9l-10 13
q-6 7 -6 14t12 21z" />
    <glyph glyph-name="lacute" unicode="&#x13a;" horiz-adv-x="230" 
d="M165 684v-654q0 -13 -9 -21.5t-21 -8.5h-34q-12 0 -21 8.5t-9 21.5v654q0 13 9 21.5t21 8.5h34q12 0 21 -8.5t9 -21.5zM29 813l107 113q7 7 17 7q13 0 21 -11l19 -24q6 -7 6 -18q0 -13 -12 -23l-122 -94q-9 -7 -17 -7t-15 9l-10 13q-6 7 -6 14t12 21z" />
    <glyph glyph-name="Lcommaaccent" unicode="&#x13b;" horiz-adv-x="540" 
d="M194 674v-573h280q12 0 21 -8.5t9 -21.5v-41q0 -13 -9 -21.5t-21 -8.5h-354q-12 0 -21 8.5t-9 21.5v644q0 13 9 21.5t21 8.5h44q12 0 21 -8.5t9 -21.5zM230 -238l48 163q5 18 23 18q9 0 15 -2l26 -10q19 -7 19 -25q0 -6 -3 -13l-61 -161q-7 -17 -24 -17q-9 0 -15 2l-13 5
q-18 7 -18 25q0 6 3 15z" />
    <glyph glyph-name="lcommaaccent" unicode="&#x13c;" horiz-adv-x="182" 
d="M141 684v-654q0 -13 -9 -21.5t-21 -8.5h-34q-12 0 -21 8.5t-9 21.5v654q0 13 9 21.5t21 8.5h34q12 0 21 -8.5t9 -21.5zM17 -238l48 163q5 18 23 18q9 0 15 -2l26 -10q19 -7 19 -25q0 -6 -3 -13l-61 -161q-7 -17 -24 -17q-9 0 -15 2l-13 5q-18 7 -18 25q0 6 3 15z" />
    <glyph glyph-name="Lcaron" unicode="&#x13d;" horiz-adv-x="539" 
d="M193 674v-573h280q12 0 21 -8.5t9 -21.5v-41q0 -13 -9 -21.5t-21 -8.5h-354q-12 0 -21 8.5t-9 21.5v644q0 13 9 21.5t21 8.5h44q12 0 21 -8.5t9 -21.5zM140 770q-12 0 -28 22l-99 135q-17 24 -17 29q0 11 22 11h33q9 0 18 -5t14 -10l5 -5l52 -66l52 66q17 20 37 20h32
q22 0 22 -11q0 -10 -16 -29l-99 -135q-16 -22 -28 -22z" />
    <glyph glyph-name="lcaron" unicode="&#x13e;" horiz-adv-x="338" 
d="M118 684v-654q0 -13 -9 -21.5t-21 -8.5h-34q-12 0 -21 8.5t-9 21.5v654q0 13 9 21.5t21 8.5h34q12 0 21 -8.5t9 -21.5zM314 639l-92 -188q-9 -18 -22 -18q-8 0 -16.5 5.5t-8.5 12.5q0 9 3 15l53 109q-21 6 -34.5 24t-13.5 40q0 28 19 46.5t47 18.5q27 0 46 -18.5
t19 -46.5z" />
    <glyph glyph-name="Ldot" unicode="&#x13f;" horiz-adv-x="541" 
d="M194 674v-573h280q12 0 21 -8.5t9 -21.5v-41q0 -13 -9 -21.5t-21 -8.5h-354q-12 0 -21 8.5t-9 21.5v644q0 13 9 21.5t21 8.5h44q12 0 21 -8.5t9 -21.5zM393 376q0 23 16.5 39.5t39.5 16.5t39.5 -16.5t16.5 -39.5t-16.5 -39.5t-39.5 -16.5t-39.5 16.5t-16.5 39.5z" />
    <glyph glyph-name="ldot" unicode="&#x140;" horiz-adv-x="304" 
d="M118 684v-654q0 -13 -9 -21.5t-21 -8.5h-34q-12 0 -21 8.5t-9 21.5v654q0 13 9 21.5t21 8.5h34q12 0 21 -8.5t9 -21.5zM168 376q0 23 16.5 39.5t39.5 16.5t39.5 -16.5t16.5 -39.5t-16.5 -39.5t-39.5 -16.5t-39.5 16.5t-16.5 39.5z" />
    <glyph glyph-name="Lslash" unicode="&#x141;" horiz-adv-x="537" 
d="M247 334l-56 -24v-209h280q12 0 21 -8.5t9 -21.5v-41q0 -13 -9 -21.5t-21 -8.5h-354q-12 0 -21 8.5t-9 21.5v235l-41 -17q-12 -5 -17 -5q-13 0 -13 34v38q0 29 30 41l41 17v301q0 13 9 21.5t21 8.5h44q12 0 21 -8.5t9 -21.5v-257l56 24q11 5 17 5q13 0 13 -34v-37
q0 -29 -30 -41z" />
    <glyph glyph-name="lslash" unicode="&#x142;" horiz-adv-x="288" 
d="M182 684v-275l52 24q11 5 17 5q13 0 13 -34v-27q0 -29 -30 -41l-52 -24v-282q0 -13 -9 -21.5t-21 -8.5h-34q-12 0 -21 8.5t-9 21.5v239l-36 -16q-12 -5 -17 -5q-13 0 -13 34v28q0 29 30 41l36 16v317q0 13 9 21.5t21 8.5h34q12 0 21 -8.5t9 -21.5z" />
    <glyph glyph-name="Nacute" unicode="&#x143;" horiz-adv-x="725" 
d="M202 454l384 -441q23 -23 36 -23t13 38v646q0 12 -8.5 21t-21.5 9h-44q-13 0 -21.5 -9t-8.5 -21v-427l2 -30l-11 31l-386 443q-21 23 -34 23q-12 0 -12 -38v-646q0 -12 8.5 -21t21.5 -9h44q13 0 21.5 9t8.5 21v424l-2 30zM280 830l107 113q7 7 17 7q13 0 21 -11l19 -24
q6 -7 6 -18q0 -13 -12 -23l-122 -94q-9 -7 -17 -7q-7 0 -15 9l-10 13q-6 7 -6 14t12 21z" />
    <glyph glyph-name="nacute" unicode="&#x144;" 
d="M436 30v206q0 216 -182 216q-50 0 -100 -48q0 11 -9 19.5t-21 8.5h-34q-12 0 -21 -8.5t-9 -21.5v-372q0 -13 9 -21.5t21 -8.5h34q12 0 21 8.5t9 21.5v249q37 80 100 80q47 0 67.5 -41t20.5 -101v-187q0 -13 9 -21.5t21 -8.5h34q12 0 21 8.5t9 21.5zM166 560l107 113
q7 7 17 7q13 0 21 -11l19 -24q6 -7 6 -18q0 -13 -12 -23l-122 -94q-9 -7 -17 -7q-7 0 -15 9l-10 13q-6 7 -6 14t12 21z" />
    <glyph glyph-name="Ncommaaccent" unicode="&#x145;" horiz-adv-x="725" 
d="M586 13l-384 441l-10 30l2 -30v-424q0 -12 -8.5 -21t-21.5 -9h-44q-13 0 -21.5 9t-8.5 21v646q0 38 12 38q6 0 14.5 -6t13.5 -12l6 -5l386 -443l11 -31l-2 30v427q0 12 8.5 21t21.5 9h44q13 0 21.5 -9t8.5 -21v-646q0 -38 -13 -38q-6 0 -15 6t-15 12zM285 -239l48 163
q5 18 23 18q9 0 15 -2l26 -10q19 -7 19 -25q0 -5 -3 -13l-61 -161q-7 -17 -24 -17q-9 0 -15 2l-13 5q-18 7 -18 25q0 6 3 15z" />
    <glyph glyph-name="ncommaaccent" unicode="&#x146;" 
d="M436 236v-206q0 -13 -9 -21.5t-21 -8.5h-34q-12 0 -21 8.5t-9 21.5v187q0 60 -20.5 101t-67.5 41q-63 0 -100 -80v-249q0 -13 -9 -21.5t-21 -8.5h-34q-12 0 -21 8.5t-9 21.5v372q0 13 9 21.5t21 8.5h34q12 0 21 -8.5t9 -19.5q50 48 100 48q182 0 182 -216zM165 -242
l48 163q5 18 23 18q9 0 15 -2l26 -10q19 -7 19 -25q0 -6 -3 -13l-61 -161q-7 -17 -24 -17q-9 0 -15 2l-13 5q-18 7 -18 25q0 6 3 15z" />
    <glyph glyph-name="Ncaron" unicode="&#x147;" horiz-adv-x="725" 
d="M586 13l-384 441l-10 30l2 -30v-424q0 -12 -8.5 -21t-21.5 -9h-44q-13 0 -21.5 9t-8.5 21v646q0 38 12 38q6 0 14.5 -6t13.5 -12l6 -5l386 -443l11 -31l-2 30v427q0 12 8.5 21t21.5 9h44q13 0 21.5 -9t8.5 -21v-646q0 -38 -13 -38q-6 0 -15 6t-15 12zM354 770
q-12 0 -28 22l-99 135q-17 24 -17 29q0 11 22 11h33q9 0 18 -5t14 -10l5 -5l52 -66l52 66q17 20 37 20h32q22 0 22 -11q0 -10 -16 -29l-99 -135q-16 -22 -28 -22z" />
    <glyph glyph-name="ncaron" unicode="&#x148;" 
d="M436 236v-206q0 -13 -9 -21.5t-21 -8.5h-34q-12 0 -21 8.5t-9 21.5v187q0 60 -20.5 101t-67.5 41q-63 0 -100 -80v-249q0 -13 -9 -21.5t-21 -8.5h-34q-12 0 -21 8.5t-9 21.5v372q0 13 9 21.5t21 8.5h34q12 0 21 -8.5t9 -19.5q50 48 100 48q182 0 182 -216zM254 500
q-12 0 -28 22l-99 135q-17 24 -17 29q0 11 22 11h33q9 0 18 -5t14 -10l5 -5l52 -66l52 66q17 20 37 20h32q22 0 22 -11q0 -10 -16 -29l-99 -135q-16 -22 -28 -22z" />
    <glyph glyph-name="napostrophe" unicode="&#x149;" 
d="M436 30v206q0 216 -182 216q-50 0 -100 -48q0 11 -9 19.5t-21 8.5h-34q-12 0 -21 -8.5t-9 -21.5v-372q0 -13 9 -21.5t21 -8.5h34q12 0 21 8.5t9 21.5v249q37 80 100 80q47 0 67.5 -41t20.5 -101v-187q0 -13 9 -21.5t21 -8.5h34q12 0 21 8.5t9 21.5zM69 512l48 163
q5 18 23 18q9 0 15 -2l26 -10q19 -7 19 -25q0 -6 -3 -13l-61 -161q-7 -17 -24 -17q-9 0 -15 2l-13 5q-18 7 -18 25q0 6 3 15z" />
    <glyph glyph-name="Omacron" unicode="&#x14c;" horiz-adv-x="888" 
d="M444 -20q152 0 262 109t110 263q0 155 -109.5 263.5t-262.5 108.5q-154 0 -263 -109t-109 -263t109 -263t263 -109zM444 618q108 0 179.5 -77t71.5 -189t-71.5 -189t-179.5 -77q-109 0 -180 77t-71 189t71 189t180 77zM339 845h196q13 0 21.5 -9t8.5 -21v-9
q0 -12 -8.5 -21t-21.5 -9h-196q-13 0 -21.5 9t-8.5 21v9q0 12 8.5 21t21.5 9z" />
    <glyph glyph-name="omacron" unicode="&#x14d;" horiz-adv-x="566" 
d="M283 -20q98 0 167 69t69 167t-69 167t-167 69t-167 -69t-69 -167t69 -167t167 -69zM283 360q58 0 95.5 -41.5t37.5 -101.5t-37.5 -101.5t-95.5 -41.5t-95.5 41.5t-37.5 101.5t37.5 101.5t95.5 41.5zM189 575h196q13 0 21.5 -9t8.5 -21v-9q0 -12 -8.5 -21t-21.5 -9h-196
q-13 0 -21.5 9t-8.5 21v9q0 12 8.5 21t21.5 9z" />
    <glyph glyph-name="Obreve" unicode="&#x14e;" horiz-adv-x="888" 
d="M444 -20q-154 0 -263 109t-109 263t109 263t263 109q153 0 262.5 -108.5t109.5 -263.5q0 -154 -110 -263t-262 -109zM444 618q-109 0 -180 -77t-71 -189t71 -189t180 -77q108 0 179.5 77t71.5 189t-71.5 189t-179.5 77zM444 765q-74 0 -109 41q-9 13 -9 21q0 10 17 25
t25 15q10 0 18 -11q20 -26 58 -26t58 26q8 11 18 11q8 0 25 -15t17 -25q0 -8 -9 -21q-35 -41 -109 -41z" />
    <glyph glyph-name="obreve" unicode="&#x14f;" horiz-adv-x="566" 
d="M283 -20q-98 0 -167 69t-69 167t69 167t167 69t167 -69t69 -167t-69 -167t-167 -69zM283 360q-58 0 -95.5 -41.5t-37.5 -101.5t37.5 -101.5t95.5 -41.5t95.5 41.5t37.5 101.5t-37.5 101.5t-95.5 41.5zM283 495q-74 0 -109 41q-9 13 -9 21q0 10 17 25t25 15q10 0 18 -11
q20 -26 58 -26t58 26q8 11 18 11q8 0 25 -15t17 -25q0 -8 -9 -21q-35 -41 -109 -41z" />
    <glyph glyph-name="Ohungarumlaut" unicode="&#x150;" horiz-adv-x="888" 
d="M444 -20q152 0 262 109t110 263q0 155 -109.5 263.5t-262.5 108.5q-154 0 -263 -109t-109 -263t109 -263t263 -109zM444 618q108 0 179.5 -77t71.5 -189t-71.5 -189t-179.5 -77q-109 0 -180 77t-71 189t71 189t180 77zM279 826l107 113q7 7 17 7q13 0 21 -11l19 -24
q6 -7 6 -18q0 -13 -12 -23l-122 -94q-9 -7 -17 -7t-15 9l-10 13q-6 7 -6 14t12 21zM448 826l107 113q7 7 17 7q13 0 21 -11l19 -24q6 -7 6 -18q0 -13 -12 -23l-122 -94q-9 -7 -17 -7q-7 0 -15 9l-10 13q-6 7 -6 14t12 21z" />
    <glyph glyph-name="ohungarumlaut" unicode="&#x151;" horiz-adv-x="566" 
d="M283 -20q98 0 167 69t69 167t-69 167t-167 69t-167 -69t-69 -167t69 -167t167 -69zM283 360q58 0 95.5 -41.5t37.5 -101.5t-37.5 -101.5t-95.5 -41.5t-95.5 41.5t-37.5 101.5t37.5 101.5t95.5 41.5zM127 556l107 113q7 7 17 7q13 0 21 -11l19 -24q6 -7 6 -18
q0 -13 -12 -23l-122 -94q-9 -7 -17 -7t-15 9l-10 13q-6 7 -6 14t12 21zM296 556l107 113q7 7 17 7q13 0 21 -11l19 -24q6 -7 6 -18q0 -13 -12 -23l-122 -94q-9 -7 -17 -7q-7 0 -15 9l-10 13q-6 7 -6 14t12 21z" />
    <glyph glyph-name="OE" unicode="&#x152;" horiz-adv-x="909" 
d="M796 0h-371q-154 0 -253.5 99t-99.5 253t99.5 253t253.5 99h371q12 0 21 -8.5t9 -21.5v-41q0 -13 -9 -21.5t-21 -8.5h-267v-180h239q12 0 21 -8.5t9 -21.5v-40q0 -13 -9 -21.5t-21 -8.5h-239v-222h267q12 0 21 -8.5t9 -21.5v-41q0 -13 -9 -21.5t-21 -8.5zM425 106v492
q-110 0 -176 -67.5t-66 -178.5t66 -178.5t176 -67.5z" />
    <glyph glyph-name="oe" unicode="&#x153;" horiz-adv-x="905" 
d="M283 360q-59 0 -101 -42t-42 -101t42 -101t101 -42t101 42t42 101t-42 101t-101 42zM642 360q-48 0 -74 -28.5t-42 -79.5h232q-16 51 -42 79.5t-74 28.5zM828 173h-302q30 -99 116 -99q52 0 97 37q11 9 21 9q12 0 21 -9l26 -26q9 -9 9 -21q0 -10 -9 -21q-71 -63 -165 -63
q-56 0 -101.5 25t-72.5 65q-33 -42 -81.5 -66t-103.5 -24q-98 0 -167 69t-69 167t69 167t167 69q116 0 186 -89q61 89 173 89q97 0 156.5 -68t59.5 -168v-13q0 -13 -9 -21.5t-21 -8.5z" />
    <glyph glyph-name="Racute" unicode="&#x154;" horiz-adv-x="551" 
d="M233 704h-113q-12 0 -21 -8.5t-9 -21.5v-644q0 -13 9 -21.5t21 -8.5h44q12 0 21 8.5t9 21.5v275h51l141 -274q16 -31 37 -31h47q34 0 34 13q0 11 -6 23l-144 282q73 22 105.5 72.5t32.5 114.5q0 53 -16.5 91.5t-40.5 59t-61.5 32t-68 14t-72.5 2.5zM271 603
q104 0 104 -98q0 -40 -25.5 -69.5t-78.5 -29.5h-77v197h77zM192 830l107 113q7 7 17 7q13 0 21 -11l19 -24q6 -7 6 -18q0 -13 -12 -23l-122 -94q-9 -7 -17 -7q-7 0 -15 9l-10 13q-6 7 -6 14t12 21z" />
    <glyph glyph-name="racute" unicode="&#x155;" horiz-adv-x="341" 
d="M291 354q23 0 28 21l10 38q2 7 2 10q0 18 -21 24q-25 5 -47 5q-66 0 -109 -50q0 13 -9 21.5t-21 8.5h-34q-12 0 -21 -8.5t-9 -21.5v-372q0 -13 9 -21.5t21 -8.5h34q12 0 21 8.5t9 21.5v249q27 78 110 78q4 0 14.5 -1.5t12.5 -1.5zM116 560l107 113q7 7 17 7q13 0 21 -11
l19 -24q6 -7 6 -18q0 -13 -12 -23l-122 -94q-9 -7 -17 -7q-7 0 -15 9l-10 13q-6 7 -6 14t12 21z" />
    <glyph glyph-name="Rcommaaccent" unicode="&#x156;" horiz-adv-x="511" 
d="M80 704h113q42 0 72.5 -2.5t68 -14t61.5 -32t40.5 -59t16.5 -91.5q0 -64 -32.5 -114.5t-105.5 -72.5l144 -282q6 -12 6 -23q0 -13 -34 -13h-47q-21 0 -37 31l-141 274h-51v-275q0 -13 -9 -21.5t-21 -8.5h-44q-12 0 -21 8.5t-9 21.5v644q0 13 9 21.5t21 8.5zM231 603h-77
v-197h77q53 0 78.5 29.5t25.5 69.5q0 98 -104 98zM174 -238l48 163q5 18 23 18q9 0 15 -2l26 -10q19 -7 19 -25q0 -6 -3 -13l-61 -161q-7 -17 -24 -17q-9 0 -15 2l-13 5q-18 7 -18 25q0 6 3 15z" />
    <glyph glyph-name="rcommaaccent" unicode="&#x157;" horiz-adv-x="331" 
d="M281 354q-2 0 -12.5 1.5t-14.5 1.5q-83 0 -110 -78v-249q0 -13 -9 -21.5t-21 -8.5h-34q-12 0 -21 8.5t-9 21.5v372q0 13 9 21.5t21 8.5h34q12 0 21 -8.5t9 -21.5q43 50 109 50q22 0 47 -5q21 -6 21 -24l-2 -10l-10 -38q-5 -21 -28 -21zM8 -238l48 163q5 18 23 18
q9 0 15 -2l26 -10q19 -7 19 -25q0 -6 -3 -13l-61 -161q-7 -17 -24 -17q-9 0 -15 2l-13 5q-18 7 -18 25q0 6 3 15z" />
    <glyph glyph-name="Rcaron" unicode="&#x158;" horiz-adv-x="551" 
d="M120 704h113q42 0 72.5 -2.5t68 -14t61.5 -32t40.5 -59t16.5 -91.5q0 -64 -32.5 -114.5t-105.5 -72.5l144 -282q6 -12 6 -23q0 -13 -34 -13h-47q-21 0 -37 31l-141 274h-51v-275q0 -13 -9 -21.5t-21 -8.5h-44q-12 0 -21 8.5t-9 21.5v644q0 13 9 21.5t21 8.5zM271 603h-77
v-197h77q53 0 78.5 29.5t25.5 69.5q0 98 -104 98zM277 770q-12 0 -28 22l-99 135q-17 24 -17 29q0 11 22 11h33q9 0 18 -5t14 -10l5 -5l52 -66l52 66q17 20 37 20h32q22 0 22 -11q0 -10 -16 -29l-99 -135q-16 -22 -28 -22z" />
    <glyph glyph-name="rcaron" unicode="&#x159;" horiz-adv-x="357" 
d="M297 354q-2 0 -12.5 1.5t-14.5 1.5q-83 0 -110 -78v-249q0 -13 -9 -21.5t-21 -8.5h-34q-12 0 -21 8.5t-9 21.5v372q0 13 9 21.5t21 8.5h34q12 0 21 -8.5t9 -21.5q43 50 109 50q22 0 47 -5q21 -6 21 -24l-2 -10l-10 -38q-5 -21 -28 -21zM204 500q-12 0 -28 22l-99 135
q-17 24 -17 29q0 11 22 11h33q9 0 18 -5t14 -10l5 -5l52 -66l52 66q17 20 37 20h32q22 0 22 -11q0 -10 -16 -29l-99 -135q-16 -22 -28 -22z" />
    <glyph glyph-name="Sacute" unicode="&#x15a;" horiz-adv-x="584" 
d="M62 102q97 -122 229 -122q102 0 160 62.5t58 146.5q0 60 -33 105.5t-80.5 72.5t-95 49.5t-80.5 48t-33 55.5q0 31 31 64t78 33q10 0 18 -0.5t16 -3t12.5 -4t12.5 -6.5t10 -5.5t11.5 -7.5t10.5 -8q11 -9 20 -9q12 0 21 9l35 36q9 9 9 21t-9 21q-8 8 -24 19.5t-56 28
t-81 16.5q-99 0 -159.5 -65t-60.5 -139q0 -55 33.5 -97.5t81.5 -69t95.5 -49.5t81 -51.5t33.5 -63.5q0 -42 -30.5 -72.5t-85.5 -30.5q-40 0 -71 14.5t-45.5 29.5t-39.5 47q-8 10 -19 10q-12 0 -21 -9l-33 -34q-9 -9 -9 -21q0 -5 2.5 -10.5t4.5 -8.5zM210 830l107 113
q7 7 17 7q13 0 21 -11l19 -24q6 -7 6 -18q0 -13 -12 -23l-122 -94q-9 -7 -17 -7q-7 0 -15 9l-10 13q-6 7 -6 14t12 21z" />
    <glyph glyph-name="sacute" unicode="&#x15b;" horiz-adv-x="417" 
d="M274 343q-22 15 -57 15q-22 0 -33.5 -11t-11.5 -25q0 -15 21 -28.5t51 -27t60.5 -30.5t51.5 -45t21 -63q0 -69 -41.5 -108.5t-118.5 -39.5q-52 0 -94 21t-66 51q-10 13 -10 21q0 12 9 21l28 31q9 9 21 9q13 0 22 -11q41 -53 90 -53q22 0 40.5 13t18.5 35q0 18 -21.5 35
t-52 31t-61.5 30t-52.5 41t-21.5 56q0 61 41 101t109 40q42 0 68 -8.5t54 -29.5q11 -8 11 -22q0 -12 -9 -21l-25 -28q-9 -9 -21 -9q-4 0 -9 2t-8 4zM134 560l107 113q7 7 17 7q13 0 21 -11l19 -24q6 -7 6 -18q0 -13 -12 -23l-122 -94q-9 -7 -17 -7q-7 0 -15 9l-10 13
q-6 7 -6 14t12 21z" />
    <glyph glyph-name="Scircumflex" unicode="&#x15c;" horiz-adv-x="556" 
d="M62 102q97 -122 229 -122q102 0 160 62.5t58 146.5q0 60 -33 105.5t-80.5 72.5t-95 49.5t-80.5 48t-33 55.5q0 31 31 64t78 33q10 0 18 -0.5t16 -3t12.5 -4t12.5 -6.5t10 -5.5t11.5 -7.5t10.5 -8q11 -9 20 -9q12 0 21 9l35 36q9 9 9 21t-9 21q-8 8 -24 19.5t-56 28
t-81 16.5q-99 0 -159.5 -65t-60.5 -139q0 -55 33.5 -97.5t81.5 -69t95.5 -49.5t81 -51.5t33.5 -63.5q0 -42 -30.5 -72.5t-85.5 -30.5q-40 0 -71 14.5t-45.5 29.5t-39.5 47q-8 10 -19 10q-12 0 -21 -9l-33 -34q-9 -9 -9 -21q0 -5 2.5 -10.5t4.5 -8.5zM302 950q12 0 28 -22
l99 -135q16 -19 16 -29q0 -11 -22 -11h-32q-9 0 -18 5t-14 10l-5 5l-52 66l-52 -66q-17 -20 -37 -20h-33q-22 0 -22 11q0 5 17 29l99 135q16 22 28 22z" />
    <glyph glyph-name="scircumflex" unicode="&#x15d;" horiz-adv-x="417" 
d="M274 343q-22 15 -57 15q-22 0 -33.5 -11t-11.5 -25q0 -15 21 -28.5t51 -27t60.5 -30.5t51.5 -45t21 -63q0 -69 -41.5 -108.5t-118.5 -39.5q-52 0 -94 21t-66 51q-10 13 -10 21q0 12 9 21l28 31q9 9 21 9q13 0 22 -11q41 -53 90 -53q22 0 40.5 13t18.5 35q0 18 -21.5 35
t-52 31t-61.5 30t-52.5 41t-21.5 56q0 61 41 101t109 40q42 0 68 -8.5t54 -29.5q11 -8 11 -22q0 -12 -9 -21l-25 -28q-9 -9 -21 -9q-4 0 -9 2t-8 4zM218 680q12 0 28 -22l99 -135q16 -19 16 -29q0 -11 -22 -11h-32q-9 0 -18 5t-14 10l-5 5l-52 66l-52 -66q-17 -20 -37 -20
h-33q-22 0 -22 11q0 5 17 29l99 135q16 22 28 22z" />
    <glyph glyph-name="Scedilla" unicode="&#x15e;" horiz-adv-x="583" 
d="M271 -125q12 -14 24 -14q13 0 19.5 6.5t6.5 15.5q0 28 -31 28q-72 0 -72 49q0 16 8 28q-92 22 -164 114q-9 9 -9 21t9 21l33 34q9 9 21 9q5 0 9.5 -2.5t6.5 -4.5l3 -3q25 -32 39.5 -47t45.5 -29.5t71 -14.5q55 0 85.5 30.5t30.5 72.5q0 35 -33.5 63.5t-81 51.5
t-95.5 49.5t-81.5 69t-33.5 97.5q0 74 60.5 139t159.5 65q41 0 81 -16.5t56 -28t24 -19.5q9 -9 9 -21t-9 -21l-35 -36q-9 -9 -21 -9q-4 0 -9 2.5t-8 4.5l-3 2q-3 2 -8.5 6t-8.5 6t-8 5.5t-8.5 5t-9 4t-10 3.5t-11 2.5t-13 2t-14.5 0.5q-47 0 -78 -33t-31 -64q0 -30 33 -55.5
t80.5 -48t95 -49.5t80.5 -72.5t33 -105.5q0 -84 -58 -146.5t-160 -62.5h-5q0 -17 26 -17t55 -20t29 -60q0 -29 -20.5 -51t-67.5 -22q-50 0 -80 26q-11 9 -11 22q0 11 13 19q13 7 20 7q12 0 21 -9z" />
    <glyph glyph-name="scedilla" unicode="&#x15f;" horiz-adv-x="417" 
d="M217 -125q12 -14 24 -14q13 0 19.5 6.5t6.5 15.5q0 28 -31 28q-72 0 -72 49q0 13 6 25q-73 16 -113 67q-10 13 -10 21q0 12 9 21l28 31q9 9 21 9q13 0 22 -11q41 -53 90 -53q22 0 40.5 13t18.5 35q0 18 -21.5 35t-52 31t-61.5 30t-52.5 41t-21.5 56q0 61 41 101t109 40
q42 0 68 -8.5t54 -29.5q11 -8 11 -22q0 -12 -9 -21l-25 -28q-9 -9 -21 -9q-4 0 -9 2t-8 4l-4 3q-22 15 -57 15q-22 0 -33.5 -11t-11.5 -25q0 -15 21 -28.5t51 -27t60.5 -30.5t51.5 -45t21 -63q0 -66 -37.5 -104.5t-107.5 -42.5q0 -18 26 -18t55 -20t29 -60q0 -29 -20.5 -51
t-67.5 -22q-50 0 -80 26q-11 9 -11 22q0 11 13 19q13 7 20 7q12 0 21 -9z" />
    <glyph glyph-name="Scaron" unicode="&#x160;" horiz-adv-x="584" 
d="M62 102q-9 9 -9 21t9 21l33 34q9 9 21 9q5 0 9.5 -2.5t6.5 -4.5l3 -3q25 -32 39.5 -47t45.5 -29.5t71 -14.5q55 0 85.5 30.5t30.5 72.5q0 35 -33.5 63.5t-81 51.5t-95.5 49.5t-81.5 69t-33.5 97.5q0 74 60.5 139t159.5 65q41 0 81 -16.5t56 -28t24 -19.5q9 -9 9 -21
t-9 -21l-35 -36q-9 -9 -21 -9q-4 0 -9 2.5t-8 4.5l-3 2q-3 2 -8.5 6t-8.5 6t-8 5.5t-8.5 5t-9 4t-10 3.5t-11 2.5t-13 2t-14.5 0.5q-47 0 -78 -33t-31 -64q0 -30 33 -55.5t80.5 -48t95 -49.5t80.5 -72.5t33 -105.5q0 -84 -58 -146.5t-160 -62.5q-132 0 -229 122zM302 770
q-12 0 -28 22l-99 135q-17 24 -17 29q0 11 22 11h33q9 0 18 -5t14 -10l5 -5l52 -66l52 66q17 20 37 20h32q22 0 22 -11q0 -10 -16 -29l-99 -135q-16 -22 -28 -22z" />
    <glyph glyph-name="scaron" unicode="&#x161;" horiz-adv-x="417" 
d="M274 343q-22 15 -57 15q-22 0 -33.5 -11t-11.5 -25q0 -15 21 -28.5t51 -27t60.5 -30.5t51.5 -45t21 -63q0 -69 -41.5 -108.5t-118.5 -39.5q-52 0 -94 21t-66 51q-10 13 -10 21q0 12 9 21l28 31q9 9 21 9q13 0 22 -11q41 -53 90 -53q22 0 40.5 13t18.5 35q0 18 -21.5 35
t-52 31t-61.5 30t-52.5 41t-21.5 56q0 61 41 101t109 40q42 0 68 -8.5t54 -29.5q11 -8 11 -22q0 -12 -9 -21l-25 -28q-9 -9 -21 -9q-4 0 -9 2t-8 4zM216 500q-12 0 -28 22l-99 135q-17 24 -17 29q0 11 22 11h33q9 0 18 -5t14 -10l5 -5l52 -66l52 66q17 20 37 20h32
q22 0 22 -11q0 -10 -16 -29l-99 -135q-16 -22 -28 -22z" />
    <glyph glyph-name="Tcommaaccent" unicode="&#x162;" horiz-adv-x="476" 
d="M186 603h-145q-12 0 -21 8.5t-9 21.5v41q0 13 9 21.5t21 8.5h394q12 0 21 -8.5t9 -21.5v-41q0 -13 -9 -21.5t-21 -8.5h-145v-573q0 -13 -9 -21.5t-21 -8.5h-44q-12 0 -21 8.5t-9 21.5v573zM173 -238l48 163q5 18 23 18q9 0 15 -2l26 -10q19 -7 19 -25q0 -6 -3 -13
l-61 -161q-7 -17 -24 -17q-9 0 -15 2l-13 5q-18 7 -18 25q0 6 3 15z" />
    <glyph glyph-name="tcommaaccent" unicode="&#x163;" horiz-adv-x="296" 
d="M264 -10q-20 0 -42 5t-46 18t-43 32t-31.5 50t-12.5 69v176h-33q-13 0 -21.5 9t-8.5 21v32q0 12 8.5 21t21.5 9h33v118q0 13 9 21.5t21 8.5h34q12 0 21 -8.5t9 -21.5v-118h80q13 0 21.5 -9t8.5 -21v-32q0 -12 -8.5 -21t-21.5 -9h-80v-177q0 -32 20 -48t61 -26
q30 -8 30 -30v-39q0 -12 -8.5 -21t-21.5 -9zM119 -238l48 163q5 18 23 18q9 0 15 -2l26 -10q19 -7 19 -25q0 -6 -3 -13l-61 -161q-7 -17 -24 -17q-9 0 -15 2l-13 5q-18 7 -18 25q0 6 3 15z" />
    <glyph glyph-name="Tcaron" unicode="&#x164;" horiz-adv-x="476" 
d="M186 603h-145q-12 0 -21 8.5t-9 21.5v41q0 13 9 21.5t21 8.5h394q12 0 21 -8.5t9 -21.5v-41q0 -13 -9 -21.5t-21 -8.5h-145v-573q0 -13 -9 -21.5t-21 -8.5h-44q-12 0 -21 8.5t-9 21.5v573zM238 770q-12 0 -28 22l-99 135q-17 24 -17 29q0 11 22 11h33q9 0 18 -5t14 -10
l5 -5l52 -66l52 66q17 20 37 20h32q22 0 22 -11q0 -10 -16 -29l-99 -135q-16 -22 -28 -22z" />
    <glyph glyph-name="tcaron" unicode="&#x165;" horiz-adv-x="384" 
d="M264 -10q-20 0 -42 5t-46 18t-43 32t-31.5 50t-12.5 69v176h-33q-13 0 -21.5 9t-8.5 21v32q0 12 8.5 21t21.5 9h33v118q0 13 9 21.5t21 8.5h34q12 0 21 -8.5t9 -21.5v-118h80q13 0 21.5 -9t8.5 -21v-32q0 -12 -8.5 -21t-21.5 -9h-80v-177q0 -32 20 -48t61 -26
q30 -8 30 -30v-39q0 -12 -8.5 -21t-21.5 -9zM441 645l-92 -188q-9 -18 -22 -18q-8 0 -16.5 5.5t-8.5 12.5q0 9 3 15l53 109q-21 6 -34.5 24t-13.5 40q0 28 19 46.5t47 18.5q27 0 46 -18.5t19 -46.5z" />
    <glyph glyph-name="Tbar" unicode="&#x166;" horiz-adv-x="476" 
d="M186 30v310h-84q-12 0 -21 8.5t-9 21.5v41q0 13 9 21.5t21 8.5h84v162h-145q-12 0 -21 8.5t-9 21.5v41q0 13 9 21.5t21 8.5h394q12 0 21 -8.5t9 -21.5v-41q0 -13 -9 -21.5t-21 -8.5h-145v-162h84q12 0 21 -8.5t9 -21.5v-41q0 -13 -9 -21.5t-21 -8.5h-84v-310
q0 -13 -9 -21.5t-21 -8.5h-44q-12 0 -21 8.5t-9 21.5z" />
    <glyph glyph-name="tbar" unicode="&#x167;" horiz-adv-x="296" 
d="M183 212v-29q0 -31 22.5 -58t58.5 -36q30 -8 30 -30v-39q0 -12 -8.5 -21t-21.5 -9q-25 0 -54 12t-56.5 35t-46 64.5t-18.5 92.5v18h-33q-13 0 -21.5 9t-8.5 21v32q0 12 8.5 21t21.5 9h33v36h-33q-13 0 -21.5 9t-8.5 21v32q0 12 8.5 21t21.5 9h33v118q0 13 9 21.5t21 8.5
h34q12 0 21 -8.5t9 -21.5v-118h80q13 0 21.5 -9t8.5 -21v-32q0 -12 -8.5 -21t-21.5 -9h-80v-36h80q13 0 21.5 -9t8.5 -21v-32q0 -12 -8.5 -21t-21.5 -9h-80z" />
    <glyph glyph-name="Utilde" unicode="&#x168;" horiz-adv-x="696" 
d="M348 -20q-116 0 -187 73.5t-71 175.5v445q0 13 9 21.5t21 8.5h44q12 0 21 -8.5t9 -21.5v-416q0 -80 40.5 -126t113.5 -46t113.5 46t40.5 126v416q0 13 9 21.5t21 8.5h44q12 0 21 -8.5t9 -21.5v-445q0 -102 -71 -175.5t-187 -73.5zM393 836q7 0 10 7q5 17 27 17h27
q18 0 18 -17q0 -25 -20 -53.5t-62 -28.5q-21 0 -45.5 14t-42.5 14q-7 0 -10 -7q-5 -17 -27 -17h-27q-18 0 -18 17q0 25 20 53.5t62 28.5q21 0 45.5 -14t42.5 -14z" />
    <glyph glyph-name="utilde" unicode="&#x169;" 
d="M60 196v206q0 13 9 21.5t21 8.5h34q12 0 21 -8.5t9 -21.5v-187q0 -60 20.5 -101t67.5 -41q63 0 100 80v249q0 13 9 21.5t21 8.5h34q12 0 21 -8.5t9 -21.5v-372q0 -13 -9 -21.5t-21 -8.5h-34q-12 0 -21 8.5t-9 19.5q-50 -48 -100 -48q-182 0 -182 216zM292 566q6 0 10 7
q5 17 27 17h27q18 0 18 -17q0 -25 -20 -53.5t-62 -28.5q-21 0 -45.5 14t-42.5 14q-6 0 -10 -7q-5 -17 -27 -17h-27q-18 0 -18 17q0 25 20 53.5t62 28.5q21 0 45.5 -14t42.5 -14z" />
    <glyph glyph-name="Umacron" unicode="&#x16a;" horiz-adv-x="696" 
d="M348 -20q116 0 187 73.5t71 175.5v445q0 13 -9 21.5t-21 8.5h-44q-12 0 -21 -8.5t-9 -21.5v-416q0 -80 -40.5 -126t-113.5 -46t-113.5 46t-40.5 126v416q0 13 -9 21.5t-21 8.5h-44q-12 0 -21 -8.5t-9 -21.5v-445q0 -102 71 -175.5t187 -73.5zM250 845h196q13 0 21.5 -9
t8.5 -21v-9q0 -12 -8.5 -21t-21.5 -9h-196q-13 0 -21.5 9t-8.5 21v9q0 12 8.5 21t21.5 9z" />
    <glyph glyph-name="umacron" unicode="&#x16b;" 
d="M60 402v-206q0 -216 182 -216q50 0 100 48q0 -11 9 -19.5t21 -8.5h34q12 0 21 8.5t9 21.5v372q0 13 -9 21.5t-21 8.5h-34q-12 0 -21 -8.5t-9 -21.5v-249q-37 -80 -100 -80q-47 0 -67.5 41t-20.5 101v187q0 13 -9 21.5t-21 8.5h-34q-12 0 -21 -8.5t-9 -21.5zM151 575h196
q13 0 21.5 -9t8.5 -21v-9q0 -12 -8.5 -21t-21.5 -9h-196q-13 0 -21.5 9t-8.5 21v9q0 12 8.5 21t21.5 9z" />
    <glyph glyph-name="Ubreve" unicode="&#x16c;" horiz-adv-x="696" 
d="M348 -20q-116 0 -187 73.5t-71 175.5v445q0 13 9 21.5t21 8.5h44q12 0 21 -8.5t9 -21.5v-416q0 -80 40.5 -126t113.5 -46t113.5 46t40.5 126v416q0 13 9 21.5t21 8.5h44q12 0 21 -8.5t9 -21.5v-445q0 -102 -71 -175.5t-187 -73.5zM349 765q-74 0 -109 41q-9 13 -9 21
q0 10 17 25t25 15q10 0 18 -11q20 -26 58 -26t58 26q8 11 18 11q8 0 25 -15t17 -25q0 -8 -9 -21q-35 -41 -109 -41z" />
    <glyph glyph-name="ubreve" unicode="&#x16d;" 
d="M60 196v206q0 13 9 21.5t21 8.5h34q12 0 21 -8.5t9 -21.5v-187q0 -60 20.5 -101t67.5 -41q63 0 100 80v249q0 13 9 21.5t21 8.5h34q12 0 21 -8.5t9 -21.5v-372q0 -13 -9 -21.5t-21 -8.5h-34q-12 0 -21 8.5t-9 19.5q-50 -48 -100 -48q-182 0 -182 216zM249 495
q-74 0 -109 41q-9 13 -9 21q0 10 17 25t25 15q10 0 18 -11q20 -26 58 -26t58 26q8 11 18 11q8 0 25 -15t17 -25q0 -8 -9 -21q-35 -41 -109 -41z" />
    <glyph glyph-name="Uring" unicode="&#x16e;" horiz-adv-x="696" 
d="M348 -20q-116 0 -187 73.5t-71 175.5v445q0 13 9 21.5t21 8.5h44q12 0 21 -8.5t9 -21.5v-416q0 -80 40.5 -126t113.5 -46t113.5 46t40.5 126v416q0 13 9 21.5t21 8.5h44q12 0 21 -8.5t9 -21.5v-445q0 -102 -71 -175.5t-187 -73.5zM349 761q-33 0 -57.5 23t-24.5 55
t24.5 55t57.5 23t57.5 -23t24.5 -55t-24.5 -55t-57.5 -23zM349 858q-10 0 -16 -5.5t-6 -13.5t6 -13.5t16 -5.5q21 0 21 19q0 8 -6 13.5t-15 5.5z" />
    <glyph glyph-name="uring" unicode="&#x16f;" 
d="M60 196v206q0 13 9 21.5t21 8.5h34q12 0 21 -8.5t9 -21.5v-187q0 -60 20.5 -101t67.5 -41q63 0 100 80v249q0 13 9 21.5t21 8.5h34q12 0 21 -8.5t9 -21.5v-372q0 -13 -9 -21.5t-21 -8.5h-34q-12 0 -21 8.5t-9 19.5q-50 -48 -100 -48q-182 0 -182 216zM249 491
q-33 0 -57.5 23t-24.5 55t24.5 55t57.5 23t57.5 -23t24.5 -55t-24.5 -55t-57.5 -23zM249 588q-10 0 -16 -5.5t-6 -13.5t6 -13.5t16 -5.5q21 0 21 19q0 8 -6 13.5t-15 5.5z" />
    <glyph glyph-name="Uhungarumlaut" unicode="&#x170;" horiz-adv-x="696" 
d="M348 -20q116 0 187 73.5t71 175.5v445q0 13 -9 21.5t-21 8.5h-44q-12 0 -21 -8.5t-9 -21.5v-416q0 -80 -40.5 -126t-113.5 -46t-113.5 46t-40.5 126v416q0 13 -9 21.5t-21 8.5h-44q-12 0 -21 -8.5t-9 -21.5v-445q0 -102 71 -175.5t187 -73.5zM182 826l107 113q7 7 17 7
q13 0 21 -11l19 -24q6 -7 6 -18q0 -13 -12 -23l-122 -94q-9 -7 -17 -7q-7 0 -15 9l-10 13q-6 7 -6 14t12 21zM351 826l107 113q7 7 17 7q13 0 21 -11l19 -24q6 -7 6 -18q0 -13 -12 -23l-122 -94q-9 -7 -17 -7t-15 9l-10 13q-6 7 -6 14t12 21z" />
    <glyph glyph-name="uhungarumlaut" unicode="&#x171;" 
d="M60 402v-206q0 -216 182 -216q50 0 100 48q0 -11 9 -19.5t21 -8.5h34q12 0 21 8.5t9 21.5v372q0 13 -9 21.5t-21 8.5h-34q-12 0 -21 -8.5t-9 -21.5v-249q-37 -80 -100 -80q-47 0 -67.5 41t-20.5 101v187q0 13 -9 21.5t-21 8.5h-34q-12 0 -21 -8.5t-9 -21.5zM83 556
l107 113q7 7 17 7q13 0 21 -11l19 -24q6 -7 6 -18q0 -13 -12 -23l-122 -94q-9 -7 -17 -7t-15 9l-10 13q-6 7 -6 14t12 21zM252 556l107 113q7 7 17 7q13 0 21 -11l19 -24q6 -7 6 -18q0 -13 -12 -23l-122 -94q-9 -7 -17 -7q-7 0 -15 9l-10 13q-6 7 -6 14t12 21z" />
    <glyph glyph-name="Uogonek" unicode="&#x172;" horiz-adv-x="696" 
d="M390 -190q-36 2 -62.5 13t-39 25t-19 27.5t-7.5 22.5l-1 10q3 37 45 75q-98 13 -157 83.5t-59 162.5v445q0 13 9 21.5t21 8.5h44q12 0 21 -8.5t9 -21.5v-416q0 -80 40.5 -126t113.5 -46t113.5 46t40.5 126v416q0 13 9 21.5t21 8.5h44q12 0 21 -8.5t9 -21.5v-445
q0 -87 -53 -155t-142 -87q-57 -40 -57 -71q0 -18 71 -36q17 -5 17 -17q0 -9 -7 -20l-10 -14q-15 -19 -35 -19z" />
    <glyph glyph-name="uogonek" unicode="&#x173;" horiz-adv-x="521" 
d="M436 402v-366q0 -29 -19 -58l-7 -10.5t-7.5 -11.5t-5.5 -11t-4.5 -14t-1.5 -15q0 -23 53 -36q17 -5 17 -17q0 -9 -7 -20l-9 -13q-15 -19 -35 -19q-30 0 -53.5 9t-35.5 21t-20 27t-10.5 24.5t-2.5 15.5q0 42 54 92v28q-50 -48 -100 -48q-182 0 -182 216v206q0 13 9 21.5
t21 8.5h34q12 0 21 -8.5t9 -21.5v-187q0 -60 20.5 -101t67.5 -41q63 0 100 80v249q0 13 9 21.5t21 8.5h34q12 0 21 -8.5t9 -21.5z" />
    <glyph glyph-name="Wcircumflex" unicode="&#x174;" horiz-adv-x="905" 
d="M452 714q5 0 10 -4.5t7 -9.5l2 -4l163 -417l8 -40l7 40l141 395q11 30 36 30h40q34 0 34 -13l-4 -21l-237 -662q-5 -18 -17 -18q-5 0 -9.5 4.5t-6.5 9.5l-2 4l-168 437l-4 40l-4 -40l-168 -437q-6 -18 -18 -18q-5 0 -9.5 4.5t-6.5 9.5l-1 4l-237 662q-4 14 -4 21
q0 13 34 13h40q25 0 36 -30l141 -395l7 -40l8 40l163 417q7 18 19 18zM452 950q12 0 28 -22l99 -135q16 -19 16 -29q0 -11 -22 -11h-32q-9 0 -18 5t-14 10l-5 5l-52 66l-52 -66q-17 -20 -37 -20h-33q-22 0 -22 11q0 5 17 29l99 135q16 22 28 22z" />
    <glyph glyph-name="wcircumflex" unicode="&#x175;" horiz-adv-x="656" 
d="M328 442q7 0 14 -7t10 -14l3 -7l92 -229l4 -30l4 30l93 217q14 30 41 30h34q28 0 28 -13l-6 -17l-170 -384q-12 -28 -24 -28q-6 0 -12 7t-9 14l-4 7l-94 223l-4 30l-4 -30l-94 -223q-12 -28 -25 -28q-5 0 -11 7t-10 14l-3 7l-170 384q-6 13 -6 17q0 13 28 13h34
q27 0 41 -30l93 -217l4 -30l4 30l92 229q11 28 27 28zM329 680q12 0 28 -22l99 -135q16 -19 16 -29q0 -11 -22 -11h-32q-9 0 -18 5t-14 10l-5 5l-52 66l-52 -66q-17 -20 -37 -20h-33q-22 0 -22 11q0 5 17 29l99 135q16 22 28 22z" />
    <glyph glyph-name="Ycircumflex" unicode="&#x176;" horiz-adv-x="552" 
d="M276 442l147 232q20 30 41 30h53q38 0 38 -13q0 -3 -2.5 -8.5t-5.5 -9.5l-3 -4l-216 -335v-304q0 -12 -8.5 -21t-21.5 -9h-44q-13 0 -21.5 9t-8.5 21v304l-216 335q-11 15 -11 22q0 13 38 13h53q9 0 19.5 -7.5t16.5 -14.5l5 -8zM275 950q12 0 28 -22l99 -135
q16 -19 16 -29q0 -11 -22 -11h-32q-9 0 -18 5t-14 10l-5 5l-52 66l-52 -66q-17 -20 -37 -20h-33q-22 0 -22 11q0 5 17 29l99 135q16 22 28 22z" />
    <glyph glyph-name="ycircumflex" unicode="&#x177;" horiz-adv-x="426" 
d="M56 -85h-21q-13 0 -21.5 -9t-8.5 -21v-25q0 -12 8.5 -21t21.5 -9h21q6 0 12.5 0.5t23.5 5.5t32.5 13t35.5 26.5t35 43.5l220 483q6 14 6 19q0 11 -28 11h-38q-27 0 -41 -30l-96 -214l-4 -30l-4 30l-97 214q-14 30 -41 30h-38q-28 0 -28 -11l6 -19l153 -336l-50 -107
q-8 -17 -22.5 -27.5t-23.5 -13.5t-13 -3zM214 680q12 0 28 -22l99 -135q16 -19 16 -29q0 -11 -22 -11h-32q-9 0 -18 5t-14 10l-5 5l-52 66l-52 -66q-17 -20 -37 -20h-33q-22 0 -22 11q0 5 17 29l99 135q16 22 28 22z" />
    <glyph glyph-name="Ydieresis" unicode="&#x178;" horiz-adv-x="552" 
d="M276 442l147 232q20 30 41 30h53q38 0 38 -13q0 -3 -2.5 -8.5t-5.5 -9.5l-3 -4l-216 -335v-304q0 -12 -8.5 -21t-21.5 -9h-44q-13 0 -21.5 9t-8.5 21v304l-216 335q-11 15 -11 22q0 13 38 13h53q9 0 19.5 -7.5t16.5 -14.5l5 -8zM153 830q0 22 15 37t37 15t37 -15t15 -37
t-15 -37t-37 -15t-37 15t-15 37zM296 830q0 22 15 37t37 15t37 -15t15 -37t-15 -37t-37 -15t-37 15t-15 37z" />
    <glyph glyph-name="Zacute" unicode="&#x179;" horiz-adv-x="664" 
d="M569 704h-453q-12 0 -21 -8.5t-9 -21.5v-41q0 -13 9 -21.5t21 -8.5h312l-356 -551q-22 -33 -22 -41q0 -11 38 -11h489q12 0 21 8.5t9 21.5v41q0 13 -9 21.5t-21 8.5h-348l356 551q22 33 22 41q0 11 -38 11zM247 830l107 113q7 7 17 7q13 0 21 -11l19 -24q6 -7 6 -18
q0 -13 -12 -23l-122 -94q-9 -7 -17 -7t-15 9l-10 13q-6 7 -6 14t12 21z" />
    <glyph glyph-name="zacute" unicode="&#x17a;" horiz-adv-x="574" 
d="M260 340l-223 -288q-28 -37 -28 -41q0 -11 38 -11h357q13 0 21.5 9t8.5 21v32q0 12 -8.5 21t-21.5 9h-221l223 288q28 37 28 41q0 11 -38 11h-349q-13 0 -21.5 -9t-8.5 -21v-32q0 -12 8.5 -21t21.5 -9h213zM139 560l107 113q7 7 17 7q13 0 21 -11l19 -24q6 -7 6 -18
q0 -13 -12 -23l-122 -94q-9 -7 -17 -7t-15 9l-10 13q-6 7 -6 14t12 21z" />
    <glyph glyph-name="Zdotaccent" unicode="&#x17b;" horiz-adv-x="664" 
d="M569 704h-453q-12 0 -21 -8.5t-9 -21.5v-41q0 -13 9 -21.5t21 -8.5h312l-356 -551q-22 -33 -22 -41q0 -11 38 -11h489q12 0 21 8.5t9 21.5v41q0 13 -9 21.5t-21 8.5h-348l356 551q22 33 22 41q0 11 -38 11zM276 838q0 22 15 37t37 15t37 -15t15 -37t-15 -37t-37 -15
t-37 15t-15 37z" />
    <glyph glyph-name="zdotaccent" unicode="&#x17c;" horiz-adv-x="574" 
d="M169 568q0 22 15 37t37 15t37 -15t15 -37t-15 -37t-37 -15t-37 15t-15 37zM260 340l-223 -288q-28 -37 -28 -41q0 -11 38 -11h357q13 0 21.5 9t8.5 21v32q0 12 -8.5 21t-21.5 9h-221l223 288q28 37 28 41q0 11 -38 11h-349q-13 0 -21.5 -9t-8.5 -21v-32q0 -12 8.5 -21
t21.5 -9h213z" />
    <glyph glyph-name="Zcaron" unicode="&#x17d;" horiz-adv-x="664" 
d="M116 704h453q38 0 38 -11q0 -8 -22 -41l-356 -551h348q12 0 21 -8.5t9 -21.5v-41q0 -13 -9 -21.5t-21 -8.5h-489q-38 0 -38 11q0 8 22 41l356 551h-312q-12 0 -21 8.5t-9 21.5v41q0 13 9 21.5t21 8.5zM338 770q-12 0 -28 22l-99 135q-17 24 -17 29q0 11 22 11h33
q9 0 18 -5t14 -10l5 -5l52 -66l52 66q17 20 37 20h32q22 0 22 -11q0 -10 -16 -29l-99 -135q-16 -22 -28 -22z" />
    <glyph glyph-name="zcaron" unicode="&#x17e;" horiz-adv-x="574" 
d="M232 500q-12 0 -28 22l-99 135q-17 24 -17 29q0 11 22 11h33q9 0 18 -5t14 -10l5 -5l52 -66l52 66q17 20 37 20h32q22 0 22 -11q0 -10 -16 -29l-99 -135q-16 -22 -28 -22zM37 52l223 288h-213q-13 0 -21.5 9t-8.5 21v32q0 12 8.5 21t21.5 9h349q38 0 38 -11q0 -4 -28 -41
l-223 -288h221q13 0 21.5 -9t8.5 -21v-32q0 -12 -8.5 -21t-21.5 -9h-357q-38 0 -38 11q0 4 28 41z" />
    <glyph glyph-name="florin" unicode="&#x192;" horiz-adv-x="482" 
d="M194 23v327h-40q-13 0 -21.5 9t-8.5 21v32q0 12 8.5 21t21.5 9h40v68q0 51 18.5 92.5t46 64.5t56.5 35t54 12q13 0 21.5 -9t8.5 -21v-39q0 -22 -30 -30q-36 -9 -58.5 -36t-22.5 -58v-79h77q13 0 21.5 -9t8.5 -21v-32q0 -12 -8.5 -21t-21.5 -9h-77v-316q0 -51 -18.5 -92.5
t-46 -64.5t-56.5 -35t-54 -12q-13 0 -21.5 9t-8.5 21v39q0 22 30 30q36 9 58.5 36t22.5 58z" />
    <glyph glyph-name="AEacute" unicode="&#x1fc;" horiz-adv-x="765" 
d="M282 266l-1 221l-4 -20l-75 -201h80zM281 30l1 135h-117l-51 -135q-11 -30 -36 -30h-40q-34 0 -34 13l3 17l247 644q11 30 36 30h362q12 0 21 -8.5t9 -21.5v-41q0 -13 -9 -21.5t-21 -8.5h-267v-180h239q12 0 21 -8.5t9 -21.5v-40q0 -13 -9 -21.5t-21 -8.5h-239v-222h267
q12 0 21 -8.5t9 -21.5v-41q0 -13 -9 -21.5t-21 -8.5h-341q-12 0 -21 8.5t-9 21.5zM425 839l107 113q7 7 17 7q13 0 21 -11l19 -24q6 -7 6 -18q0 -13 -12 -23l-122 -94q-9 -7 -17 -7t-15 9l-10 13q-6 7 -6 14t12 21z" />
    <glyph glyph-name="aeacute" unicode="&#x1fd;" horiz-adv-x="809" 
d="M762 216v-13q0 -13 -9 -21.5t-21 -8.5h-309q30 -99 118 -99q52 0 97 37q10 9 21 9q12 0 21 -9l26 -26q9 -9 9 -21q0 -10 -9 -21q-71 -63 -165 -63q-106 0 -174 84q-50 -84 -151 -84q-74 0 -121.5 41t-47.5 104q0 41 19.5 71.5t51 45.5t64 22t66.5 7q41 0 75 -9v24
q0 32 -29.5 53t-58.5 21q-52 0 -80 -16q-16 -9 -22 -9q-12 0 -23 11l-25 28q-7 7 -7 18q0 14 10 21q60 39 147 39q103 0 151 -63q63 63 155 63q99 0 160 -68t61 -168zM541 360q-87 0 -118 -98h237q-13 45 -43.5 71.5t-75.5 26.5zM323 148v24q-29 12 -75 12t-75.5 -15
t-29.5 -42q0 -18 19 -37.5t54 -19.5q34 0 63 20t44 58zM469 560l107 113q7 7 17 7q13 0 21 -11l19 -24q6 -7 6 -18q0 -13 -12 -23l-122 -94q-9 -7 -17 -7q-7 0 -15 9l-10 13q-6 7 -6 14t12 21z" />
    <glyph glyph-name="Oslashacute" unicode="&#x1fe;" horiz-adv-x="888" 
d="M232 -18l21 51q-83 50 -132 134.5t-49 184.5q0 154 109 263t263 109q44 0 88 -11l21 50q8 19 24 19q9 0 20 -5l37 -15q18 -8 18 -29q0 -3 -2 -11l-20 -48q85 -49 135.5 -134.5t50.5 -187.5q0 -154 -110 -263t-262 -109q-50 0 -95 12l-20 -50q-6 -18 -27 -18l-12 2l-42 17
q-19 7 -19 27q0 6 3 12zM695 352q0 68 -28.5 126t-78.5 94l-198 -481q28 -5 54 -5q108 0 179.5 77t71.5 189zM444 618q-109 0 -180 -77t-71 -189q0 -67 27 -124t75 -93l196 478q-25 5 -47 5zM350 830l107 113q7 7 17 7q13 0 21 -11l19 -24q6 -7 6 -18q0 -13 -12 -23
l-122 -94q-9 -7 -17 -7q-7 0 -15 9l-10 13q-6 7 -6 14t12 21z" />
    <glyph glyph-name="oslashacute" unicode="&#x1ff;" horiz-adv-x="566" 
d="M283 -20q-22 0 -49 5l-23 -58q-6 -18 -27 -18l-12 2l-32 12q-19 7 -19 27q0 6 3 12l24 60q-47 32 -74 83t-27 111q0 98 69 167t167 69q20 0 38 -3l24 58q8 19 24 19q9 0 20 -5l25 -11q18 -8 18 -29q0 -3 -2 -11l-22 -54q51 -31 81 -84.5t30 -115.5q0 -98 -69 -167
t-167 -69zM416 217q0 66 -45 108l-101 -251h13q58 0 95.5 41.5t37.5 101.5zM285 360q-59 0 -97 -41.5t-38 -101.5q0 -58 37 -100zM198 560l107 113q7 7 17 7q13 0 21 -11l19 -24q6 -7 6 -18q0 -13 -12 -23l-122 -94q-9 -7 -17 -7q-7 0 -15 9l-10 13q-6 7 -6 14t12 21z" />
    <glyph glyph-name="Scommaaccent" unicode="&#x218;" horiz-adv-x="556" 
d="M62 102q-9 9 -9 21t9 21l33 34q9 9 21 9q5 0 9.5 -2.5t6.5 -4.5l3 -3q25 -32 39.5 -47t45.5 -29.5t71 -14.5q55 0 85.5 30.5t30.5 72.5q0 35 -33.5 63.5t-81 51.5t-95.5 49.5t-81.5 69t-33.5 97.5q0 74 60.5 139t159.5 65q41 0 81 -16.5t56 -28t24 -19.5q9 -9 9 -21
t-9 -21l-35 -36q-9 -9 -21 -9q-4 0 -9 2.5t-8 4.5l-3 2q-3 2 -8.5 6t-8.5 6t-8 5.5t-8.5 5t-9 4t-10 3.5t-11 2.5t-13 2t-14.5 0.5q-47 0 -78 -33t-31 -64q0 -30 33 -55.5t80.5 -48t95 -49.5t80.5 -72.5t33 -105.5q0 -84 -58 -146.5t-160 -62.5q-132 0 -229 122zM207 -238
l48 163q5 18 23 18q9 0 15 -2l26 -10q19 -7 19 -25q0 -6 -3 -13l-61 -161q-7 -17 -24 -17q-9 0 -15 2l-13 5q-18 7 -18 25q0 6 3 15z" />
    <glyph glyph-name="scommaaccent" unicode="&#x219;" horiz-adv-x="417" 
d="M274 343q-22 15 -57 15q-22 0 -33.5 -11t-11.5 -25q0 -15 21 -28.5t51 -27t60.5 -30.5t51.5 -45t21 -63q0 -69 -41.5 -108.5t-118.5 -39.5q-52 0 -94 21t-66 51q-10 13 -10 21q0 12 9 21l28 31q9 9 21 9q13 0 22 -11q41 -53 90 -53q22 0 40.5 13t18.5 35q0 18 -21.5 35
t-52 31t-61.5 30t-52.5 41t-21.5 56q0 61 41 101t109 40q42 0 68 -8.5t54 -29.5q11 -8 11 -22q0 -12 -9 -21l-25 -28q-9 -9 -21 -9q-4 0 -9 2t-8 4zM132 -238l48 163q5 18 23 18q9 0 15 -2l26 -10q19 -7 19 -25q0 -6 -3 -13l-61 -161q-7 -17 -24 -17q-9 0 -15 2l-13 5
q-18 7 -18 25q0 6 3 15z" />
    <glyph glyph-name="uni021A" unicode="&#x21a;" horiz-adv-x="476" 
d="M236 -53q27 0 46 -18.5t19 -46.5l-67 -136l-41 21l25 51q-21 6 -34.5 24t-13.5 40q0 28 19 46.5t47 18.5zM186 603h-145q-12 0 -21 8.5t-9 21.5v41q0 13 9 21.5t21 8.5h394q12 0 21 -8.5t9 -21.5v-41q0 -13 -9 -21.5t-21 -8.5h-145v-573q0 -13 -9 -21.5t-21 -8.5h-44
q-12 0 -21 8.5t-9 21.5v573z" />
    <glyph glyph-name="uni021B" unicode="&#x21b;" horiz-adv-x="314" 
d="M188 -53q27 0 46 -18.5t19 -46.5l-67 -136l-41 21l25 51q-21 6 -34.5 24t-13.5 40q0 28 19 46.5t47 18.5zM264 -10q-20 0 -42 5t-46 18t-43 32t-31.5 50t-12.5 69v176h-33q-13 0 -21.5 9t-8.5 21v32q0 12 8.5 21t21.5 9h33v118q0 13 9 21.5t21 8.5h34q12 0 21 -8.5
t9 -21.5v-118h80q13 0 21.5 -9t8.5 -21v-32q0 -12 -8.5 -21t-21.5 -9h-80v-177q0 -32 20 -48t61 -26q30 -8 30 -30v-39q0 -12 -8.5 -21t-21.5 -9z" />
    <glyph glyph-name="dotlessj" unicode="&#x237;" horiz-adv-x="236" 
d="M175 402v-366q0 -51 -17.5 -92.5t-44 -65t-54.5 -36t-53 -12.5q-13 0 -21.5 8t-8.5 20v40q0 18 30 26q35 7 55 28.5t20 52.5v397q0 13 9 21.5t21 8.5h34q12 0 21 -8.5t9 -21.5z" />
    <glyph glyph-name="circumflex" unicode="&#x2c6;" horiz-adv-x="508" 
d="M254 680q12 0 28 -22l99 -135q16 -19 16 -29q0 -11 -22 -11h-32q-9 0 -18 5t-14 10l-5 5l-52 66l-52 -66q-17 -20 -37 -20h-33q-22 0 -22 11q0 5 17 29l99 135q16 22 28 22z" />
    <glyph glyph-name="caron" unicode="&#x2c7;" horiz-adv-x="508" 
d="M254 500q-12 0 -28 22l-99 135q-17 24 -17 29q0 11 22 11h33q9 0 18 -5t14 -10l5 -5l52 -66l52 66q17 20 37 20h32q22 0 22 -11q0 -10 -16 -29l-99 -135q-16 -22 -28 -22z" />
    <glyph glyph-name="breve" unicode="&#x2d8;" horiz-adv-x="452" 
d="M226 495q-74 0 -109 41q-9 13 -9 21q0 10 17 25t25 15q10 0 18 -11q20 -26 58 -26t58 26q8 11 18 11q8 0 25 -15t17 -25q0 -8 -9 -21q-35 -41 -109 -41z" />
    <glyph glyph-name="dotaccent" unicode="&#x2d9;" horiz-adv-x="486" 
d="M191 568q0 22 15 37t37 15t37 -15t15 -37t-15 -37t-37 -15t-37 15t-15 37z" />
    <glyph glyph-name="ring" unicode="&#x2da;" horiz-adv-x="546" 
d="M273 491q-33 0 -57.5 23t-24.5 55t24.5 55t57.5 23t57.5 -23t24.5 -55t-24.5 -55t-57.5 -23zM273 588q-10 0 -16 -5.5t-6 -13.5t6 -13.5t16 -5.5q21 0 21 19q0 8 -6 13.5t-15 5.5z" />
    <glyph glyph-name="ogonek" unicode="&#x2db;" horiz-adv-x="657" 
d="M353 -190q-36 2 -62.5 13t-39 25t-19 27.5t-7.5 22.5l-1 10q1 10 4.5 20t7 16.5t12 16t12 13t14.5 14t14 12.5h107q-9 -5 -22 -13.5t-34.5 -30.5t-21.5 -40t71 -36q17 -5 17 -17q0 -9 -7 -20l-10 -14q-15 -19 -35 -19z" />
    <glyph glyph-name="tilde" unicode="&#x2dc;" horiz-adv-x="418" 
d="M253 566q7 0 10 7q5 17 27 17h27q18 0 18 -17q0 -25 -20 -53.5t-62 -28.5q-21 0 -45.5 14t-42.5 14q-7 0 -10 -7q-5 -17 -27 -17h-27q-18 0 -18 17q0 25 20 53.5t62 28.5q21 0 45.5 -14t42.5 -14z" />
    <glyph glyph-name="hungarumlaut" unicode="&#x2dd;" horiz-adv-x="477" 
d="M123 556l107 113q7 7 17 7q13 0 21 -11l19 -24q6 -7 6 -18q0 -13 -12 -23l-122 -94q-9 -7 -17 -7t-15 9l-10 13q-6 7 -6 14t12 21zM292 556l107 113q7 7 17 7q13 0 21 -11l19 -24q6 -7 6 -18q0 -13 -12 -23l-122 -94q-9 -7 -17 -7q-7 0 -15 9l-10 13q-6 7 -6 14t12 21z
" />
    <glyph glyph-name="uni03A9" unicode="&#x3a9;" horiz-adv-x="586" 
d="M293 631q-66 0 -111 -78t-45 -190q0 -234 101 -267q12 -4 21 -13.5t9 -21.5v-31q0 -12 -8.5 -21t-21.5 -9h-176q-13 0 -21.5 9t-8.5 21v31q0 12 8.5 21t21.5 9h49q-79 97 -79 272q0 169 73 258t188 89t188 -89t73 -258q0 -175 -79 -272h49q13 0 21.5 -9t8.5 -21v-31
q0 -12 -8.5 -21t-21.5 -9h-176q-13 0 -21.5 9t-8.5 21v31q0 12 9 21.5t21 13.5q101 33 101 267q0 112 -45 190t-111 78z" />
    <glyph glyph-name="pi" unicode="&#x3c0;" horiz-adv-x="582" 
d="M541 343h-88v-161q0 -41 22.5 -60.5t65.5 -30.5q30 -8 30 -30v-31q0 -12 -8.5 -21t-21.5 -9q-11 0 -29.5 3.5t-46 16t-50.5 31.5t-40 54.5t-17 81.5v156h-108v-313q0 -13 -9 -21.5t-21 -8.5h-35q-12 0 -21 8.5t-9 21.5v313h-88q-13 0 -21.5 9t-8.5 21v29q0 12 8.5 21
t21.5 9h474q13 0 21.5 -9t8.5 -21v-29q0 -12 -8.5 -21t-21.5 -9z" />
    <glyph glyph-name="Wgrave" unicode="&#x1e80;" horiz-adv-x="905" 
d="M452 714q5 0 10 -4.5t7 -9.5l2 -4l163 -417l8 -40l7 40l141 395q11 30 36 30h40q34 0 34 -13l-4 -21l-237 -662q-5 -18 -17 -18q-5 0 -9.5 4.5t-6.5 9.5l-2 4l-168 437l-4 40l-4 -40l-168 -437q-6 -18 -18 -18q-5 0 -9.5 4.5t-6.5 9.5l-1 4l-237 662q-4 14 -4 21
q0 13 34 13h40q25 0 36 -30l141 -395l7 -40l8 40l163 417q7 18 19 18zM437 943l107 -113q12 -14 12 -21t-6 -14l-10 -13q-8 -9 -15 -9q-8 0 -17 7l-122 94q-12 10 -12 23q0 11 6 18l19 24q8 11 21 11q10 0 17 -7z" />
    <glyph glyph-name="wgrave" unicode="&#x1e81;" horiz-adv-x="656" 
d="M328 442q7 0 14 -7t10 -14l3 -7l92 -229l4 -30l4 30l93 217q14 30 41 30h34q28 0 28 -13l-6 -17l-170 -384q-12 -28 -24 -28q-6 0 -12 7t-9 14l-4 7l-94 223l-4 30l-4 -30l-94 -223q-12 -28 -25 -28q-5 0 -11 7t-10 14l-3 7l-170 384q-6 13 -6 17q0 13 28 13h34
q27 0 41 -30l93 -217l4 -30l4 30l92 229q11 28 27 28zM303 673l107 -113q12 -14 12 -21t-6 -14l-10 -13q-8 -9 -15 -9q-8 0 -17 7l-122 94q-12 10 -12 23q0 11 6 18l19 24q8 11 21 11q10 0 17 -7z" />
    <glyph glyph-name="Wacute" unicode="&#x1e82;" horiz-adv-x="905" 
d="M452 714q5 0 10 -4.5t7 -9.5l2 -4l163 -417l8 -40l7 40l141 395q11 30 36 30h40q34 0 34 -13l-4 -21l-237 -662q-5 -18 -17 -18q-5 0 -9.5 4.5t-6.5 9.5l-2 4l-168 437l-4 40l-4 -40l-168 -437q-6 -18 -18 -18q-5 0 -9.5 4.5t-6.5 9.5l-1 4l-237 662q-4 14 -4 21
q0 13 34 13h40q25 0 36 -30l141 -395l7 -40l8 40l163 417q7 18 19 18zM360 830l107 113q7 7 17 7q13 0 21 -11l19 -24q6 -7 6 -18q0 -13 -12 -23l-122 -94q-9 -7 -17 -7q-7 0 -15 9l-10 13q-6 7 -6 14t12 21z" />
    <glyph glyph-name="wacute" unicode="&#x1e83;" horiz-adv-x="656" 
d="M328 442q7 0 14 -7t10 -14l3 -7l92 -229l4 -30l4 30l93 217q14 30 41 30h34q28 0 28 -13l-6 -17l-170 -384q-12 -28 -24 -28q-6 0 -12 7t-9 14l-4 7l-94 223l-4 30l-4 -30l-94 -223q-12 -28 -25 -28q-5 0 -11 7t-10 14l-3 7l-170 384q-6 13 -6 17q0 13 28 13h34
q27 0 41 -30l93 -217l4 -30l4 30l92 229q11 28 27 28zM246 560l107 113q7 7 17 7q13 0 21 -11l19 -24q6 -7 6 -18q0 -13 -12 -23l-122 -94q-9 -7 -17 -7q-7 0 -15 9l-10 13q-6 7 -6 14t12 21z" />
    <glyph glyph-name="Wdieresis" unicode="&#x1e84;" horiz-adv-x="905" 
d="M452 714q5 0 10 -4.5t7 -9.5l2 -4l163 -417l8 -40l7 40l141 395q11 30 36 30h40q34 0 34 -13l-4 -21l-237 -662q-5 -18 -17 -18q-5 0 -9.5 4.5t-6.5 9.5l-2 4l-168 437l-4 40l-4 -40l-168 -437q-6 -18 -18 -18q-5 0 -9.5 4.5t-6.5 9.5l-1 4l-237 662q-4 14 -4 21
q0 13 34 13h40q25 0 36 -30l141 -395l7 -40l8 40l163 417q7 18 19 18zM328 830q0 22 15 37t37 15t37 -15t15 -37t-15 -37t-37 -15t-37 15t-15 37zM471 830q0 22 15 37t37 15t37 -15t15 -37t-15 -37t-37 -15t-37 15t-15 37z" />
    <glyph glyph-name="wdieresis" unicode="&#x1e85;" horiz-adv-x="656" 
d="M328 442q7 0 14 -7t10 -14l3 -7l92 -229l4 -30l4 30l93 217q14 30 41 30h34q28 0 28 -13l-6 -17l-170 -384q-12 -28 -24 -28q-6 0 -12 7t-9 14l-4 7l-94 223l-4 30l-4 -30l-94 -223q-12 -28 -25 -28q-5 0 -11 7t-10 14l-3 7l-170 384q-6 13 -6 17q0 13 28 13h34
q27 0 41 -30l93 -217l4 -30l4 30l92 229q11 28 27 28zM205 560q0 22 15 37t37 15t37 -15t15 -37t-15 -37t-37 -15t-37 15t-15 37zM348 560q0 22 15 37t37 15t37 -15t15 -37t-15 -37t-37 -15t-37 15t-15 37z" />
    <glyph glyph-name="Ygrave" unicode="&#x1ef2;" horiz-adv-x="616" 
d="M340 442l147 232q20 30 41 30h53q38 0 38 -13q0 -3 -2.5 -8.5t-5.5 -9.5l-3 -4l-216 -335v-304q0 -12 -8.5 -21t-21.5 -9h-44q-13 0 -21.5 9t-8.5 21v304l-216 335q-11 15 -11 22q0 13 38 13h53q9 0 19.5 -7.5t16.5 -14.5l5 -8zM324 943l107 -113q12 -14 12 -21t-6 -14
l-10 -13q-7 -9 -15 -9t-17 7l-122 94q-12 10 -12 23q0 11 6 18l19 24q8 11 21 11q10 0 17 -7z" />
    <glyph glyph-name="ygrave" unicode="&#x1ef3;" horiz-adv-x="426" 
d="M35 -85h21q4 0 13 3t23.5 13.5t22.5 27.5l50 107l-153 336q-6 14 -6 19q0 11 28 11h38q27 0 41 -30l97 -214l4 -30l4 30l96 214q14 30 41 30h38q28 0 28 -11l-6 -19l-220 -483q-15 -25 -35 -43.5t-35.5 -26.5t-32.5 -13t-23.5 -5.5t-12.5 -0.5h-21q-13 0 -21.5 9t-8.5 21
v25q0 12 8.5 21t21.5 9zM188 673l107 -113q12 -14 12 -21t-6 -14l-10 -13q-7 -9 -15 -9t-17 7l-122 94q-12 10 -12 23q0 11 6 18l19 24q8 11 21 11q10 0 17 -7z" />
    <glyph glyph-name="endash" unicode="&#x2013;" horiz-adv-x="414" 
d="M50 329h314q13 0 21.5 -9t8.5 -21v-19q0 -12 -8.5 -21t-21.5 -9h-314q-13 0 -21.5 9t-8.5 21v19q0 12 8.5 21t21.5 9z" />
    <glyph glyph-name="emdash" unicode="&#x2014;" horiz-adv-x="580" 
d="M50 329h480q13 0 21.5 -9t8.5 -21v-19q0 -12 -8.5 -21t-21.5 -9h-480q-13 0 -21.5 9t-8.5 21v19q0 12 8.5 21t21.5 9z" />
    <glyph glyph-name="quoteleft" unicode="&#x2018;" horiz-adv-x="207" 
d="M34 495l92 188q9 18 22 18q8 0 16.5 -5.5t8.5 -12.5q0 -9 -3 -15l-53 -109q21 -6 34.5 -24t13.5 -40q0 -28 -19 -46.5t-47 -18.5q-27 0 -46 18.5t-19 46.5z" />
    <glyph glyph-name="quoteright" unicode="&#x2019;" horiz-adv-x="256" 
d="M196 645l-92 -188q-9 -18 -22 -18q-8 0 -16.5 5.5t-8.5 12.5q0 9 3 15l53 109q-21 6 -34.5 24t-13.5 40q0 28 19 46.5t47 18.5q27 0 46 -18.5t19 -46.5z" />
    <glyph glyph-name="quotesinglbase" unicode="&#x201a;" horiz-adv-x="253" 
d="M196 65l-92 -188q-9 -18 -22 -18q-8 0 -16.5 5.5t-8.5 12.5q0 9 3 15l53 109q-21 6 -34.5 24t-13.5 40q0 28 19 46.5t47 18.5q27 0 46 -18.5t19 -46.5z" />
    <glyph glyph-name="quotedblleft" unicode="&#x201c;" horiz-adv-x="405" 
d="M57 495l92 188q9 18 22 18q8 0 16.5 -5.5t8.5 -12.5q0 -9 -3 -15l-53 -109q21 -6 34.5 -24t13.5 -40q0 -28 -19 -46.5t-47 -18.5q-27 0 -46 18.5t-19 46.5zM237 495l92 188q9 18 22 18q8 0 16.5 -5.5t8.5 -12.5q0 -9 -3 -15l-53 -109q21 -6 34.5 -24t13.5 -40
q0 -28 -19 -46.5t-47 -18.5q-27 0 -46 18.5t-19 46.5z" />
    <glyph glyph-name="quotedblright" unicode="&#x201d;" horiz-adv-x="431" 
d="M371 646l-92 -188q-9 -18 -22 -18q-8 0 -16.5 5.5t-8.5 12.5q0 9 3 15l53 109q-21 6 -34.5 24t-13.5 40q0 28 19 46.5t47 18.5q27 0 46 -18.5t19 -46.5zM191 646l-92 -188q-9 -18 -22 -18q-8 0 -16.5 5.5t-8.5 12.5q0 9 3 15l53 109q-21 6 -34.5 24t-13.5 40
q0 28 19 46.5t47 18.5q27 0 46 -18.5t19 -46.5z" />
    <glyph glyph-name="quotedblbase" unicode="&#x201e;" horiz-adv-x="449" 
d="M196 65l-92 -188q-9 -18 -22 -18q-8 0 -16.5 5.5t-8.5 12.5q0 9 3 15l53 109q-21 6 -34.5 24t-13.5 40q0 28 19 46.5t47 18.5q27 0 46 -18.5t19 -46.5zM392 65l-92 -188q-9 -18 -22 -18q-8 0 -16.5 5.5t-8.5 12.5q0 9 3 15l53 109q-21 6 -34.5 24t-13.5 40q0 28 19 46.5
t47 18.5q27 0 46 -18.5t19 -46.5z" />
    <glyph glyph-name="dagger" unicode="&#x2020;" horiz-adv-x="374" 
d="M233 350v-320q0 -13 -9 -21.5t-21 -8.5h-32q-12 0 -21 8.5t-9 21.5v320l-85 -4q-3 0 -8 1t-13.5 8.5t-8.5 20.5v30q0 13 7.5 20.5t14.5 8.5l8 1l85 -4v116q0 13 9 21.5t21 8.5h32q12 0 21 -8.5t9 -21.5v-116l85 4q3 0 8 -1t13.5 -8.5t8.5 -20.5v-30q0 -13 -7.5 -20.5
t-14.5 -8.5l-8 -1z" />
    <glyph glyph-name="daggerdbl" unicode="&#x2021;" horiz-adv-x="374" 
d="M233 -1v-117q0 -13 -9 -21.5t-21 -8.5h-32q-12 0 -21 8.5t-9 21.5v117l-85 -4q-3 0 -8 1t-13.5 8.5t-8.5 20.5v30q0 13 7.5 20.5t14.5 8.5l8 1l85 -4v269l-85 -4q-3 0 -8 1t-13.5 8.5t-8.5 20.5v30q0 13 7.5 20.5t14.5 8.5l8 1l85 -4v116q0 13 9 21.5t21 8.5h32
q12 0 21 -8.5t9 -21.5v-116l85 4q3 0 8 -1t13.5 -8.5t8.5 -20.5v-30q0 -13 -7.5 -20.5t-14.5 -8.5l-8 -1l-85 4v-269l85 4q3 0 8 -1t13.5 -8.5t8.5 -20.5v-30q0 -13 -7.5 -20.5t-14.5 -8.5l-8 -1z" />
    <glyph glyph-name="bullet" unicode="&#x2022;" horiz-adv-x="579" 
d="M222 363q0 28 19.5 48t47.5 20q29 0 48.5 -19.5t19.5 -48.5q0 -28 -20 -47.5t-48 -19.5t-47.5 19.5t-19.5 47.5z" />
    <glyph glyph-name="ellipsis" unicode="&#x2026;" horiz-adv-x="738" 
d="M537 56q0 23 16.5 39.5t39.5 16.5t39.5 -16.5t16.5 -39.5t-16.5 -39.5t-39.5 -16.5t-39.5 16.5t-16.5 39.5zM89 56q0 23 16.5 39.5t39.5 16.5t39.5 -16.5t16.5 -39.5t-16.5 -39.5t-39.5 -16.5t-39.5 16.5t-16.5 39.5zM313 56q0 23 16.5 39.5t39.5 16.5t39.5 -16.5
t16.5 -39.5t-16.5 -39.5t-39.5 -16.5t-39.5 16.5t-16.5 39.5z" />
    <glyph glyph-name="perthousand" unicode="&#x2030;" horiz-adv-x="1117" 
d="M896 -20q-68 0 -107.5 52.5t-39.5 138.5t39.5 138.5t107.5 52.5q66 0 106 -53t40 -138q0 -86 -40 -138.5t-106 -52.5zM184 338q-67 0 -106.5 52.5t-39.5 138.5q0 85 39.5 138t106.5 53t107 -53t40 -138q0 -86 -40 -138.5t-107 -52.5zM569 -20q-68 0 -107.5 52.5
t-39.5 138.5t39.5 138.5t107.5 52.5q66 0 106 -53t40 -138q0 -86 -40 -138.5t-106 -52.5zM896 277q-22 0 -38.5 -28t-16.5 -78t16.5 -78t38.5 -28q21 0 37.5 28t16.5 78t-16.5 78t-37.5 28zM184 635q-22 0 -38.5 -28t-16.5 -78t16.5 -78t38.5 -28q21 0 37.5 28t16.5 78
t-16.5 78t-37.5 28zM569 277q-22 0 -38.5 -28t-16.5 -78t16.5 -78t38.5 -28q21 0 37.5 28t16.5 78t-16.5 78t-37.5 28zM784 507l-686 -348q-12 -5 -17 -5q-13 0 -13 34v29q0 29 30 41l686 349q11 5 17 5q13 0 13 -34v-30q0 -29 -30 -41z" />
    <glyph glyph-name="guilsinglleft" unicode="&#x2039;" horiz-adv-x="489" 
d="M390 344l-193 -157l193 -157q9 -9 9 -17q0 -13 -38 -13h-65q-32 0 -57 23l-176 143q-18 14 -18 21t18 21l176 143q25 23 57 23h65q38 0 38 -13q0 -8 -9 -17z" />
    <glyph glyph-name="guilsinglright" unicode="&#x203a;" horiz-adv-x="489" 
d="M292 187l-193 157q-9 9 -9 17q0 13 38 13h65q32 0 57 -23l176 -143q18 -14 18 -21t-18 -21l-176 -143q-25 -23 -57 -23h-65q-38 0 -38 13q0 8 9 17z" />
    <glyph glyph-name="exclamdbl" unicode="&#x203c;" horiz-adv-x="581" 
d="M257 36q0 23 -16.5 40t-39.5 17t-40 -17t-17 -40t17 -39.5t40 -16.5t39.5 16.5t16.5 39.5zM246 674l-7 -503q0 -13 -9 -21.5t-21 -8.5h-17q-12 0 -21 8.5t-9 21.5l-7 503q0 13 9 21.5t21 8.5h31q12 0 21 -8.5t9 -21.5zM437 36q0 23 -16.5 40t-39.5 17t-40 -17t-17 -40
t17 -39.5t40 -16.5t39.5 16.5t16.5 39.5zM426 674l-7 -503q0 -13 -9 -21.5t-21 -8.5h-17q-12 0 -21 8.5t-9 21.5l-7 503q0 13 9 21.5t21 8.5h31q12 0 21 -8.5t9 -21.5z" />
    <glyph glyph-name="fraction" unicode="&#x2044;" horiz-adv-x="429" 
d="M100 30q-17 -30 -42 -30h-35q-30 0 -30 13q0 7 5 17l314 644q15 30 42 30h35q30 0 30 -13l-5 -17z" />
    <glyph glyph-name="zero.numerator" unicode="&#x2070;" horiz-adv-x="319" 
d="M159 340q-63 0 -101 51.5t-38 135.5q0 83 38 135t101 52t101.5 -52t38.5 -135q0 -84 -38.5 -135.5t-101.5 -51.5zM159 631q-21 0 -36.5 -27.5t-15.5 -76.5t15.5 -76.5t36.5 -27.5t36.5 27.5t15.5 76.5t-15.5 76.5t-36.5 27.5z" />
    <glyph glyph-name="four.numerator" unicode="&#x2074;" horiz-adv-x="359" 
d="M299 666v-150h10q13 0 21.5 -9t8.5 -21v-20q0 -12 -8.5 -21t-21.5 -9h-10v-56q0 -13 -9 -21.5t-21 -8.5h-25q-12 0 -21 8.5t-9 21.5v56h-137q-38 0 -38 11q0 13 26 39l186 189q27 29 37 29q11 0 11 -38zM214 516v42l-38 -42h38z" />
    <glyph glyph-name="five.numerator" unicode="&#x2075;" horiz-adv-x="300" 
d="M40 390q-9 9 -9 21t9 21l20 19q9 9 21 9t19 -9q20 -29 45 -29q22 0 36.5 14.5t14.5 34.5q0 19 -15 33.5t-36 14.5q-31 0 -92 -33q-14 -7 -21 -7q-9 0 -9 8l2 14l29 173q5 30 30 30h146q12 0 21 -8.5t9 -21.5v-21q0 -13 -9 -21.5t-21 -8.5h-98l-3 -23q5 1 16 1
q56 0 95.5 -38t39.5 -92q0 -55 -39.5 -93t-95.5 -38q-62 0 -105 50z" />
    <glyph glyph-name="six.numerator" unicode="&#x2076;" horiz-adv-x="312" 
d="M177 666l-26 -66q59 0 100 -37.5t41 -92.5q0 -54 -39.5 -92t-95.5 -38t-96.5 38t-40.5 92q0 22 8 44l63 160q11 30 37 30h32q14 0 18.5 -3t4.5 -15zM157 518q-22 0 -37 -14t-15 -34t15 -34t37 -14q21 0 36 14t15 34t-15 34t-36 14z" />
    <glyph glyph-name="seven.numerator" unicode="&#x2077;" horiz-adv-x="340" 
d="M58 704h213q38 0 38 -11t-21 -48l-158 -265q-18 -30 -42 -30h-33q-31 0 -31 13q0 7 11 25l144 237h-121q-12 0 -21 8.5t-9 21.5v19q0 13 9 21.5t21 8.5z" />
    <glyph glyph-name="eight.numerator" unicode="&#x2078;" horiz-adv-x="289" 
d="M144 340q-51 0 -87.5 35t-36.5 85t33 83q-20 28 -20 64q0 44 32.5 75.5t77.5 31.5t77.5 -31.5t32.5 -75.5q0 -35 -19 -63q35 -33 35 -84q0 -50 -37 -85t-88 -35zM143 631q-11 0 -18.5 -7.5t-7.5 -16.5q0 -11 7.5 -18t18.5 -7t19 7.5t8 17.5q0 9 -8 16.5t-19 7.5zM144 498
q-17 0 -28 -11t-11 -27q0 -15 11 -26t28 -11t28.5 11t11.5 26q0 16 -11 27t-29 11z" />
    <glyph glyph-name="nine.numerator" unicode="&#x2079;" horiz-adv-x="312" 
d="M135 388l26 66q-59 0 -100 37.5t-41 92.5q0 54 39.5 92t95.5 38t96.5 -38t40.5 -92q0 -22 -8 -44l-63 -160q-11 -30 -37 -30h-32q-14 0 -18.5 3t-4.5 15zM155 536q22 0 37 14t15 34t-15 34t-37 14q-21 0 -36 -14t-15 -34t15 -34t36 -14z" />
    <glyph glyph-name="parenleft.numerator" unicode="&#x207d;" horiz-adv-x="167" 
d="M95 473q0 -135 39 -156q14 -7 14 -23v-22q0 -29 -24 -29l-6 1q-39 9 -68.5 67t-29.5 162t29.5 162t68.5 67q5 1 6 1q24 0 24 -29v-22q0 -16 -14 -23q-39 -21 -39 -156z" />
    <glyph glyph-name="parenright.numerator" unicode="&#x207e;" horiz-adv-x="167" 
d="M73 473q0 135 -39 156q-14 7 -14 23v22q0 29 24 29l6 -1q39 -9 68.5 -67t29.5 -162t-29.5 -162t-68.5 -67q-5 -1 -6 -1q-24 0 -24 29v22q0 16 14 23q39 21 39 156z" />
    <glyph glyph-name="franc" unicode="&#x20a3;" horiz-adv-x="616" 
d="M120 184h45v490q0 13 9 21.5t21 8.5h341q12 0 21 -8.5t9 -21.5v-41q0 -13 -9 -21.5t-21 -8.5h-267v-182h239q12 0 21 -8.5t9 -21.5v-40q0 -13 -9 -21.5t-21 -8.5h-239v-137h120q13 0 21.5 -9t8.5 -21v-40q0 -12 -8.5 -21t-21.5 -9h-120v-54q0 -13 -9 -21.5t-21 -8.5h-44
q-12 0 -21 8.5t-9 21.5v54h-45q-13 0 -21.5 9t-8.5 21v40q0 12 8.5 21t21.5 9z" />
    <glyph glyph-name="lira" unicode="&#x20a4;" horiz-adv-x="592" 
d="M85 397h45v28q0 88 62 150.5t149 62.5q59 0 109 -32t78 -86q9 -18 9 -23q0 -12 -9 -21l-40 -40q-9 -9 -21 -9q-5 0 -9.5 3.5t-6.5 6.5l-2 3q-25 51 -48.5 72.5t-59.5 21.5q-44 0 -76 -32.5t-32 -76.5v-28h121q13 0 21.5 -9t8.5 -21v-30q0 -12 -8.5 -21t-21.5 -9h-121v-43
h121q13 0 21.5 -9t8.5 -21v-30q0 -12 -8.5 -21t-21.5 -9h-121v-41q16 0 96 -29t106 -29q11 0 34 21q17 17 25 17q9 0 17 -16l18 -41q6 -15 6 -23q0 -7 -12 -19q-41 -34 -88 -34q-33 0 -109 29t-105 29q-42 0 -84 -40q-15 -12 -22 -12q-10 0 -19 9l-33 45q-9 13 -9 21
q0 10 11 21q29 32 65 43v49h-45q-13 0 -21.5 9t-8.5 21v30q0 12 8.5 21t21.5 9h45v43h-45q-13 0 -21.5 9t-8.5 21v30q0 12 8.5 21t21.5 9z" />
    <glyph glyph-name="Euro" unicode="&#x20ac;" horiz-adv-x="809" 
d="M102 306h57q-2 28 -2 43h-55q-13 0 -21.5 9t-8.5 21v30q0 12 8.5 21t21.5 9h65q30 124 129.5 204.5t228.5 80.5q86 0 164 -39q30 -15 30 -39v-63q0 -34 -13 -34q-3 0 -9.5 3.5t-11.5 7.5l-5 4q-73 54 -155 54q-84 0 -147 -49.5t-88 -129.5h104q13 0 21.5 -9t8.5 -21v-30
q0 -12 -8.5 -21t-21.5 -9h-117q0 -22 3 -43h114q13 0 21.5 -9t8.5 -21v-31q0 -12 -8.5 -21t-21.5 -9h-84q32 -60 88 -94.5t127 -34.5q82 0 155 54q19 15 26 15q13 0 13 -34v-63q0 -24 -30 -39q-78 -39 -164 -39q-115 0 -208 65t-134 170h-81q-13 0 -21.5 9t-8.5 21v31
q0 12 8.5 21t21.5 9z" />
    <glyph glyph-name="uni2113" unicode="&#x2113;" horiz-adv-x="376" 
d="M115 223q72 46 109 112t37 115q0 65 -39 65q-47 0 -78.5 -79t-31.5 -164q0 -28 3 -49zM118 200q16 -91 38 -135t56 -44q25 0 46.5 18.5t35.5 37.5t21 19q11 0 11 -24q0 -23 -29 -52.5t-86 -29.5q-74 0 -117.5 71t-43.5 214q0 50 16.5 105.5t58 102t97.5 46.5q30 0 49 -23
t19 -60q0 -54 -42 -119t-130 -127z" />
    <glyph glyph-name="trademark" unicode="&#x2122;" horiz-adv-x="626" 
d="M530 675l21 -296q0 -12 -10 -20.5t-25 -8.5q-33 0 -39 29l-10 130l-67 -138q-13 -29 -27 -29q-6 0 -12.5 7t-10.5 15l-4 7l-69 137l-10 -129q-1 -12 -11.5 -20.5t-26.5 -8.5q-15 0 -25.5 8.5t-10.5 20.5l18 251h-56v-251q0 -12 -10.5 -20.5t-26.5 -8.5q-15 0 -26 8.5
t-11 20.5v251h-53q-12 0 -20.5 9.5t-8.5 25.5q0 15 8.5 25t20.5 10h207q9 0 17 -6t12 -12l3 -7l106 -213l104 213q6 14 13 19.5t24 5.5q14 0 16 -25z" />
    <glyph glyph-name="Omega" unicode="&#x2126;" horiz-adv-x="586" 
d="M293 631q-66 0 -111 -78t-45 -190q0 -234 101 -267q12 -4 21 -13.5t9 -21.5v-31q0 -12 -8.5 -21t-21.5 -9h-176q-13 0 -21.5 9t-8.5 21v31q0 12 8.5 21t21.5 9h49q-79 97 -79 272q0 169 73 258t188 89t188 -89t73 -258q0 -175 -79 -272h49q13 0 21.5 -9t8.5 -21v-31
q0 -12 -8.5 -21t-21.5 -9h-176q-13 0 -21.5 9t-8.5 21v31q0 12 9 21.5t21 13.5q101 33 101 267q0 112 -45 190t-111 78z" />
    <glyph glyph-name="partialdiff" unicode="&#x2202;" horiz-adv-x="565" 
d="M184 -10q-73 0 -115 41.5t-42 98.5q0 123 92 212.5t199 89.5q70 0 109 -26q-7 96 -48.5 161.5t-114.5 65.5q-13 0 -26.5 5.5t-20.5 11.5t-7 9q0 16 22 33.5t50 17.5q108 0 172 -93t64 -225q0 -94 -33.5 -173t-84.5 -127.5t-108 -75t-108 -26.5zM316 358q-55 0 -100 -40
t-66.5 -90.5t-21.5 -93.5q0 -69 67 -69q69 0 132.5 65.5t63.5 147.5q0 80 -75 80z" />
    <glyph glyph-name="Delta" unicode="&#x2206;" horiz-adv-x="672" 
d="M489 91l-153 383l-153 -383h306zM576 0h-480q-38 0 -38 11q0 12 17 51l247 623q12 29 14 29t14 -29l247 -623q17 -39 17 -51q0 -11 -38 -11z" />
    <glyph glyph-name="product" unicode="&#x220f;" horiz-adv-x="626" 
d="M442 30v579h-258v-579q0 -13 -9 -21.5t-21 -8.5h-34q-12 0 -21 8.5t-9 21.5v644q0 13 9 21.5t21 8.5h386q12 0 21 -8.5t9 -21.5v-644q0 -13 -9 -21.5t-21 -8.5h-34q-12 0 -21 8.5t-9 21.5z" />
    <glyph glyph-name="summation" unicode="&#x2211;" horiz-adv-x="545" 
d="M51 111l222 241l-222 241q-23 25 -23 49v32q0 12 8.5 21t21.5 9h412q13 0 21.5 -9t8.5 -21v-34q0 -12 -8.5 -21t-21.5 -9h-301l217 -229q18 -18 18 -29q0 -5 -4.5 -12t-9.5 -12l-4 -5l-217 -229h301q13 0 21.5 -9t8.5 -21v-34q0 -12 -8.5 -21t-21.5 -9h-412
q-13 0 -21.5 9t-8.5 21v32q0 24 23 49z" />
    <glyph glyph-name="minus" unicode="&#x2212;" horiz-adv-x="514" 
d="M91 430h331q13 0 21.5 -9t8.5 -21v-29q0 -12 -8.5 -21t-21.5 -9h-331q-13 0 -21.5 9t-8.5 21v29q0 12 8.5 21t21.5 9z" />
    <glyph glyph-name="radical" unicode="&#x221a;" horiz-adv-x="648" 
d="M163 296l91 -240l233 614q12 30 41 30h37q34 0 34 -13l-5 -17l-311 -822q-8 -22 -25 -22q-8 0 -14 5.5t-8 10.5l-3 6l-113 296l-36 -36q-9 -9 -21 -9t-21 9l-33 33q-9 9 -9 21q0 13 9 22l111 112q19 20 27 20q4 0 8 -5t6 -10z" />
    <glyph glyph-name="infinity" unicode="&#x221e;" horiz-adv-x="754" 
d="M211 91q44 1 75.5 32.5t31.5 75.5t-31.5 75.5t-75.5 31.5q-45 0 -76.5 -31.5t-31.5 -75.5q1 -44 32.5 -75.5t75.5 -32.5zM356 76q-55 -68 -145 -68q-79 0 -135 56t-56 135t56 135t135 56q87 0 143 -66q31 45 79.5 71.5t105.5 26.5q91 0 155.5 -65t64.5 -156t-64.5 -156
t-155.5 -65q-114 0 -183 96zM538 64q58 0 97.5 40t39.5 97t-39.5 97t-97.5 40q-57 0 -96.5 -40t-39.5 -97t39.5 -96.5t96.5 -40.5z" />
    <glyph glyph-name="integral" unicode="&#x222b;" horiz-adv-x="482" 
d="M194 23v487q0 51 18.5 92.5t46 64.5t56.5 35t54 12q13 0 21.5 -9t8.5 -21v-39q0 -22 -30 -30q-36 -9 -58.5 -36t-22.5 -58v-487q0 -51 -18.5 -92.5t-46 -64.5t-56.5 -35t-54 -12q-13 0 -21.5 9t-8.5 21v39q0 22 30 30q36 9 58.5 36t22.5 58z" />
    <glyph glyph-name="approxequal" unicode="&#x2248;" horiz-adv-x="543" 
d="M410 75q-42 0 -74.5 9t-52.5 22t-39 26t-47 22t-64 9q-6 0 -15 -7t-12 -21q-2 -12 -11 -21t-21 -9h-33q-12 0 -21 8t-9 19q0 35 31.5 74t92.5 39q42 0 74.5 -9t52.5 -22t39 -26t47 -22t64 -9q6 0 15 7t12 21q2 12 11 21t21 9h33q12 0 21 -8t9 -19q0 -35 -31.5 -74
t-92.5 -39zM408 242q-52 0 -90 14t-57 30t-52.5 30t-77.5 14q-6 0 -15 -7t-12 -21q-2 -12 -11 -21t-21 -9h-33q-12 0 -21 8t-9 19q0 35 31.5 74t92.5 39q52 0 90 -14t57 -30t52.5 -30t77.5 -14q6 0 15 7t12 21q2 12 11 21t21 9h33q12 0 21 -8t9 -19q0 -35 -31.5 -74
t-92.5 -39z" />
    <glyph glyph-name="notequal" unicode="&#x2260;" 
d="M68 373h115l17 42h-132q-13 0 -21.5 9t-8.5 21v31q0 12 8.5 21t21.5 9h169l67 168q12 30 41 30h36q34 0 34 -13l-5 -17l-68 -168h57q13 0 21.5 -9t8.5 -21v-31q0 -12 -8.5 -21t-21.5 -9h-93l-17 -42h110q13 0 21.5 -9t8.5 -21v-31q0 -12 -8.5 -21t-21.5 -9h-147
l-101 -252q-12 -30 -41 -30h-35q-34 0 -34 13l5 17l101 252h-79q-13 0 -21.5 9t-8.5 21v31q0 12 8.5 21t21.5 9z" />
    <glyph glyph-name="lessequal" unicode="&#x2264;" horiz-adv-x="469" 
d="M68 91h331q13 0 21.5 -9t8.5 -21v-31q0 -12 -8.5 -21t-21.5 -9h-331q-13 0 -21.5 9t-8.5 21v31q0 12 8.5 21t21.5 9zM386 568l-178 -149l178 -149q30 -25 30 -51v-51q0 -38 -13 -38q-3 0 -10 4t-12 8l-5 4l-304 252q-18 15 -18 21t18 21l304 252q20 16 27 16q13 0 13 -38
v-51q0 -12 -7.5 -24.5t-14.5 -19.5z" />
    <glyph glyph-name="greaterequal" unicode="&#x2265;" horiz-adv-x="469" 
d="M399 91h-331q-13 0 -21.5 -9t-8.5 -21v-31q0 -12 8.5 -21t21.5 -9h331q13 0 21.5 9t8.5 21v31q0 12 -8.5 21t-21.5 9zM259 419l-178 149q-30 25 -30 51v51q0 38 13 38q3 0 10 -4t12 -8l5 -4l304 -252q18 -15 18 -21t-18 -21l-304 -252q-20 -16 -27 -16q-13 0 -13 38v51
q0 12 7.5 24.5t15.5 19.5l7 7z" />
    <glyph glyph-name="lozenge" unicode="&#x25ca;" horiz-adv-x="563" 
d="M297 145l110 205l-110 203l-110 -203zM83 349l10 28l166 306q17 31 38 31t38 -31l166 -306q10 -19 10 -28l-10 -28l-166 -306q-17 -31 -38 -31t-38 31l-166 306q-10 19 -10 28z" />
    <glyph glyph-name="commaaccent" unicode="&#xf6c3;" horiz-adv-x="26" 
d="M-170 -70l48 163q5 18 23 18q9 0 15 -2l26 -10q19 -7 19 -25q0 -6 -3 -13l-61 -161q-7 -17 -24 -17q-9 0 -15 2l-13 5q-18 7 -18 25q0 6 3 15z" />
    <glyph glyph-name="apple" unicode="&#xf8ff;" horiz-adv-x="790" 
d="M640 187q-57 -114 -88 -144q-38 -42 -85 -42q-17 0 -56 14q-32 14 -52 14q-23 0 -55 -14q-44 -14 -54 -14q-28 0 -53 20q-22 13 -53 54q-46 59 -70 126q-23 65 -23 127q0 92 53 151t137 59q26 0 65 -15q35 -14 50 -14q19 0 55 14q33 15 63 15q48 0 85 -18q37 -15 67 -52
q-44 -28 -66 -60q-19 -38 -19 -77q0 -45 25 -85q28 -39 74 -59zM355 547q0 50 40 96q36 41 100 58v-12q1 -2 1 -15q0 -56 -43 -99q-41 -44 -86 -44h-12v16z" />
    <glyph glyph-name="f_f" unicode="&#xfb00;" horiz-adv-x="649" 
d="M609 714q13 0 21.5 -9t8.5 -21v-39q0 -22 -30 -30q-36 -9 -58.5 -36t-22.5 -58v-89h80q13 0 21.5 -9t8.5 -21v-32q0 -12 -8.5 -21t-21.5 -9h-80v-310q0 -13 -9 -21.5t-21 -8.5h-34q-12 0 -21 8.5t-9 21.5v310h-243v-310q0 -13 -9 -21.5t-21 -8.5h-34q-12 0 -21 8.5
t-9 21.5v310h-33q-13 0 -21.5 9t-8.5 21v32q0 12 8.5 21t21.5 9h33v78q0 51 18.5 92.5t46 64.5t56.5 35t54 12q13 0 21.5 -9t8.5 -21v-39q0 -22 -30 -30q-36 -9 -58.5 -36t-22.5 -58v-89h243v78q0 51 18.5 92.5t46 64.5t56.5 35t54 12z" />
    <glyph glyph-name="f_i" unicode="&#xfb01;" horiz-adv-x="528" 
d="M475 402v-372q0 -13 -9 -21.5t-21 -8.5h-34q-12 0 -21 8.5t-9 21.5v310h-190v-310q0 -13 -9 -21.5t-21 -8.5h-34q-12 0 -21 8.5t-9 21.5v310h-33q-13 0 -21.5 9t-8.5 21v32q0 12 8.5 21t21.5 9h33v78q0 51 18.5 92.5t46 64.5t56.5 35t54 12q13 0 21.5 -9t8.5 -21v-39
q0 -22 -30 -30q-36 -9 -58.5 -36t-22.5 -58v-89h254q12 0 21 -8.5t9 -21.5z" />
    <glyph glyph-name="f_l" unicode="&#xfb02;" horiz-adv-x="535" 
d="M381 30v585h-109q-31 0 -56 -31t-25 -63v-89h80q13 0 21.5 -9t8.5 -21v-32q0 -12 -8.5 -21t-21.5 -9h-80v-310q0 -13 -9 -21.5t-21 -8.5h-34q-12 0 -21 8.5t-9 21.5v310h-33q-13 0 -21.5 9t-8.5 21v32q0 12 8.5 21t21.5 9h33v78q0 51 18.5 92.5t46 64.5t56.5 35t54 12
h173q12 0 21 -8.5t9 -21.5v-654q0 -13 -9 -21.5t-21 -8.5h-34q-12 0 -21 8.5t-9 21.5z" />
    <glyph glyph-name="f_f_i" unicode="&#xfb03;" horiz-adv-x="872" 
d="M434 432v78q0 51 18.5 92.5t46 64.5t56.5 35t54 12q13 0 21.5 -9t8.5 -21v-39q0 -22 -30 -30q-36 -9 -58.5 -36t-22.5 -58v-89h254q12 0 21 -8.5t9 -21.5v-372q0 -13 -9 -21.5t-21 -8.5h-34q-12 0 -21 8.5t-9 21.5v310h-190v-310q0 -13 -9 -21.5t-21 -8.5h-34
q-12 0 -21 8.5t-9 21.5v310h-243v-310q0 -13 -9 -21.5t-21 -8.5h-34q-12 0 -21 8.5t-9 21.5v310h-33q-13 0 -21.5 9t-8.5 21v32q0 12 8.5 21t21.5 9h33v78q0 51 18.5 92.5t46 64.5t56.5 35t54 12q13 0 21.5 -9t8.5 -21v-39q0 -22 -30 -30q-36 -9 -58.5 -36t-22.5 -58v-89
h243z" />
    <glyph glyph-name="f_f_l" unicode="&#xfb04;" horiz-adv-x="888" 
d="M450 432v78q0 51 18.5 92.5t46 64.5t56.5 35t54 12h173q12 0 21 -8.5t9 -21.5v-654q0 -13 -9 -21.5t-21 -8.5h-34q-12 0 -21 8.5t-9 21.5v585h-109q-31 0 -56 -31t-25 -63v-89h80q13 0 21.5 -9t8.5 -21v-32q0 -12 -8.5 -21t-21.5 -9h-80v-310q0 -13 -9 -21.5t-21 -8.5
h-34q-12 0 -21 8.5t-9 21.5v310h-243v-310q0 -13 -9 -21.5t-21 -8.5h-34q-12 0 -21 8.5t-9 21.5v310h-33q-13 0 -21.5 9t-8.5 21v32q0 12 8.5 21t21.5 9h33v78q0 51 18.5 92.5t46 64.5t56.5 35t54 12q13 0 21.5 -9t8.5 -21v-39q0 -22 -30 -30q-36 -9 -58.5 -36t-22.5 -58
v-89h243z" />
    <glyph glyph-name="s_t" unicode="&#xfb06;" horiz-adv-x="716" 
d="M585 340v-177q0 -32 20 -48t61 -26q30 -8 30 -30v-39q0 -12 -8.5 -21t-21.5 -9q-20 0 -42 5t-46 18t-43 32t-31.5 50t-12.5 69v176h-33q-13 0 -21.5 9t-8.5 21v32q0 12 8.5 21t21.5 9h33q0 26 -20 50t-50 24q-28 0 -45 -23.5t-17 -50.5v-29q0 -6 -2.5 -12t-5.5 -9l-3 -4
l-32 -35q-9 -9 -21 -9q-4 0 -9 2t-8 4l-4 3q-22 15 -57 15q-22 0 -33.5 -11t-11.5 -25q0 -15 21 -28.5t51 -27t60.5 -30.5t51.5 -45t21 -63q0 -69 -41.5 -108.5t-118.5 -39.5q-52 0 -94 21t-66 51q-10 13 -10 21q0 12 9 21l28 31q9 9 21 9q13 0 22 -11q41 -53 90 -53
q22 0 40.5 13t18.5 35q0 18 -21.5 35t-52 31t-61.5 30t-52.5 41t-21.5 56q0 61 41 101t109 40l51 -4q7 63 46 107t107 44q74 0 118.5 -50.5t44.5 -116.5h81q13 0 21.5 -9t8.5 -21v-32q0 -12 -8.5 -21t-21.5 -9h-80z" />
    <glyph glyph-name="ELEFUNT" horiz-adv-x="675" 
d="M50 315v229l77 -25v-34l-46 18v-73h35v-31h-35v-54h46v-30h-77zM280 430h345v-31h-20v-399h-31v399h-294v-84h-77v30h45v54h-35v31h35v73l-45 -18v34l77 25v-114zM517 84v103h31v-187h-43l-46 193v-193h-29v277h41zM371 30v157h31v-187h-94v158h-64v-28h34v-30h-34v-100
h-30v100h-64v299h30v-269h34v57h125v-157h32z" />
    <glyph glyph-name="zero.denominator" horiz-adv-x="319" 
d="M159 -10q-63 0 -101 51.5t-38 135.5q0 83 38 135t101 52t101.5 -52t38.5 -135q0 -84 -38.5 -135.5t-101.5 -51.5zM159 281q-21 0 -36.5 -27.5t-15.5 -76.5t15.5 -76.5t36.5 -27.5t36.5 27.5t15.5 76.5t-15.5 76.5t-36.5 27.5z" />
    <glyph glyph-name="one.denominator" horiz-adv-x="190" 
d="M92 30v137l9 19q-17 -19 -21 -19q-11 0 -20 9l-19 21q-9 9 -9 21q0 13 9 22l97 100q15 14 21 14q8 0 9.5 -5t1.5 -23v-296q0 -13 -9 -21.5t-21 -8.5h-18q-12 0 -21 8.5t-9 21.5z" />
    <glyph glyph-name="two.denominator" horiz-adv-x="321" 
d="M271 0h-189q-38 0 -38 11q0 10 26 38q138 141 138 199q0 14 -10 24t-25 10q-11 0 -19 -7.5t-22 -34.5q-6 -9 -21 -9q-12 0 -21 9l-18 18q-9 9 -9 21q0 13 7 25q37 60 103 60q49 0 84 -34t35 -82q0 -30 -15 -64.5t-27.5 -52.5t-37.5 -51h59q13 0 21.5 -9t8.5 -21v-20
q0 -12 -8.5 -21t-21.5 -9z" />
    <glyph glyph-name="three.denominator" horiz-adv-x="280" 
d="M118 259q-11 -30 -31 -30h-27q-12 0 -20.5 5.5t-8.5 15.5l1 9q8 49 39 77t74 28q47 0 81 -33t34 -79q0 -40 -27 -72q27 -34 27 -74q0 -48 -35.5 -82t-84.5 -34q-44 0 -76.5 29t-40.5 80q-1 7 -1 9q0 10 9 15.5t20 5.5h27q20 0 31 -30q8 -26 31 -26q14 0 25 10t11 23
q0 16 -15 26q-30 18 -30 35v31q0 5 1.5 8.5t4.5 6.5t6 5t9 5t9 5q15 8 15 24q0 12 -9 20.5t-22 8.5q-20 0 -27 -22z" />
    <glyph glyph-name="four.denominator" horiz-adv-x="359" 
d="M299 316v-150h10q13 0 21.5 -9t8.5 -21v-20q0 -12 -8.5 -21t-21.5 -9h-10v-56q0 -13 -9 -21.5t-21 -8.5h-25q-12 0 -21 8.5t-9 21.5v56h-137q-38 0 -38 11q0 13 26 39l186 189q27 29 37 29q11 0 11 -38zM214 166v42l-38 -42h38z" />
    <glyph glyph-name="five.denominator" horiz-adv-x="300" 
d="M40 40q-9 9 -9 21t9 21l20 19q9 9 21 9t19 -9q20 -29 45 -29q22 0 36.5 14.5t14.5 34.5q0 19 -15 33.5t-36 14.5q-31 0 -92 -33q-14 -7 -21 -7q-9 0 -9 8l2 14l29 173q5 30 30 30h146q12 0 21 -8.5t9 -21.5v-21q0 -13 -9 -21.5t-21 -8.5h-98l-3 -23q5 1 16 1
q56 0 95.5 -38t39.5 -92q0 -55 -39.5 -93t-95.5 -38q-62 0 -105 50z" />
    <glyph glyph-name="six.denominator" horiz-adv-x="312" 
d="M177 316l-26 -66q59 0 100 -37.5t41 -92.5q0 -54 -39.5 -92t-95.5 -38t-96.5 38t-40.5 92q0 22 8 44l63 160q11 30 37 30h32q14 0 18.5 -3t4.5 -15zM157 168q-22 0 -37 -14t-15 -34t15 -34t37 -14q21 0 36 14t15 34t-15 34t-36 14z" />
    <glyph glyph-name="seven.denominator" horiz-adv-x="340" 
d="M58 354h213q38 0 38 -11t-21 -48l-158 -265q-18 -30 -42 -30h-33q-31 0 -31 13q0 7 11 25l144 237h-121q-12 0 -21 8.5t-9 21.5v19q0 13 9 21.5t21 8.5z" />
    <glyph glyph-name="eight.denominator" horiz-adv-x="289" 
d="M144 -10q-51 0 -87.5 35t-36.5 85t33 83q-20 28 -20 64q0 44 32.5 75.5t77.5 31.5t77.5 -31.5t32.5 -75.5q0 -35 -19 -63q35 -33 35 -84q0 -50 -37 -85t-88 -35zM143 281q-11 0 -18.5 -7.5t-7.5 -16.5q0 -11 7.5 -18t18.5 -7t19 7.5t8 17.5q0 9 -8 16.5t-19 7.5zM144 148
q-17 0 -28 -11t-11 -27q0 -15 11 -26t28 -11t28.5 11t11.5 26q0 16 -11 27t-29 11z" />
    <glyph glyph-name="nine.denominator" horiz-adv-x="312" 
d="M135 38l26 66q-59 0 -100 37.5t-41 92.5q0 54 39.5 92t95.5 38t96.5 -38t40.5 -92q0 -22 -8 -44l-63 -160q-11 -30 -37 -30h-32q-14 0 -18.5 3t-4.5 15zM155 186q22 0 37 14t15 34t-15 34t-37 14q-21 0 -36 -14t-15 -34t15 -34t36 -14z" />
    <glyph glyph-name="parenleft.denominator" horiz-adv-x="167" 
d="M95 123q0 -135 39 -156q14 -7 14 -23v-22q0 -29 -24 -29l-6 1q-39 9 -68.5 67t-29.5 162t29.5 162t68.5 67q5 1 6 1q24 0 24 -29v-22q0 -16 -14 -23q-39 -21 -39 -156z" />
    <glyph glyph-name="parenright.denominator" horiz-adv-x="167" 
d="M73 123q0 135 -39 156q-14 7 -14 23v22q0 29 24 29l6 -1q39 -9 68.5 -67t29.5 -162t-29.5 -162t-68.5 -67q-5 -1 -6 -1q-24 0 -24 29v22q0 16 14 23q39 21 39 156z" />
    <glyph glyph-name="C_o" horiz-adv-x="1210" 
d="M927 360q-59 0 -101 -42t-42 -101t42 -101t101 -42t101 42t42 101t-42 101t-101 42zM440 618q-108 0 -183 -77.5t-75 -188.5t75 -188.5t183 -77.5q132 0 251 130q0 98 69 167t167 69t167 -69t69 -167t-69 -167t-167 -69q-68 0 -123 33.5t-85 91.5q-111 -125 -279 -125
q-152 0 -260 109t-108 263t108 263t260 109q86 0 164 -39q30 -15 30 -39v-63q0 -34 -13 -34q-3 0 -9.5 3.5t-11.5 7.5l-5 4q-73 54 -155 54z" />
    <glyph glyph-name="c_h" horiz-adv-x="928" 
d="M868 236v-206q0 -13 -9 -21.5t-21 -8.5h-33q-12 0 -21 8.5t-9 21.5v187q0 60 -21 101t-68 41q-63 0 -100 -80v-249q0 -13 -9 -21.5t-21 -8.5h-34q-12 0 -21 8.5t-9 21.5v72q-26 -57 -83 -89.5t-129 -32.5q-97 0 -165 69t-68 168q0 98 68 166.5t165 68.5q48 0 93 -19
q31 -11 31 -36v-65q0 -20 -15 -20q-5 0 -15 8q-43 39 -94 39q-58 0 -99 -41.5t-41 -100.5t41 -100.5t99 -41.5q67 0 123 50.5t89 130.5v418q0 13 9 21.5t21 8.5h34q12 0 21 -8.5t9 -21.5v-270q50 48 100 48q182 0 182 -216z" />
    <glyph glyph-name="c_k" horiz-adv-x="868" 
d="M652 251l198 -219q13 -13 13 -19q0 -13 -39 -13h-34q-27 0 -45 19l-159 175v-164q0 -13 -9 -21.5t-21 -8.5h-34q-12 0 -21 8.5t-9 21.5v72q-26 -57 -83 -89.5t-129 -32.5q-97 0 -165 69t-68 168q0 98 68 166.5t165 68.5q48 0 93 -19q31 -11 31 -36v-65q0 -20 -15 -20
q-5 0 -15 8q-43 39 -94 39q-58 0 -99 -41.5t-41 -100.5t41 -100.5t99 -41.5q67 0 123 50.5t89 130.5v418q0 13 9 21.5t21 8.5h34q12 0 21 -8.5t9 -21.5v-372l127 112q21 18 44 18h37q39 0 39 -13q0 -9 -13 -19z" />
    <glyph glyph-name="c_l" horiz-adv-x="646" 
d="M492 256v428q0 13 9 21.5t21 8.5h34q12 0 21 -8.5t9 -21.5v-654q0 -13 -9 -21.5t-21 -8.5h-34q-12 0 -21 8.5t-9 21.5v72q-26 -57 -83 -89.5t-129 -32.5q-97 0 -165 69t-68 168q0 98 68 166.5t165 68.5q48 0 93 -19q31 -11 31 -36v-65q0 -20 -15 -20q-5 0 -15 8
q-43 39 -94 39q-58 0 -99 -41.5t-41 -100.5t41 -100.5t99 -41.5q67 0 123 50.5t89 130.5z" />
    <glyph glyph-name="c_t" horiz-adv-x="761" 
d="M629 432h81q13 0 21.5 -9t8.5 -21v-32q0 -12 -8.5 -21t-21.5 -9h-80v-177q0 -32 20 -48t61 -26q30 -8 30 -30v-39q0 -12 -8.5 -21t-21.5 -9q-20 0 -42 5t-46 18t-43 32t-31.5 50t-12.5 69v176h-33q-13 0 -21.5 9t-8.5 21v32q0 12 8.5 21t21.5 9h33q0 26 -20 50t-50 24
q-28 0 -45 -23.5t-17 -50.5v-100q0 -20 -15 -20q-5 0 -15 8q-43 39 -94 39q-58 0 -99 -41.5t-41 -100.5t41 -100.5t99 -41.5q51 0 94 39q10 8 15 8q15 0 15 -20v-67q0 -25 -31 -36q-45 -19 -93 -19q-97 0 -165 69t-68 168q0 98 68 166.5t165 68.5q22 0 33 -2q8 63 46.5 106
t106.5 43q74 0 118.5 -50.5t44.5 -116.5z" />
    <glyph glyph-name="c_t_i" horiz-adv-x="977" 
d="M630 340v-177q0 -32 19.5 -48t60.5 -26q30 -8 30 -30v-39q0 -12 -8.5 -21t-21.5 -9q-26 0 -54 9t-56 27.5t-46 54.5t-18 83v176h-34q-13 0 -21.5 9t-8.5 21v32q0 12 8.5 21t21.5 9h34q0 26 -20 50t-50 24q-28 0 -45 -23.5t-17 -50.5v-100q0 -20 -15 -20q-5 0 -15 8
q-43 39 -94 39q-58 0 -99 -41.5t-41 -100.5t41 -100.5t99 -41.5q51 0 94 39q10 8 15 8q15 0 15 -20v-67q0 -25 -31 -36q-45 -19 -93 -19q-97 0 -165 69t-68 168q0 98 68 166.5t165 68.5q22 0 33 -2q8 63 46.5 106t106.5 43q74 0 119 -50.5t45 -116.5h254q13 0 21.5 -9
t8.5 -21v-372q0 -13 -9 -21.5t-21 -8.5h-34q-12 0 -21 8.5t-9 21.5v310h-190zM812 523q0 23 16.5 39.5t39.5 16.5t39.5 -16.5t16.5 -39.5t-16.5 -39.5t-39.5 -16.5t-39.5 16.5t-16.5 39.5z" />
    <glyph glyph-name="f_b" horiz-adv-x="870" 
d="M191 340v-310q0 -13 -9 -21.5t-21 -8.5h-34q-12 0 -21 8.5t-9 21.5v310h-33q-13 0 -21.5 9t-8.5 21v32q0 12 8.5 21t21.5 9h33v78q0 51 18.5 92.5t46 64.5t56.5 35t54 12h173q12 0 21 -8.5t9 -21.5v-280q23 23 57.5 35.5t62.5 12.5q99 0 163.5 -66t64.5 -165
q0 -101 -65 -171t-163 -70q-70 0 -120 50q0 -13 -9 -21.5t-21 -8.5h-34q-12 0 -21 8.5t-9 21.5v310h-190zM381 432v183h-109q-31 0 -56 -31t-25 -63v-89h190zM595 361q-44 0 -87 -36t-43 -104q0 -43 14.5 -74.5t36 -46.5t41.5 -22t38 -7q52 0 88.5 44.5t36.5 105.5
q0 54 -37 97t-88 43z" />
    <glyph glyph-name="f_j" horiz-adv-x="533" 
d="M480 402v-366q0 -51 -17.5 -92.5t-44 -65t-54.5 -36t-53 -12.5q-13 0 -21.5 8t-8.5 20v40q0 18 30 26q35 7 55 28.5t20 52.5v335h-195v-310q0 -13 -9 -21.5t-21 -8.5h-34q-12 0 -21 8.5t-9 21.5v310h-33q-13 0 -21.5 9t-8.5 21v32q0 12 8.5 21t21.5 9h33v78
q0 51 18.5 92.5t46 64.5t56.5 35t54 12q13 0 21.5 -9t8.5 -21v-39q0 -22 -30 -30q-36 -9 -58.5 -36t-22.5 -58v-89h259q12 0 21 -8.5t9 -21.5z" />
    <glyph glyph-name="f_k" horiz-adv-x="757" 
d="M541 251l198 -219q13 -13 13 -19q0 -13 -39 -13h-34q-27 0 -45 19l-159 175v-164q0 -13 -9 -21.5t-21 -8.5h-34q-12 0 -21 8.5t-9 21.5v310h-190v-310q0 -13 -9 -21.5t-21 -8.5h-34q-12 0 -21 8.5t-9 21.5v310h-33q-13 0 -21.5 9t-8.5 21v32q0 12 8.5 21t21.5 9h33v78
q0 51 18.5 92.5t46 64.5t56.5 35t54 12h173q12 0 21 -8.5t9 -21.5v-377l122 107q21 18 44 18h42q39 0 39 -13q0 -9 -13 -19zM381 432v183h-109q-31 0 -56 -31t-25 -63v-89h190z" />
    <glyph glyph-name="f_f_j" horiz-adv-x="847" 
d="M404 30v310h-243v-310q0 -13 -9 -21.5t-21 -8.5h-34q-12 0 -21 8.5t-9 21.5v310h-33q-13 0 -21.5 9t-8.5 21v32q0 12 8.5 21t21.5 9h33v78q0 51 18.5 92.5t46 64.5t56.5 35t54 12q13 0 21.5 -9t8.5 -21v-39q0 -22 -30 -30q-36 -9 -58.5 -36t-22.5 -58v-89h243v78
q0 51 18.5 92.5t46 64.5t56.5 35t54 12q13 0 21.5 -9t8.5 -21v-39q0 -22 -30 -30q-36 -9 -58.5 -36t-22.5 -58v-89h259q12 0 21 -8.5t9 -21.5v-366q0 -51 -17.5 -92.5t-44 -65t-54.5 -36t-53 -12.5q-13 0 -21.5 8t-8.5 20v40q0 18 30 26q35 7 55 28.5t20 52.5v335h-195v-310
q0 -13 -9 -21.5t-21 -8.5h-34q-12 0 -21 8.5t-9 21.5z" />
    <glyph glyph-name="f_t" horiz-adv-x="669" 
d="M538 340v-177q0 -32 20 -48t61 -26q30 -8 30 -30v-39q0 -12 -8.5 -21t-21.5 -9q-20 0 -42 5t-46 18t-43 32t-31.5 50t-12.5 69v176h-253v-310q0 -13 -9 -21.5t-21 -8.5h-34q-12 0 -21 8.5t-9 21.5v310h-33q-13 0 -21.5 9t-8.5 21v32q0 12 8.5 21t21.5 9h33v78
q0 51 18.5 92.5t46 64.5t56.5 35t54 12q13 0 21.5 -9t8.5 -21v-39q0 -22 -30 -30q-36 -9 -58.5 -36t-22.5 -58v-89h253v118q0 13 9 21.5t21 8.5h34q12 0 21 -8.5t9 -21.5v-118h80q13 0 21.5 -9t8.5 -21v-32q0 -12 -8.5 -21t-21.5 -9h-80z" />
    <glyph glyph-name="f_u" horiz-adv-x="817" 
d="M381 196v144h-190v-310q0 -13 -9 -21.5t-21 -8.5h-34q-12 0 -21 8.5t-9 21.5v310h-33q-13 0 -21.5 9t-8.5 21v32q0 12 8.5 21t21.5 9h33v78q0 51 18.5 92.5t46 64.5t56.5 35t54 12q13 0 21.5 -9t8.5 -21v-39q0 -22 -30 -30q-36 -9 -58.5 -36t-22.5 -58v-89h254
q12 0 21 -8.5t9 -21.5v-187q0 -60 20.5 -101t67.5 -41q63 0 100 80v249q0 13 9 21.5t21 8.5h34q12 0 21 -8.5t9 -21.5v-372q0 -13 -9 -21.5t-21 -8.5h-34q-12 0 -21 8.5t-9 19.5q-49 -48 -100 -48q-182 0 -182 216z" />
    <glyph glyph-name="i_n" horiz-adv-x="681" 
d="M53 523q0 23 16.5 39.5t39.5 16.5t39.5 -16.5t16.5 -39.5t-16.5 -39.5t-39.5 -16.5t-39.5 16.5t-16.5 39.5zM245 402v-282q0 -19 -13 -32t-32 -13t-32 13t-13 32v282q0 13 -9 21.5t-21 8.5h-34q-12 0 -21 -8.5t-9 -21.5v-282q0 -58 40.5 -98.5t98.5 -40.5t98.5 40.5
t40.5 98.5v159q37 80 100 80q47 0 67.5 -41t20.5 -101v-187q0 -13 9 -21.5t21 -8.5h34q12 0 21 8.5t9 21.5v206q0 216 -182 216q-51 0 -100 -48q0 11 -9 19.5t-21 8.5h-34q-12 0 -21 -8.5t-9 -21.5z" />
    <glyph glyph-name="i_s" horiz-adv-x="616" 
d="M240 84l37 41q8 9 20 9q13 0 22 -11q41 -53 90 -53q22 0 40.5 13t18.5 35q0 18 -21.5 35t-52 31t-61.5 30t-52.5 41t-21.5 56q0 61 41 101t109 40q42 0 68 -8.5t54 -29.5q11 -8 11 -22q0 -12 -9 -21l-25 -28q-9 -9 -21 -9q-4 0 -9 2t-8 4l-4 3q-22 15 -57 15
q-22 0 -33.5 -11t-11.5 -25q0 -15 21 -28.5t51 -27t60.5 -30.5t51.5 -45t21 -63q0 -69 -41.5 -108.5t-118.5 -39.5q-67 0 -118 34q-39 -34 -91 -34q-58 0 -98.5 40.5t-40.5 98.5v283q0 13 9 21.5t21 8.5h34q12 0 21 -8.5t9 -21.5v-283q0 -19 13 -32t32 -13q30 0 40 10z
M53 523q0 23 16.5 39.5t39.5 16.5t39.5 -16.5t16.5 -39.5t-16.5 -39.5t-39.5 -16.5t-39.5 16.5t-16.5 39.5z" />
    <glyph glyph-name="o_o" horiz-adv-x="968" 
d="M283 360q-59 0 -101 -42t-42 -101t42 -101t101 -42t101 42t42 101t-42 101t-101 42zM484 340q31 51 84.5 81.5t116.5 30.5q98 0 167 -69t69 -167t-69 -167t-167 -69q-63 0 -116.5 30.5t-84.5 81.5q-31 -51 -84.5 -81.5t-116.5 -30.5q-98 0 -167 69t-69 167t69 167t167 69
q63 0 116.5 -30.5t84.5 -81.5zM685 360q-59 0 -101 -42t-42 -101t42 -101t101 -42t101 42t42 101t-42 101t-101 42z" />
    <glyph glyph-name="T_h" horiz-adv-x="976" 
d="M916 236v-206q0 -13 -9 -21.5t-21 -8.5h-33q-12 0 -21 8.5t-9 21.5v187q0 60 -21 101t-68 41q-63 0 -100 -80v-249q0 -13 -9 -21.5t-21 -8.5h-34q-12 0 -21 8.5t-9 21.5v573h-250v-573q0 -13 -9 -21.5t-21 -8.5h-44q-12 0 -21 8.5t-9 21.5v573h-145q-12 0 -21 8.5
t-9 21.5v41q0 13 9 21.5t21 8.5h563q12 0 21 -8.5t9 -21.5v-270q50 48 100 48q182 0 182 -216z" />
    <glyph glyph-name="t_h" horiz-adv-x="809" 
d="M749 236v-206q0 -13 -9 -21.5t-21 -8.5h-33q-12 0 -21 8.5t-9 21.5v187q0 60 -21 101t-68 41q-63 0 -100 -80v-249q0 -13 -9 -21.5t-21 -8.5h-34q-12 0 -21 8.5t-9 21.5v310h-190v-177q0 -32 20 -48t61 -26q30 -8 30 -30v-39q0 -12 -8.5 -21t-21.5 -9q-20 0 -42 5t-46 18
t-43 32t-31.5 50t-12.5 69v176h-33q-13 0 -21.5 9t-8.5 21v32q0 12 8.5 21t21.5 9h33v118q0 13 9 21.5t21 8.5h34q12 0 21 -8.5t9 -21.5v-118h190v242q0 13 9 21.5t21 8.5h34q12 0 21 -8.5t9 -21.5v-270q49 48 100 48q182 0 182 -216z" />
    <glyph glyph-name="t_i" horiz-adv-x="530" 
d="M183 432h254q13 0 21.5 -9t8.5 -21v-372q0 -13 -9 -21.5t-21 -8.5h-34q-12 0 -21 8.5t-9 21.5v310h-190v-177q0 -32 20 -48t61 -26q30 -8 30 -30v-39q0 -12 -8.5 -21t-21.5 -9q-20 0 -42 5t-46 18t-43 32t-31.5 50t-12.5 69v176h-33q-13 0 -21.5 9t-8.5 21v32
q0 12 8.5 21t21.5 9h33v118q0 13 9 21.5t21 8.5h34q12 0 21 -8.5t9 -21.5v-118zM365 523q0 23 16.5 39.5t39.5 16.5t39.5 -16.5t16.5 -39.5t-16.5 -39.5t-39.5 -16.5t-39.5 16.5t-16.5 39.5z" />
    <glyph glyph-name="t_o" horiz-adv-x="872" 
d="M589 360q-59 0 -101 -42t-42 -101t42 -101t101 -42t101 42t42 101t-42 101t-101 42zM183 432h311q45 20 95 20q98 0 167 -69t69 -167t-69 -167t-167 -69t-167 69t-69 167q0 67 35 124h-205v-177q0 -32 20 -48t61 -26q30 -8 30 -30v-39q0 -12 -8.5 -21t-21.5 -9
q-20 0 -42 5t-46 18t-43 32t-31.5 50t-12.5 69v176h-33q-13 0 -21.5 9t-8.5 21v32q0 12 8.5 21t21.5 9h33v118q0 13 9 21.5t21 8.5h34q12 0 21 -8.5t9 -21.5v-118z" />
    <glyph glyph-name="t_t" horiz-adv-x="641" 
d="M416 432v118q0 13 9 21.5t21 8.5h34q12 0 21 -8.5t9 -21.5v-118h80q13 0 21.5 -9t8.5 -21v-32q0 -12 -8.5 -21t-21.5 -9h-80v-177q0 -32 20 -48t61 -26q30 -8 30 -30v-39q0 -12 -8.5 -21t-21.5 -9q-20 0 -42 5t-46 18t-43 32t-31.5 50t-12.5 69v176h-233v-177
q0 -32 20 -48t61 -26q30 -8 30 -30v-39q0 -12 -8.5 -21t-21.5 -9q-20 0 -42 5t-46 18t-43 32t-31.5 50t-12.5 69v176h-33q-13 0 -21.5 9t-8.5 21v32q0 12 8.5 21t21.5 9h33v118q0 13 9 21.5t21 8.5h34q12 0 21 -8.5t9 -21.5v-118h233z" />
    <glyph glyph-name="t_u" horiz-adv-x="789" 
d="M353 196v144h-190v-177q0 -32 20 -48t61 -26q30 -8 30 -30v-39q0 -12 -8.5 -21t-21.5 -9q-20 0 -42 5t-46 18t-43 32t-31.5 50t-12.5 69v176h-33q-13 0 -21.5 9t-8.5 21v32q0 12 8.5 21t21.5 9h33v118q0 13 9 21.5t21 8.5h34q12 0 21 -8.5t9 -21.5v-118h254q12 0 21 -8.5
t9 -21.5v-187q0 -60 20.5 -101t67.5 -41q63 0 100 80v249q0 13 9 21.5t21 8.5h34q12 0 21 -8.5t9 -21.5v-372q0 -13 -9 -21.5t-21 -8.5h-34q-12 0 -21 8.5t-9 19.5q-49 -48 -100 -48q-182 0 -182 216z" />
    <glyph glyph-name="u_t" horiz-adv-x="794" 
d="M663 432h80q13 0 21.5 -9t8.5 -21v-32q0 -12 -8.5 -21t-21.5 -9h-80v-177q0 -32 20 -48t61 -26q30 -8 30 -30v-39q0 -12 -8.5 -21t-21.5 -9q-20 0 -42 5t-46 18t-43 32t-31.5 50t-12.5 69v176h-33q-13 0 -21.5 9t-8.5 21v32q0 12 8.5 21t21.5 9h34q0 31 -19.5 52.5
t-50.5 21.5q-30 0 -47 -26.5t-17 -67.5v-382q0 -13 -9 -21.5t-21 -8.5h-34q-12 0 -21 8.5t-9 19.5q-50 -48 -100 -48q-182 0 -182 216v206q0 13 9 21.5t21 8.5h34q12 0 21 -8.5t9 -21.5v-187q0 -60 20.5 -101t67.5 -41q63 0 100 80v275q0 65 44.5 118t113.5 53
q74 0 118.5 -50.5t44.5 -116.5z" />
    <glyph glyph-name="a.salt" horiz-adv-x="549" 
d="M395 30q-50 -50 -120 -50q-98 0 -163 70t-65 171q0 99 64.5 165t163.5 66q28 0 62.5 -12.5t57.5 -35.5q0 11 9 19.5t21 8.5h34q12 0 21 -8.5t9 -21.5v-372q0 -13 -9 -21.5t-21 -8.5h-34q-12 0 -21 8.5t-9 21.5zM275 361q-51 0 -88 -43t-37 -97q0 -61 36.5 -105.5
t88.5 -44.5q18 0 38 7t41.5 22t36 46.5t14.5 74.5q0 68 -43 104t-87 36z" />
    <glyph glyph-name="aacute.salt" horiz-adv-x="549" 
d="M395 30q0 -13 9 -21.5t21 -8.5h34q12 0 21 8.5t9 21.5v372q0 13 -9 21.5t-21 8.5h-34q-12 0 -21 -8.5t-9 -19.5q-23 23 -57.5 35.5t-62.5 12.5q-99 0 -163.5 -66t-64.5 -165q0 -101 65 -171t163 -70q70 0 120 50zM275 361q44 0 87 -36t43 -104q0 -43 -14.5 -74.5
t-36 -46.5t-41.5 -22t-38 -7q-52 0 -88.5 44.5t-36.5 105.5q0 54 37 97t88 43zM187 553l107 113q7 7 17 7q13 0 21 -11l19 -24q6 -7 6 -18q0 -13 -12 -23l-122 -94q-9 -7 -17 -7t-15 9l-10 13q-6 7 -6 14t12 21z" />
    <glyph glyph-name="agrave.salt" horiz-adv-x="549" 
d="M395 30q-50 -50 -120 -50q-98 0 -163 70t-65 171q0 99 64.5 165t163.5 66q28 0 62.5 -12.5t57.5 -35.5q0 11 9 19.5t21 8.5h34q12 0 21 -8.5t9 -21.5v-372q0 -13 -9 -21.5t-21 -8.5h-34q-12 0 -21 8.5t-9 21.5zM275 361q-51 0 -88 -43t-37 -97q0 -61 36.5 -105.5
t88.5 -44.5q18 0 38 7t41.5 22t36 46.5t14.5 74.5q0 68 -43 104t-87 36zM244 673l107 -113q12 -14 12 -21t-6 -14l-10 -13q-7 -9 -15 -9t-17 7l-122 94q-12 10 -12 23q0 11 6 18l19 24q8 11 21 11q10 0 17 -7z" />
    <glyph glyph-name="acircumflex.salt" horiz-adv-x="549" 
d="M395 30q0 -13 9 -21.5t21 -8.5h34q12 0 21 8.5t9 21.5v372q0 13 -9 21.5t-21 8.5h-34q-12 0 -21 -8.5t-9 -19.5q-23 23 -57.5 35.5t-62.5 12.5q-99 0 -163.5 -66t-64.5 -165q0 -101 65 -171t163 -70q70 0 120 50zM275 361q44 0 87 -36t43 -104q0 -43 -14.5 -74.5
t-36 -46.5t-41.5 -22t-38 -7q-52 0 -88.5 44.5t-36.5 105.5q0 54 37 97t88 43zM275 680q12 0 28 -22l99 -135q16 -19 16 -29q0 -11 -22 -11h-32q-9 0 -18 5t-14 10l-5 5l-52 66l-52 -66q-17 -20 -37 -20h-33q-22 0 -22 11q0 5 17 29l99 135q16 22 28 22z" />
    <glyph glyph-name="adieresis.salt" horiz-adv-x="549" 
d="M395 30q0 -13 9 -21.5t21 -8.5h34q12 0 21 8.5t9 21.5v372q0 13 -9 21.5t-21 8.5h-34q-12 0 -21 -8.5t-9 -19.5q-23 23 -57.5 35.5t-62.5 12.5q-99 0 -163.5 -66t-64.5 -165q0 -101 65 -171t163 -70q70 0 120 50zM275 361q44 0 87 -36t43 -104q0 -43 -14.5 -74.5
t-36 -46.5t-41.5 -22t-38 -7q-52 0 -88.5 44.5t-36.5 105.5q0 54 37 97t88 43zM152 560q0 22 15 37t37 15t37 -15t15 -37t-15 -37t-37 -15t-37 15t-15 37zM295 560q0 22 15 37t37 15t37 -15t15 -37t-15 -37t-37 -15t-37 15t-15 37z" />
    <glyph glyph-name="atilde.salt" horiz-adv-x="549" 
d="M395 30q-50 -50 -120 -50q-98 0 -163 70t-65 171q0 99 64.5 165t163.5 66q28 0 62.5 -12.5t57.5 -35.5q0 11 9 19.5t21 8.5h34q12 0 21 -8.5t9 -21.5v-372q0 -13 -9 -21.5t-21 -8.5h-34q-12 0 -21 8.5t-9 21.5zM275 361q-51 0 -88 -43t-37 -97q0 -61 36.5 -105.5
t88.5 -44.5q18 0 38 7t41.5 22t36 46.5t14.5 74.5q0 68 -43 104t-87 36zM313 566q7 0 10 7q5 17 27 17h27q18 0 18 -17q0 -25 -20 -53.5t-62 -28.5q-21 0 -45.5 14t-42.5 14q-7 0 -10 -7q-5 -17 -27 -17h-27q-18 0 -18 17q0 25 20 53.5t62 28.5q21 0 45.5 -14t42.5 -14z" />
    <glyph glyph-name="aring.salt" horiz-adv-x="549" 
d="M395 30q-50 -50 -120 -50q-98 0 -163 70t-65 171q0 99 64.5 165t163.5 66q28 0 62.5 -12.5t57.5 -35.5q0 11 9 19.5t21 8.5h34q12 0 21 -8.5t9 -21.5v-372q0 -13 -9 -21.5t-21 -8.5h-34q-12 0 -21 8.5t-9 21.5zM275 361q-51 0 -88 -43t-37 -97q0 -61 36.5 -105.5
t88.5 -44.5q18 0 38 7t41.5 22t36 46.5t14.5 74.5q0 68 -43 104t-87 36zM275 491q-33 0 -57.5 23t-24.5 55t24.5 55t57.5 23t57.5 -23t24.5 -55t-24.5 -55t-57.5 -23zM275 588q-10 0 -16 -5.5t-6 -13.5t6 -13.5t16 -5.5q21 0 21 19q0 8 -6 13.5t-15 5.5z" />
    <glyph glyph-name="aogonek.salt" horiz-adv-x="540" 
d="M489 402v-366q0 -29 -19 -58l-7 -10.5t-7.5 -11.5t-5.5 -11t-4.5 -14t-1.5 -15q0 -23 53 -36q17 -5 17 -17q0 -9 -7 -20l-9 -13q-15 -19 -35 -19q-30 0 -53.5 9t-35.5 21t-20 27t-10.5 24.5t-2.5 15.5q0 42 54 92v30q-50 -50 -120 -50q-98 0 -163 70t-65 171
q0 99 64.5 165t163.5 66q28 0 62.5 -12.5t57.5 -35.5q0 11 9 19.5t21 8.5h34q12 0 21 -8.5t9 -21.5zM275 361q-51 0 -88 -43t-37 -97q0 -61 36.5 -105.5t88.5 -44.5q18 0 38 7t41.5 22t36 46.5t14.5 74.5q0 68 -43 104t-87 36z" />
    <glyph glyph-name="amacron.salt" horiz-adv-x="549" 
d="M395 30q0 -13 9 -21.5t21 -8.5h34q12 0 21 8.5t9 21.5v372q0 13 -9 21.5t-21 8.5h-34q-12 0 -21 -8.5t-9 -19.5q-23 23 -57.5 35.5t-62.5 12.5q-99 0 -163.5 -66t-64.5 -165q0 -101 65 -171t163 -70q70 0 120 50zM275 361q44 0 87 -36t43 -104q0 -43 -14.5 -74.5
t-36 -46.5t-41.5 -22t-38 -7q-52 0 -88.5 44.5t-36.5 105.5q0 54 37 97t88 43zM172 575h196q13 0 21.5 -9t8.5 -21v-9q0 -12 -8.5 -21t-21.5 -9h-196q-13 0 -21.5 9t-8.5 21v9q0 12 8.5 21t21.5 9z" />
    <glyph glyph-name="abreve.salt" horiz-adv-x="549" 
d="M395 30q-50 -50 -120 -50q-98 0 -163 70t-65 171q0 99 64.5 165t163.5 66q28 0 62.5 -12.5t57.5 -35.5q0 11 9 19.5t21 8.5h34q12 0 21 -8.5t9 -21.5v-372q0 -13 -9 -21.5t-21 -8.5h-34q-12 0 -21 8.5t-9 21.5zM275 361q-51 0 -88 -43t-37 -97q0 -61 36.5 -105.5
t88.5 -44.5q18 0 38 7t41.5 22t36 46.5t14.5 74.5q0 68 -43 104t-87 36zM275 495q-74 0 -109 41q-9 13 -9 21q0 10 17 25t25 15q10 0 18 -11q20 -26 58 -26t58 26q8 11 18 11q8 0 25 -15t17 -25q0 -8 -9 -21q-35 -41 -109 -41z" />
    <glyph glyph-name="g.salt" horiz-adv-x="538" 
d="M269 361q-56 0 -92.5 -42.5t-36.5 -97.5q0 -62 36.5 -106t92.5 -44q17 0 36.5 7t40.5 22.5t34.5 46.5t13.5 74q0 69 -41.5 104.5t-83.5 35.5zM185 -60q35 -35 85 -35q41 0 77.5 26t36.5 74v24q-49 -49 -115 -49q-98 0 -160 70t-62 171q0 100 61.5 165.5t160.5 65.5
q27 0 59.5 -12.5t55.5 -35.5q0 11 9 19.5t21 8.5h34q12 0 21 -8.5t9 -21.5v-353q0 -65 -19 -113.5t-50.5 -74.5t-66.5 -38.5t-72 -12.5q-127 0 -192 120q-11 19 -11 26q0 13 34 13h36q19 0 48 -29z" />
    <glyph glyph-name="gcircumflex.salt" horiz-adv-x="538" 
d="M269 361q-56 0 -92.5 -42.5t-36.5 -97.5q0 -62 36.5 -106t92.5 -44q17 0 36.5 7t40.5 22.5t34.5 46.5t13.5 74q0 69 -41.5 104.5t-83.5 35.5zM185 -60q35 -35 85 -35q41 0 77.5 26t36.5 74v24q-49 -49 -115 -49q-98 0 -160 70t-62 171q0 100 61.5 165.5t160.5 65.5
q27 0 59.5 -12.5t55.5 -35.5q0 11 9 19.5t21 8.5h34q12 0 21 -8.5t9 -21.5v-353q0 -65 -19 -113.5t-50.5 -74.5t-66.5 -38.5t-72 -12.5q-127 0 -192 120q-11 19 -11 26q0 13 34 13h36q19 0 48 -29zM269 680q12 0 28 -22l99 -135q16 -19 16 -29q0 -11 -22 -11h-32q-9 0 -18 5
t-14 10l-5 5l-52 66l-52 -66q-17 -20 -37 -20h-33q-22 0 -22 11q0 5 17 29l99 135q16 22 28 22z" />
    <glyph glyph-name="gbreve.salt" horiz-adv-x="538" 
d="M269 361q-56 0 -92.5 -42.5t-36.5 -97.5q0 -62 36.5 -106t92.5 -44q17 0 36.5 7t40.5 22.5t34.5 46.5t13.5 74q0 69 -41.5 104.5t-83.5 35.5zM185 -60q35 -35 85 -35q41 0 77.5 26t36.5 74v24q-49 -49 -115 -49q-98 0 -160 70t-62 171q0 100 61.5 165.5t160.5 65.5
q27 0 59.5 -12.5t55.5 -35.5q0 11 9 19.5t21 8.5h34q12 0 21 -8.5t9 -21.5v-353q0 -65 -19 -113.5t-50.5 -74.5t-66.5 -38.5t-72 -12.5q-127 0 -192 120q-11 19 -11 26q0 13 34 13h36q19 0 48 -29zM269 495q-74 0 -109 41q-9 13 -9 21q0 10 17 25t25 15q10 0 18 -11
q20 -26 58 -26t58 26q8 11 18 11q8 0 25 -15t17 -25q0 -8 -9 -21q-35 -41 -109 -41z" />
    <glyph glyph-name="gcommaaccent.salt" horiz-adv-x="538" 
d="M269 361q-56 0 -92.5 -42.5t-36.5 -97.5q0 -62 36.5 -106t92.5 -44q17 0 36.5 7t40.5 22.5t34.5 46.5t13.5 74q0 69 -41.5 104.5t-83.5 35.5zM185 -60q35 -35 85 -35q41 0 77.5 26t36.5 74v24q-49 -49 -115 -49q-98 0 -160 70t-62 171q0 100 61.5 165.5t160.5 65.5
q27 0 59.5 -12.5t55.5 -35.5q0 11 9 19.5t21 8.5h34q12 0 21 -8.5t9 -21.5v-353q0 -65 -19 -113.5t-50.5 -74.5t-66.5 -38.5t-72 -12.5q-127 0 -192 120q-11 19 -11 26q0 13 34 13h36q19 0 48 -29zM203 549l92 188q9 18 22 18q8 0 16.5 -5.5t8.5 -12.5q0 -9 -3 -15l-53 -109
q21 -6 34.5 -24t13.5 -40q0 -28 -19 -46.5t-47 -18.5q-27 0 -46 18.5t-19 46.5z" />
    <glyph glyph-name="gdotaccent.salt" horiz-adv-x="538" 
d="M269 361q-56 0 -92.5 -42.5t-36.5 -97.5q0 -62 36.5 -106t92.5 -44q17 0 36.5 7t40.5 22.5t34.5 46.5t13.5 74q0 69 -41.5 104.5t-83.5 35.5zM185 -60q35 -35 85 -35q41 0 77.5 26t36.5 74v24q-49 -49 -115 -49q-98 0 -160 70t-62 171q0 100 61.5 165.5t160.5 65.5
q27 0 59.5 -12.5t55.5 -35.5q0 11 9 19.5t21 8.5h34q12 0 21 -8.5t9 -21.5v-353q0 -65 -19 -113.5t-50.5 -74.5t-66.5 -38.5t-72 -12.5q-127 0 -192 120q-11 19 -11 26q0 13 34 13h36q19 0 48 -29zM217 568q0 22 15 37t37 15t37 -15t15 -37t-15 -37t-37 -15t-37 15t-15 37z
" />
    <glyph glyph-name="y.salt" horiz-adv-x="516" 
d="M456 402v-353q0 -125 -58.5 -182t-139.5 -57q-115 0 -180 120q-11 19 -11 26q0 13 32 13h32q26 0 52 -29q32 -35 75 -35q40 0 72 26t32 74v23q-23 -22 -59 -35t-61 -13q-182 0 -182 216v206q0 13 9 21.5t21 8.5h33q12 0 21 -8.5t9 -21.5v-187q0 -60 21 -101.5t68 -41.5
q32 0 66.5 21t54.5 60v249q0 13 9 21.5t21 8.5h33q12 0 21 -8.5t9 -21.5z" />
    <glyph glyph-name="yacute.salt" horiz-adv-x="516" 
d="M456 402v-353q0 -125 -58.5 -182t-139.5 -57q-115 0 -180 120q-11 19 -11 26q0 13 32 13h32q26 0 52 -29q32 -35 75 -35q40 0 72 26t32 74v23q-23 -22 -59 -35t-61 -13q-182 0 -182 216v206q0 13 9 21.5t21 8.5h33q12 0 21 -8.5t9 -21.5v-187q0 -60 21 -101.5t68 -41.5
q32 0 66.5 21t54.5 60v249q0 13 9 21.5t21 8.5h33q12 0 21 -8.5t9 -21.5zM171 540l107 113q7 7 17 7q13 0 21 -11l19 -24q6 -7 6 -18q0 -13 -12 -23l-122 -94q-9 -7 -17 -7t-15 9l-10 13q-6 7 -6 14t12 21z" />
    <glyph glyph-name="ygrave.salt" horiz-adv-x="516" 
d="M456 402v-353q0 -125 -58.5 -182t-139.5 -57q-115 0 -180 120q-11 19 -11 26q0 13 32 13h32q26 0 52 -29q32 -35 75 -35q40 0 72 26t32 74v23q-23 -22 -59 -35t-61 -13q-182 0 -182 216v206q0 13 9 21.5t21 8.5h33q12 0 21 -8.5t9 -21.5v-187q0 -60 21 -101.5t68 -41.5
q32 0 66.5 21t54.5 60v249q0 13 9 21.5t21 8.5h33q12 0 21 -8.5t9 -21.5zM227 653l107 -113q12 -14 12 -21t-6 -14l-10 -13q-8 -9 -15 -9q-8 0 -17 7l-122 94q-12 10 -12 23q0 11 6 18l19 24q8 11 21 11q10 0 17 -7z" />
    <glyph glyph-name="ycircumflex.salt" horiz-adv-x="516" 
d="M456 402v-353q0 -125 -58.5 -182t-139.5 -57q-115 0 -180 120q-11 19 -11 26q0 13 32 13h32q26 0 52 -29q32 -35 75 -35q40 0 72 26t32 74v23q-23 -22 -59 -35t-61 -13q-182 0 -182 216v206q0 13 9 21.5t21 8.5h33q12 0 21 -8.5t9 -21.5v-187q0 -60 21 -101.5t68 -41.5
q32 0 66.5 21t54.5 60v249q0 13 9 21.5t21 8.5h33q12 0 21 -8.5t9 -21.5zM255 680q12 0 28 -22l99 -135q16 -19 16 -29q0 -11 -22 -11h-32q-9 0 -18 5t-14 10l-5 5l-52 66l-52 -66q-17 -20 -37 -20h-33q-22 0 -22 11q0 5 17 29l99 135q16 22 28 22z" />
    <glyph glyph-name="ydieresis.salt" horiz-adv-x="516" 
d="M456 402v-353q0 -125 -58.5 -182t-139.5 -57q-115 0 -180 120q-11 19 -11 26q0 13 32 13h32q26 0 52 -29q32 -35 75 -35q40 0 72 26t32 74v23q-23 -22 -59 -35t-61 -13q-182 0 -182 216v206q0 13 9 21.5t21 8.5h33q12 0 21 -8.5t9 -21.5v-187q0 -60 21 -101.5t68 -41.5
q32 0 66.5 21t54.5 60v249q0 13 9 21.5t21 8.5h33q12 0 21 -8.5t9 -21.5zM133 557q0 22 15 37t37 15t37 -15t15 -37t-15 -37t-37 -15t-37 15t-15 37zM276 557q0 22 15 37t37 15t37 -15t15 -37t-15 -37t-37 -15t-37 15t-15 37z" />
    </font>
</defs>
</svg>
